<?xml version="1.0" standalone="no"?>
<!DOCTYPE svg PUBLIC "-//W3C//DTD SVG 20010904//EN"
 "http://www.w3.org/TR/2001/REC-SVG-20010904/DTD/svg10.dtd">
<svg version="1.0" xmlns="http://www.w3.org/2000/svg"
 width="430.000000pt" height="650.000000pt" viewBox="0 0 430.000000 650.000000"
 preserveAspectRatio="xMidYMid meet">
<metadata>
Created by potrace 1.16, written by Peter Selinger 2001-2019
</metadata>
<g transform="translate(0.000000,650.000000) scale(0.100000,-0.100000)"
fill="#000000" stroke="none">
<path d="M0 3250 l0 -3250 2150 0 2150 0 0 3250 0 3250 -2150 0 -2150 0 0
-3250z m878 2852 c-11 -15 -11 -15 3 -5 9 7 18 10 21 8 8 -8 -33 -86 -48 -92
-8 -3 -11 -9 -8 -14 3 -5 -9 -12 -26 -15 -17 -4 -28 -9 -25 -12 3 -3 -13 -13
-36 -21 -23 -9 -48 -25 -55 -36 -13 -20 -12 -21 22 -17 24 3 41 -1 54 -13 22
-20 27 -53 8 -52 -36 1 -49 -6 -64 -35 -15 -29 -15 -32 -1 -20 18 15 37 8 37
-14 0 -8 -10 -14 -22 -15 -13 0 -17 -3 -10 -6 22 -9 13 -25 -10 -18 -18 6 -20
5 -11 -5 16 -18 5 -39 -18 -33 -13 4 -19 0 -20 -13 -1 -17 -2 -17 -6 -2 -2 10
-16 21 -29 24 -13 4 -29 15 -35 25 -14 26 -27 16 -50 -39 -14 -32 -23 -42 -28
-33 -6 9 -11 10 -15 2 -5 -7 -14 -4 -28 9 -12 11 -26 20 -30 20 -5 0 -6 5 -3
10 3 6 1 10 -5 10 -7 0 -10 6 -7 14 3 8 1 17 -6 20 -9 3 -8 8 3 15 13 9 12 11
-5 12 l-20 0 20 9 c11 5 36 9 55 10 32 1 101 29 72 30 -7 0 -28 16 -46 35 -19
19 -37 35 -41 35 -7 0 -23 13 -86 73 -16 15 -34 27 -38 27 -10 0 -21 32 -28
78 -2 19 0 32 6 32 6 0 10 3 10 8 -3 20 3 21 23 3 11 -11 44 -28 72 -37 100
-33 125 -51 154 -111 15 -31 32 -58 38 -60 7 -2 23 15 37 39 30 51 59 79 107
105 49 25 82 53 105 88 16 25 20 27 23 12 2 -10 -2 -26 -10 -35z m2552 -11
c14 -13 54 -42 89 -65 44 -28 73 -55 91 -85 14 -25 31 -46 37 -48 7 -3 24 20
39 52 31 64 48 78 142 112 37 13 77 34 90 45 19 19 22 19 22 5 0 -9 4 -17 9
-17 15 0 8 -44 -9 -58 -13 -10 -12 -11 5 -5 l20 6 -20 -23 c-41 -49 -82 -90
-91 -90 -5 0 -22 -14 -38 -30 -16 -17 -35 -30 -41 -30 -6 0 -18 -11 -25 -25
-7 -14 -20 -25 -29 -25 -32 -1 34 -29 69 -30 31 0 82 -19 54 -20 -6 0 -10 -12
-8 -26 3 -33 -57 -99 -75 -81 -8 8 -11 6 -12 -9 0 -13 -5 -9 -18 16 -9 19 -22
46 -30 59 l-13 23 -22 -20 c-65 -64 -78 -72 -74 -49 2 6 -4 11 -13 9 -27 -4
-32 27 -6 39 18 8 17 9 -12 4 -26 -4 -32 -2 -27 10 3 9 0 15 -9 15 -8 0 -15 6
-15 13 0 24 13 28 37 12 l24 -16 -23 35 c-15 24 -31 36 -46 36 -12 0 -25 7
-29 15 -9 25 26 55 65 55 33 0 34 1 20 23 -9 12 -19 22 -24 23 -29 2 -63 17
-58 25 3 5 -5 9 -17 9 -27 0 -60 35 -76 81 -15 42 -16 52 -4 45 4 -3 6 7 4 22
-3 25 -3 26 9 7 7 -10 24 -30 38 -44z m-1890 -575 c4 -13 23 -35 42 -49 l33
-26 -18 -30 c-9 -16 -17 -45 -17 -65 0 -45 -12 -46 -39 -1 -11 20 -29 38 -38
42 -28 10 -33 25 -17 47 8 11 14 37 14 57 0 53 23 68 40 25z m1212 -7 c-1 -13
5 -41 14 -61 l17 -37 -34 -33 c-19 -18 -39 -42 -45 -52 -14 -26 -36 -12 -28
19 3 14 -1 38 -10 56 -19 39 -20 59 -3 59 16 0 51 37 61 63 9 26 32 15 28 -14z
m-601 -68 c4 -17 16 -40 28 -50 26 -23 27 -35 0 -52 -11 -8 -24 -30 -28 -49
-9 -43 -32 -46 -43 -4 -4 17 -17 39 -28 49 -20 18 -27 45 -12 45 9 0 36 49 46
83 9 28 30 15 37 -22z m-1262 5 c12 -13 36 -27 53 -30 26 -5 29 -9 23 -28 -10
-31 -10 -48 -1 -85 9 -41 -10 -45 -44 -9 -12 14 -36 28 -52 31 -23 5 -28 11
-22 23 10 22 10 60 0 95 -10 35 11 37 43 3z m742 -262 c5 -14 22 -33 39 -42
34 -19 36 -27 15 -48 -9 -9 -15 -34 -15 -60 0 -54 -18 -58 -44 -9 -11 20 -30
38 -43 41 -26 7 -28 19 -8 54 8 14 14 39 15 56 0 51 22 55 41 8z m1039 -12 c0
-21 7 -47 15 -59 14 -20 12 -24 -34 -72 -27 -28 -52 -51 -55 -51 -3 0 -6 17
-6 38 0 21 -7 48 -16 60 -18 26 -12 52 11 52 8 0 26 18 40 40 30 47 45 44 45
-8z m-523 -2 c3 -20 23 -45 54 -71 26 -22 54 -55 60 -74 12 -31 14 -32 38 -22
14 6 36 23 48 36 l22 25 11 -29 c6 -15 23 -42 38 -59 25 -28 31 -31 67 -25 46
8 131 -5 154 -24 8 -6 25 -23 37 -37 17 -19 25 -22 35 -13 8 6 28 14 46 17 17
4 37 14 43 22 16 18 30 9 30 -19 1 -12 9 -32 20 -45 l18 -22 35 20 c19 11 58
23 86 27 30 3 57 13 67 24 29 32 47 24 40 -15 -4 -23 -1 -48 9 -73 9 -21 17
-59 18 -85 2 -43 4 -47 30 -52 16 -3 37 -1 47 4 32 17 43 12 36 -15 -4 -14 -1
-44 4 -68 10 -39 15 -44 60 -60 55 -20 113 -82 124 -133 6 -27 13 -32 55 -42
26 -6 57 -9 68 -6 22 6 40 -10 23 -21 -5 -3 -10 -24 -10 -46 l0 -39 50 0 c27
0 68 -7 90 -16 26 -11 52 -14 75 -10 31 6 35 4 35 -14 0 -11 -4 -20 -9 -20
-11 0 -28 -44 -37 -93 -3 -21 -17 -53 -30 -72 l-23 -34 29 -21 c15 -11 38 -20
49 -20 12 0 21 -6 21 -15 0 -8 -4 -15 -9 -15 -4 0 -18 -23 -30 -51 l-21 -52
25 -25 c44 -44 58 -85 53 -159 -4 -67 -4 -68 30 -100 19 -18 41 -33 48 -33 21
0 17 -19 -11 -52 -33 -39 -32 -54 7 -74 18 -9 41 -28 53 -43 11 -14 30 -36 42
-49 23 -23 31 -62 14 -62 -5 0 -24 -20 -42 -45 -19 -24 -49 -52 -67 -60 -27
-13 -32 -21 -27 -38 4 -12 18 -32 31 -45 24 -21 25 -42 2 -42 -6 0 -26 -13
-45 -30 -18 -16 -39 -30 -45 -30 -7 0 -7 -4 1 -14 6 -8 12 -39 13 -70 2 -60
-30 -139 -63 -156 -15 -9 -15 -13 -1 -57 9 -26 21 -52 29 -56 22 -14 15 -37
-12 -37 -14 0 -36 -10 -50 -21 l-24 -22 24 -29 c15 -18 27 -48 31 -79 4 -32
16 -62 31 -80 31 -36 22 -52 -23 -43 -22 4 -48 0 -74 -10 -22 -9 -63 -16 -91
-16 l-51 0 4 -37 c3 -21 7 -45 9 -53 3 -10 -4 -15 -21 -16 -14 0 -46 -4 -72
-8 -39 -7 -47 -12 -53 -35 -16 -66 -77 -128 -138 -140 -27 -6 -32 -13 -44 -56
-6 -28 -10 -60 -6 -72 4 -17 1 -23 -10 -23 -9 0 -19 5 -22 10 -7 11 -45 13
-68 4 -11 -4 -14 -15 -10 -37 3 -20 -3 -53 -16 -87 -14 -36 -19 -66 -15 -87 7
-38 -12 -45 -40 -14 -10 11 -37 21 -67 24 -28 4 -67 16 -87 27 l-36 22 -18
-24 c-9 -13 -18 -35 -18 -50 0 -33 -2 -33 -37 -11 -15 10 -43 24 -63 30 -32
12 -37 11 -53 -8 -40 -48 -130 -75 -198 -60 -33 8 -38 6 -50 -15 -7 -13 -16
-24 -21 -24 -5 0 -16 -17 -25 -37 l-15 -38 -22 26 c-11 14 -33 30 -48 36 -25
11 -27 10 -33 -18 -4 -18 -27 -46 -60 -76 -30 -25 -55 -55 -57 -67 -5 -35 -32
-29 -50 12 -10 20 -33 47 -52 59 -20 13 -40 37 -47 58 -16 45 -41 46 -81 3
-24 -26 -31 -29 -39 -17 -5 8 -9 18 -9 22 0 5 -14 25 -32 46 -29 35 -34 37
-67 30 -66 -15 -159 15 -200 65 -10 12 -16 12 -39 0 -15 -8 -34 -14 -42 -14
-8 0 -24 -7 -34 -15 -24 -19 -36 -11 -36 24 0 15 -8 35 -18 44 -16 15 -20 15
-40 1 -12 -8 -52 -21 -89 -29 -37 -8 -73 -21 -79 -30 -6 -8 -19 -15 -28 -15
-14 0 -16 6 -10 35 4 23 1 49 -10 75 -9 22 -16 62 -16 89 l0 49 -37 -2 c-21
-1 -45 -6 -54 -10 -14 -6 -17 3 -23 61 l-7 69 -49 17 c-60 21 -116 76 -131
128 -11 33 -16 39 -53 46 -23 4 -53 6 -69 5 -29 -4 -33 5 -16 40 6 15 7 32 1
48 -8 21 -14 24 -53 22 -24 -2 -62 4 -83 13 -26 11 -53 15 -78 11 -32 -5 -38
-3 -38 11 0 10 9 24 19 30 13 8 22 29 26 60 4 26 18 68 31 92 l24 43 -23 19
c-12 10 -34 18 -49 19 -31 0 -34 6 -14 29 8 9 21 36 30 61 15 44 15 45 -9 70
-48 51 -69 142 -45 204 5 14 6 26 1 26 -4 0 -21 13 -37 30 -16 16 -37 30 -46
30 -23 0 -23 26 -2 38 9 5 23 23 30 41 13 30 12 31 -20 45 -37 15 -94 79 -103
115 -10 41 48 123 105 148 27 11 32 18 27 36 -4 12 -18 32 -32 43 -25 21 -24
44 0 44 7 0 20 8 28 18 9 11 26 26 38 34 18 13 20 19 11 42 -23 61 -3 145 45
196 23 24 24 29 13 65 -6 22 -20 49 -30 61 -24 27 -23 34 5 34 18 0 45 13 76
36 2 2 -6 16 -17 31 -11 16 -26 56 -32 90 -7 35 -21 69 -31 79 -34 30 -24 46
24 39 28 -4 54 -1 79 9 21 9 57 16 82 16 42 0 45 2 51 31 4 18 3 35 -4 42 -21
21 -12 37 21 36 46 -1 119 12 113 21 -2 4 7 30 21 57 26 54 77 96 131 107 31
7 32 9 39 77 6 68 17 82 41 58 7 -7 24 -8 42 -4 28 6 31 10 31 45 0 22 9 62
20 90 15 38 17 56 10 70 -5 10 -10 23 -10 29 0 16 31 13 44 -4 6 -9 42 -22 80
-30 38 -8 77 -22 88 -32 18 -16 20 -16 40 4 11 12 21 33 21 47 0 33 13 42 35
23 9 -9 36 -22 59 -30 41 -14 43 -13 65 10 42 45 148 74 198 55 23 -9 29 -6
58 28 18 21 32 44 32 50 0 21 30 22 48 2 9 -12 29 -24 43 -27 22 -6 27 -3 33
19 7 27 41 66 82 92 13 9 24 20 24 24 0 20 20 60 30 60 6 0 13 -14 17 -30z
m-1089 -15 c12 -14 33 -25 46 -25 29 0 37 -17 23 -48 -8 -17 -7 -32 1 -55 17
-45 -1 -58 -35 -25 -16 15 -39 29 -53 33 -24 6 -25 10 -26 75 0 77 9 86 44 45z
m2187 -7 c-9 -44 -9 -49 -1 -81 5 -23 3 -27 -13 -27 -11 0 -36 -13 -54 -30
-46 -40 -61 -39 -51 3 9 40 10 56 0 84 -6 18 -1 23 31 34 21 6 44 20 51 31 7
10 20 18 29 18 12 0 14 -7 8 -32z m560 -228 c4 -6 -1 -23 -11 -37 -9 -15 -17
-43 -18 -62 -1 -33 -3 -36 -29 -33 -16 2 -43 -6 -61 -18 -18 -11 -36 -20 -40
-20 -11 0 -6 35 9 54 8 11 15 35 15 53 0 31 2 33 34 33 19 0 44 9 57 20 28 22
35 24 44 10z m-3073 -247 c10 -9 33 -16 53 -15 33 1 35 0 35 -31 0 -18 9 -45
20 -62 11 -16 20 -33 20 -37 0 -13 -34 -8 -54 7 -11 8 -35 15 -53 15 -31 0
-33 2 -33 33 0 17 -7 41 -15 51 -18 24 -20 56 -3 56 6 0 20 -7 30 -17z m-112
-2949 c0 -8 -7 -22 -15 -30 -8 -9 -15 -33 -15 -55 0 -38 -1 -39 -37 -39 -21 0
-47 -7 -57 -15 -40 -30 -62 -10 -30 26 9 10 17 35 18 56 1 35 4 38 31 38 17 1
42 8 55 18 30 21 50 22 50 1z m3058 4 c6 -6 31 -14 54 -17 38 -5 43 -9 40 -29
-2 -13 6 -41 17 -62 22 -43 14 -58 -21 -39 -13 7 -41 15 -63 18 -37 6 -40 8
-37 34 2 15 -4 39 -12 52 -28 43 -11 76 22 43z m-2546 -253 c-7 -15 -9 -43 -6
-66 6 -36 5 -39 -18 -39 -14 0 -36 -13 -53 -30 -15 -16 -31 -27 -35 -25 -4 2
-6 35 -5 72 1 60 4 68 21 71 11 2 35 17 54 33 38 36 61 27 42 -16z m2036 15
c17 -16 40 -30 51 -30 26 0 33 -13 22 -43 -6 -16 -6 -37 1 -61 15 -49 5 -54
-37 -17 -20 17 -44 31 -55 31 -25 0 -33 15 -21 38 7 13 7 31 0 56 -9 31 -6 56
6 56 2 0 17 -13 33 -30z m-1498 -30 c0 -21 7 -45 15 -54 22 -21 18 -43 -8 -50
-13 -3 -32 -21 -43 -41 -25 -47 -44 -45 -44 3 0 21 -7 47 -15 58 -21 28 -18
37 15 56 17 10 33 25 37 35 19 54 43 50 43 -7z m959 12 c6 -15 25 -35 42 -45
30 -17 31 -18 15 -42 -9 -13 -16 -42 -16 -65 0 -47 -19 -54 -40 -14 -8 14 -27
35 -42 46 -29 20 -37 43 -17 50 6 2 14 27 16 55 6 57 23 62 42 15z m-478 -261
c4 -18 17 -44 30 -58 l24 -25 -22 -18 c-12 -9 -25 -30 -29 -46 -14 -61 -38
-66 -48 -10 -4 18 -15 41 -26 51 -26 23 -25 29 5 59 14 14 25 36 25 49 0 49
31 48 41 -2z m-1187 -57 c-1 -66 -2 -68 -29 -76 -15 -4 -40 -19 -55 -33 -34
-32 -46 -19 -30 30 8 25 8 40 0 55 -14 26 -7 37 29 45 16 3 39 17 51 30 13 14
26 23 29 20 4 -2 6 -34 5 -71z m1772 -29 c11 -12 26 -24 34 -27 12 -4 11 -10
-3 -40 -9 -20 -17 -50 -17 -67 0 -40 -21 -40 -38 -1 -8 17 -27 37 -44 46 -28
15 -29 16 -14 39 9 13 16 42 16 63 0 49 11 60 30 32 8 -12 24 -32 36 -45z
m771 -215 c18 -16 42 -30 51 -30 15 0 18 -10 18 -70 0 -77 -9 -86 -44 -45 -12
14 -30 25 -40 25 -29 0 -42 19 -30 45 7 17 7 33 -1 55 -10 30 -8 50 6 50 3 0
21 -13 40 -30z m-1357 -39 c0 -8 12 -28 27 -43 l27 -28 -27 -28 c-15 -15 -27
-37 -27 -48 0 -26 -15 -48 -28 -40 -5 3 -12 19 -15 35 -4 17 -16 40 -27 51
-25 25 -25 42 0 60 10 8 22 28 26 44 3 17 9 35 12 40 6 11 32 -23 32 -43z
m-652 -52 c0 -22 5 -46 11 -52 18 -18 12 -43 -14 -55 -13 -6 -31 -25 -40 -42
-21 -41 -36 -34 -40 19 -2 24 -8 48 -14 54 -18 18 -13 37 13 49 14 6 30 24 37
39 6 17 19 29 30 29 14 0 18 -8 17 -41z m1297 21 c3 -11 22 -32 41 -46 33 -25
34 -28 19 -50 -8 -13 -15 -41 -15 -64 0 -49 -17 -52 -45 -7 -11 18 -30 36 -43
42 -26 11 -27 22 -7 49 8 11 15 37 15 58 0 42 24 54 35 18z m-2215 -103 c0 -8
60 -89 80 -107 3 -3 27 -31 54 -63 55 -66 56 -64 -32 -97 -43 -16 -77 -20
-191 -20 -76 0 -141 3 -144 6 -6 7 49 115 84 166 11 14 19 29 19 32 0 4 19 36
42 71 l41 65 24 -22 c13 -12 23 -26 23 -31z m3115 -33 c22 -31 44 -58 50 -62
5 -3 5 1 -2 9 -10 12 -8 22 13 52 13 20 28 37 33 37 4 0 21 -17 37 -37 16 -21
48 -61 72 -90 l42 -53 -37 -15 c-28 -12 -44 -13 -61 -6 -22 10 -22 10 -6 -14
16 -25 16 -25 -37 -50 -49 -22 -66 -25 -187 -25 -110 0 -134 3 -139 15 -3 9 2
24 11 34 9 10 16 21 16 25 0 4 15 30 33 59 18 29 43 72 56 97 23 46 49 80 60
80 3 0 24 -25 46 -56z m-1546 -159 c5 -20 20 -44 33 -55 l23 -18 -27 -29 c-16
-16 -28 -36 -28 -45 0 -53 -34 -65 -44 -16 -3 18 -18 44 -31 58 l-25 26 25 24
c13 13 28 38 31 57 8 43 30 42 43 -2z m-739 -47 c0 -23 7 -49 15 -58 19 -21
11 -46 -16 -53 -10 -3 -27 -19 -36 -36 -25 -43 -43 -40 -43 7 0 21 -7 48 -16
61 -16 22 -15 24 20 53 20 16 36 35 36 42 0 16 21 36 32 30 4 -3 8 -24 8 -46z"/>
<path d="M2087 5078 c-40 -33 -77 -94 -77 -128 0 -27 -18 -25 -41 4 -30 38
-67 42 -100 10 -16 -15 -29 -38 -29 -51 0 -26 -16 -29 -44 -8 -12 9 -41 15
-70 15 -62 0 -108 -26 -137 -75 -12 -19 -23 -35 -25 -35 -3 0 -15 11 -27 24
-12 14 -35 26 -52 28 -24 2 -33 -3 -51 -30 -13 -18 -21 -39 -18 -47 12 -29
-19 -25 -56 9 -39 35 -52 40 -120 49 -34 5 -36 3 -52 -36 -27 -67 -31 -94 -18
-131 15 -45 6 -60 -23 -42 -13 8 -37 12 -59 9 -33 -5 -37 -8 -43 -43 -4 -21
-2 -47 4 -58 14 -26 5 -32 -41 -32 -84 0 -148 -68 -148 -156 0 -36 -9 -41 -41
-23 -14 7 -30 7 -53 -1 -27 -9 -35 -18 -40 -45 -4 -21 -2 -42 6 -54 17 -28 6
-34 -42 -21 -45 12 -82 7 -139 -19 -29 -13 -35 -21 -33 -41 8 -62 25 -100 58
-133 20 -19 33 -40 30 -46 -4 -6 -12 -9 -17 -6 -5 4 -27 -4 -48 -16 -36 -20
-39 -25 -34 -53 3 -17 17 -44 32 -60 21 -23 23 -30 11 -34 -30 -10 -78 -69
-89 -107 -15 -54 -14 -65 9 -109 21 -43 19 -56 -10 -56 -17 0 -70 -43 -70 -56
0 -16 33 -65 50 -74 30 -16 24 -26 -22 -39 -46 -12 -80 -38 -115 -86 l-21 -30
21 -30 c34 -47 68 -73 115 -86 47 -13 53 -25 19 -40 -13 -6 -30 -25 -38 -42
-14 -30 -13 -34 12 -60 14 -15 36 -27 47 -27 31 0 33 -12 11 -58 -29 -59 -19
-121 30 -171 20 -21 43 -41 51 -44 12 -4 11 -9 -7 -24 -29 -23 -47 -81 -31
-100 16 -20 61 -41 75 -36 21 8 25 -19 5 -33 -37 -25 -61 -70 -70 -126 l-9
-55 46 -17 c52 -18 123 -21 151 -6 24 13 35 -3 20 -30 -6 -11 -8 -35 -5 -54 5
-26 13 -35 39 -43 18 -6 42 -6 55 -1 31 11 39 4 39 -36 0 -43 16 -73 60 -113
29 -28 42 -33 84 -33 50 0 50 0 43 -29 -3 -16 -3 -45 0 -64 6 -31 11 -36 43
-40 22 -3 46 1 59 9 29 18 38 3 23 -42 -13 -39 -8 -78 16 -134 l16 -37 55 9
c65 10 91 22 116 55 25 31 49 30 45 -1 -2 -14 7 -38 20 -55 19 -26 27 -30 50
-25 15 4 39 17 53 31 l26 24 27 -41 c15 -24 42 -48 61 -56 44 -18 116 -18 141
1 27 20 44 18 44 -5 0 -11 13 -34 28 -51 28 -31 28 -31 65 -15 21 8 40 22 43
31 8 21 34 19 34 -2 1 -36 39 -100 78 -131 l41 -33 55 55 c31 30 56 63 56 74
0 31 11 52 26 52 8 0 14 -7 14 -15 0 -23 69 -48 89 -33 28 21 41 41 41 65 0
27 24 30 54 8 52 -39 180 1 206 65 14 35 25 38 40 11 5 -11 26 -25 46 -31 34
-12 38 -11 60 16 13 16 23 41 24 57 0 32 20 36 38 7 18 -30 86 -60 134 -60 41
0 44 2 61 43 19 48 22 93 7 133 -14 36 0 48 33 31 14 -8 39 -12 55 -9 24 3 32
11 42 43 10 30 11 42 2 51 -25 25 -13 38 35 38 81 0 153 72 153 154 0 37 15
47 37 25 7 -7 22 -7 52 2 39 12 41 14 41 53 0 23 -4 48 -9 56 -16 23 -3 28 36
15 46 -16 93 -12 145 11 40 18 40 18 33 63 -4 25 -11 51 -16 57 -5 6 -7 13 -4
16 3 2 -11 20 -30 38 -41 40 -45 60 -10 60 14 0 39 10 54 21 27 19 28 24 19
53 -6 17 -19 38 -29 48 -26 22 -24 35 8 50 67 33 95 144 54 211 -22 37 -20 47
14 47 12 0 33 12 47 28 24 25 25 29 12 59 -8 18 -23 37 -34 43 -31 16 -24 28
23 41 28 7 56 25 84 56 24 25 43 50 43 56 0 5 -16 29 -35 53 -25 30 -51 49
-85 61 -52 18 -61 29 -35 40 9 3 24 22 35 43 l19 37 -28 27 c-15 14 -34 26
-42 26 -35 1 -41 16 -20 51 41 67 13 174 -54 209 -17 8 -32 16 -35 18 -3 2 6
11 18 21 28 21 56 94 39 100 -7 2 -22 12 -35 22 -12 9 -31 15 -42 12 -30 -8
-25 19 10 52 30 29 44 62 53 127 6 37 6 37 -49 58 -65 24 -83 25 -129 6 -38
-16 -49 -12 -35 15 6 9 9 35 8 57 -1 36 -4 41 -36 50 -24 8 -41 8 -54 1 -29
-15 -46 -5 -41 25 7 34 -31 107 -71 134 -22 15 -47 22 -79 22 -48 0 -55 7 -37
39 6 12 5 30 -2 53 -9 30 -16 37 -45 41 -23 4 -43 1 -58 -9 -28 -19 -39 -6
-25 31 15 40 12 89 -10 139 -16 39 -23 46 -42 42 -13 -3 -40 -8 -60 -11 -23
-4 -51 -19 -74 -40 -44 -42 -54 -43 -54 -7 -1 15 -11 39 -23 54 -21 25 -26 27
-59 18 -20 -6 -41 -17 -48 -25 -18 -21 -27 -19 -46 14 -36 61 -143 91 -204 56
-36 -21 -50 -18 -50 10 0 29 -46 79 -67 71 -8 -3 -19 -6 -23 -6 -5 0 -21 -12
-35 -27 -21 -24 -27 -26 -35 -13 -5 8 -10 25 -10 36 0 22 -32 70 -62 92 -9 7
-24 19 -32 27 -18 19 -14 20 -59 -17z m-1 -357 c-16 -32 -10 -59 17 -89 26
-28 86 -66 93 -59 3 3 -10 13 -29 22 -69 33 -92 76 -69 131 12 28 17 31 50 28
20 -2 39 -4 42 -4 3 -1 21 -1 40 0 52 2 221 -27 315 -54 172 -50 411 -167 408
-200 -1 -12 4 -15 14 -11 18 6 167 -101 158 -114 -3 -5 6 -12 20 -15 14 -4 25
-12 25 -19 0 -7 9 -18 20 -25 11 -7 20 -16 20 -21 0 -13 -179 -21 -250 -11
-47 7 -70 15 -83 31 -10 12 -20 19 -24 16 -11 -12 42 -46 90 -58 33 -8 88 -9
171 -4 l122 7 45 -54 c46 -54 115 -151 158 -222 19 -29 21 -40 11 -46 -9 -6
-7 -9 7 -14 27 -9 82 -144 63 -156 -9 -6 -7 -10 7 -14 15 -5 27 -29 46 -94 41
-139 60 -271 60 -432 l0 -144 -34 -29 c-19 -17 -24 -24 -12 -18 31 16 33 14
33 -19 0 -34 -22 -50 -85 -61 l-40 -8 40 3 c22 2 49 7 59 11 17 7 18 5 12 -16
-4 -13 -8 -33 -10 -44 -22 -136 -126 -379 -220 -515 -100 -144 -267 -320 -304
-320 -13 0 -19 -6 -18 -18 1 -13 -7 -17 -34 -17 -19 1 -46 4 -60 8 -14 4 -8
-1 13 -11 38 -17 40 -32 5 -32 -11 0 -17 -4 -14 -8 8 -13 -39 -43 -164 -105
-130 -64 -228 -98 -368 -129 -132 -30 -451 -32 -587 -5 -114 23 -270 75 -360
119 -99 49 -139 71 -145 77 -3 3 -12 11 -21 16 -61 38 -99 66 -99 74 0 9 38
26 83 37 15 3 26 9 23 11 -2 3 -30 -3 -62 -12 -55 -16 -111 -14 -100 4 3 5 20
11 37 15 18 3 30 9 26 12 -3 3 -22 1 -42 -6 -28 -9 -39 -9 -50 0 -21 17 -19
29 8 40 12 5 16 9 9 9 -7 1 -21 -3 -31 -8 -14 -8 -27 -1 -62 32 -45 43 -119
130 -119 140 0 3 16 11 36 17 26 9 39 9 47 1 6 -6 22 -11 37 -11 20 1 18 3
-15 15 -26 9 -51 12 -70 7 -16 -5 -37 -7 -45 -5 -20 5 -105 135 -153 233 -45
92 -108 270 -95 270 5 0 27 -9 49 -21 23 -11 43 -19 45 -16 2 2 -17 14 -44 27
-66 33 -81 49 -71 82 5 19 2 38 -8 59 -23 47 -6 48 36 1 21 -23 47 -42 58 -42
10 0 28 -7 40 -15 27 -19 165 -76 171 -71 5 5 -87 46 -103 46 -7 0 -23 9 -36
19 -14 10 -43 25 -67 31 -23 7 -42 16 -42 20 0 4 -18 25 -39 47 -38 39 -39 41
-46 137 -8 105 5 285 30 399 91 430 363 803 735 1007 84 46 95 48 80 18 -11
-22 -10 -22 4 -4 9 11 16 23 16 28 0 17 163 81 285 111 90 23 275 46 307 39
15 -4 16 -7 4 -31z"/>
<path d="M2051 4164 c-49 -35 -67 -142 -35 -210 64 -135 223 -40 198 118 -14
86 -101 135 -163 92z m89 -29 c43 -46 36 -191 -11 -216 -74 -39 -120 151 -53
218 29 29 35 29 64 -2z"/>
<path d="M1840 3767 c0 -4 7 -10 15 -13 13 -5 15 -34 15 -174 0 -154 -2 -169
-21 -194 -22 -29 -60 -34 -78 -12 -16 19 -18 353 -2 369 21 21 11 25 -49 24
-58 -2 -77 -11 -45 -23 12 -5 15 -33 16 -158 0 -186 8 -213 69 -244 24 -12 52
-20 61 -17 10 3 27 8 38 10 31 6 42 15 35 27 -4 7 -2 8 4 4 24 -15 34 41 39
208 3 94 9 173 14 176 4 3 5 10 1 15 -8 12 -112 14 -112 2z"/>
<path d="M2013 3762 c15 -16 17 -45 17 -197 0 -158 -2 -179 -17 -191 -26 -18
-9 -28 52 -29 57 -1 65 4 40 25 -22 18 -22 362 0 380 24 20 7 30 -52 30 -54 0
-55 -1 -40 -18z"/>
<path d="M2174 3739 c26 -30 26 -33 26 -185 0 -151 -1 -156 -24 -179 -30 -30
-20 -39 46 -40 51 0 58 7 33 31 -11 12 -15 39 -14 112 l0 97 26 -65 c14 -36
27 -80 28 -98 1 -18 7 -38 13 -44 13 -13 16 -6 61 117 l30 80 0 -102 c1 -68
-3 -103 -10 -103 -27 0 1 -24 31 -26 18 -2 44 -5 56 -8 18 -5 22 -3 18 9 -4 8
-10 15 -15 15 -4 0 -9 81 -11 179 -2 99 -1 178 2 176 3 -2 13 2 22 9 25 18 3
42 -42 49 l-35 5 -16 -67 c-10 -36 -28 -95 -41 -131 l-25 -64 -32 84 c-18 47
-39 106 -48 132 -15 48 -15 48 -60 48 l-45 0 26 -31z"/>
<path d="M1422 3740 c-42 -26 -84 -114 -90 -189 -14 -164 76 -267 203 -233 39
10 41 10 95 -37 30 -26 71 -56 90 -66 39 -21 110 -36 110 -25 0 5 8 6 19 3 23
-6 96 30 105 52 6 16 8 55 4 55 -2 0 -25 -11 -52 -25 -27 -14 -66 -25 -86 -25
-41 0 -138 45 -188 89 l-32 28 21 49 c46 103 24 252 -47 314 -42 37 -101 41
-152 10z m125 -68 c12 -24 24 -71 28 -105 7 -67 -5 -163 -21 -160 -5 1 -23 8
-41 15 -29 11 -36 10 -62 -10 l-30 -22 -10 32 c-15 55 -6 187 17 239 22 50 33
59 72 56 19 -2 31 -13 47 -45z"/>
<path d="M2563 3733 c15 -17 17 -42 17 -201 0 -162 -2 -182 -17 -191 -24 -13
-10 -24 35 -27 20 -1 45 -5 55 -9 12 -5 17 -2 17 9 0 9 -4 16 -10 16 -6 0 -10
70 -10 190 0 120 4 190 10 190 6 0 10 7 10 15 0 10 -10 15 -29 15 -16 0 -44 3
-62 7 -33 6 -34 6 -16 -14z"/>
<path d="M2774 3718 c-25 -12 -44 -48 -44 -84 0 -38 23 -80 90 -164 38 -48 60
-84 60 -101 0 -48 -62 -78 -90 -44 -7 8 -10 34 -8 62 3 45 2 48 -22 48 -17 0
-29 -8 -38 -27 -41 -86 120 -187 192 -119 50 47 35 102 -59 222 -76 98 -86
149 -33 179 37 20 52 4 53 -58 0 -55 24 -69 50 -29 14 22 14 29 2 60 -8 19
-25 42 -38 51 -26 18 -83 20 -115 4z"/>
<path d="M1155 3698 c-72 -18 -72 -18 -52 -29 15 -9 17 -30 17 -209 0 -179 -2
-200 -17 -209 -14 -7 -15 -13 -6 -21 8 -9 20 -9 45 -2 18 6 68 18 110 28 99
22 101 24 88 60 -6 16 -13 44 -15 62 -6 65 -29 50 -41 -25 -7 -48 -18 -60 -63
-69 l-32 -7 4 194 c1 107 7 204 11 217 9 24 9 24 -49 10z"/>
<path d="M2970 3666 c0 -19 -5 -47 -10 -62 -8 -21 -8 -29 2 -36 13 -8 50 25
74 67 6 12 16 16 27 12 15 -6 17 -27 17 -191 0 -165 -2 -186 -17 -195 -23 -12
-12 -23 27 -27 17 -2 39 -8 50 -14 30 -16 33 -12 13 23 -16 28 -18 53 -15 210
2 163 4 177 21 177 12 0 21 -12 29 -38 11 -35 47 -81 56 -71 4 5 -9 117 -15
123 -5 5 -233 56 -250 56 -5 0 -9 -15 -9 -34z"/>
<path d="M936 3645 c-11 -8 -28 -15 -38 -15 -23 0 -23 -6 1 -36 20 -25 20 -28
-12 -149 l-13 -50 -63 3 c-75 5 -101 -12 -101 -64 0 -45 16 -51 48 -16 25 27
86 51 99 39 2 -3 -13 -44 -35 -90 -40 -86 -72 -117 -119 -117 -13 0 -9 -6 15
-21 66 -43 118 -2 158 125 14 47 29 86 31 86 3 0 21 -9 39 -21 42 -25 53 -63
31 -101 -15 -26 -15 -28 3 -38 13 -7 21 -7 25 0 3 5 19 10 35 10 35 0 49 19
26 35 -9 7 -19 26 -22 41 -3 16 -18 87 -34 158 -17 72 -30 147 -30 167 0 40
-8 69 -19 69 -3 0 -15 -7 -25 -15z"/>
<path d="M3320 3612 c0 -4 4 -12 9 -17 6 -6 -6 -73 -30 -170 -35 -142 -43
-163 -70 -186 l-30 -27 43 -15 c24 -8 51 -18 62 -22 16 -7 17 -6 7 13 -15 28
-14 99 2 105 6 2 30 -4 52 -14 33 -15 42 -25 53 -61 11 -37 10 -45 -3 -55 -14
-10 -14 -13 7 -27 12 -9 32 -16 43 -16 11 0 31 -7 43 -16 27 -19 29 -8 3 20
-12 13 -25 53 -35 106 -8 47 -27 135 -41 195 -14 61 -25 124 -24 140 2 54 1
55 -46 55 -25 0 -45 -4 -45 -8z"/>
</g>
</svg>
