<?xml version="1.0" standalone="no"?>
<!DOCTYPE svg PUBLIC "-//W3C//DTD SVG 20010904//EN"
 "http://www.w3.org/TR/2001/REC-SVG-20010904/DTD/svg10.dtd">
<svg version="1.0" xmlns="http://www.w3.org/2000/svg"
 width="564.000000pt" height="845.000000pt" viewBox="0 0 564.000000 845.000000"
 preserveAspectRatio="xMidYMid meet">
<metadata>
Created by potrace 1.16, written by Peter Selinger 2001-2019
</metadata>
<g transform="translate(0.000000,845.000000) scale(0.100000,-0.100000)"
fill="#000000" stroke="none">
<path d="M2 4223 c1 -2326 4 -4180 5 -4121 l4 107 37 11 c20 5 45 10 54 10 9
0 20 5 24 12 9 15 35 -19 28 -37 -3 -7 7 -22 22 -34 l26 -21 29 20 c15 11 31
29 34 40 8 24 14 25 43 4 12 -8 27 -12 35 -7 30 19 45 7 38 -31 -3 -17 65 5
165 54 56 28 110 50 121 49 10 0 -22 -21 -72 -46 -49 -25 -94 -51 -100 -58 -5
-7 -54 -27 -107 -45 -54 -18 -95 -36 -92 -41 3 -5 -1 -6 -9 -3 -12 4 -169 -65
-187 -82 -7 -8 51 1 74 11 13 6 21 4 24 -3 2 -7 10 -12 18 -12 9 0 12 5 9 10
-3 6 -1 10 4 10 6 0 11 -4 11 -10 0 -5 17 -3 39 5 22 7 42 11 45 8 3 -3 13 0
21 7 13 11 13 15 3 21 -9 6 -6 9 10 9 13 0 21 4 17 9 -3 6 11 13 32 16 57 10
73 15 73 26 0 14 30 11 47 -6 8 -9 14 -17 12 -18 -60 -33 -77 -44 -91 -59 -16
-18 -17 -18 -21 -1 -5 17 -5 17 -6 0 0 -10 -5 -16 -9 -13 -4 2 -14 1 -22 -4
-7 -5 49 -9 133 -9 137 -2 149 0 198 24 29 14 61 25 71 25 16 0 15 -4 -9 -25
l-28 -24 145 0 c129 -1 148 2 170 19 14 11 32 20 40 20 13 0 13 1 0 10 -22 14
-46 12 -64 -6 -14 -14 -17 -14 -22 0 -3 9 -12 12 -22 9 -14 -5 -13 -2 3 14 11
11 24 18 28 16 4 -3 13 -1 20 5 10 8 114 32 139 32 4 0 8 -7 8 -16 0 -22 40
-53 70 -54 14 0 31 -9 38 -20 13 -22 3 -27 -16 -8 -9 9 -12 8 -12 -5 0 -30 66
-22 103 13 18 17 38 28 44 25 16 -6 39 30 47 73 4 24 2 32 -7 30 -6 -3 -13
-16 -15 -29 -3 -24 -12 -32 -79 -70 -38 -21 -53 -24 -53 -9 0 6 7 10 15 10 8
0 15 5 15 10 0 6 7 10 15 10 23 0 75 29 75 41 0 5 -10 3 -22 -5 -35 -24 -44
-19 -12 6 16 12 33 28 37 35 4 7 15 13 22 13 8 0 15 6 15 14 0 8 9 24 19 37
l20 24 -2 -55 c-1 -30 -1 -85 1 -122 l2 -68 1604 0 1605 0 4 28 4 27 2 -27 1
-28 450 0 450 0 0 827 0 828 -23 -32 c-12 -18 -28 -33 -34 -33 -14 0 -18 16
-5 22 4 2 20 19 35 39 25 33 27 43 27 127 0 55 -4 92 -10 92 -5 0 -10 -5 -10
-10 0 -34 -86 -112 -100 -91 -5 8 -14 9 -33 2 -34 -13 -34 -9 3 27 16 16 26
33 22 37 -4 3 -2 5 3 3 13 -4 76 47 68 55 -3 3 4 12 16 19 12 7 21 18 21 25 0
7 5 13 10 13 6 0 10 7 10 16 0 13 -3 14 -15 4 -15 -12 -35 -6 -35 11 0 5 7 9
15 9 8 0 15 7 15 16 0 8 4 13 8 10 5 -3 9 25 10 61 1 44 -2 69 -10 74 -10 7
-10 11 0 21 9 9 12 92 12 341 0 288 -2 328 -15 317 -8 -6 -20 -10 -27 -7 -8 3
-2 10 15 17 21 10 27 20 27 43 0 29 0 30 -20 12 -11 -10 -23 -16 -26 -13 -8 9
28 48 38 42 4 -3 8 4 8 16 0 18 -3 19 -20 10 -11 -6 -20 -15 -20 -19 0 -5 -10
-11 -23 -15 -12 -3 -32 -14 -44 -26 -15 -13 -35 -20 -60 -19 -38 1 -38 1 -10
12 15 6 27 17 27 24 0 18 -60 -12 -60 -30 -1 -17 -37 -41 -85 -58 -22 -7 -48
-20 -57 -28 -16 -13 -18 -12 -18 6 0 12 8 23 20 26 23 6 28 37 6 37 -8 0 -16
6 -19 13 -3 9 -9 9 -26 -1 -24 -14 -31 -15 -31 -4 0 5 35 31 78 59 42 28 88
60 101 72 13 12 28 21 33 21 4 0 8 5 8 12 0 7 14 27 32 45 18 18 27 33 21 33
-6 0 -23 -14 -37 -31 -47 -55 -172 -147 -184 -135 -2 3 -13 -6 -24 -19 -11
-14 -23 -23 -28 -20 -5 3 -39 -11 -77 -31 -79 -42 -139 -64 -171 -64 -13 0
-31 -4 -41 -9 -10 -6 -50 -11 -89 -12 -40 -1 -72 -6 -72 -12 0 -5 18 -7 44 -3
51 8 72 -9 31 -24 -80 -31 -205 -96 -205 -107 0 -8 -10 -18 -22 -22 -13 -5
-35 -21 -49 -35 -15 -13 -29 -23 -32 -20 -6 7 -57 -18 -57 -28 0 -4 -6 -8 -13
-8 -16 0 -57 -42 -57 -58 0 -7 5 -12 10 -12 6 0 10 6 10 14 0 8 17 25 37 37
21 13 41 27 44 32 9 12 49 -1 49 -16 -1 -7 -18 -25 -40 -42 -28 -22 -37 -35
-33 -49 4 -15 1 -18 -16 -13 -15 3 -30 -3 -48 -19 -14 -13 -22 -24 -16 -24 5
0 14 5 20 11 16 16 65 20 80 7 9 -7 20 -6 38 6 31 20 31 16 1 -39 -28 -50 -25
-75 10 -92 22 -10 29 -9 47 7 11 11 24 20 28 20 4 0 11 19 17 43 11 41 43 74
62 62 6 -3 7 0 5 7 -3 7 1 22 10 33 64 85 81 112 78 122 -2 6 6 13 19 15 13 3
32 9 43 12 13 5 12 2 -5 -8 -25 -15 -25 -15 -2 -16 20 0 26 9 23 35 -1 14 63
38 67 25 2 -6 10 -6 23 1 11 5 24 7 29 4 11 -7 75 24 67 32 -3 2 -14 0 -25 -6
-26 -14 -35 -14 -26 0 3 6 27 20 53 31 25 10 59 30 76 42 30 23 70 37 115 39
14 1 27 5 30 9 3 3 25 9 49 12 25 3 49 10 55 16 5 5 17 10 26 9 10 0 7 -4 -7
-11 -13 -6 -23 -20 -23 -30 0 -18 1 -18 25 -1 13 10 25 23 25 29 0 10 24 24
95 55 17 7 33 15 38 17 4 2 7 0 7 -5 0 -5 -12 -14 -27 -21 -53 -23 -103 -56
-103 -67 0 -6 -13 -18 -29 -28 -33 -19 -45 -22 -36 -7 13 21 -8 9 -27 -15 -11
-14 -25 -25 -31 -25 -6 0 -22 -11 -36 -24 -30 -28 -71 -43 -71 -26 0 6 -6 18
-14 26 -13 12 -22 11 -72 -13 -65 -30 -117 -79 -154 -141 -13 -23 -28 -42 -34
-42 -5 0 -26 -17 -47 -39 -41 -42 -83 -78 -119 -101 -13 -8 -40 -31 -62 -50
-45 -41 -49 -73 -13 -102 14 -11 25 -29 25 -41 1 -20 2 -21 14 -5 7 10 21 18
30 18 9 0 16 5 16 10 0 6 -7 10 -15 10 -8 0 -15 5 -15 10 0 13 13 13 27 -1 13
-13 47 -4 39 10 -8 12 12 26 56 40 39 13 104 60 174 127 46 43 59 42 62 -5 0
-14 6 -37 13 -53 13 -33 6 -46 -15 -29 -8 7 -24 10 -36 6 -11 -4 -20 -2 -20 4
0 18 -17 12 -41 -14 -13 -13 -24 -34 -24 -47 0 -16 -6 -23 -17 -22 -10 1 -20
-7 -23 -17 -4 -11 -15 -19 -27 -19 -23 0 -78 -30 -78 -43 0 -5 -7 -6 -16 -3
-12 5 -33 -11 -71 -54 -30 -33 -65 -63 -78 -66 -13 -3 -33 -17 -46 -30 -27
-29 -17 -32 13 -4 12 11 23 18 25 16 8 -7 -30 -73 -48 -84 -27 -17 -119 -27
-119 -13 0 6 4 11 10 11 5 0 17 17 25 37 9 21 23 45 32 55 11 13 12 18 3 18
-7 0 -30 -19 -51 -42 -66 -71 -41 -114 54 -97 37 6 37 6 22 -15 -8 -11 -20
-31 -25 -43 -5 -13 -16 -23 -24 -23 -11 0 -13 -13 -9 -69 3 -41 0 -77 -6 -88
-11 -19 -11 -20 -16 65 -3 50 -15 99 -32 132 -19 39 -31 214 -15 224 6 3 22 2
36 -3 20 -8 24 -7 20 3 -3 8 4 33 16 55 31 62 41 91 30 91 -5 0 -14 -18 -21
-39 -14 -49 -52 -97 -67 -87 -7 4 -12 20 -12 35 0 16 -7 34 -15 41 -21 17 -57
100 -52 120 3 12 6 11 12 -5 4 -11 14 -27 22 -37 13 -14 19 -33 22 -60 1 -5 6
-8 12 -8 8 0 8 4 1 13 -6 6 -10 14 -10 17 0 24 -16 59 -24 54 -6 -4 -8 -1 -6
7 3 8 -4 22 -15 31 -14 12 -18 26 -15 48 3 16 1 30 -4 30 -4 0 -8 -6 -9 -12 0
-7 -11 18 -24 57 -23 69 -24 85 -3 85 6 0 35 23 64 50 30 28 67 56 84 61 16 6
30 17 30 24 0 7 14 16 30 20 17 4 30 11 30 16 0 5 14 9 30 9 18 0 33 6 36 15
4 8 12 15 19 15 8 0 21 7 29 16 9 8 21 12 27 8 8 -4 9 -3 5 4 -4 7 -2 12 5 12
10 0 10 3 1 12 -9 9 -16 7 -29 -8 -16 -18 -87 -58 -105 -59 -3 0 -10 -3 -14
-7 -4 -5 -14 -8 -23 -8 -23 0 96 109 128 116 33 8 81 36 81 46 0 5 -12 1 -28
-8 l-27 -16 25 21 c46 39 49 41 57 41 4 0 2 -5 -5 -12 -16 -16 -16 -51 0 -45
7 2 12 11 10 19 -1 9 14 22 38 33 22 10 40 22 40 28 0 5 -12 2 -26 -7 -36 -24
-47 -16 -19 16 23 27 23 27 44 7 19 -18 22 -18 28 -4 4 11 8 13 13 6 7 -12
153 43 178 67 7 6 18 12 23 12 19 0 195 105 246 146 28 23 84 61 122 84 39 23
71 47 71 52 0 5 5 6 10 3 6 -3 10 -1 10 4 0 6 7 11 15 11 9 0 15 9 15 22 0 21
0 21 -27 -3 -15 -13 -35 -33 -45 -44 -10 -12 -17 -15 -18 -7 0 6 20 33 45 60
l45 47 0 100 c-1 90 -2 98 -15 81 -10 -14 -18 -17 -25 -10 -7 7 -3 25 15 55
22 38 25 56 25 137 0 51 -4 101 -10 111 -10 21 -14 130 -5 176 13 66 17 135 8
135 -4 0 -17 -10 -27 -22 l-19 -22 -8 22 c-9 25 -55 40 -78 25 -9 -5 -20 -19
-26 -31 -5 -12 -13 -22 -17 -22 -5 0 -8 -13 -8 -30 0 -32 3 -30 -119 -98 -85
-48 -159 -62 -219 -43 -32 11 -49 10 -117 -8 -65 -16 -99 -19 -181 -14 -116 7
-137 0 -159 -54 -14 -33 -14 -42 1 -90 22 -69 16 -85 -28 -72 -18 5 -66 6
-105 3 l-72 -7 21 44 c12 24 23 62 25 84 9 116 9 118 39 142 16 12 32 23 36
23 5 0 40 20 80 45 40 25 82 45 93 45 66 1 225 134 225 188 0 48 -18 55 -68
26 -25 -15 -60 -37 -79 -50 -19 -12 -58 -30 -86 -38 -29 -8 -81 -31 -117 -51
-36 -19 -95 -50 -131 -69 -36 -19 -71 -41 -78 -50 -8 -9 -27 -16 -45 -16 -29
0 -87 -19 -183 -62 -24 -10 -45 -18 -49 -18 -3 0 -25 -14 -49 -30 -24 -17 -61
-34 -82 -38 -31 -6 -40 -13 -47 -39 -7 -21 -17 -33 -34 -36 -22 -4 -23 -2 -17
27 7 34 15 110 18 171 2 38 4 41 43 50 22 6 39 15 38 20 -2 6 11 19 29 30 17
11 45 40 61 64 16 24 37 46 48 49 10 2 18 8 18 13 0 5 8 9 18 9 22 0 65 49
103 115 32 56 69 94 115 118 17 9 36 23 43 31 15 18 51 22 51 5 0 -6 7 -8 15
-5 9 3 18 -1 21 -9 4 -11 16 -14 38 -11 17 3 40 6 51 8 12 2 20 -3 20 -12 0
-32 48 -56 57 -29 5 16 48 -7 48 -26 0 -8 9 -19 19 -25 21 -10 78 -3 87 11 11
18 45 8 55 -15 7 -14 22 -27 36 -31 37 -9 95 5 100 25 6 22 38 39 83 42 32 3
35 6 34 33 -1 17 -5 37 -8 46 -5 11 -1 18 12 21 12 4 23 18 27 37 7 35 16 38
40 14 13 -12 19 -13 24 -4 5 7 14 12 22 11 39 -6 42 1 12 33 -34 35 -68 96
-59 104 3 3 25 -2 49 -11 52 -20 57 -20 57 -2 0 17 -51 48 -109 65 -44 13 -45
12 -64 -14 -14 -18 -22 -23 -27 -15 -14 22 -28 1 -40 -56 -7 -33 -16 -54 -23
-51 -7 2 -23 31 -36 65 -14 36 -30 62 -39 62 -8 0 -12 6 -9 14 10 25 -35 56
-81 56 -22 0 -44 5 -48 11 -3 6 -15 9 -25 6 -11 -3 -17 -1 -14 4 5 8 -32 11
-128 11 -21 0 -44 -5 -52 -12 -8 -7 -22 -10 -30 -6 -10 4 -15 -1 -15 -14 0
-11 -5 -20 -11 -20 -5 0 -8 4 -5 9 3 5 -1 14 -9 21 -13 11 -14 10 -9 -4 11
-29 -13 -17 -51 27 l-37 42 4 -32 c3 -18 1 -33 -4 -33 -13 0 -28 47 -28 89 0
20 -5 42 -11 48 -6 6 -8 17 -4 23 6 9 10 9 17 -1 7 -11 11 -11 15 -1 2 6 14
12 25 12 16 0 13 8 -24 50 -24 27 -50 49 -58 50 -22 0 -50 -36 -47 -62 2 -20
-3 -22 -38 -23 -22 -1 -52 5 -67 12 -24 12 -27 11 -22 -2 4 -8 10 -15 16 -15
5 0 6 -5 3 -10 -4 -6 -1 -9 7 -8 8 2 12 -5 11 -17 -2 -11 3 -30 9 -43 9 -18 8
-26 -9 -45 -29 -31 -43 -62 -43 -92 0 -17 -5 -25 -12 -22 -8 2 -13 22 -13 48
-2 142 -4 156 -28 163 -25 7 -58 -26 -82 -81 -20 -47 -34 -41 -30 12 6 54 -9
65 -77 58 -38 -4 -49 -2 -54 11 -3 9 -10 13 -15 10 -5 -3 -9 1 -9 9 0 8 18 21
40 30 22 8 40 20 40 26 0 15 -44 31 -86 31 -19 0 -34 5 -34 10 0 6 -4 10 -10
10 -5 0 -7 -8 -4 -17 5 -17 5 -17 -6 0 -9 14 -7 25 10 54 16 27 17 33 5 23
-13 -11 -18 -11 -24 -1 -6 9 -10 8 -15 -5 -4 -11 -2 -20 3 -22 6 -2 11 -8 11
-13 0 -6 -5 -7 -10 -4 -6 3 -10 -4 -10 -17 0 -13 -9 -29 -20 -36 -11 -6 -17
-17 -15 -24 4 -13 -56 -58 -76 -58 -6 0 -7 -4 -4 -10 6 -10 -6 -14 -40 -11
-31 3 -82 29 -89 46 -8 22 -53 18 -76 -5 -11 -11 -23 -34 -27 -50 -3 -16 -11
-35 -19 -41 -32 -26 -128 -79 -145 -79 -10 0 -33 17 -53 37 -29 31 -37 35 -50
24 -10 -9 -13 -22 -9 -42 3 -17 1 -29 -5 -29 -5 0 -13 17 -17 38 -8 44 -29 83
-70 134 -16 20 -39 48 -50 62 -23 29 -40 34 -31 10 5 -14 4 -15 -8 -5 -11 9
-15 9 -20 -1 -3 -7 -4 3 -2 22 3 28 -2 42 -25 68 -16 18 -33 31 -37 28 -5 -3
-13 4 -20 14 -11 18 -5 23 59 54 39 19 97 43 128 51 31 9 65 22 76 29 11 7 41
16 67 20 26 4 47 10 47 14 -3 19 2 26 10 13 6 -10 14 -11 27 -3 17 9 22 24 26
67 1 11 5 25 9 30 11 15 7 54 -6 52 -5 -1 -10 8 -10 20 0 21 -14 46 -16 27 -4
-62 -28 -136 -41 -128 -5 3 -15 0 -23 -6 -12 -10 -16 -9 -21 3 -3 9 -2 21 2
28 4 7 3 9 -2 6 -6 -3 -16 -2 -22 2 -10 6 -10 16 1 49 8 23 10 39 4 35 -6 -4
-7 4 -2 23 5 16 8 42 8 57 0 20 3 24 8 15 6 -8 9 -2 9 20 0 26 5 35 20 39 19
5 19 6 4 18 -15 11 -14 13 9 19 28 7 35 20 17 31 -5 3 -10 1 -10 -4 0 -6 -8
-11 -17 -11 -12 0 -7 8 17 30 49 42 99 63 116 49 10 -8 14 -8 14 0 0 6 4 11 9
11 5 0 8 -11 7 -25 0 -14 -6 -24 -11 -22 -6 1 -10 -2 -10 -8 0 -11 11 -11 38
0 13 6 16 3 11 -9 -5 -12 -2 -15 10 -10 9 3 13 10 11 15 -3 4 4 18 15 29 12
12 18 26 13 33 -21 34 -2 48 38 27 15 -9 19 -7 19 7 0 14 2 15 9 4 5 -7 13
-11 19 -7 6 3 13 2 17 -4 3 -5 12 -10 18 -10 8 0 8 3 -1 9 -10 6 -7 10 13 15
39 10 127 -19 164 -53 17 -16 31 -27 31 -25 0 3 64 -63 89 -92 17 -20 19 -76
3 -82 -7 -2 -12 -9 -12 -15 1 -7 10 -1 20 12 15 18 20 19 20 7 0 -19 31 -21
48 -3 8 7 43 12 96 12 83 0 84 0 152 -47 38 -26 123 -73 189 -104 107 -50 128
-65 196 -134 87 -89 144 -166 129 -175 -5 -3 -10 -1 -10 4 0 16 -17 13 -23 -3
-4 -10 -1 -13 8 -9 8 3 18 -2 21 -11 3 -9 11 -16 16 -16 6 0 8 7 4 15 -5 14
-2 14 24 0 16 -8 36 -15 44 -15 9 0 13 -6 10 -14 -3 -8 -1 -23 4 -33 7 -12 7
-25 1 -35 -6 -12 -5 -19 4 -25 8 -4 17 -26 20 -48 4 -22 12 -42 18 -44 6 -2
20 -12 30 -22 13 -13 39 -20 89 -24 39 -3 104 -14 143 -26 123 -35 179 -39
338 -24 61 6 67 5 81 -17 8 -13 17 -34 21 -47 6 -23 4 -23 -49 -19 -30 3 -57
1 -60 -4 -3 -4 1 -5 9 -2 10 4 15 -1 14 -13 -2 -12 4 -17 17 -15 11 2 15 -1
11 -7 -3 -6 2 -11 12 -11 16 -1 17 -1 1 -10 -11 -7 -26 -7 -43 0 -59 22 -155
-3 -155 -40 0 -11 5 -20 10 -20 6 0 10 -9 10 -21 0 -24 27 -54 49 -54 11 0 16
-9 16 -29 0 -25 -5 -30 -44 -42 -39 -11 -91 -48 -91 -64 0 -3 12 -11 28 -17
27 -10 27 -10 -29 -36 -51 -23 -109 -68 -109 -84 0 -15 46 -43 72 -43 36 0 68
16 68 34 0 21 42 52 87 65 38 10 47 9 82 -9 44 -22 82 -25 112 -10 19 11 19
44 19 2045 l0 2035 -2820 0 -2820 0 2 -4227z m4994 3167 c25 0 44 -5 44 -11 0
-7 -17 -10 -45 -7 -25 2 -45 -1 -45 -5 0 -5 -5 -5 -10 -2 -6 4 -26 -9 -43 -28
-20 -21 -54 -41 -87 -52 -30 -10 -70 -32 -88 -50 -18 -17 -55 -44 -82 -61 -39
-23 -48 -33 -44 -49 6 -21 37 -57 33 -40 -4 23 2 34 24 40 24 8 160 96 165
108 2 4 9 4 15 0 6 -4 8 0 4 10 -3 9 1 18 10 21 10 4 14 2 10 -8 -4 -10 2 -16
15 -18 45 -6 30 -35 -55 -105 -36 -31 -93 -53 -132 -53 -21 0 -35 -6 -39 -16
-3 -8 -10 -13 -15 -9 -6 3 -11 -20 -13 -57 l-3 -63 -33 -3 c-27 -3 -35 1 -39
17 -7 29 -53 29 -53 1 0 -17 -7 -20 -40 -20 l-40 0 0 141 0 142 51 -5 c29 -3
62 -14 79 -26 l29 -21 33 33 c19 19 32 39 30 45 -2 6 1 11 8 11 6 0 8 4 5 10
-3 5 0 8 7 5 7 -2 28 17 47 44 39 54 88 88 105 71 6 -6 6 -10 0 -10 -6 0 -19
-6 -29 -14 -17 -12 -13 -13 29 -11 25 1 52 7 58 13 7 7 20 12 30 12 10 0 21 7
25 16 3 8 12 13 20 10 8 -3 35 -6 59 -6z m-516 -10 c0 -7 -643 -10 -1895 -10
-1212 1 -1895 4 -1895 10 0 7 683 10 1895 10 1252 0 1895 -3 1895 -10z m-2596
-189 c31 -27 43 -72 42 -166 l-1 -90 -37 -3 c-35 -3 -37 -2 -40 30 -3 29 -6
33 -33 33 -26 0 -29 -4 -30 -30 0 -27 -3 -30 -37 -33 l-38 -3 0 84 c0 47 3 98
6 116 16 76 110 111 168 62z m266 6 c76 -40 103 -131 58 -197 -35 -51 -69 -72
-119 -72 -90 -2 -149 56 -149 147 0 42 5 57 31 88 48 58 111 70 179 34z m747
12 c97 -36 130 -162 63 -234 -18 -19 -20 -27 -11 -43 6 -12 11 -25 11 -31 0
-16 -66 -13 -80 4 -7 8 -28 17 -49 21 -55 10 -89 34 -111 79 -25 51 -25 78 -1
131 14 30 30 46 62 62 49 25 75 27 116 11z m1127 -3 c50 -21 66 -65 66 -180
l0 -96 -39 0 c-37 0 -40 2 -43 33 -2 27 -7 32 -28 32 -20 1 -26 -5 -30 -30 -4
-26 -9 -30 -42 -33 l-38 -3 0 95 c0 128 17 166 85 188 30 9 33 9 69 -6z
m-2734 -136 l0 -140 -35 0 c-28 0 -35 4 -35 20 0 16 -7 20 -30 20 -23 0 -30
-4 -30 -20 0 -16 -7 -20 -35 -20 l-35 0 0 73 c0 96 27 152 89 184 24 13 59 23
78 23 l33 0 0 -140z m223 125 c25 -13 32 -13 57 0 16 8 52 15 80 15 l50 0 0
-140 0 -140 -35 0 -35 0 0 99 c0 55 -4 102 -9 105 -4 3 -17 -1 -27 -9 -16 -11
-20 -29 -22 -104 l-4 -91 -29 0 -29 0 0 85 c0 73 -3 88 -21 106 -11 11 -23 18
-27 15 -3 -4 -6 -50 -6 -104 l-1 -97 -37 -3 -38 -3 0 140 0 141 53 0 c28 0 65
-7 80 -15z m987 -20 l0 -35 -55 0 c-41 0 -55 -4 -55 -14 0 -10 13 -16 38 -18
34 -3 37 -6 40 -35 3 -30 1 -32 -35 -35 -26 -2 -38 -8 -38 -18 0 -11 14 -16
53 -18 l52 -3 0 -35 0 -34 -90 0 -90 0 0 140 0 140 90 0 90 0 0 -35z m160 0
c0 -33 -2 -35 -35 -35 -46 0 -47 -25 -1 -40 72 -23 92 -95 41 -145 -20 -21
-34 -25 -84 -25 -57 0 -61 2 -67 26 -9 33 2 42 55 46 54 4 63 22 20 37 -53 18
-69 39 -69 88 0 60 25 83 90 83 l50 0 0 -35z m422 -67 c3 -102 3 -103 28 -103
25 0 25 1 28 103 l3 102 34 0 35 0 0 -104 c0 -58 -4 -116 -9 -129 -12 -32 -73
-60 -111 -52 -16 4 -41 20 -55 37 -23 28 -25 37 -25 139 l0 109 35 0 34 0 3
-102z m328 67 l0 -35 -55 0 c-41 0 -55 -4 -55 -14 0 -10 13 -16 38 -18 37 -3
37 -3 33 -53 -1 -10 -12 -15 -36 -15 -28 0 -35 -4 -35 -20 0 -18 7 -20 55 -20
l55 0 0 -35 0 -35 -90 0 -90 0 0 140 0 140 90 0 90 0 0 -35z m179 6 c24 -23
31 -37 31 -68 0 -22 -6 -48 -14 -58 -12 -17 -12 -22 0 -39 8 -11 14 -35 14
-53 0 -31 -2 -33 -35 -33 -30 0 -35 3 -35 23 0 25 -17 47 -37 47 -8 0 -13 -13
-13 -35 0 -33 -2 -35 -34 -35 l-34 0 -4 81 c-2 45 -1 108 0 140 l4 59 63 0
c56 0 66 -3 94 -29z m211 3 c61 -52 77 -122 40 -182 -30 -49 -75 -72 -142 -72
l-58 0 0 140 0 140 64 0 c55 0 69 -4 96 -26z m526 10 c91 -43 100 -176 16
-239 -19 -14 -47 -21 -94 -23 l-68 -4 0 141 0 141 56 0 c31 0 71 -7 90 -16z
m-198 -311 l54 -27 18 22 c14 17 29 22 64 22 42 0 46 -2 46 -24 0 -34 -40 -88
-80 -109 -41 -21 -83 -16 -134 14 -35 20 -61 18 -70 -7 -4 -9 -21 -14 -56 -14
-44 0 -50 3 -50 20 0 48 53 110 105 123 38 9 50 7 103 -20z m73 -154 c56 -14
124 -80 148 -145 19 -50 21 -77 21 -295 l0 -240 -87 3 -86 3 1 78 1 77 -85 0
-86 0 4 -77 3 -78 -88 -3 -89 -3 4 258 c3 283 3 283 70 358 65 75 147 94 269
64z m723 -18 c71 -35 122 -86 164 -166 23 -43 26 -63 27 -145 0 -88 -3 -100
-33 -162 -62 -127 -176 -198 -316 -198 -86 0 -141 17 -212 65 -97 67 -147 167
-147 296 -1 115 48 209 149 285 96 74 248 84 368 25z m-3819 -61 l0 -84 -127
2 -128 2 0 -45 0 -45 85 0 85 0 0 -85 0 -85 -85 0 -85 0 0 -45 0 -45 130 0
131 0 -3 -82 -3 -83 -167 -3 c-166 -2 -168 -3 -169 -25 0 -21 -1 -21 -11 3 -6
14 -10 32 -9 40 1 9 -13 29 -30 45 l-32 30 18 -27 c9 -16 21 -28 26 -28 10 0
6 -66 -4 -76 -14 -14 -7 -26 8 -14 13 10 15 9 15 -11 0 -28 -47 -79 -72 -79
-10 0 -18 -4 -18 -10 0 -11 -48 8 -83 35 -15 10 -23 24 -19 30 5 5 8 26 7 47
0 20 3 35 6 32 3 -2 15 6 25 19 16 18 16 19 2 8 -14 -10 -18 -11 -18 -1 0 10
-4 9 -17 -1 -15 -12 -15 -10 1 8 10 12 23 21 28 20 6 -1 12 6 13 16 2 9 -1 17
-6 17 -6 0 -7 5 -3 11 3 6 21 9 39 7 19 -2 33 -1 33 2 0 3 0 137 1 298 l1 292
218 -2 217 -3 0 -85z m393 3 c3 -75 2 -83 -15 -84 -10 -1 -46 -2 -80 -2 -70
-2 -88 -14 -79 -51 5 -21 18 -29 78 -47 146 -45 208 -151 163 -280 -38 -107
-111 -141 -296 -137 l-124 3 -3 83 -3 82 105 0 c113 0 156 10 156 36 0 21 -28
54 -46 54 -23 0 -128 50 -152 73 -75 70 -79 204 -10 283 53 60 92 73 218 71
l85 -2 3 -82z m482 3 l0 -84 -42 -7 c-105 -18 -163 -79 -162 -171 2 -94 58
-155 153 -168 l51 -7 0 -74 c0 -41 -1 -78 -2 -82 -2 -5 -31 -7 -66 -6 -114 2
-229 80 -283 190 -47 98 -34 257 28 340 74 99 165 147 291 152 l32 1 0 -84z
m220 -168 c3 -135 7 -248 10 -251 12 -11 50 -27 63 -27 8 0 25 9 38 19 24 19
24 22 29 263 l5 243 85 0 85 0 0 -250 c0 -250 0 -250 -27 -307 -30 -64 -85
-111 -152 -129 -41 -11 -124 -8 -160 7 -18 7 -19 3 -13 -94 7 -95 6 -102 -13
-112 -11 -6 -20 -16 -20 -22 0 -7 5 -6 15 2 21 17 26 9 10 -14 -18 -23 -37
-11 -33 20 2 17 -5 31 -22 44 -14 10 -22 22 -18 26 4 3 14 -1 23 -10 21 -20
31 -20 39 0 10 25 6 41 -5 22 -14 -25 -32 -23 -19 2 8 15 7 31 -1 61 -10 32
-10 45 -1 60 10 15 9 19 -1 19 -7 0 -13 9 -14 20 -1 11 -14 35 -28 54 -48 64
-55 108 -55 368 l0 239 88 -3 87 -3 5 -247z m675 223 c99 -44 154 -123 155
-219 0 -60 -15 -103 -53 -148 -24 -28 -25 -33 -11 -45 33 -27 67 -113 72 -181
l5 -68 -92 0 -91 0 0 46 c0 61 -20 97 -67 122 -47 25 -52 18 -55 -75 l-3 -88
-50 -3 c-27 -2 -52 -7 -55 -12 -3 -4 -5 -34 -4 -67 1 -32 2 -93 3 -136 0 -49
5 -76 11 -72 6 3 10 -1 10 -10 0 -8 11 -21 25 -27 14 -6 25 -17 25 -23 0 -7 7
-18 15 -25 8 -7 12 -16 9 -21 -11 -18 -13 -51 -4 -72 7 -19 9 -16 11 18 1 22
1 43 0 48 0 4 3 7 7 7 19 0 52 43 61 78 5 20 12 51 16 67 4 17 10 24 12 18 9
-24 23 -13 17 12 -7 29 7 33 30 9 17 -17 23 -109 7 -118 -4 -3 -11 -24 -15
-46 -4 -26 -11 -40 -21 -40 -10 0 -15 -10 -15 -26 0 -22 2 -25 15 -14 14 12
17 8 14 -16 0 -4 5 -11 13 -15 8 -6 1 -7 -20 -5 -27 3 -33 0 -38 -19 -3 -13
-1 -33 6 -44 8 -15 8 -27 0 -42 -7 -11 -9 -28 -6 -37 5 -14 3 -13 -8 2 -14 18
-15 18 -13 -3 1 -11 8 -23 16 -26 14 -5 14 -7 1 -16 -11 -8 -12 -12 -2 -16 6
-2 12 -9 12 -14 0 -6 -4 -8 -9 -5 -12 8 -44 -75 -40 -100 5 -24 -29 -73 -39
-58 -4 6 -15 13 -24 17 -14 5 -16 14 -12 39 4 25 3 29 -5 18 -10 -13 -11 -13
-11 0 0 8 -3 26 -7 39 -5 18 -3 22 6 16 10 -5 11 -2 7 12 -7 21 17 87 35 98 5
4 8 13 5 20 -3 8 -1 15 4 17 6 2 6 9 0 18 -9 15 -9 16 -25 -35 -3 -10 -17 -15
-39 -15 -29 0 -36 -5 -46 -32 -7 -18 -12 -37 -11 -41 1 -5 -4 -7 -11 -5 -7 3
-16 18 -19 34 -4 19 -7 5 -8 -41 0 -39 4 -76 9 -81 8 -8 8 -19 0 -38 -5 -15
-8 -32 -4 -37 3 -5 6 -50 8 -100 2 -91 13 -116 44 -104 19 7 14 -22 -7 -37
-17 -12 -17 -16 -5 -33 13 -18 14 -17 14 9 0 24 2 26 14 17 21 -18 58 4 56 32
-4 43 0 78 8 73 10 -6 62 37 62 52 0 7 13 9 35 5 33 -5 35 -4 35 23 -1 28 -1
28 -15 10 -15 -19 -15 -19 -15 2 0 20 15 28 44 23 5 -1 5 11 2 26 -4 15 -9 51
-11 78 -2 28 -2 39 1 25 3 -14 12 -39 20 -57 8 -17 17 -45 20 -62 4 -17 10
-31 14 -31 5 0 13 -14 19 -30 5 -17 24 -42 40 -56 16 -13 37 -46 47 -72 10
-26 22 -53 27 -59 6 -9 6 -13 -1 -13 -5 0 -14 13 -20 28 -15 42 -72 130 -72
110 0 -11 -6 -16 -19 -13 -11 2 -22 -3 -25 -11 -4 -10 -2 -13 7 -8 7 5 7 1 -2
-10 -8 -9 -17 -13 -20 -9 -12 17 -37 10 -39 -11 -1 -16 1 -17 8 -6 7 11 10 8
16 -14 5 -21 1 -33 -18 -54 -14 -15 -33 -40 -43 -57 l-17 -30 21 24 c12 13 24
21 27 18 4 -3 -17 -29 -45 -57 -44 -44 -56 -50 -91 -50 -56 0 -137 36 -184 82
-22 21 -43 38 -48 38 -4 0 -8 9 -8 20 0 12 7 20 18 20 13 0 14 2 4 9 -10 6
-13 28 -11 77 2 38 0 124 -5 190 -7 105 -6 123 7 130 11 6 17 26 18 59 1 28 6
55 11 61 4 6 9 36 9 65 1 30 6 60 13 68 8 11 8 13 -1 7 -16 -9 -16 3 -2 80 13
68 17 77 31 68 6 -4 6 -10 -1 -17 -6 -6 -11 -16 -11 -22 0 -6 4 -5 8 2 11 18
34 -1 26 -21 -5 -12 -9 -14 -14 -6 -5 8 -9 5 -12 -7 -3 -11 1 -28 10 -39 9
-12 13 -13 9 -4 -2 9 1 24 9 34 10 15 14 16 18 5 2 -8 7 -21 9 -29 3 -8 6 0 6
19 1 21 -5 38 -16 46 -24 18 -31 163 -32 649 l-1 399 133 -5 c108 -4 141 -9
182 -27z m375 -316 l0 -345 -90 0 -90 0 0 338 c0 186 3 342 7 345 3 4 44 7 90
7 l83 0 0 -345z m373 308 c217 -102 271 -379 106 -544 -23 -23 -70 -55 -107
-72 -62 -29 -71 -30 -199 -31 l-134 -1 0 340 c1 187 1 342 1 344 0 2 60 2 134
-1 123 -5 140 -8 199 -35z m-1202 -690 c1 -27 3 -55 4 -63 1 -8 3 -21 4 -28 0
-7 17 -29 37 -47 35 -34 36 -36 40 -124 3 -68 0 -90 -10 -94 -8 -3 -18 5 -24
18 -8 18 -8 25 3 29 8 3 12 12 9 21 -3 8 -11 12 -18 8 -8 -5 -8 -3 0 8 6 8 14
33 17 56 5 39 2 45 -29 73 -40 35 -41 35 -41 15 0 -8 2 -13 5 -10 11 11 31
-27 33 -64 2 -22 8 -41 13 -41 6 0 2 -7 -9 -16 -13 -10 -21 -31 -25 -67 -4
-43 -8 -52 -25 -52 -11 -1 -19 -6 -17 -13 1 -7 -4 -12 -12 -12 -8 0 -16 -5
-18 -11 -5 -15 -38 0 -38 18 0 8 -4 12 -9 9 -10 -7 -21 42 -14 61 6 15 33 18
33 3 0 -5 6 -7 13 -4 18 6 15 35 -6 67 -9 15 -17 37 -16 49 l0 23 9 -22 c7
-16 18 -23 38 -23 15 0 33 -5 40 -12 9 -9 15 -9 23 -1 8 8 6 11 -6 10 -10 -1
-20 4 -22 11 -3 8 2 10 14 7 12 -4 11 -2 -4 6 -20 10 -38 65 -23 71 4 2 3 37
-1 78 -6 72 1 110 21 110 6 0 11 -21 11 -47z m-331 -144 c0 -5 5 -7 12 -3 8 5
9 0 5 -16 -3 -13 -1 -32 4 -42 7 -14 6 -23 -6 -34 -15 -16 -15 -38 1 -94 4
-16 44 -23 44 -8 0 4 -4 8 -10 8 -5 0 -14 9 -20 20 -9 17 -7 24 12 40 16 13
18 19 8 20 -9 0 -7 5 8 16 21 15 25 15 43 -2 19 -17 19 -17 17 7 -3 20 2 24
25 24 29 1 37 -19 11 -29 -14 -5 -15 -15 -10 -54 11 -76 16 -139 10 -117 -9
28 -25 46 -36 39 -6 -4 -7 2 -3 16 5 15 3 20 -3 16 -6 -4 -15 2 -21 11 -10 17
-10 17 -11 -2 0 -11 6 -32 14 -47 8 -15 12 -37 9 -50 -4 -18 -3 -20 6 -8 8 12
10 11 9 -5 -2 -17 -10 -20 -50 -22 -28 0 -54 -7 -63 -17 -19 -19 -31 -20 -41
-4 -5 7 -2 9 9 5 18 -7 22 3 26 60 2 34 -1 42 -18 48 -16 5 -21 15 -21 40 0
19 5 37 10 40 6 4 8 16 4 27 -3 12 0 24 9 31 10 8 12 18 7 32 -8 19 -9 19 -9
-2 -1 -13 -6 -23 -11 -23 -12 0 -2 53 11 58 4 2 5 10 2 18 -3 8 0 14 6 14 6 0
11 -5 11 -11z m-605 -183 c50 -38 100 -78 113 -89 19 -17 36 -21 100 -22 68 0
82 3 120 28 42 27 47 28 123 21 71 -6 79 -9 80 -28 1 -22 5 -82 13 -176 2 -30
7 -76 11 -102 6 -39 4 -49 -9 -54 -13 -5 -13 -8 -2 -20 8 -7 12 -23 9 -34 -3
-12 0 -20 6 -20 7 0 10 4 7 9 -3 5 0 14 8 20 11 9 15 9 19 -1 3 -7 5 25 5 72
0 128 23 240 48 240 7 0 20 -10 28 -21 11 -17 13 -42 9 -115 -4 -68 -2 -94 6
-94 20 0 39 -61 46 -152 6 -66 12 -91 26 -104 18 -16 18 -18 2 -36 -10 -11
-19 -39 -20 -66 -4 -71 -7 -86 -18 -94 -5 -4 0 -8 12 -8 12 0 25 5 28 10 10
17 25 11 19 -7 -5 -14 -4 -15 4 -4 6 8 8 20 5 28 -3 8 4 23 16 34 11 11 21 25
21 32 0 8 3 8 9 -2 5 -7 14 -10 20 -7 16 10 14 55 -4 72 -12 13 -15 12 -25 -5
-5 -11 -10 -28 -10 -37 0 -17 -1 -17 -17 -2 -15 16 -15 19 1 43 13 20 14 30 6
46 -7 11 -13 55 -16 97 -2 42 -6 113 -8 157 -7 114 2 175 25 175 11 0 19 5 19
10 0 6 9 10 20 10 16 0 19 -5 15 -27 -11 -65 -12 -132 -3 -141 5 -5 9 -56 9
-112 -1 -112 3 -128 27 -108 13 11 14 11 10 -2 -3 -8 1 -29 9 -47 7 -18 16
-78 19 -135 3 -57 11 -109 17 -117 6 -7 13 -25 15 -40 2 -14 14 -40 28 -58 28
-37 36 -82 8 -47 -8 10 -13 13 -9 7 8 -16 -31 -18 -40 -3 -3 6 -11 10 -16 10
-6 0 -3 -7 6 -16 12 -12 13 -19 5 -24 -7 -4 -9 -16 -5 -29 4 -14 2 -23 -9 -27
-8 -3 -18 -14 -21 -23 -10 -33 -111 -64 -126 -40 -5 9 -10 5 -14 -13 -4 -15
-16 -35 -28 -45 -19 -17 -20 -17 -14 0 5 14 2 16 -17 13 -33 -6 -76 -35 -76
-51 0 -39 -137 -21 -183 23 -24 23 -27 32 -22 63 8 45 -17 109 -45 116 -22 6
-26 19 -8 25 8 3 13 30 15 73 2 55 7 71 23 82 11 8 20 19 20 25 0 6 -6 6 -15
-2 -13 -11 -15 -9 -14 16 2 40 -9 173 -16 194 -9 28 -34 32 -63 11 -41 -29
-112 -108 -112 -124 0 -8 -15 -28 -32 -44 -18 -16 -39 -41 -47 -56 -8 -15 -18
-27 -23 -27 -4 0 -8 -7 -8 -16 0 -13 -3 -14 -13 -5 -11 8 -18 6 -31 -8 -10
-11 -15 -25 -11 -30 3 -6 3 -11 -2 -11 -13 0 -55 -98 -60 -141 -3 -22 -9 -39
-12 -39 -4 0 -6 -19 -5 -42 1 -23 -3 -50 -9 -59 -8 -13 -8 -21 1 -31 6 -8 9
-27 6 -42 -3 -18 -1 -25 6 -21 5 3 10 1 10 -4 0 -6 -4 -11 -8 -11 -13 0 -2
-140 13 -177 8 -19 19 -32 25 -28 5 3 10 0 10 -8 0 -21 57 -123 87 -157 14
-17 34 -30 44 -30 29 0 30 -14 2 -56 -35 -53 -47 -64 -38 -36 5 19 3 22 -19
22 -19 0 -29 10 -48 47 -13 25 -31 48 -40 51 -10 2 -20 14 -24 26 -4 11 -15
27 -25 34 -11 7 -19 20 -19 29 0 13 -3 13 -15 3 -8 -7 -15 -19 -15 -27 0 -7 7
-16 15 -19 8 -4 15 -17 15 -30 0 -30 69 -164 88 -172 8 -3 28 0 43 5 37 14 38
0 2 -32 -33 -29 -43 -31 -43 -9 0 14 -3 14 -15 4 -9 -7 -17 -11 -19 -9 -21 22
-86 116 -86 124 0 6 -22 36 -48 66 -78 87 -114 141 -102 153 18 18 12 56 -10
56 -11 0 -20 4 -20 10 0 5 9 14 20 20 11 6 20 15 20 21 0 6 -25 49 -55 95 -86
133 -84 148 20 151 87 3 98 5 120 19 29 21 54 17 59 -8 3 -13 7 -32 9 -43 3
-11 5 7 6 40 0 37 -3 55 -8 46 -13 -20 -21 2 -15 40 16 96 16 106 -3 120 -10
8 -25 34 -32 59 -13 45 -43 84 -55 72 -4 -3 -11 0 -15 7 -14 23 -23 -54 -10
-83 14 -31 7 -41 -37 -49 -26 -5 -32 -2 -48 27 -10 18 -35 43 -56 55 -42 24
-70 60 -70 92 0 21 1 21 27 4 25 -17 27 -17 39 -1 13 18 31 5 19 -14 -3 -5 -1
-10 4 -10 17 0 13 22 -9 55 -24 36 -25 49 -6 42 11 -4 13 -1 9 10 -4 11 -2 14
5 9 7 -4 12 -2 12 4 0 7 6 10 14 7 10 -4 14 7 14 51 0 86 -6 109 -31 107 -11
-1 -42 9 -69 22 -27 13 -54 20 -60 17 -8 -5 -9 -1 -4 12 15 37 12 49 -16 52
-18 2 -37 -6 -59 -26 -28 -25 -30 -31 -20 -50 7 -13 16 -20 22 -17 5 4 9 1 9
-4 0 -6 7 -11 15 -11 16 0 34 -55 27 -82 -3 -12 -11 -16 -26 -14 -11 3 -24 5
-27 5 -4 1 -21 14 -40 30 -18 16 -38 27 -43 24 -5 -3 -6 -1 -3 4 8 12 -11 73
-22 73 -14 0 -46 -28 -47 -42 0 -7 -2 -26 -2 -42 -2 -24 -4 -27 -17 -16 -8 7
-15 20 -15 29 0 9 -5 22 -12 29 -9 9 -18 4 -41 -19 -16 -17 -44 -37 -62 -45
-32 -13 -41 -13 -82 2 -10 4 -32 6 -49 5 -18 -1 -40 6 -54 17 l-25 20 25 21
c14 11 36 20 49 21 30 0 182 73 203 97 9 10 19 28 22 40 4 12 30 41 59 63 58
47 85 80 47 60 -18 -10 -24 -8 -41 11 -10 12 -19 28 -19 35 0 7 -8 10 -20 7
-16 -4 -19 -2 -14 12 6 15 4 16 -15 6 -67 -36 59 82 185 174 15 11 33 26 41
33 7 8 22 11 33 7 16 -5 19 -2 17 23 -1 21 -6 28 -17 24 -10 -3 -12 -2 -5 6 6
6 39 14 75 18 36 3 67 9 70 11 3 3 59 3 125 1 l120 -5 90 -67z m-625 16 c0 -4
-19 -15 -42 -23 -28 -10 -43 -22 -43 -33 0 -9 -5 -20 -11 -24 -6 -4 -14 -14
-17 -22 -4 -12 -6 -11 -6 3 -1 27 -19 20 -23 -10 -4 -25 -5 -26 -13 -9 -5 12
-4 26 4 38 19 30 5 34 -14 4 -10 -14 -15 -33 -11 -41 4 -12 2 -13 -12 -7 -9 5
-35 7 -57 5 -30 -2 -47 -11 -67 -35 -16 -18 -28 -37 -28 -44 0 -6 -20 -41 -45
-78 -25 -37 -52 -92 -61 -121 -8 -30 -20 -57 -25 -60 -5 -4 -18 -24 -29 -45
-15 -29 -24 -38 -37 -33 -12 5 -14 3 -8 -7 5 -8 4 -11 -3 -6 -6 4 -9 13 -5 21
3 8 0 15 -7 15 -18 0 -4 47 31 99 16 25 29 54 29 65 0 12 7 34 15 50 8 15 15
33 15 39 0 16 51 67 67 67 7 0 13 5 13 10 0 6 0 13 0 18 0 8 -23 10 -30 2 -3
-3 -26 -16 -52 -29 -26 -13 -50 -32 -53 -41 -3 -10 -21 -38 -40 -62 -19 -23
-35 -49 -35 -55 0 -7 -29 -41 -65 -75 -36 -35 -65 -71 -65 -81 0 -22 -34 -69
-44 -60 -3 3 -6 1 -6 -6 0 -7 -4 -10 -9 -7 -5 3 -14 -1 -21 -9 -7 -8 -19 -15
-26 -15 -11 0 -14 28 -14 140 l0 139 53 25 c50 23 59 33 86 99 6 15 18 27 27
27 9 0 29 14 45 31 16 17 35 29 42 26 51 -19 55 -18 98 28 37 40 47 45 83 44
23 -1 61 4 86 11 25 6 97 17 160 23 162 17 170 17 170 9z m4227 -538 c-3 -4
-2 -15 4 -25 12 -23 54 -27 45 -4 -7 18 37 20 99 4 22 -5 46 -11 54 -13 7 -1
23 -12 35 -23 11 -10 29 -22 39 -26 11 -4 17 -17 17 -37 0 -30 -2 -31 -30 -25
-24 5 -30 3 -30 -10 0 -18 -20 -15 -70 10 -14 7 -38 15 -54 19 -24 6 -28 5
-22 -10 6 -17 6 -17 -12 -1 -10 9 -21 15 -24 12 -11 -12 -60 -15 -72 -6 -6 5
-33 11 -59 13 -26 2 -47 6 -47 9 0 4 -7 6 -16 5 -9 0 -19 5 -21 12 -3 7 4 12
16 12 12 0 21 6 21 13 0 8 4 7 10 -3 9 -13 11 -13 19 0 6 8 13 11 17 7 4 -4
13 -2 21 4 8 8 13 8 13 1 0 -6 -6 -13 -12 -15 -10 -4 -9 -8 2 -16 12 -8 16 -5
21 17 4 20 0 33 -18 50 -13 13 -23 25 -23 27 0 3 19 5 42 5 23 0 38 -3 35 -6z
m-4351 -150 c-5 -13 -2 -15 14 -11 25 6 25 1 0 -48 -11 -22 -20 -46 -20 -55 1
-8 10 2 21 23 21 40 39 41 39 2 0 -13 5 -27 10 -30 6 -3 10 -13 10 -22 0 -9
-3 -13 -7 -10 -3 4 -15 -1 -25 -10 -11 -10 -19 -13 -18 -8 5 23 -1 30 -24 30
-13 0 -22 -3 -20 -6 2 -4 -3 -9 -11 -13 -20 -7 -19 -60 2 -94 22 -33 28 -40
75 -75 21 -16 46 -47 58 -74 23 -52 23 -53 11 -53 -5 0 -11 13 -14 29 -4 18
-21 40 -44 58 -43 32 -113 103 -113 115 0 4 -4 8 -10 8 -5 0 -10 -18 -10 -40
0 -42 10 -56 78 -107 17 -13 35 -37 41 -54 l11 -31 -25 16 c-20 13 -30 14 -46
5 -17 -9 -25 -7 -45 12 -21 20 -26 21 -34 9 -5 -8 -10 -29 -10 -46 0 -40 -5
-44 -41 -34 -25 7 -29 6 -29 -11 0 -12 -7 -19 -20 -19 -11 0 -20 4 -20 9 0 4
-9 20 -21 35 -20 25 -22 26 -45 11 -28 -18 -56 -19 -72 -3 -10 10 -19 5 -41
-20 -31 -34 -54 -34 -71 -2 -7 13 -1 35 25 85 19 36 35 77 35 89 0 15 21 43
62 81 59 56 62 61 66 114 l4 56 60 30 c45 22 55 31 42 35 -27 10 -3 17 31 9
17 -3 22 -7 12 -8 -10 0 -15 -6 -12 -11 4 -6 10 -8 15 -5 4 3 10 0 12 -7 3 -8
11 -7 28 5 14 9 37 17 52 17 16 0 27 3 27 8 -3 15 1 32 7 32 3 0 3 -7 0 -16z
m3047 -159 c14 -19 15 -29 7 -44 -5 -11 -10 -29 -10 -40 0 -11 -8 -28 -18 -38
-10 -10 -30 -35 -46 -56 -23 -31 -26 -42 -18 -65 14 -44 36 -38 87 27 27 34
55 61 63 61 8 0 33 20 56 45 24 25 51 45 61 45 15 0 9 -10 -27 -47 -25 -27
-67 -82 -93 -123 -58 -92 -111 -146 -130 -130 -10 8 -14 7 -18 -2 -2 -7 -8 4
-12 25 -8 41 -10 42 -45 22 -40 -23 -50 -19 -44 18 9 49 44 160 56 175 6 7 8
15 5 19 -4 3 -2 12 4 20 9 10 6 13 -14 13 -13 0 -30 -7 -37 -15 -15 -18 -23
-13 -27 16 -4 24 31 64 46 54 6 -3 25 1 43 9 17 9 39 16 49 16 10 0 21 5 24
10 9 15 18 12 38 -15z m-3623 -265 c0 -22 -85 -131 -107 -136 -23 -6 -32 -23
-13 -25 41 -5 79 -29 95 -59 8 -16 19 -30 23 -30 4 0 15 -12 25 -25 16 -23 17
-27 2 -55 -17 -32 -69 -70 -96 -70 -9 0 -28 -9 -42 -20 l-26 -21 -7 36 c-10
55 0 218 14 223 8 2 7 8 -4 19 -9 10 -14 29 -12 52 3 30 8 37 33 45 54 16 77
30 88 53 10 23 27 31 27 13z m3204 -125 c5 -18 -1 -36 -20 -65 -15 -22 -30
-40 -34 -40 -4 0 -10 -11 -12 -25 -5 -26 6 -34 16 -12 3 6 3 2 0 -11 -3 -13 1
-28 10 -38 10 -9 14 -24 10 -38 -3 -15 0 -25 8 -29 9 -3 13 -21 13 -54 -2 -62
-9 -73 -46 -73 -28 0 -69 -30 -69 -50 0 -6 7 -13 15 -16 8 -4 15 -12 15 -20 0
-8 6 -11 15 -8 8 4 15 14 15 24 0 12 12 22 35 30 43 14 69 48 53 67 -12 15 -7
23 74 107 35 35 64 76 74 105 25 67 30 71 90 71 l54 0 -3 -38 c-2 -20 -9 -47
-15 -59 -14 -25 -15 -43 -4 -43 4 0 36 23 71 52 60 50 64 51 77 33 21 -29 17
-42 -23 -77 -93 -81 -123 -116 -123 -142 0 -14 5 -26 10 -26 18 0 63 32 103
72 21 21 42 38 47 38 17 0 15 -138 -3 -187 -9 -27 -16 -33 -41 -33 -33 0 -121
-52 -137 -81 -12 -23 -39 -25 -39 -4 0 8 -8 15 -18 15 -9 0 -23 9 -30 20 -15
25 -31 26 -39 3 -3 -10 -13 -26 -22 -37 -15 -17 -14 -19 7 -33 27 -19 27 -26
1 -62 -12 -16 -18 -34 -15 -40 30 -49 -95 70 -186 176 -14 17 -46 40 -70 50
-115 53 -140 63 -158 63 -18 0 -18 2 -3 48 19 58 31 73 25 31 -3 -17 -1 -34 4
-38 5 -3 14 -15 20 -26 19 -34 39 -29 53 12 7 21 15 44 17 51 3 7 -2 12 -11
12 -10 0 -13 5 -9 11 5 9 -1 10 -20 5 -15 -4 -26 -2 -26 4 0 5 4 10 8 10 5 0
14 24 21 53 8 28 18 57 23 64 5 7 7 17 4 22 -7 11 9 43 37 75 9 11 17 23 17
26 0 3 15 12 34 18 45 17 88 51 80 64 -4 6 -2 8 3 5 6 -4 14 -18 17 -32z
m-2842 -265 c2 -5 27 -18 57 -29 60 -21 147 -89 149 -118 6 -65 -1 -109 -20
-130 -12 -13 -28 -23 -36 -23 -16 0 -120 102 -137 135 -13 25 -35 26 -46 3
-28 -57 -63 -108 -75 -108 -22 0 -53 -46 -56 -84 -2 -23 -9 -41 -17 -44 -9 -3
-12 0 -9 9 20 54 20 59 -6 59 -14 0 -27 -4 -31 -9 -10 -18 -65 -40 -66 -28 0
7 -5 1 -10 -12 -11 -29 -4 -55 12 -45 7 4 10 1 7 -7 -3 -8 -13 -15 -24 -17
-11 -2 -28 -16 -38 -32 -9 -17 -26 -30 -36 -30 -10 0 -20 -6 -23 -12 -3 -10
-7 -10 -19 -1 -8 7 -18 10 -21 6 -11 -10 -8 8 11 79 20 71 39 98 70 98 12 0
22 9 25 21 4 14 11 20 21 16 17 -7 56 40 56 66 0 9 5 19 11 23 8 4 7 9 -2 15
-7 4 -18 4 -24 -1 -6 -5 -29 -7 -52 -6 -31 2 -48 10 -66 32 -28 32 -23 55 16
75 12 7 24 15 27 18 20 27 73 51 107 50 64 -3 161 10 195 25 41 18 46 18 50 6z
m298 -335 c0 -9 9 -15 25 -15 41 0 28 -17 -17 -24 -33 -6 -56 -19 -101 -61
-50 -48 -56 -57 -47 -75 6 -11 8 -25 4 -31 -3 -6 5 -23 19 -37 68 -74 57 -102
-31 -84 -32 7 -75 12 -95 12 -27 0 -49 10 -82 34 -24 19 -54 37 -65 41 -32 10
-26 58 14 102 40 45 88 128 79 137 -4 3 9 -1 27 -11 51 -25 157 -23 201 4 41
25 69 29 69 8z m4434 -49 c-6 -41 -5 -44 25 -54 36 -13 37 -18 14 -44 -9 -10
-21 -38 -28 -63 -13 -51 -28 -63 -33 -25 -4 26 -40 72 -52 65 -3 -2 -14 9 -24
26 -20 34 -22 34 -70 14 -53 -22 -43 -50 19 -50 l29 0 1 -70 0 -70 -30 0 c-16
0 -35 3 -40 7 -16 11 -59 -15 -63 -37 -6 -30 -18 -38 -46 -31 -33 8 -33 20 -1
34 14 6 25 20 25 30 0 22 -52 73 -100 98 -33 17 -33 19 -12 22 15 2 33 -5 47
-18 35 -33 48 -17 42 49 -3 31 -7 63 -8 71 -3 12 5 14 38 12 24 -2 62 4 88 13
29 11 58 16 81 12 43 -7 74 6 74 32 0 21 9 32 21 25 5 -3 6 -24 3 -48z m-2524
-109 c0 -6 -4 -28 -10 -46 -9 -31 -3 -100 15 -196 5 -24 43 -67 54 -61 4 3 32
-10 62 -28 42 -25 57 -41 69 -74 23 -63 30 -66 90 -51 37 9 60 23 83 49 33 38
72 100 69 112 -4 18 38 37 92 41 24 2 34 11 56 52 25 47 71 83 108 85 20 0 14
-21 -8 -27 -11 -3 -18 -9 -15 -13 3 -5 -4 -11 -15 -15 -11 -3 -20 -10 -20 -15
0 -5 8 -7 18 -3 9 3 5 -3 -10 -15 -14 -12 -31 -22 -37 -22 -6 0 -11 -5 -11
-11 0 -5 5 -7 10 -4 6 3 10 -1 10 -10 0 -11 -5 -15 -15 -11 -8 3 -15 1 -15 -5
0 -5 6 -12 14 -15 11 -4 15 -53 6 -74 -1 -3 -2 -8 -1 -12 0 -5 -3 -8 -8 -8 -5
0 -12 -8 -15 -17 -3 -10 -4 -6 -2 9 2 15 -2 30 -8 33 -8 3 -8 7 0 10 7 3 10
16 7 28 -4 18 -3 19 6 7 6 -8 11 -10 11 -4 0 6 -7 17 -15 24 -12 10 -15 10
-15 -4 0 -9 -3 -16 -8 -16 -11 0 -39 -107 -50 -194 -6 -43 -14 -81 -18 -85
-27 -19 -54 -97 -54 -152 0 -32 -3 -59 -7 -59 -5 0 -19 -16 -32 -36 -18 -26
-24 -47 -22 -77 1 -22 -3 -53 -9 -68 -15 -36 -1 -62 42 -79 18 -7 47 -19 65
-26 17 -8 40 -14 51 -14 12 0 24 -4 27 -10 7 -11 48 -14 58 -4 3 4 23 8 44 9
128 11 163 23 212 78 8 9 22 17 29 17 8 0 27 9 43 21 32 22 75 18 65 -7 -3 -8
-1 -14 3 -14 5 0 7 -9 4 -19 -3 -13 2 -24 16 -33 12 -7 21 -19 21 -26 0 -7 8
-12 18 -11 34 3 40 -2 60 -43 42 -93 45 -105 36 -185 -5 -43 -7 -95 -6 -116 4
-41 -21 -82 -41 -70 -6 4 -8 0 -4 -10 4 -11 2 -14 -9 -10 -8 3 -14 -1 -14 -11
0 -19 -25 -33 -68 -37 -26 -3 -37 1 -51 20 -13 17 -28 24 -50 23 -17 0 -31 3
-31 8 0 12 -90 1 -107 -13 -27 -21 -15 -26 107 -42 30 -4 60 -17 60 -26 0 -5
7 -9 15 -9 8 0 19 -9 25 -21 7 -12 18 -18 26 -15 10 4 14 -3 14 -24 0 -17 -4
-30 -10 -30 -5 0 -10 7 -10 16 0 8 -4 13 -9 9 -5 -3 -12 -1 -15 3 -3 5 -27 5
-56 -1 -29 -6 -47 -14 -43 -20 3 -6 1 -7 -6 -3 -9 6 -9 11 0 22 9 10 9 14 0
14 -6 0 -14 -7 -18 -16 -5 -13 -7 -13 -14 -2 -7 10 -12 8 -25 -10 -9 -13 -22
-21 -29 -18 -8 3 -19 -2 -25 -9 -10 -12 -15 -12 -36 2 -24 15 -24 15 -26 -23
-3 -59 -5 -88 -7 -94 -2 -3 -4 -31 -6 -64 -4 -52 -3 -57 10 -40 13 18 14 18 8
-4 -5 -22 -73 -74 -90 -71 -5 1 -23 -2 -40 -6 -39 -9 -49 -47 -10 -38 21 4 21
4 2 -8 -11 -7 -37 -16 -58 -19 l-38 -7 4 62 c3 35 7 67 10 71 2 5 7 32 11 61
4 39 0 72 -19 137 -33 112 -32 130 5 156 16 12 34 19 39 16 5 -3 12 6 15 19 4
14 11 23 16 20 14 -8 46 25 53 55 7 27 -1 72 -12 66 -3 -2 -7 11 -8 30 -1 19
-8 47 -16 64 -14 26 -13 34 6 85 17 48 18 59 7 80 -7 14 -17 25 -22 25 -5 0
-25 12 -43 26 -19 14 -38 23 -44 20 -12 -8 -60 13 -83 37 -10 9 -22 17 -28 17
-10 0 -17 5 -88 70 -49 45 -67 50 -58 18 8 -33 -33 -111 -71 -137 -19 -12 -33
-30 -33 -41 0 -10 -4 -22 -10 -25 -16 -10 34 -85 57 -85 7 0 13 -7 13 -15 0
-14 43 -32 68 -27 6 2 12 -4 12 -13 0 -8 5 -15 10 -15 6 0 10 -5 10 -11 0 -8
-4 -8 -15 1 -8 6 -19 9 -25 5 -13 -8 -13 -55 0 -55 10 0 10 -21 -1 -30 -3 -3
-11 -14 -18 -25 -8 -13 -11 -14 -7 -3 6 20 -26 18 -32 -2 -3 -7 0 -10 6 -6 6
4 8 -1 5 -13 -3 -10 0 -22 6 -25 6 -4 11 -12 11 -17 0 -6 -4 -8 -9 -5 -13 8
-23 -55 -11 -69 7 -9 4 -20 -9 -37 -12 -15 -18 -33 -15 -45 6 -23 -11 -40 -22
-22 -3 6 0 16 7 21 11 8 11 9 -2 5 -17 -6 -69 43 -69 64 0 5 -4 7 -10 4 -5 -3
-10 2 -10 12 0 13 -3 15 -8 5 -5 -7 -15 -11 -23 -9 -8 2 -11 2 -6 0 4 -3 7
-12 7 -20 0 -9 6 -13 15 -9 8 3 15 1 15 -4 0 -5 -13 -8 -30 -8 -25 1 -28 3
-18 16 11 13 9 14 -12 7 -14 -4 -32 -8 -40 -9 -8 -1 -18 -5 -21 -10 -9 -12
-29 2 -39 28 -5 15 -7 8 -5 -24 4 -58 4 -57 14 -42 7 11 9 11 14 -2 5 -12 0
-15 -18 -14 -15 2 -25 9 -25 18 0 8 -7 28 -15 44 -8 15 -15 33 -14 40 0 6 4 2
9 -9 8 -19 9 -19 9 3 1 12 -3 22 -9 22 -5 0 -10 7 -10 15 0 11 9 14 33 11 17
-2 37 0 43 5 7 6 17 2 28 -10 14 -16 23 -17 54 -9 55 14 74 33 83 80 4 24 12
62 17 85 5 23 6 46 3 51 -10 16 -77 -12 -105 -44 -24 -29 -25 -29 -58 -12 -18
9 -41 19 -51 22 -10 3 -15 11 -12 16 4 6 -3 19 -14 29 -12 10 -19 25 -17 32
16 51 17 71 2 66 -12 -5 -14 7 -9 78 3 46 3 99 -1 118 -8 44 -58 94 -121 122
-27 13 -59 32 -69 44 -11 11 -27 21 -37 21 -21 0 -34 16 -19 25 15 9 1 27 -17
21 -8 -3 -12 -2 -9 3 7 10 -15 39 -32 43 -22 5 -79 62 -75 74 3 7 0 15 -6 18
-6 4 -7 14 -4 22 4 10 1 15 -8 14 -26 -4 -40 0 -34 10 4 6 -1 7 -10 3 -14 -5
-16 0 -14 23 3 19 0 28 -8 27 -22 -5 -28 48 -10 80 10 16 17 35 17 44 0 22 28
46 42 36 7 -4 18 -8 23 -8 18 -2 103 -43 109 -54 4 -6 14 -11 22 -11 9 0 35
-13 59 -30 24 -16 49 -30 56 -30 14 0 118 -43 171 -71 20 -10 55 -20 77 -21
22 -1 38 -4 36 -8 -5 -8 44 -20 81 -20 15 0 24 6 24 15 0 13 4 14 20 5 18 -10
24 -7 21 13 0 4 6 7 14 7 8 0 15 6 15 13 0 8 4 7 10 -3 11 -17 13 -1 4 24 -6
15 -8 15 -19 -1 -8 -10 -17 -15 -20 -11 -4 4 0 14 9 23 16 16 23 50 8 41 -4
-2 -8 13 -8 35 -1 40 -17 69 -38 69 -6 0 -4 -5 4 -10 12 -7 12 -12 2 -22 -13
-13 -17 -32 -4 -24 4 2 14 1 22 -4 12 -7 12 -13 1 -37 -12 -27 -13 -27 -28 -8
-8 11 -13 32 -10 48 2 15 0 27 -5 27 -4 0 -7 3 -7 8 1 4 1 18 0 32 -1 19 -4
22 -10 11 -8 -12 -13 -12 -35 3 l-26 16 -1 -32 c-1 -18 -1 -36 0 -40 0 -5 -4
-8 -11 -8 -9 0 -9 -3 0 -12 7 -7 12 -17 12 -22 0 -6 -4 -5 -9 3 -7 10 -13 11
-27 2 -11 -6 -15 -11 -10 -11 15 0 -26 -40 -42 -40 -11 0 -12 -3 -3 -14 7 -8
8 -17 3 -20 -5 -3 -15 5 -22 19 -7 13 -18 21 -25 19 -6 -3 -17 1 -23 9 -13 15
-66 11 -56 -4 7 -12 -7 -11 -26 1 -13 9 -13 10 0 10 8 0 -5 10 -28 21 -24 12
-46 28 -49 35 -3 8 -10 14 -15 14 -6 0 -5 -6 2 -15 22 -26 -6 -16 -35 13 -15
15 -32 27 -39 27 -6 0 -10 11 -10 23 1 17 -2 20 -9 13 -17 -17 -51 18 -36 36
15 17 22 17 64 -8 26 -16 33 -24 24 -30 -10 -6 -9 -9 4 -15 10 -3 20 -4 24 -1
3 4 21 0 40 -8 40 -17 57 -12 44 13 -15 29 -30 93 -20 87 5 -4 9 -3 9 0 0 8
-27 35 -35 35 -16 0 -55 56 -61 86 -3 19 -10 37 -15 40 -5 3 -9 12 -9 20 0 8
-11 25 -25 37 l-26 22 123 3 c99 2 139 8 203 29 44 14 84 29 90 34 13 13 25
11 25 -4z m874 -272 c11 -8 38 -15 60 -16 23 -1 52 -4 66 -8 22 -6 23 -8 7
-14 -11 -4 -23 -5 -28 -1 -5 3 -9 -1 -9 -8 0 -10 -2 -10 -8 0 -5 7 -19 14 -31
17 -12 2 -32 7 -43 11 -14 4 -18 2 -14 -5 4 -6 0 -11 -10 -11 -13 0 -14 3 -4
15 7 9 8 15 2 15 -15 0 -24 -32 -12 -44 5 -5 10 -48 10 -95 1 -48 6 -118 13
-158 15 -85 11 -104 -20 -92 -23 8 -61 69 -44 69 10 0 9 38 -1 55 -3 6 -6 44
-7 85 -1 41 -3 103 -4 137 l-2 63 30 0 c17 0 39 -7 49 -15z m217 -94 c-9 -6
-10 -20 -5 -47 7 -37 9 -49 12 -116 1 -16 11 -37 23 -49 24 -24 18 -55 -9 -44
-32 12 -36 10 -42 -20 -3 -16 -10 -30 -15 -30 -16 0 -35 67 -30 105 4 32 -10
105 -30 154 -17 40 47 -17 65 -58 l18 -41 0 43 c0 23 -5 42 -10 42 -5 0 -6 10
-3 21 5 14 2 25 -6 30 -11 7 -10 9 4 9 14 0 17 5 11 22 -6 21 -6 21 11 4 14
-13 15 -20 6 -25z m-2509 -365 c-8 -14 -2 -140 7 -146 5 -3 7 -19 3 -35 l-6
-30 -7 25 c-6 21 -7 18 -8 -16 -1 -23 6 -61 14 -85 12 -34 13 -44 3 -51 -25
-16 14 -27 92 -26 74 1 75 0 75 -25 1 -16 -3 -23 -12 -20 -8 3 -13 -2 -13 -12
0 -13 -6 -16 -25 -13 -13 3 -24 2 -23 -1 3 -27 -3 -31 -27 -15 -17 11 -38 15
-64 11 -53 -7 -65 2 -50 39 7 16 14 36 15 44 6 25 -7 80 -17 74 -5 -3 -9 12
-10 33 -1 21 -2 60 -4 87 -2 44 11 121 15 86 1 -8 6 -1 11 15 6 20 5 40 -3 59
l-12 29 -22 -27 c-13 -14 -26 -21 -29 -16 -3 6 -17 7 -31 4 -13 -3 -24 -2 -24
3 0 6 -22 10 -49 9 -27 0 -47 -4 -45 -8 2 -4 -1 -10 -7 -13 -7 -5 -9 1 -7 16
2 20 9 24 38 25 24 1 34 5 32 14 -2 10 0 11 11 2 8 -7 17 -9 20 -5 4 3 7 1 7
-5 0 -7 7 -12 15 -12 8 0 15 5 15 11 0 5 -5 7 -12 3 -6 -4 -8 -3 -5 4 8 12 -2
42 -14 42 -4 0 -6 -7 -3 -15 4 -8 1 -15 -6 -15 -8 0 -11 11 -7 33 3 19 -1 38
-9 47 -11 14 -9 16 21 15 19 0 35 -4 35 -8 0 -5 9 -5 20 -2 11 3 20 3 20 -2 0
-5 9 -9 20 -9 11 0 20 4 20 8 0 4 7 8 15 8 8 0 16 6 16 13 1 6 5 -22 9 -63 4
-41 5 -79 2 -84z m-731 34 c5 0 9 -9 9 -20 0 -12 10 -24 23 -30 20 -8 20 -9
-8 -9 -17 -1 -36 -6 -42 -12 -6 -6 -28 -9 -49 -6 l-39 4 43 1 c64 3 50 17 -18
17 -42 1 -60 -3 -60 -12 0 -7 -7 -10 -15 -7 -9 4 -15 0 -15 -7 0 -11 -2 -11
-9 0 -8 12 -14 13 -36 3 -35 -16 -37 -15 -25 8 9 16 8 20 -7 21 -11 0 -13 3
-5 6 20 8 15 43 -7 43 -11 0 -22 3 -24 8 -3 4 53 7 125 7 76 0 133 4 136 10 4
6 8 2 10 -7 2 -10 8 -18 13 -18z m1734 -357 c91 -82 92 -85 43 -189 -22 -48
-53 -107 -69 -132 l-29 -45 7 -153 6 -153 -39 -78 c-21 -43 -45 -85 -53 -93
-16 -16 -51 -22 -51 -9 0 5 -9 9 -19 9 -10 0 -22 7 -25 15 -5 14 -9 14 -36 0
-32 -17 -36 -33 -21 -98 11 -47 17 -53 35 -38 30 25 24 -8 -16 -90 -22 -46
-49 -93 -59 -104 -9 -11 -50 -83 -89 -160 -97 -189 -117 -226 -140 -250 -11
-12 -20 -25 -20 -29 0 -4 -11 -22 -25 -40 -14 -18 -32 -54 -41 -79 -15 -44
-18 -46 -47 -44 -37 4 -117 -31 -117 -50 0 -7 -4 -13 -9 -13 -6 0 -6 -12 0
-32 11 -40 11 -38 -1 -38 -5 0 -11 8 -11 18 -1 16 -2 16 -6 0 -2 -10 2 -25 11
-33 16 -16 31 -20 22 -6 -6 9 16 21 40 21 18 0 -35 -55 -86 -90 -19 -14 -44
-32 -54 -42 -11 -10 -25 -18 -31 -18 -19 0 -149 -68 -192 -101 -30 -23 -68
-38 -139 -55 -54 -12 -102 -20 -106 -18 -4 3 -8 16 -8 29 0 13 -5 27 -10 30
-35 21 -70 172 -37 160 16 -7 59 62 52 84 -4 14 3 72 17 130 5 24 -20 23 -32
-1 -11 -23 -11 -23 6 -3 16 20 16 20 10 -5 -3 -14 -6 -34 -6 -44 0 -16 -3 -17
-12 -8 -13 13 -32 16 -24 4 2 -4 1 -14 -4 -22 -5 -9 -4 -20 3 -29 10 -12 9
-13 -1 -7 -8 5 -20 2 -30 -7 -9 -8 -33 -22 -52 -31 l-35 -17 23 20 c15 13 18
21 10 23 -9 3 -8 9 4 22 14 14 22 15 40 6 22 -11 22 -10 -1 8 l-25 20 29 -5
c25 -5 27 -3 22 16 -3 14 -1 21 9 21 11 0 13 23 13 111 0 113 13 159 44 159 8
0 22 10 33 23 11 12 33 33 49 45 20 16 26 25 17 29 -10 4 -9 11 4 31 10 15 25
46 33 69 14 35 111 153 127 153 10 0 34 28 34 39 0 14 58 43 70 36 6 -3 15 5
21 18 6 14 30 35 53 47 22 13 70 47 106 76 36 29 90 62 120 74 78 29 102 41
127 63 22 20 22 20 34 -7 14 -30 21 -32 55 -10 16 11 23 23 19 34 -3 10 0 20
9 23 8 3 25 25 36 47 15 30 26 40 37 36 9 -4 31 3 49 13 25 15 34 17 34 7 0
-22 45 -45 88 -44 46 0 79 26 68 54 -5 14 -10 13 -31 -10 -23 -25 -45 -34 -45
-18 0 4 -10 8 -22 9 -28 3 -52 27 -45 47 8 21 54 20 66 -1 7 -12 10 -13 11 -4
0 7 6 11 15 7 10 -3 15 1 16 12 0 10 3 12 6 5 2 -7 13 -13 24 -13 21 0 62 58
54 78 -2 6 0 12 5 12 6 0 10 4 10 10 0 13 -65 24 -85 13 -9 -5 -37 -7 -61 -3
-25 4 -47 3 -50 -2 -3 -4 -13 -8 -24 -8 -13 0 -17 7 -16 25 0 16 6 23 13 20 7
-2 17 4 23 15 15 28 13 32 -17 28 -20 -2 -29 2 -31 15 -3 15 2 18 30 15 18 -2
36 -10 41 -18 4 -9 6 -5 4 13 -3 18 0 27 9 27 8 0 14 -4 14 -9 0 -16 40 -23
55 -11 8 7 15 22 15 34 0 11 6 32 13 46 15 28 12 50 -6 50 -6 0 -41 16 -79 35
-37 20 -68 31 -68 24 0 -6 -6 -9 -12 -6 -7 2 -30 -2 -52 -9 -21 -8 -42 -11
-48 -8 -11 7 25 44 42 44 6 0 33 18 61 40 28 22 54 40 57 40 4 0 18 17 31 38
14 20 43 55 65 77 23 22 49 52 59 68 10 15 20 27 23 27 3 0 34 -26 69 -57z
m-472 -22 c4 -1 7 -10 7 -20 0 -11 6 -26 13 -33 7 -7 16 -21 20 -31 10 -27 52
-19 52 10 1 19 58 83 75 83 3 0 13 -8 22 -19 8 -10 21 -20 28 -23 18 -6 5 -69
-21 -96 -11 -13 -32 -22 -49 -22 -16 0 -46 -9 -67 -19 -119 -60 -148 -70 -194
-66 -39 4 -49 1 -68 -19 -13 -14 -29 -22 -36 -20 -16 6 -26 -51 -11 -66 7 -7
5 -10 -6 -10 -14 0 -16 -7 -11 -37 6 -37 6 -38 -14 -20 -25 22 -32 22 -42 -4
-7 -20 -10 -18 -33 22 -34 57 -82 102 -138 129 -25 12 -53 26 -62 31 -10 5
-27 5 -41 0 -16 -6 -28 -6 -36 2 -8 8 -11 5 -11 -12 0 -19 -3 -21 -14 -12 -14
12 -46 5 -58 -13 -4 -6 -11 -6 -20 1 -17 14 -81 8 -120 -12 -35 -17 -52 -19
-43 -5 3 5 -20 0 -52 -11 -55 -19 -59 -19 -105 -2 -40 14 -45 19 -35 32 10 12
9 14 -9 9 -12 -3 -30 -1 -40 5 -21 12 -94 25 -197 33 -37 4 -67 10 -67 14 0 5
24 13 53 19 78 15 137 6 188 -30 14 -10 36 -20 50 -24 20 -5 25 -2 25 14 0 14
-7 21 -18 21 -10 0 -18 5 -18 11 0 6 8 8 19 4 10 -3 29 -1 42 5 20 8 14 9 -31
8 -54 -2 -100 13 -100 32 0 9 86 15 175 12 39 -1 39 -1 10 8 -16 5 -66 8 -110
6 -76 -3 -115 5 -115 23 0 6 194 24 245 23 22 -1 111 -13 122 -17 13 -4 43 20
43 35 0 5 -7 6 -17 3 -10 -4 -14 -2 -10 4 9 14 65 9 80 -6 9 -10 5 -11 -18 -6
l-30 6 28 -16 c16 -9 26 -19 23 -23 -4 -3 -12 0 -18 6 -14 14 -38 16 -38 3 0
-5 10 -12 23 -16 18 -6 15 -9 -23 -15 -25 -5 -67 -9 -94 -9 -27 -1 -47 -3 -45
-5 4 -5 231 -19 267 -17 13 0 21 -2 19 -7 -3 -4 1 -13 9 -20 11 -10 14 -10 15
0 1 7 5 0 9 -17 l8 -30 1 28 1 28 118 -6 c64 -3 134 -8 155 -11 l37 -4 1 57
c1 32 0 68 0 79 -4 43 16 49 160 48 74 -1 137 -2 142 -3z m2935 -698 c1 -25 5
-55 8 -66 5 -15 3 -19 -8 -14 -11 4 -14 -1 -10 -18 3 -17 -3 -28 -21 -40 -14
-9 -29 -30 -32 -46 -4 -16 -19 -42 -34 -57 -18 -17 -37 -55 -51 -101 -13 -41
-26 -69 -28 -62 -2 6 8 50 23 96 15 46 24 88 22 92 -3 5 -2 24 3 43 5 24 8 28
9 13 2 -35 34 -29 48 8 7 17 9 37 6 44 -9 25 42 155 61 155 1 0 3 -21 4 -47z
m738 -198 c-1 -8 -5 -18 -9 -21 -4 -4 -7 -16 -7 -26 0 -10 -4 -18 -9 -18 -5 0
-14 -12 -20 -27 -6 -16 -26 -39 -43 -53 -42 -33 -80 -72 -94 -96 -7 -10 -14
-16 -18 -13 -3 3 3 17 14 32 24 31 25 41 3 33 -16 -6 -16 -6 -1 11 22 24 68
123 68 147 0 12 5 16 15 12 9 -3 15 0 15 9 0 8 7 15 15 15 8 0 15 -5 15 -12 0
-8 6 -6 17 5 21 21 42 22 39 2z m-4717 -244 c44 -43 77 -99 87 -150 5 -25 4
-32 -4 -27 -8 5 -12 -2 -12 -18 0 -29 -12 -33 -30 -11 -14 17 -40 20 -40 6 0
-17 -44 -16 -78 1 -23 11 -41 14 -60 8 -15 -5 -40 -12 -57 -17 -20 -6 -30 -15
-31 -28 -2 -48 -5 -55 -16 -52 -9 1 -13 -13 -13 -45 -1 -53 -14 -72 -67 -99
-38 -20 -41 -24 -42 -69 -1 -16 -11 -29 -31 -40 -55 -29 -98 -83 -100 -127 0
-13 -7 -28 -14 -32 -7 -5 -12 -12 -12 -17 1 -15 -10 -44 -17 -45 -4 0 -43 -1
-87 -2 -63 -2 -88 -7 -118 -24 -21 -13 -40 -23 -43 -23 -7 0 -5 686 2 693 9 9
41 -34 59 -77 15 -36 12 -57 -17 -113 -19 -37 5 -69 55 -76 23 -3 43 -11 45
-16 5 -14 29 -14 37 -1 3 5 2 25 -4 44 -5 19 -7 37 -4 40 9 9 52 -17 58 -34 7
-23 54 -24 48 -1 -5 19 54 54 83 50 11 -2 24 0 31 4 13 8 43 -29 43 -54 0 -14
19 -29 36 -29 2 0 4 20 4 45 0 24 6 48 13 52 6 4 19 21 26 36 13 25 13 31 -2
56 -24 40 -21 48 14 48 21 0 38 9 58 30 l28 31 -24 13 c-13 7 -39 13 -57 12
-30 -1 -32 1 -28 23 6 32 31 44 96 48 29 2 61 8 72 14 37 22 71 14 113 -27z
m4411 -190 c0 -38 -9 -45 -221 -176 -38 -24 -115 -75 -125 -83 -32 -28 -56
-34 -73 -18 -19 17 -41 5 -41 -23 0 -11 3 -11 13 4 8 11 19 15 26 10 16 -10
-17 -42 -53 -51 -23 -5 -25 -4 -19 12 6 17 5 17 -10 5 -16 -13 -16 -15 -1 -32
10 -11 12 -19 6 -19 -16 0 -35 -39 -28 -57 5 -12 9 -13 21 -3 8 7 15 9 15 5 0
-14 -35 -34 -60 -35 -20 0 -22 2 -10 10 10 6 11 10 3 10 -7 0 -13 7 -13 15 0
8 -7 15 -16 15 -11 0 -14 6 -9 23 5 17 4 18 -4 7 -5 -8 -13 -11 -17 -7 -5 4 6
22 24 39 17 18 35 28 39 24 4 -5 3 -11 -4 -13 -14 -5 -6 -33 9 -33 6 0 8 7 5
15 -4 8 -1 17 5 21 7 4 6 9 -2 14 -9 6 7 29 54 76 36 38 66 74 66 80 0 7 15
16 33 19 17 4 37 12 44 17 6 5 35 18 65 28 l53 20 -25 -20 c-14 -12 -38 -27
-55 -34 -16 -8 -48 -30 -70 -51 l-40 -37 43 23 c23 12 42 26 42 31 0 4 4 8 10
8 5 0 55 29 110 65 55 36 105 65 110 65 6 0 10 4 10 9 0 5 11 12 25 15 14 4
25 13 25 20 0 15 20 26 33 19 4 -2 7 -17 7 -32z m-4558 -125 c21 -5 30 -15 37
-44 6 -20 11 -45 11 -54 0 -25 11 -48 23 -48 24 0 57 -44 57 -76 0 -34 25 -53
44 -34 19 19 34 10 38 -21 4 -23 -1 -36 -15 -50 -20 -19 -57 -26 -57 -11 0 4
-19 8 -43 10 -23 1 -57 7 -75 13 -18 6 -49 8 -67 5 -27 -5 -36 -3 -44 13 -9
15 -6 22 12 33 12 8 30 17 40 21 9 3 17 16 17 27 0 11 9 39 20 61 16 31 18 44
10 59 -6 11 -15 18 -21 15 -5 -4 -9 5 -9 19 0 33 -10 57 -21 50 -10 -6 -12 19
-2 29 4 4 9 3 12 -1 3 -5 18 -12 33 -16z m1716 -130 c-15 -69 -7 -119 20 -131
12 -5 22 -15 22 -21 0 -7 15 -21 34 -32 29 -17 36 -28 42 -69 11 -77 29 -111
69 -130 25 -12 38 -14 43 -6 4 5 17 13 30 17 18 6 22 3 22 -13 0 -24 -61 -64
-85 -55 -12 5 -16 2 -13 -11 2 -13 -5 -18 -24 -21 -31 -3 -39 12 -10 19 13 4
11 5 -5 6 -19 1 -23 7 -23 31 0 17 -9 39 -19 49 -13 13 -22 41 -26 86 -8 75
-18 84 -67 61 -28 -14 -36 -26 -52 -77 -10 -34 -21 -57 -26 -53 -9 11 -40 147
-40 179 0 12 9 30 20 40 11 10 22 34 26 54 10 60 15 73 42 98 14 12 26 23 27
23 2 0 -2 -20 -7 -44z m-1788 0 c0 -1 -12 -25 -26 -52 -15 -27 -33 -60 -40
-74 -23 -43 -16 -58 12 -25 14 17 23 22 20 13 -15 -50 -17 -96 -6 -150 12 -56
12 -62 -5 -75 -28 -20 -38 -12 -54 40 -17 54 -45 64 -61 21 -21 -53 -2 -133
42 -181 28 -30 13 -47 -58 -68 -32 -9 -58 -23 -64 -35 -17 -31 -72 -50 -117
-39 -21 5 -51 9 -68 9 -30 0 -30 1 -33 61 l-2 61 25 -16 c23 -15 26 -15 31 -1
3 8 4 22 1 30 -4 8 -2 17 3 20 6 4 10 10 10 16 0 5 -9 4 -20 -3 -11 -7 -18
-19 -15 -25 3 -9 -6 -13 -25 -13 -39 0 -53 -27 -37 -69 11 -29 9 -33 -19 -59
-57 -51 -64 -45 -64 62 0 65 4 99 13 108 7 7 22 26 32 41 13 21 25 27 44 25
14 -1 32 2 40 6 8 5 16 4 21 -4 8 -13 14 -11 60 15 14 8 43 15 66 15 50 0 74
23 104 99 12 31 40 74 65 100 25 25 47 58 50 73 4 15 10 28 14 28 4 0 14 11
21 25 7 14 19 25 27 25 7 0 13 -2 13 -4z m3996 -147 c3 -6 0 -16 -7 -21 -10
-7 -8 -8 8 -3 17 4 25 -1 39 -24 10 -16 22 -27 27 -24 5 3 6 -3 3 -15 -4 -11
-2 -23 4 -27 6 -3 8 -11 4 -16 -3 -5 -10 -7 -15 -4 -5 4 -9 -1 -9 -9 0 -9 -5
-16 -11 -16 -6 0 -9 9 -6 19 3 13 -2 21 -17 26 -11 4 -24 7 -28 6 -5 -1 -8 10
-8 24 0 19 -4 23 -17 18 -11 -5 -14 -3 -8 6 6 10 2 10 -16 0 -20 -11 -21 -14
-6 -17 15 -3 21 -14 18 -34 0 -4 8 -9 18 -13 10 -3 23 -15 28 -28 15 -32 38
-110 36 -125 0 -7 5 -11 12 -8 9 3 12 -5 11 -27 -2 -19 5 -43 17 -59 12 -15
18 -31 14 -34 -4 -4 0 -12 8 -18 8 -6 17 -31 20 -56 5 -44 5 -45 -6 -10 -13
44 -34 67 -25 28 11 -46 23 -72 45 -96 16 -16 19 -27 13 -39 -8 -14 -11 -13
-17 7 -4 13 -16 33 -26 44 -11 11 -19 25 -19 32 0 19 -64 114 -77 114 -7 0
-13 5 -13 10 0 6 -5 10 -11 10 -6 0 -16 6 -24 13 -22 22 -65 115 -65 140 0 12
-9 40 -20 62 -15 30 -17 41 -7 47 6 4 8 8 2 8 -5 0 -3 5 5 10 12 8 10 10 -8
10 -13 0 -20 -4 -17 -10 3 -5 2 -10 -3 -10 -6 0 -12 7 -16 15 -3 10 1 15 13
15 28 0 101 41 120 67 18 25 27 28 37 12z m-2983 -175 c3 -4 2 -15 -4 -25 -8
-15 -6 -17 6 -13 13 6 14 3 4 -19 -12 -27 -45 -42 -55 -26 -3 6 -1 16 6 24 7
8 7 15 1 19 -11 7 -27 -56 -22 -87 3 -22 -25 -33 -44 -17 -12 10 -21 8 -47
-12 -52 -39 -136 -82 -228 -117 -47 -18 -100 -39 -118 -47 -19 -9 -71 -22
-115 -30 -45 -7 -124 -29 -176 -49 -51 -20 -99 -34 -105 -31 -6 2 -4 5 4 5 13
1 113 45 161 71 9 4 37 11 62 15 26 4 44 11 41 17 -3 5 4 6 18 3 13 -3 47 4
78 16 30 12 74 28 97 36 24 9 40 19 37 24 -3 5 3 8 13 7 44 -3 65 3 70 21 3
12 11 17 20 14 10 -4 14 0 11 13 -2 13 3 19 20 20 12 1 26 5 30 9 4 5 -2 5
-13 1 -13 -5 -17 -4 -10 3 6 5 24 12 40 16 29 6 29 6 11 -9 -19 -16 -19 -16 2
-16 21 0 47 32 35 44 -3 3 8 9 25 12 17 3 29 11 27 18 -3 11 88 96 104 96 4 0
11 -3 14 -6z m-266 -386 c-4 -13 0 -29 9 -39 14 -16 13 -20 -17 -46 -18 -15
-47 -43 -66 -61 -18 -18 -38 -32 -45 -30 -17 3 -94 -28 -103 -42 -3 -5 -12
-10 -18 -10 -15 0 41 48 71 60 12 5 25 17 29 25 8 22 -13 65 -33 65 -8 0 -14
4 -12 9 5 15 137 80 143 71 3 -4 -9 -13 -27 -19 -39 -14 -32 -23 11 -15 22 5
36 15 42 30 11 30 23 31 16 2z"/>
<path d="M2055 7138 c-29 -17 -44 -40 -45 -69 0 -65 89 -94 129 -43 28 36 26
60 -8 95 -32 31 -45 35 -76 17z"/>
<path d="M2804 7127 c-53 -46 -26 -127 43 -127 68 0 98 76 48 125 -30 31 -56
32 -91 2z"/>
<path d="M4061 6544 c-22 -28 -22 -29 -25 -111 l-2 -53 84 0 84 0 -6 67 c-6
83 -28 117 -78 121 -29 2 -40 -2 -57 -24z"/>
<path d="M4697 6566 c-145 -64 -154 -267 -15 -335 54 -26 100 -26 153 -2 79
35 113 102 102 197 -12 109 -141 184 -240 140z"/>
<path d="M2740 6484 l0 -86 32 6 c66 13 90 45 79 104 -4 27 -55 62 -88 62 -22
0 -23 -3 -23 -86z"/>
<path d="M3466 6562 c-10 -9 -7 -330 2 -336 14 -8 84 14 115 36 35 25 67 87
67 130 0 48 -39 119 -78 141 -36 21 -98 38 -106 29z"/>
<path d="M1381 5526 c-9 -11 -8 -18 4 -30 9 -9 13 -16 8 -17 -4 0 -15 -2 -24
-4 -9 -1 -23 1 -30 6 -10 6 -8 9 9 9 26 0 29 15 6 24 -10 4 -22 -1 -30 -11
-16 -22 -17 -25 -4 -60 9 -24 8 -26 -3 -11 -15 20 -29 14 -20 -8 3 -8 0 -14
-6 -14 -6 0 -8 -7 -4 -17 6 -15 7 -15 13 2 9 26 46 29 63 5 13 -18 16 -19 27
-5 13 16 59 11 71 -8 8 -12 39 -2 39 13 0 15 -20 12 -20 -2 -1 -7 -10 4 -21
25 -11 20 -24 37 -30 37 -6 0 -7 5 -3 11 5 8 9 8 14 -1 5 -8 10 -9 14 -2 3 6
2 13 -3 17 -6 3 -7 13 -4 23 4 11 -2 8 -16 -8 -20 -22 -21 -23 -12 -3 8 15 8
24 1 28 -6 4 -9 1 -8 -6 2 -6 -2 -13 -9 -16 -7 -3 -9 3 -6 16 6 24 0 27 -16 7z"/>
<path d="M1367 5362 c-18 -11 -26 -23 -23 -34 2 -11 -3 -18 -18 -21 -18 -4
-17 -4 5 -6 14 0 48 6 76 14 28 8 59 14 69 12 26 -4 134 -57 158 -76 14 -12
20 -13 23 -4 3 8 14 11 28 7 16 -4 27 1 38 16 9 12 20 19 26 16 6 -4 20 -2 33
5 l22 12 -28 14 c-32 17 -58 11 -50 -11 4 -11 0 -13 -18 -9 -13 3 -27 9 -33
13 -21 15 -63 20 -69 7 -3 -6 -3 -2 0 11 6 26 -8 29 -30 6 -15 -14 -16 -13
-16 7 0 17 -3 19 -14 10 -10 -8 -16 -8 -24 1 -6 7 -29 12 -51 12 -23 -1 -41 2
-41 8 0 5 -7 2 -16 -6 -20 -20 -28 -20 -20 -1 3 8 4 15 3 14 -1 0 -15 -8 -30
-17z"/>
<path d="M2550 3022 c0 -6 5 -14 10 -17 16 -10 1 -25 -17 -18 -11 4 -14 3 -9
-5 5 -8 2 -10 -9 -6 -14 6 -14 8 2 19 10 8 14 17 9 22 -5 4 -11 2 -13 -5 -3
-6 -9 -10 -14 -6 -5 3 -9 -10 -9 -29 0 -25 6 -37 23 -45 20 -10 19 -11 -8 -5
-16 3 -37 12 -46 19 -8 8 -21 14 -27 14 -7 0 -12 5 -12 10 0 16 -27 12 -34 -6
-10 -26 20 -69 61 -87 70 -29 142 -49 155 -41 7 4 10 4 6 -1 -7 -7 21 -30 126
-101 17 -12 36 -19 42 -17 7 2 15 0 19 -6 4 -8 13 -6 28 4 12 9 39 20 60 26
27 7 37 15 37 29 0 14 -7 20 -22 20 l-22 0 23 16 c15 11 21 23 18 35 -3 11 1
23 10 28 31 17 7 37 -48 40 -29 1 -60 6 -70 12 -31 16 -66 11 -72 -11 -5 -21
9 -28 15 -8 3 8 16 0 35 -19 17 -17 34 -29 37 -26 3 4 6 2 6 -3 0 -6 -5 -15
-11 -21 -7 -7 -8 -19 -4 -30 15 -33 13 -38 -16 -39 -29 -1 -40 18 -19 31 17
10 11 37 -13 59 -16 15 -33 20 -60 18 -23 -2 -37 1 -37 8 0 7 7 10 15 7 8 -4
17 -1 21 5 5 7 -2 9 -18 6 -23 -4 -26 -1 -31 33 -5 35 -25 69 -42 69 -3 0 -5
-7 -3 -16 2 -10 -3 -19 -9 -21 -7 -3 -13 2 -13 9 0 8 -11 25 -25 38 -14 13
-25 18 -25 12z"/>
<path d="M3513 2593 c4 -5 -19 -10 -51 -11 -76 -1 -74 -1 -67 -12 3 -5 2 -10
-3 -10 -5 0 -10 -10 -10 -22 0 -37 -21 -105 -37 -118 -11 -9 -13 -27 -8 -78 3
-37 10 -71 15 -77 7 -7 8 -2 3 14 -5 17 -4 22 6 19 8 -3 13 -14 11 -24 -8 -44
-9 -70 -3 -79 3 -5 8 4 11 20 3 17 8 28 12 25 3 -3 15 3 27 14 20 18 20 18 27
-23 4 -22 10 -41 15 -41 4 0 6 12 3 28 -9 59 -9 65 4 68 7 1 8 0 2 -3 -14 -7
-13 -20 3 -26 16 -6 23 130 7 153 -8 12 -10 10 -10 -10 0 -18 -3 -21 -9 -11
-9 15 -4 48 10 57 5 2 16 -4 26 -16 16 -19 18 -19 25 -3 10 28 10 -38 -1 -73
-15 -46 -22 -112 -11 -94 5 8 10 25 10 37 0 40 18 33 31 -12 14 -49 28 -60 24
-20 -2 14 1 27 5 30 5 3 7 12 4 19 -3 8 -1 17 5 20 7 5 7 15 1 31 -6 17 -6 25
1 25 6 0 7 5 4 10 -10 17 -23 11 -28 -12 l-4 -23 -2 23 c0 12 -5 22 -11 22 -5
0 -10 8 -9 18 0 9 3 12 5 5 4 -8 13 -7 34 5 24 14 27 19 18 37 -10 17 -9 18 3
8 23 -19 26 -19 48 1 42 38 20 76 -54 95 -27 7 -58 15 -69 18 -10 3 -16 1 -13
-4z"/>
<path d="M1290 1429 c0 -5 -4 -7 -10 -4 -5 3 -10 1 -10 -4 0 -18 5 -26 13 -23
4 1 7 -2 7 -7 0 -14 37 -20 51 -7 9 8 10 8 5 -2 -4 -7 -2 -19 4 -27 8 -10 10
-28 5 -51 -7 -41 -25 -64 -49 -64 -12 0 -16 -11 -16 -44 0 -25 5 -48 11 -52
19 -12 -1 -74 -37 -112 -31 -33 -42 -52 -29 -52 2 0 14 10 26 23 l21 22 -7
-45 c-4 -25 -13 -48 -19 -52 -11 -8 5 -12 32 -9 6 1 12 -5 12 -13 0 -9 9 -20
20 -26 17 -9 20 -6 29 27 5 21 13 54 16 74 7 36 8 37 62 44 33 4 62 14 74 26
20 20 25 54 10 63 -12 8 31 95 58 120 12 11 21 31 21 48 0 15 3 28 8 28 11 0
62 -60 62 -74 0 -7 11 -23 25 -36 29 -27 31 -21 10 20 -9 17 -16 33 -16 37 -5
38 -54 102 -61 81 -3 -7 -9 -8 -19 -3 -21 14 -49 16 -49 5 0 -18 -39 -11 -50
9 -14 28 -51 37 -65 17 -10 -14 -16 -10 -45 25 -27 34 -37 40 -61 37 -15 -3
-26 -1 -23 4 3 4 0 8 -5 8 -6 0 -11 -5 -11 -11z"/>
<path d="M1186 1258 c-9 -29 -29 -65 -43 -81 -26 -26 -26 -29 -13 -60 7 -17
13 -54 12 -81 -1 -31 3 -55 12 -65 8 -9 18 -28 21 -43 4 -16 14 -28 22 -28 12
0 14 7 7 33 -9 37 -9 96 1 150 6 29 4 37 -8 37 -8 0 -20 7 -27 15 -10 13 -10
19 3 33 15 16 46 92 50 121 1 8 -3 16 -9 18 -6 2 -18 -20 -28 -49z"/>
<path d="M1050 971 c0 -22 -4 -43 -10 -46 -13 -8 -13 -54 1 -95 11 -30 10 -34
-20 -57 -22 -17 -30 -31 -26 -43 4 -12 -3 -25 -20 -38 -28 -22 -32 -32 -11
-32 20 0 27 -71 10 -91 -19 -21 -17 -42 5 -67 23 -28 31 -19 31 33 0 41 1 42
30 39 29 -4 30 -3 30 41 0 24 -4 47 -10 50 -17 11 -11 35 15 61 37 37 45 58
45 116 0 69 -9 105 -22 86 -7 -9 -8 -5 -4 13 4 18 -1 32 -15 47 -11 12 -22 22
-24 22 -3 0 -5 -18 -5 -39z"/>
<path d="M1203 785 c-17 -12 -23 -26 -23 -56 0 -38 -19 -54 -35 -28 -13 19
-43 -21 -47 -62 -3 -32 -1 -38 13 -34 8 3 24 -4 34 -15 23 -26 31 -25 38 2 6
20 7 20 31 5 14 -10 27 -17 30 -17 3 0 3 31 0 70 -3 42 0 78 6 91 14 25 22 19
35 -29 6 -20 16 -37 23 -36 7 1 22 2 35 3 12 1 36 13 52 27 l30 24 -25 20
c-22 16 -27 17 -41 4 -18 -16 -39 -19 -39 -4 0 12 -38 37 -70 45 -15 3 -34 0
-47 -10z"/>
</g>
</svg>
