<?xml version="1.0" standalone="no"?>
<!DOCTYPE svg PUBLIC "-//W3C//DTD SVG 20010904//EN"
 "http://www.w3.org/TR/2001/REC-SVG-20010904/DTD/svg10.dtd">
<svg version="1.0" xmlns="http://www.w3.org/2000/svg"
 width="430.000000pt" height="656.000000pt" viewBox="0 0 430.000000 656.000000"
 preserveAspectRatio="xMidYMid meet">
<metadata>
Created by potrace 1.16, written by Peter Selinger 2001-2019
</metadata>
<g transform="translate(0.000000,656.000000) scale(0.100000,-0.100000)"
fill="#000000" stroke="none">
<path d="M1680 6184 c-89 -186 -112 -238 -60 -141 l30 57 118 0 119 0 23 -51
c13 -28 27 -52 31 -55 4 -2 -30 78 -76 178 -46 100 -87 184 -92 185 -5 2 -47
-76 -93 -173z m191 -51 l9 -23 -110 0 c-61 0 -110 2 -110 5 0 3 25 56 56 117
l56 112 45 -94 c25 -52 49 -105 54 -117z"/>
<path d="M1566 5844 c-3 -26 -5 -110 -4 -188 1 -94 3 -114 5 -58 l4 82 72 0
72 0 55 -80 c30 -44 59 -80 63 -80 8 0 -27 52 -86 130 l-18 24 37 13 c50 18
72 39 80 79 15 83 -45 124 -182 124 l-91 0 -7 -46z m234 11 c49 -44 45 -106
-10 -142 -28 -20 -46 -23 -121 -23 -48 0 -90 3 -92 8 -3 4 -3 47 0 96 l6 88
98 -4 c79 -3 102 -7 119 -23z"/>
<path d="M1930 5858 c0 -18 -2 -100 -4 -183 -2 -82 -2 -125 0 -95 7 102 6 100
79 100 l65 0 62 -84 c35 -47 64 -83 67 -81 2 3 -22 39 -53 82 l-56 78 35 8
c19 5 46 23 61 40 21 25 25 38 21 70 -10 74 -56 97 -194 97 l-83 0 0 -32z
m225 -2 c35 -23 48 -53 40 -93 -10 -55 -50 -73 -162 -73 l-93 0 0 96 0 97 96
-6 c61 -3 104 -11 119 -21z"/>
<path d="M2396 5851 c-46 -88 -164 -341 -157 -337 4 3 18 27 31 55 l23 51 123
0 122 0 22 -55 c12 -30 26 -55 30 -55 11 0 -157 364 -169 368 -6 2 -17 -10
-25 -27z m77 -96 c26 -58 47 -110 47 -115 0 -13 -197 -13 -205 -1 -6 10 95
221 105 221 4 0 27 -47 53 -105z"/>
<path d="M1083 5353 c-17 -38 -56 -121 -86 -185 -40 -83 -52 -118 -42 -118 8
0 24 23 36 50 l21 50 113 0 112 0 21 -50 c12 -29 27 -50 36 -50 13 0 12 9 -8
53 -129 291 -142 317 -157 317 -10 0 -27 -25 -46 -67z m94 -70 l41 -98 -44 -3
c-24 -2 -65 -2 -92 0 l-49 3 45 98 c25 53 48 97 51 97 4 0 25 -44 48 -97z"/>
<path d="M1604 5244 c-50 -105 -82 -184 -79 -193 5 -11 15 1 36 42 l29 57 106
0 105 0 25 -55 c14 -30 32 -55 39 -55 18 0 14 10 -78 214 -40 88 -78 161 -85
164 -8 2 -43 -60 -98 -174z m146 28 c22 -51 40 -95 40 -98 0 -2 -40 -4 -90 -4
-65 0 -90 3 -90 13 -1 21 85 195 92 188 4 -4 26 -48 48 -99z"/>
<path d="M1960 5224 c0 -144 3 -185 13 -182 8 3 13 48 17 158 l5 153 69 -101
c39 -56 71 -102 72 -102 1 0 33 45 70 100 l69 99 3 -154 c2 -129 5 -155 17
-155 13 0 15 29 15 185 0 141 -3 185 -12 185 -7 0 -46 -48 -86 -105 -40 -58
-77 -103 -81 -101 -3 3 -36 50 -71 105 -96 148 -100 145 -100 -85z"/>
<path d="M2655 5394 c-45 -23 -66 -45 -86 -89 -38 -83 -14 -187 57 -241 33
-26 46 -29 108 -29 57 0 78 5 109 23 l37 24 0 74 0 74 -75 0 c-60 0 -75 -3
-75 -15 0 -12 13 -15 60 -15 l60 0 0 -55 c0 -51 -2 -56 -31 -71 -44 -22 -127
-22 -166 1 -46 27 -73 82 -73 147 0 61 23 105 73 142 36 27 122 28 160 3 15
-9 31 -17 37 -17 21 0 9 21 -22 40 -41 25 -130 27 -173 4z"/>
<path d="M3037 5227 c-48 -100 -87 -185 -87 -189 0 -24 24 -1 47 47 l27 55 77
0 c123 0 136 -5 161 -61 11 -27 27 -49 34 -49 19 0 18 3 -19 84 -18 39 -53
118 -78 174 -24 57 -51 108 -60 112 -13 7 -31 -23 -102 -173z m142 44 c22 -51
41 -97 41 -102 0 -5 -40 -9 -90 -9 -53 0 -90 4 -90 10 0 10 93 201 96 197 1
-1 20 -44 43 -96z"/>
<path d="M305 4956 c-105 -47 -144 -180 -83 -287 45 -81 167 -109 256 -59 l42
24 0 73 0 73 -75 0 c-43 0 -75 -4 -75 -10 0 -6 27 -10 60 -10 70 0 76 -7 66
-74 -6 -40 -11 -46 -47 -60 -52 -21 -102 -20 -147 3 -46 24 -71 65 -79 130 -7
63 23 131 73 162 47 28 127 28 166 -1 27 -20 48 -20 48 0 0 4 -19 18 -43 29
-49 24 -117 27 -162 7z"/>
<path d="M620 4775 l0 -185 135 0 c169 0 183 18 18 22 l-118 3 -3 73 -3 72
106 0 c87 0 105 3 105 15 0 12 -18 15 -105 15 l-106 0 3 73 3 72 114 0 c82 0
115 3 118 13 4 9 -27 12 -131 12 l-136 0 0 -185z"/>
<path d="M980 4873 c0 -49 -3 -132 -7 -185 -5 -87 -4 -98 10 -98 14 0 17 20
19 163 l3 162 129 -168 c71 -92 132 -164 136 -160 4 4 10 90 13 191 4 150 2
182 -9 182 -11 0 -14 -29 -14 -149 0 -83 -4 -152 -9 -155 -5 -3 -62 64 -127
149 -66 85 -125 155 -131 155 -10 0 -13 -24 -13 -87z"/>
<path d="M1661 4918 c-10 -24 -49 -105 -85 -182 -36 -76 -66 -142 -66 -147 0
-26 23 -2 48 47 l27 56 50 -6 c28 -3 76 -6 107 -6 l57 0 22 -50 c12 -27 28
-50 35 -50 8 0 14 2 14 4 0 2 -29 71 -65 153 -36 81 -73 165 -82 186 -21 48
-39 47 -62 -5z m78 -97 c23 -52 41 -98 41 -103 0 -4 -40 -8 -90 -8 -49 0 -90
4 -90 9 0 12 91 203 95 199 2 -2 22 -45 44 -97z"/>
<path d="M2090 4124 c-30 -8 -58 -18 -62 -22 -10 -10 43 -92 59 -92 8 0 19
-11 25 -25 6 -14 15 -25 20 -25 11 0 10 11 -7 40 -19 33 -19 46 0 30 9 -7 19
-10 23 -6 4 4 -6 19 -23 33 -26 22 -21 21 30 -8 33 -18 76 -45 95 -61 35 -28
60 -36 60 -19 0 5 -6 11 -12 14 -29 10 7 20 92 25 49 2 90 8 90 11 0 7 -80 61
-120 82 -23 12 -100 26 -180 34 -19 2 -60 -4 -90 -11z"/>
<path d="M1908 4003 c-24 -6 -23 -20 2 -28 22 -7 28 -25 8 -25 -7 1 -31 7 -52
15 -34 12 -42 12 -60 -1 -11 -8 -33 -14 -49 -14 -38 0 -30 -22 11 -32 18 -5
32 -13 32 -18 0 -11 112 -70 132 -70 7 0 -5 11 -27 24 -22 14 -40 30 -40 38 0
7 -13 15 -30 18 -30 5 -44 37 -15 33 20 -2 99 -20 126 -28 12 -4 27 -1 35 7 8
7 23 15 34 16 28 5 28 6 3 28 -20 17 -21 18 -15 1 6 -15 1 -14 -26 6 -42 31
-49 34 -69 30z"/>
<path d="M2380 3947 c-43 -20 -44 -21 -18 -25 18 -2 25 -8 22 -17 -4 -9 27
-30 100 -67 58 -29 118 -59 133 -67 40 -21 153 -26 177 -8 18 13 14 16 -52 36
-72 21 -88 35 -124 100 -36 66 -152 89 -238 48z"/>
<path d="M1560 3951 c-8 -5 -68 -14 -133 -20 -99 -10 -129 -17 -180 -42 -71
-36 -72 -37 -64 -45 4 -4 12 -2 19 3 22 18 145 63 171 63 13 0 30 -7 37 -15 7
-8 45 -24 84 -36 39 -11 87 -27 106 -34 19 -8 63 -21 97 -28 58 -13 62 -13 66
5 4 14 -3 22 -29 33 -19 8 -34 16 -34 18 0 5 59 -1 69 -7 4 -3 21 -2 37 3 l29
8 -42 21 c-23 12 -45 27 -49 33 -21 35 -146 62 -184 40z"/>
<path d="M483 3878 c-40 -39 -73 -75 -73 -79 0 -11 129 1 190 18 30 8 75 24
100 36 38 18 41 22 22 25 -13 2 -39 -6 -58 -17 -46 -27 -149 -39 -157 -17 -9
23 15 35 81 42 33 4 63 12 65 18 3 6 -18 19 -46 28 l-50 17 -74 -71z"/>
<path d="M776 3846 c4 -9 -6 -16 -30 -20 -19 -4 -104 -41 -187 -82 -91 -45
-158 -72 -169 -69 -11 4 -20 20 -24 45 l-6 40 -58 0 c-43 1 -53 3 -40 11 10 5
23 19 29 31 11 20 11 20 -21 2 -18 -11 -35 -26 -37 -35 -5 -16 -92 -29 -195
-29 l-38 0 0 -115 c0 -94 2 -113 14 -109 8 3 16 14 19 25 9 33 115 22 139 -14
3 -6 3 -20 -2 -31 -4 -12 -11 -64 -15 -117 -5 -77 -3 -103 9 -134 19 -44 31
-55 109 -96 39 -20 57 -35 53 -44 -2 -7 -8 -31 -12 -52 -3 -21 -17 -71 -30
-111 -13 -40 -24 -79 -24 -86 0 -8 -11 -17 -24 -20 -13 -3 -38 -22 -55 -41
-30 -35 -88 -63 -148 -72 l-33 -5 0 -1044 c0 -1018 0 -1044 19 -1044 10 0 29
-11 42 -25 21 -22 32 -25 94 -24 75 0 143 14 240 49 107 39 189 67 218 74 24
6 27 4 27 -19 0 -14 -4 -33 -9 -43 -5 -9 -39 -134 -75 -277 -36 -143 -72 -280
-81 -304 -8 -24 -13 -47 -10 -51 3 -4 297 -8 655 -9 626 -2 650 -1 650 17 0
10 6 24 12 30 10 10 10 17 -1 34 -7 11 -14 40 -16 64 -2 31 -9 49 -26 62 -15
13 -22 30 -22 50 0 22 -6 34 -19 38 -12 3 -17 12 -14 20 3 8 1 14 -5 14 -6 0
-8 7 -5 16 3 9 2 12 -5 9 -6 -4 -8 -13 -5 -20 3 -8 -2 -11 -15 -8 -10 3 -19 9
-19 14 0 5 -7 9 -15 9 -8 0 -15 -5 -15 -12 0 -6 -2 -9 -5 -6 -8 8 6 39 15 33
4 -3 7 3 6 12 0 9 5 18 13 21 8 2 11 1 8 -4 -2 -5 1 -15 9 -21 8 -8 15 -9 19
-3 3 6 1 10 -5 10 -8 0 -8 6 0 21 8 15 8 24 0 34 -8 9 -9 29 -5 55 5 31 3 47
-11 68 -11 15 -19 41 -20 57 -1 17 -2 40 -3 53 0 12 -7 22 -16 22 -14 0 -41
38 -32 46 10 11 136 24 224 24 74 0 100 -4 132 -20 21 -12 52 -23 67 -26 120
-19 141 -31 169 -97 12 -30 14 -58 8 -149 -15 -235 -5 -468 21 -468 6 0 17 18
23 40 5 22 6 40 2 40 -14 0 -11 17 6 34 9 9 11 17 5 21 -5 3 -10 16 -10 28 0
20 0 20 16 1 8 -10 12 -13 9 -6 -4 7 -9 70 -12 140 -5 124 -5 138 -3 195 1 15
-5 34 -13 42 -9 8 -13 23 -10 34 3 10 0 22 -7 26 -22 13 20 45 59 45 20 0 64
7 96 16 224 58 445 83 445 49 0 -8 -10 -25 -22 -37 -13 -13 -23 -25 -24 -28 0
-3 -6 -18 -13 -35 -7 -16 -12 -32 -11 -34 1 -2 -4 -8 -12 -12 -10 -7 -10 -11
-1 -17 10 -6 10 -12 -2 -28 -8 -10 -15 -31 -15 -46 0 -16 -5 -28 -11 -28 -6 0
-8 -7 -5 -16 3 -9 -1 -25 -9 -37 -8 -12 -15 -32 -15 -45 0 -13 -4 -21 -9 -18
-4 3 -6 -6 -3 -19 2 -14 0 -25 -6 -25 -9 0 -28 -61 -35 -110 -1 -8 -7 -19 -14
-25 -15 -13 -41 -105 -35 -127 3 -17 41 -18 613 -18 l609 0 0 24 c0 14 -4 27
-8 30 -5 3 -9 19 -10 36 0 18 -7 42 -16 54 -8 13 -17 52 -21 87 -4 35 -10 68
-14 74 -4 5 -9 32 -10 59 -2 27 -6 56 -11 65 -19 40 -30 86 -20 89 16 6 1 22
-20 22 -21 0 -26 10 -35 74 -4 25 -11 49 -16 52 -5 3 -9 15 -9 27 0 18 2 19
10 7 12 -19 13 -8 0 24 -7 20 -6 28 8 36 16 9 16 11 -1 24 -23 18 -15 52 14
59 23 6 17 27 -7 27 -8 0 -14 7 -14 15 0 10 10 15 30 15 28 0 45 20 18 20 -29
1 -49 27 -42 55 5 19 10 23 17 16 6 -6 20 -11 32 -11 16 0 14 4 -12 21 -41 26
-44 60 -7 79 l26 14 -21 17 c-30 25 -26 39 12 40 17 1 24 3 15 6 -37 9 -16 23
36 23 52 0 89 14 43 16 -102 5 -118 9 -112 29 4 11 10 34 15 50 4 17 8 22 9
13 1 -16 12 -18 78 -18 85 0 205 18 198 29 -2 4 -62 6 -133 3 -136 -5 -149 -1
-137 38 4 12 15 20 28 20 20 1 21 2 5 14 -16 11 -16 15 -2 34 8 13 19 20 24
17 5 -3 11 -1 15 5 3 5 14 10 24 10 10 0 25 7 32 16 12 15 9 16 -24 11 -33 -4
-36 -3 -26 14 5 11 15 16 21 13 7 -5 9 -2 5 9 -7 19 -9 18 122 42 47 8 87 18
90 21 3 3 -45 2 -107 -2 -110 -7 -112 -6 -112 15 0 14 6 21 18 21 10 0 34 12
53 26 19 15 26 24 17 21 -10 -4 -18 -3 -18 1 0 8 49 32 66 32 6 0 18 7 25 17
16 18 10 18 -88 -10 -45 -13 -53 -13 -53 -1 0 8 7 14 15 14 8 0 12 6 9 14 -3
9 6 15 28 19 35 6 113 36 107 41 -2 2 -37 -1 -78 -6 -40 -5 -76 -6 -79 -4 -11
12 10 36 32 36 25 0 147 29 156 37 8 8 -135 -10 -152 -19 -13 -6 -18 -5 -18 5
0 22 44 47 106 59 64 13 55 29 -16 27 -102 -2 -100 -3 -88 34 19 53 54 77 115
78 31 0 34 2 18 9 -11 5 -42 19 -70 31 l-50 22 33 7 c46 11 51 19 15 26 -33 6
-103 63 -103 83 0 7 -7 19 -15 27 -8 9 -15 24 -15 35 0 11 -7 22 -15 25 -37
15 -23 131 31 265 36 87 30 163 -18 267 -24 51 -35 53 -40 8 -2 -19 0 -34 6
-33 15 3 28 -64 21 -112 l-7 -45 -34 64 c-19 35 -34 70 -34 77 0 7 -3 12 -7
11 -13 -4 -175 93 -168 100 3 3 36 25 73 49 56 36 63 43 41 43 -15 0 -43 -7
-64 -15 -20 -9 -46 -13 -57 -9 -12 3 -18 2 -15 -3 4 -6 -4 -8 -17 -6 -14 3
-39 -5 -63 -20 -21 -14 -66 -30 -98 -37 -33 -7 -70 -19 -82 -28 -14 -8 -55
-17 -96 -19 -66 -4 -84 -8 -143 -35 -11 -5 -24 -8 -30 -7 -23 7 -164 -161
-164 -196 0 -5 -8 4 -18 20 -11 17 -35 43 -55 58 -64 49 -222 53 -422 12 -95
-20 -105 -19 -247 15 -138 34 -263 40 -341 16 -46 -14 -47 -14 -47 8 0 38 -31
119 -68 175 -46 70 -52 52 -12 -35 42 -88 60 -189 38 -211 -14 -13 -18 -13
-42 8 -14 12 -26 27 -26 31 0 5 -11 24 -25 42 -14 18 -25 37 -26 42 -1 18
-125 115 -191 150 -38 19 -68 39 -68 43 0 5 38 36 84 70 127 93 147 107 196
137 25 15 48 32 52 37 10 17 83 -12 145 -56 l54 -39 46 17 c24 10 72 36 106
59 55 37 75 58 113 122 11 18 13 17 51 -9 65 -45 134 -32 214 43 48 44 69 50
69 20 0 -67 73 -135 200 -188 l95 -40 257 2 c178 1 261 5 269 13 9 9 -4 29
-50 80 -34 37 -75 96 -91 129 -27 57 -40 75 -101 142 -26 27 -58 28 -109 2
-22 -11 -40 -17 -39 -13 0 8 92 71 150 104 29 16 28 17 -74 24 -56 4 -160 10
-232 14 l-130 6 3 31 3 31 -258 6 c-142 4 -294 10 -338 13 l-80 7 33 -35 c17
-19 32 -38 32 -42 0 -5 -53 -6 -117 -4 -86 4 -128 10 -155 23 -37 18 -89 14
-58 -5 11 -7 9 -9 -8 -7 -12 0 -22 5 -22 9 0 4 -7 8 -15 8 -7 0 -18 6 -22 13
-10 15 -73 51 -79 44 -3 -3 10 -15 28 -28 18 -13 35 -27 36 -31 2 -4 7 -8 11
-8 3 0 33 -24 65 -52 157 -142 149 -133 142 -161 -9 -36 -54 -86 -134 -149
-37 -29 -69 -55 -72 -59 -7 -9 -188 -130 -225 -150 -16 -9 -55 -29 -85 -44
-30 -15 -86 -42 -124 -61 -38 -19 -77 -34 -87 -34 -9 0 -19 -5 -21 -11 -2 -6
-15 -12 -30 -12 -14 -1 -24 -4 -22 -6 5 -5 -107 -63 -123 -64 -7 0 -11 -2 -8
-5 2 -3 -13 -18 -35 -33 -45 -32 -67 -65 -133 -194 -45 -87 -46 -89 -56 -61
-6 15 -11 36 -11 47 0 10 -13 70 -29 132 -17 63 -28 129 -26 151 3 37 3 38
-16 18 -26 -29 -73 -16 -77 21 -3 24 0 27 27 27 17 0 31 -4 31 -8 0 -4 11 -9
25 -10 23 -2 25 2 27 41 4 93 3 132 -6 138 -14 11 113 67 198 89 44 11 81 22
84 25 3 2 -6 9 -20 14 -13 5 -49 31 -79 58 -30 27 -72 61 -94 77 -66 47 -115
99 -115 120 0 21 121 142 158 157 41 16 143 10 191 -11 39 -18 43 -22 36 -47
-3 -16 -15 -37 -25 -47 -19 -19 -17 -21 113 -85 73 -37 148 -77 167 -91 39
-28 53 -28 128 2 33 13 63 18 82 14 17 -3 30 -3 30 0 0 22 -144 174 -261 276
-36 32 -101 75 -143 97 -42 23 -87 47 -99 56 -27 19 -48 19 -41 1z m1547 -362
c22 -7 22 -15 -5 -49 -24 -30 -90 -64 -126 -65 -44 0 -111 46 -112 77 0 13 68
40 115 46 31 5 96 -1 128 -9z m-387 -814 c80 -27 238 -35 328 -16 96 20 249
31 300 22 28 -5 55 -25 107 -75 38 -38 69 -76 69 -86 0 -12 -10 -5 -29 22 -47
65 -116 117 -163 124 -54 8 -202 -6 -297 -27 -82 -18 -159 -15 -283 12 -92 20
-161 18 -217 -7 -46 -20 -67 -21 -28 -1 74 39 156 51 213 32z m-66 -25 c0 -2
-11 -20 -24 -40 -59 -86 -60 -269 -2 -385 13 -25 25 -74 29 -110 3 -36 19
-117 35 -180 41 -163 45 -202 32 -337 -14 -143 -26 -193 -45 -193 -19 0 -19
19 -1 34 10 8 18 57 27 163 14 167 18 134 -51 418 -11 44 -20 97 -20 118 0 21
-9 55 -19 76 -65 126 -62 349 6 423 15 17 33 24 33 13z m315 -341 c7 -401 34
-815 57 -861 6 -13 8 -26 5 -30 -18 -17 -28 22 -37 138 -5 68 -14 160 -19 204
-5 44 -13 193 -17 330 -7 283 -7 283 -19 309 -5 11 -4 26 3 36 8 13 7 21 -5
33 -14 13 -14 19 -3 32 11 13 10 18 -6 29 -18 14 -18 15 0 35 11 12 23 18 28
13 5 -5 11 -126 13 -268z m684 -938 c23 -31 45 -74 51 -101 12 -52 26 -233 17
-225 -3 3 -28 73 -55 155 -49 144 -70 225 -59 225 2 0 23 -24 46 -54z m-1388
-21 c-21 -55 -54 -170 -73 -250 -20 -87 -29 -115 -38 -115 -12 0 -50 128 -50
166 1 43 39 108 111 189 35 40 66 72 67 70 2 -2 -6 -29 -17 -60z m445 -26 c8
-24 25 -114 39 -199 14 -85 33 -177 41 -204 19 -68 18 -109 -5 -130 -22 -20
-42 -13 -76 24 -10 11 -45 37 -77 56 -48 29 -58 41 -64 70 -12 66 10 190 52
281 8 17 14 35 14 39 0 21 45 114 53 111 6 -2 16 -23 23 -48z m672 -99 c48
-161 57 -212 47 -285 -5 -47 -13 -63 -47 -98 -37 -39 -41 -40 -49 -22 -11 29
-11 561 0 550 5 -6 27 -71 49 -145z m-1883 -697 c-4 -45 21 -89 41 -72 8 6 14
22 14 35 0 17 6 24 20 24 16 0 20 -7 20 -36 0 -19 -4 -33 -9 -30 -4 3 -17 -1
-27 -9 -18 -14 -18 -16 9 -36 15 -11 27 -26 27 -33 0 -18 -46 -37 -67 -29 -17
6 -17 6 -2 -9 12 -13 15 -29 11 -68 -4 -42 -1 -53 14 -65 18 -14 18 -14 -7
-15 -23 0 -28 5 -35 38 -4 20 -7 40 -6 45 1 4 -4 7 -12 7 -23 0 -67 -62 -55
-76 6 -8 6 -14 1 -18 -6 -3 -15 0 -21 8 -9 10 -8 24 3 55 8 25 10 41 4 41 -7
0 -8 19 -3 53 4 28 7 69 6 91 -1 24 4 45 14 56 10 11 14 26 10 39 -4 13 0 23
12 30 33 19 42 13 38 -26z"/>
<path d="M3499 3754 c-13 -16 -12 -16 8 -6 29 16 43 15 43 -3 0 -11 7 -14 25
-9 15 4 25 2 25 -5 0 -6 -5 -11 -11 -11 -5 0 -7 -4 -4 -10 3 -5 13 -10 22 -10
9 0 39 -11 67 -24 28 -13 80 -27 116 -30 l65 -7 -40 36 c-49 44 -101 68 -130
61 -12 -3 -35 0 -51 8 -16 8 -50 17 -75 20 -36 5 -49 3 -60 -10z"/>
<path d="M3320 3636 c0 -1 28 -31 63 -67 35 -35 116 -131 180 -211 l117 -147
94 -44 c52 -25 114 -58 138 -75 78 -53 142 -53 153 0 5 23 9 27 16 17 7 -12 9
-11 9 2 0 13 10 15 59 11 78 -6 151 24 151 62 0 24 -2 25 -48 19 -49 -5 -92 8
-92 29 0 6 -16 28 -35 49 -41 46 -47 90 -13 113 19 14 24 13 52 -7 21 -15 45
-21 81 -22 l50 0 3 129 3 128 -173 -2 c-157 -2 -553 5 -735 14 -40 2 -73 2
-73 2z"/>
<path d="M4289 1313 c-3 -299 -1 -276 -29 -284 -24 -7 -24 -7 -2 -8 18 -1 22
-7 22 -31 0 -20 -5 -30 -15 -30 -8 0 -15 -4 -15 -10 0 -5 6 -10 14 -10 14 0
27 -45 19 -66 -2 -7 -14 -15 -26 -19 -22 -7 -22 -8 -1 -12 19 -4 20 -12 22
-143 l3 -140 -131 0 c-71 0 -130 -4 -130 -8 0 -5 35 -17 77 -27 59 -13 85 -25
109 -49 l31 -31 7 -208 c4 -115 10 -215 13 -223 3 -8 14 -14 24 -14 18 0 19
21 19 740 0 407 -2 740 -5 740 -3 0 -6 -75 -6 -167z"/>
</g>
</svg>
