<?xml version="1.0" standalone="no"?>
<!DOCTYPE svg PUBLIC "-//W3C//DTD SVG 20010904//EN"
 "http://www.w3.org/TR/2001/REC-SVG-20010904/DTD/svg10.dtd">
<svg version="1.0" xmlns="http://www.w3.org/2000/svg"
 width="262.000000pt" height="400.000000pt" viewBox="0 0 262.000000 400.000000"
 preserveAspectRatio="xMidYMid meet">
<metadata>
Created by potrace 1.16, written by Peter Selinger 2001-2019
</metadata>
<g transform="translate(0.000000,400.000000) scale(0.100000,-0.100000)"
fill="#000000" stroke="none">
<path d="M280 3653 c-29 -70 -60 -136 -68 -145 -14 -17 -13 -18 18 -18 27 0
30 2 21 14 -9 11 -9 22 3 50 14 34 17 36 65 36 48 0 50 -1 61 -35 7 -20 9 -42
6 -50 -4 -12 4 -15 36 -15 38 0 40 1 26 18 -8 9 -34 69 -57 131 -23 63 -46
121 -50 129 -5 9 -26 -31 -61 -115z"/>
<path d="M962 3759 c-59 -30 -88 -87 -78 -153 22 -143 228 -173 290 -42 64
135 -76 264 -212 195z m107 -4 c66 -34 96 -181 47 -230 -74 -74 -169 -15 -184
112 -6 57 14 102 52 119 40 17 51 17 85 -1z"/>
<path d="M1254 3765 l29 -17 -7 -112 c-5 -96 -9 -113 -27 -128 -21 -18 -20
-18 27 -18 38 1 45 3 32 11 -15 8 -18 23 -17 82 2 134 8 136 69 15 l54 -106
54 109 c30 60 58 109 63 109 5 0 9 -42 9 -94 0 -87 -2 -96 -22 -110 -21 -15
-19 -16 42 -15 46 0 59 3 44 9 -19 7 -22 19 -28 121 -7 110 -7 114 15 132 l23
18 -39 -3 c-39 -3 -40 -4 -90 -100 -27 -54 -54 -96 -59 -95 -5 2 -31 47 -58
100 -45 89 -51 97 -78 97 -15 0 -37 3 -47 6 -10 3 -5 -2 11 -11z"/>
<path d="M1697 3773 c-33 -4 -36 -6 -22 -19 22 -23 22 -226 -1 -248 -14 -15
-8 -16 68 -16 64 0 88 4 104 18 44 36 37 88 -17 121 -31 19 -31 19 -10 33 15
9 21 23 21 51 0 34 -4 40 -35 53 -19 7 -42 13 -52 12 -10 -1 -35 -3 -56 -5z"/>
<path d="M1951 3773 c-25 -3 -31 -7 -21 -13 20 -12 17 -249 -2 -262 -8 -4 8
-7 37 -7 28 0 44 3 38 6 -15 6 -18 133 -3 133 5 0 27 -26 49 -58 44 -65 75
-90 124 -98 l32 -6 -33 21 c-17 11 -48 46 -68 76 l-35 56 30 28 c48 45 38 100
-20 120 -32 11 -62 12 -128 4z"/>
<path d="M2320 3678 c-23 -57 -52 -122 -65 -145 l-24 -43 32 1 c18 0 26 3 20
6 -17 6 -16 28 2 63 14 27 20 30 64 30 47 0 48 0 60 -40 7 -22 9 -45 6 -50 -4
-6 11 -10 36 -10 34 0 39 2 30 14 -6 7 -34 71 -62 142 -28 71 -52 130 -53 132
-2 1 -22 -44 -46 -100z"/>
<path d="M245 3381 c-34 -4 -44 -8 -32 -13 15 -6 17 -23 17 -128 0 -73 -4
-120 -10 -120 -5 0 -10 -4 -10 -8 0 -5 42 -8 93 -8 77 1 98 5 128 24 90 55 89
190 -2 238 -36 18 -112 25 -184 15z m130 -15 c86 -36 100 -176 24 -230 -30
-21 -115 -22 -122 -2 -3 8 -5 63 -3 121 3 110 8 124 49 125 10 0 33 -6 52 -14z"/>
<path d="M620 3367 c-93 -49 -106 -163 -25 -237 23 -22 36 -25 95 -25 59 0 72
3 95 25 84 78 70 196 -28 240 -55 26 -85 25 -137 -3z m93 -1 c41 -17 66 -53
73 -110 13 -93 -20 -146 -91 -146 -43 0 -92 56 -100 115 -11 73 3 116 45 137
42 21 34 21 73 4z"/>
<path d="M1319 3268 c2 -92 0 -123 -12 -141 l-14 -22 108 -2 107 -2 11 30 c12
33 2 39 -17 9 -11 -18 -21 -21 -75 -18 l-62 3 -3 58 -3 57 52 0 c35 0 55 -5
63 -15 9 -12 11 -9 12 18 0 34 0 34 -28 20 -15 -8 -42 -13 -60 -11 -33 3 -33
4 -36 61 -3 55 -2 57 23 57 14 0 25 4 25 10 0 5 -21 9 -47 8 l-48 -2 4 -118z"/>
<path d="M1550 3386 c0 -3 10 -16 21 -27 20 -20 21 -29 16 -128 -5 -84 -10
-108 -23 -118 -15 -11 -10 -13 37 -13 45 1 51 2 34 12 -11 6 -23 16 -27 22
-10 15 -10 174 0 180 5 3 59 -44 120 -104 l112 -110 0 121 c0 66 5 129 10 140
9 15 7 19 -7 19 -10 0 -29 3 -43 6 l-25 6 23 -16 c20 -16 22 -25 22 -109 l0
-92 -103 103 c-77 77 -112 104 -135 108 -18 3 -32 3 -32 0z"/>
<path d="M1905 3372 c-8 -22 -6 -23 15 -12 12 6 38 10 58 8 l37 -3 0 -120 c0
-117 0 -120 -25 -132 -22 -11 -17 -13 50 -13 67 0 72 2 50 13 -25 12 -25 15
-25 132 l0 120 40 -1 c22 0 48 -4 58 -8 13 -6 17 -4 17 10 0 18 -10 19 -135
19 -103 0 -136 -3 -140 -13z"/>
<path d="M2285 3376 c-146 -65 -104 -276 55 -276 93 0 150 56 150 147 0 41 -5
58 -27 84 -46 55 -116 72 -178 45z m92 -16 c38 -23 59 -59 68 -121 11 -76 -27
-129 -92 -129 -41 0 -72 26 -94 77 -33 78 -20 150 34 177 41 20 46 20 84 -4z"/>
<path d="M995 3343 c14 -21 25 -41 25 -44 0 -4 21 -51 46 -106 l47 -98 12 35
c21 60 107 224 124 237 14 10 10 12 -24 13 -26 0 -35 -3 -26 -9 16 -10 12 -25
-35 -128 -19 -42 -38 -72 -43 -67 -4 5 -25 49 -45 98 -30 71 -35 90 -24 97 8
6 -5 9 -35 9 l-48 0 26 -37z"/>
<path d="M850 2978 c-101 -52 -107 -191 -11 -255 26 -18 48 -23 97 -23 67 0
94 15 94 51 0 18 -3 17 -24 -8 -20 -23 -32 -28 -71 -28 -41 0 -51 4 -75 33
-49 59 -48 156 2 209 39 41 148 23 148 -25 0 -15 2 -15 10 -2 14 21 12 56 -2
58 -109 14 -124 13 -168 -10z"/>
<path d="M1180 2938 c-45 -118 -91 -213 -107 -225 -14 -11 -9 -13 33 -13 38 1
45 3 32 11 -21 12 -22 28 -6 64 10 22 18 25 58 25 40 0 48 -3 58 -25 16 -34
15 -62 0 -68 -7 -3 13 -6 45 -6 56 -1 57 -1 38 18 -17 17 -48 91 -97 229 -10
28 -21 52 -24 52 -3 0 -16 -28 -30 -62z"/>
<path d="M1410 2991 c-32 -4 -40 -8 -27 -13 15 -6 17 -23 17 -129 0 -104 -3
-124 -17 -135 -16 -12 -9 -13 47 -13 54 0 61 2 43 11 -20 10 -23 19 -23 70 0
70 19 78 49 21 25 -50 80 -101 118 -112 43 -12 49 -2 13 20 -17 10 -45 42 -64
71 l-34 53 29 27 c48 45 35 105 -28 129 -26 10 -51 10 -123 0z"/>
<path d="M1740 2990 c-36 -3 -49 -8 -37 -12 15 -6 17 -23 17 -128 0 -98 -3
-122 -15 -126 -39 -16 -5 -24 95 -24 109 0 111 0 120 26 14 36 13 39 -10 19
-14 -12 -41 -20 -80 -23 l-60 -4 0 126 c0 121 1 127 22 135 33 12 9 17 -52 11z"/>
<path d="M2026 2977 c-59 -34 -81 -69 -81 -131 1 -90 63 -149 156 -150 64 0
109 28 138 88 22 45 23 52 12 95 -14 54 -33 76 -83 102 -49 25 -94 24 -142 -4z
m116 -17 c37 -28 58 -80 58 -140 0 -44 -4 -56 -29 -81 -72 -71 -171 1 -171
125 0 25 5 56 11 70 21 46 89 60 131 26z"/>
<path d="M2374 2993 c-39 -8 -66 -47 -62 -89 3 -37 6 -41 70 -73 68 -35 85
-55 73 -91 -14 -44 -106 -32 -145 18 l-21 27 5 -25 c3 -14 6 -33 6 -42 0 -16
10 -18 75 -18 67 0 79 3 100 25 26 25 32 63 15 96 -6 10 -40 32 -75 48 -58 27
-65 33 -65 58 0 37 16 53 55 53 33 -1 55 -14 73 -45 10 -18 11 -16 12 18 0 34
-2 37 -27 37 -16 0 -37 2 -48 4 -11 2 -30 2 -41 -1z"/>
<path d="M611 2601 c-7 -5 -11 -17 -7 -27 4 -14 -14 -40 -67 -97 -40 -43 -71
-80 -67 -83 3 -3 11 -20 18 -37 7 -18 10 -22 8 -9 -3 18 0 22 19 22 56 0 72
-15 79 -77 6 -52 5 -60 -15 -75 -26 -22 -35 -17 -44 23 -4 17 -9 28 -12 26 -9
-10 21 -87 34 -87 8 0 13 -12 13 -33 0 -22 7 -36 22 -46 l21 -13 -6 -545 c-6
-489 -9 -548 -24 -574 -16 -27 -16 -31 0 -59 17 -28 17 -30 -3 -42 -24 -15
-26 -31 -5 -48 15 -13 15 -3 -4 -350 -6 -112 -7 -115 -28 -113 -29 3 -29 -11
0 -26 13 -7 15 -9 4 -6 -10 3 -30 5 -44 5 -21 0 -24 2 -13 15 15 19 11 19 -31
1 l-34 -14 40 -7 c65 -11 74 -15 69 -30 -5 -12 -9 -12 -29 1 -15 9 -24 11 -27
4 -1 -5 -37 -13 -78 -16 -41 -3 -80 -7 -86 -9 -15 -5 -96 15 -109 26 -13 12
-65 11 -65 -1 0 -5 14 -10 30 -10 17 0 30 -4 30 -10 0 -16 -53 -11 -75 6 -16
13 -17 17 -6 22 9 3 5 9 -15 17 -29 13 -29 13 13 10 24 -2 53 -6 65 -10 22 -6
22 -6 4 9 -11 9 -31 16 -45 16 -14 0 -32 4 -40 9 -17 11 44 7 112 -7 27 -5 45
-6 40 -2 -4 4 -37 13 -73 20 -35 8 -59 15 -52 18 7 2 10 8 6 13 -3 5 3 9 13
10 10 0 13 3 6 6 -17 6 -17 43 0 44 6 0 1 5 -13 10 -14 6 -40 7 -58 4 -23 -4
-32 -3 -27 4 4 7 -5 11 -24 11 -17 0 -31 -5 -31 -11 0 -6 6 -9 13 -6 7 3 22
-2 32 -10 17 -12 18 -15 5 -23 -20 -13 -43 -13 -35 0 3 6 1 10 -4 10 -7 0 -11
-29 -11 -75 0 -60 3 -76 18 -85 16 -11 16 -11 0 -6 -17 5 -18 -6 -18 -140 l0
-145 399 1 c248 1 401 5 403 11 2 6 16 5 38 -2 26 -10 53 -10 123 0 75 11 91
11 98 0 6 -10 11 -11 17 -3 12 18 62 26 78 13 11 -9 21 -9 39 -1 14 7 25 8 25
3 0 -5 -6 -12 -13 -14 -6 -3 -2 -6 10 -6 17 -1 21 3 16 16 -5 13 -2 15 15 11
13 -4 23 0 26 8 4 10 -2 14 -19 14 -14 0 -25 -5 -25 -10 0 -7 -7 -7 -20 0 -11
6 -24 8 -29 5 -5 -3 -20 -1 -34 4 -18 7 -28 5 -41 -7 -15 -15 -16 -15 -16 1 0
18 -16 24 -22 7 -2 -6 -41 -13 -88 -15 -47 -3 -92 -6 -100 -7 -46 -4 -150 3
-150 11 0 12 96 34 121 28 11 -3 35 -1 54 4 18 5 67 11 107 13 40 2 81 7 91
11 10 4 36 5 57 2 27 -3 43 -1 51 9 13 16 94 20 84 4 -3 -6 5 -10 18 -10 17 0
24 5 23 17 -1 13 7 18 24 19 42 3 248 44 372 75 65 16 127 29 138 29 11 0 20
5 20 10 0 6 9 10 20 10 11 0 20 4 20 9 0 10 131 71 155 71 13 0 15 3 7 13 -7
9 -5 25 9 58 19 42 19 49 5 80 -12 29 -14 31 -15 11 -1 -13 -5 -21 -10 -18 -5
4 -11 0 -14 -6 -3 -10 -9 -8 -24 5 -26 23 -40 22 -19 -2 19 -21 10 -33 -28
-35 -11 -1 -20 -7 -19 -13 3 -12 -7 -16 -132 -51 -97 -27 -133 -33 -140 -22
-3 5 5 11 17 13 17 3 14 5 -10 6 -23 1 -31 -3 -26 -11 4 -7 3 -8 -4 -4 -17 10
-15 26 3 26 16 0 20 16 6 24 -5 3 -11 -1 -15 -9 -3 -9 -12 -12 -23 -8 -16 6
-16 5 -5 -10 8 -9 11 -20 8 -26 -4 -5 4 -11 16 -13 19 -3 18 -5 -8 -9 -22 -4
-31 -2 -27 7 2 6 -5 14 -17 17 -16 4 -20 2 -16 -9 4 -9 2 -12 -5 -8 -6 3 -9
14 -6 24 3 13 0 17 -9 13 -20 -8 -18 -53 3 -53 22 0 11 -9 -18 -16 -104 -22
-141 -26 -152 -15 -6 6 -24 11 -39 11 -15 0 -28 3 -28 8 0 13 75 7 88 -8 10
-11 12 -11 6 -1 -5 9 -3 12 4 7 18 -11 35 3 22 18 -12 15 -118 12 -133 -3 -5
-5 -25 -7 -45 -4 -20 4 -33 2 -30 -3 3 -5 -9 -10 -28 -11 -33 -2 -46 10 -21
20 9 4 9 6 -1 6 -7 1 -15 -6 -18 -14 -4 -8 -17 -15 -30 -15 -13 0 -24 -4 -24
-10 0 -5 -11 -10 -25 -10 -16 0 -25 6 -25 15 0 8 -4 15 -9 15 -6 0 -8 -9 -6
-20 2 -13 -2 -20 -11 -20 -8 0 -12 5 -9 10 4 7 -3 8 -21 4 -16 -4 -42 -7 -59
-7 -16 0 -24 -2 -17 -4 6 -3 12 -9 12 -14 0 -6 -8 -6 -19 1 -24 13 -51 13 -51
1 0 -5 8 -12 18 -14 9 -2 6 -2 -8 0 -53 8 -140 9 -140 1 0 -4 -4 -8 -10 -8 -5
0 -10 11 -10 24 0 13 -7 29 -15 36 -8 7 -12 16 -9 22 3 5 1 14 -4 21 -6 7 -16
113 -22 236 -11 204 -11 225 4 233 20 11 20 27 0 49 -15 17 -15 20 0 45 16 23
16 28 3 42 -9 10 -18 37 -21 62 -11 88 -17 1024 -7 1059 8 26 7 38 -5 55 -8
11 -17 20 -19 19 -16 -8 -56 -1 -69 13 -21 21 -20 31 4 37 11 3 18 2 15 -3 -3
-4 3 -14 12 -21 15 -12 16 -11 11 9 -5 18 -2 22 17 22 19 0 21 -4 17 -26 -4
-20 -1 -25 9 -22 8 3 14 13 14 24 0 15 6 18 28 16 15 -1 27 2 27 8 0 6 -3 9
-7 7 -5 -3 -17 -1 -29 3 -20 8 -20 11 -10 81 7 40 17 74 24 77 7 2 10 7 8 11
-3 4 3 7 12 7 9 1 25 4 34 8 16 7 15 2 -3 -61 -27 -94 -33 -119 -26 -113 3 3
17 46 32 95 14 50 28 97 31 106 3 11 -3 19 -18 22 -13 4 -31 20 -41 37 -10 17
-34 37 -54 45 -31 13 -34 17 -22 31 11 14 10 18 -6 30 -22 16 -34 17 -54 5z"/>
<path d="M2237 2570 c-7 -32 -2 -36 18 -16 12 12 36 16 96 16 l80 0 -40 -59
c-22 -32 -67 -93 -100 -134 l-60 -76 125 -3 126 -3 14 27 c20 38 18 42 -11 19
-28 -21 -150 -40 -165 -25 -6 6 30 64 85 139 109 149 117 132 -62 137 -101 3
-102 3 -106 -22z"/>
<path d="M1473 2572 c24 -26 25 -233 1 -256 -14 -15 -10 -16 42 -16 52 0 56 1
39 14 -14 10 -19 27 -20 66 0 32 5 55 12 57 6 2 27 -20 46 -50 40 -62 75 -93
118 -102 42 -10 47 0 9 20 -17 9 -47 41 -66 71 l-36 56 31 30 c38 37 40 70 6
103 -22 23 -32 25 -111 25 -84 0 -86 -1 -71 -18z"/>
<path d="M1742 2578 c13 -10 17 -36 20 -125 3 -127 9 -139 77 -154 50 -11 116
2 143 29 16 15 22 41 29 128 4 60 13 110 19 112 27 9 5 22 -37 21 -47 0 -47
-1 -25 -16 20 -14 22 -23 21 -97 -1 -110 -7 -128 -52 -149 -31 -16 -42 -17
-72 -7 -19 6 -40 20 -45 30 -6 10 -10 61 -10 113 0 87 2 96 23 110 21 15 19
16 -42 16 -54 1 -62 -1 -49 -11z"/>
<path d="M2087 2578 c26 -13 38 -93 28 -191 -6 -53 -11 -67 -29 -75 -17 -9 -7
-11 49 -11 66 -1 68 0 47 15 -20 14 -22 23 -22 112 0 116 5 136 33 150 17 8 6
11 -53 11 -59 0 -70 -3 -53 -11z"/>
<path d="M970 2189 c0 -8 -3 -25 -6 -39 -5 -24 -5 -25 11 -5 13 16 31 21 95
24 47 2 80 -1 80 -6 0 -12 -97 -149 -151 -214 -22 -26 -39 -48 -39 -50 0 -2
57 -4 126 -3 127 1 127 1 141 28 16 31 17 31 -32 6 -39 -20 -155 -29 -155 -12
0 4 41 62 90 130 50 67 90 126 90 131 0 5 -50 9 -110 10 -61 1 -117 4 -125 8
-9 3 -15 -1 -15 -8z"/>
<path d="M1360 2108 c-18 -46 -47 -110 -64 -143 -17 -33 -32 -62 -33 -65 -2
-3 16 -6 40 -7 36 -1 40 0 24 11 -21 16 -22 45 -1 74 12 17 25 22 59 22 41 0
44 -2 55 -35 6 -19 9 -43 6 -52 -5 -15 1 -18 39 -18 50 0 51 1 31 20 -7 8 -35
72 -62 144 -27 72 -52 131 -55 131 -3 0 -20 -37 -39 -82z"/>
<path d="M1573 2176 c14 -11 17 -31 17 -134 0 -100 -3 -123 -16 -130 -21 -12
-22 -32 -35 -527 -5 -225 -13 -465 -16 -533 -5 -120 -6 -122 -31 -129 -14 -3
-33 -1 -43 5 -14 9 -17 9 -13 -2 4 -10 -17 -15 -95 -20 -56 -4 -101 -11 -101
-15 0 -18 277 -61 427 -65 68 -2 81 0 72 11 -15 18 2 17 27 -2 10 -8 28 -14
39 -14 17 1 16 2 -5 10 -18 6 -9 7 30 4 51 -3 53 -3 30 10 -14 8 -40 14 -57
15 -18 0 -33 4 -33 8 0 5 -6 9 -12 9 -54 3 -149 16 -176 24 l-32 11 6 526 c4
290 9 556 13 592 l6 65 55 5 c39 4 49 7 33 12 -21 5 -23 12 -23 68 l0 63 46
-6 c28 -3 50 -12 59 -23 13 -17 14 -15 15 24 0 42 -12 56 -24 26 -4 -11 -17
-14 -48 -12 l-43 3 -3 58 -3 57 50 0 c39 0 55 -5 71 -22 l20 -22 0 31 0 30
-112 1 c-95 1 -110 -1 -95 -12z"/>
<path d="M1925 2183 c-35 -9 -77 -45 -91 -79 -44 -106 26 -214 140 -214 106 0
180 91 154 187 -23 85 -108 129 -203 106z m99 -31 c28 -25 56 -92 56 -135 0
-81 -58 -133 -120 -107 -43 18 -67 52 -81 115 -10 47 -10 57 7 91 30 62 91 77
138 36z"/>
<path d="M2178 2173 c21 -15 22 -22 22 -135 0 -96 -3 -120 -15 -124 -33 -13
-12 -24 42 -23 50 2 54 3 38 15 -10 8 -22 14 -27 14 -4 0 -8 46 -8 103 l0 102
117 -117 c64 -65 117 -118 118 -118 2 0 4 61 7 135 3 120 6 136 23 149 18 14
15 15 -40 15 -59 0 -59 0 -32 -15 26 -14 27 -17 27 -99 0 -47 -3 -85 -6 -85
-4 0 -55 45 -114 100 -93 86 -113 100 -142 99 -33 0 -33 0 -10 -16z"/>
<path d="M0 1987 c0 -44 52 -131 271 -447 41 -59 120 -160 126 -160 6 0 -10
26 -108 172 -69 103 -136 212 -248 403 l-41 70 0 -38z"/>
<path d="M1245 1260 c-3 -6 -4 -19 0 -29 3 -11 1 -22 -5 -26 -6 -3 -8 -11 -5
-16 4 -5 1 -9 -4 -9 -6 0 -10 -6 -8 -12 1 -7 -6 -12 -15 -12 -21 2 -21 5 -7
-52 8 -31 16 -44 25 -40 10 4 14 -4 14 -29 0 -18 5 -37 10 -40 6 -4 7 -11 4
-17 -5 -7 -12 -5 -20 6 -7 10 -17 15 -23 11 -6 -3 -11 -1 -11 5 0 7 -7 5 -16
-4 -8 -9 -18 -16 -20 -16 -9 0 1 65 11 73 6 5 1 7 -12 4 -16 -3 -20 -1 -16 10
3 8 12 12 19 9 8 -3 14 -1 14 3 0 12 -29 23 -41 15 -5 -3 -9 -19 -9 -35 0 -22
-7 -32 -25 -41 -20 -9 -22 -14 -14 -30 6 -11 8 -22 5 -26 -3 -3 -6 -1 -7 4 -2
18 -27 -142 -28 -178 -1 -21 4 -38 9 -38 6 0 10 13 10 30 0 32 19 80 32 80 11
0 10 -11 -6 -39 -14 -25 -10 -65 5 -55 5 3 7 10 3 15 -7 13 33 77 57 89 17 9
19 6 25 -30 4 -22 11 -40 16 -40 5 0 7 -13 3 -31 -7 -30 -6 -30 26 -27 28 2
34 7 34 28 0 21 4 25 25 22 85 -8 100 -8 112 -1 10 7 10 9 -2 9 -29 0 -100 33
-100 46 0 8 -6 14 -12 14 -10 0 -10 2 -1 8 10 6 20 78 22 160 1 13 4 21 9 19
4 -3 7 11 7 31 0 27 -5 37 -16 37 -24 0 -48 29 -38 47 13 24 -1 88 -20 88 -14
0 -14 2 -1 10 9 6 10 10 3 10 -6 0 -15 -5 -18 -10z"/>
<path d="M1 967 l-2 -231 29 27 c15 15 33 27 40 27 7 0 12 6 12 14 0 8 10 16
23 20 13 3 36 17 53 32 18 16 22 24 11 20 -11 -3 -16 -2 -12 4 3 6 15 10 26
10 21 0 26 16 7 22 -7 3 -5 13 7 31 9 15 15 34 11 42 -7 18 -36 20 -37 3 -2
-41 -15 -78 -27 -78 -14 0 -7 53 11 90 20 40 22 64 5 54 -8 -5 -7 0 2 11 14
17 15 17 18 1 2 -9 8 -16 14 -14 20 7 8 23 -29 43 -21 10 -39 23 -41 27 -2 4
-10 8 -17 8 -7 0 -16 6 -18 13 -4 10 -6 10 -6 0 -1 -7 -8 -13 -17 -13 -9 0
-12 -5 -8 -12 4 -7 3 -8 -4 -4 -8 5 -9 13 -3 25 11 20 5 31 -25 48 l-22 12 -1
-232z"/>
<path d="M2422 733 c-9 -3 -3 -12 19 -25 22 -14 35 -16 42 -9 14 14 27 14 27
1 0 -5 -7 -10 -15 -10 -8 0 -15 -5 -15 -11 0 -7 10 -9 25 -5 14 4 25 2 25 -3
0 -18 -51 -19 -63 -1 -8 15 -16 16 -36 8 -14 -5 -28 -13 -31 -18 -3 -5 -30
-10 -60 -11 -30 -1 -60 -6 -67 -11 -7 -5 -16 -7 -21 -5 -4 3 -14 2 -22 -4 -13
-7 -12 -9 3 -9 9 0 17 -6 17 -14 0 -8 7 -17 16 -20 8 -3 12 -11 8 -17 -4 -8 0
-9 15 -4 12 4 21 2 21 -4 0 -6 -4 -11 -10 -11 -5 0 -10 -5 -10 -10 0 -6 11 -8
26 -6 16 3 27 0 31 -10 3 -8 14 -14 24 -14 10 0 19 -4 19 -10 0 -5 -7 -10 -16
-10 -14 0 -14 -2 0 -15 8 -9 19 -14 23 -13 4 2 20 -10 35 -25 26 -26 26 -27 7
-37 -10 -6 -19 -17 -19 -25 0 -8 -4 -15 -10 -15 -5 0 -10 -7 -10 -15 0 -8 -8
-16 -17 -17 -10 0 -23 -2 -29 -2 -6 -1 -19 -7 -28 -15 -14 -12 -16 -12 -12 0
6 15 -7 35 -38 59 -18 14 -18 13 -12 -8 5 -15 3 -24 -7 -28 -9 -3 -13 -13 -10
-25 3 -10 9 -17 13 -14 4 2 7 -11 8 -30 1 -29 -2 -35 -18 -35 -11 0 -20 -5
-20 -11 0 -6 9 -9 20 -6 11 3 20 1 20 -4 0 -4 -35 -9 -77 -11 l-78 -3 2 -29
c1 -16 -4 -34 -12 -40 -12 -9 -12 -14 0 -30 8 -10 21 -16 29 -13 8 3 17 1 20
-6 3 -8 7 -9 13 -2 7 9 60 17 108 15 11 0 48 -1 82 -1 34 -1 60 -5 58 -9 -3
-5 -25 -7 -50 -7 -25 1 -45 -2 -45 -6 0 -5 -28 -7 -62 -6 -35 1 -92 -1 -128
-5 -36 -3 -79 -2 -96 3 -17 5 -37 5 -44 1 -7 -4 -24 -2 -38 6 -14 7 -30 10
-36 7 -5 -4 -27 -6 -48 -4 -21 1 -44 -1 -50 -5 -17 -11 -56 -14 -273 -19 -219
-6 -233 -7 -255 -20 -12 -8 -9 -11 15 -16 17 -4 44 -7 60 -8 24 0 27 2 15 10
-11 8 0 9 40 5 30 -3 80 -7 110 -10 46 -3 48 -2 10 3 -67 9 -37 19 60 19 47 0
155 4 241 8 150 6 198 2 168 -16 -7 -5 -20 -3 -30 3 -15 9 -22 8 -36 -5 -16
-16 -12 -17 52 -17 37 1 76 6 86 12 12 7 21 8 31 0 8 -6 108 -11 261 -12 l248
-2 -3 83 c-3 72 -6 83 -22 86 -10 2 -16 0 -13 -5 10 -16 -7 -33 -23 -22 -13 8
-11 12 8 29 13 10 30 16 37 13 8 -3 15 0 15 5 0 6 -8 13 -17 15 -17 4 -17 5 0
6 11 1 17 9 17 25 0 22 -3 23 -35 16 -19 -4 -35 -5 -35 -1 0 3 -25 4 -55 3
-42 -3 -58 -9 -65 -23 -8 -15 -7 -17 5 -13 8 4 15 1 15 -5 0 -6 -12 -11 -26
-11 -17 0 -23 4 -18 13 6 9 4 9 -7 1 -8 -6 -27 -10 -44 -10 -31 1 -31 1 -27
61 2 27 32 36 32 10 0 -8 -4 -15 -10 -15 -5 0 -10 -7 -10 -16 0 -11 6 -15 20
-11 13 3 18 1 14 -6 -5 -9 -4 -9 6 0 7 6 19 9 26 6 8 -3 14 -1 14 5 0 5 -11
13 -25 16 -32 8 -37 57 -5 51 11 -2 20 1 20 6 0 7 12 8 33 3 17 -4 46 -8 64
-8 20 -1 38 -10 50 -25 l20 -24 21 23 c21 23 22 32 22 227 l0 203 -27 1 c-16
0 -41 3 -58 6 -16 3 -47 6 -67 5 -21 0 -35 4 -32 9 6 10 5 10 -14 2z"/>
</g>
</svg>
