<?xml version="1.0" standalone="no"?>
<!DOCTYPE svg PUBLIC "-//W3C//DTD SVG 20010904//EN"
 "http://www.w3.org/TR/2001/REC-SVG-20010904/DTD/svg10.dtd">
<svg version="1.0" xmlns="http://www.w3.org/2000/svg"
 width="300.000000pt" height="460.000000pt" viewBox="0 0 300.000000 460.000000"
 preserveAspectRatio="xMidYMid meet">
<metadata>
Created by potrace 1.16, written by Peter Selinger 2001-2019
</metadata>
<g transform="translate(0.000000,460.000000) scale(0.100000,-0.100000)"
fill="#000000" stroke="none">
<path d="M3 4538 c0 -35 2 -55 4 -45 6 24 16 21 29 -7 8 -16 8 -28 2 -34 -6
-6 -7 -16 -2 -24 13 -21 13 -69 0 -62 -6 3 -1 -4 12 -15 13 -11 21 -25 18 -30
-3 -5 1 -11 9 -15 8 -3 15 -1 15 4 0 18 20 10 20 -7 1 -26 26 -58 33 -41 4 11
6 11 6 0 1 -7 5 -11 11 -7 5 3 7 11 4 18 -2 7 4 13 15 14 14 1 18 -4 15 -20
-3 -16 -1 -15 8 6 7 15 17 27 24 27 7 0 14 5 16 12 3 8 7 6 11 -5 3 -9 3 -16
-1 -16 -17 3 -32 -2 -32 -10 0 -4 13 -8 28 -7 24 1 28 4 24 26 -3 14 -9 27
-13 30 -5 3 -10 17 -13 30 -2 14 -9 24 -16 22 -6 -1 -9 2 -5 8 3 6 10 8 15 5
5 -3 9 3 9 12 -1 10 3 29 7 42 5 16 4 22 -3 18 -7 -4 -10 9 -9 38 1 25 -2 45
-6 45 -5 0 -8 12 -9 28 0 16 -3 21 -6 12 -4 -8 -12 -20 -19 -27 -9 -10 -13 -7
-18 12 -6 24 -9 25 -95 25 l-89 0 1 -62z"/>
<path d="M2946 4553 c2 -25 6 -55 10 -65 3 -11 0 -18 -8 -18 -18 -1 -49 -26
-52 -42 -1 -7 -5 -19 -10 -26 -5 -9 -3 -12 7 -10 9 2 16 -1 16 -7 0 -5 -6 -9
-13 -7 -7 1 -13 -4 -14 -10 -2 -23 -7 -43 -15 -55 -5 -8 -3 -13 5 -13 10 0 10
-2 0 -9 -8 -4 -13 -12 -13 -17 0 -5 -2 -17 -5 -27 -8 -24 4 -36 16 -17 8 13
10 12 10 -2 0 -9 -7 -24 -16 -32 -14 -15 -14 -16 1 -16 9 0 14 -4 11 -8 -2 -4
-1 -13 3 -20 8 -14 58 50 82 106 8 17 17 32 21 32 3 0 5 11 3 25 -1 14 2 25 8
25 5 0 4 7 -3 15 -10 12 -10 15 1 16 8 0 5 4 -6 9 l-20 9 20 1 20 1 -20 9
c-17 7 -17 9 -2 9 15 1 17 12 17 96 l0 95 -29 0 c-28 0 -28 -1 -25 -47z"/>
<path d="M2132 4309 c-60 -8 -73 -15 -52 -30 12 -9 12 -10 -3 -5 -10 3 -21 6
-23 6 -3 0 -2 5 1 10 7 11 -9 13 -42 4 -13 -4 -20 -10 -17 -15 3 -5 10 -7 15
-4 5 4 9 -1 9 -9 0 -9 8 -16 19 -16 11 0 29 -12 40 -26 11 -14 24 -23 30 -20
5 3 12 0 15 -6 5 -10 7 -10 12 0 3 6 13 12 23 12 9 0 22 5 29 12 16 16 28 2
12 -16 -10 -13 -7 -15 20 -11 38 4 53 15 22 15 -18 0 -20 4 -13 28 10 40 3 72
-16 65 -8 -3 -18 -2 -22 3 -3 6 -29 7 -59 3z"/>
<path d="M810 4290 c-8 -5 -25 -10 -37 -10 -23 0 -32 -23 -13 -35 6 -3 10 -1
10 5 0 6 5 8 10 5 7 -4 8 -11 2 -18 -7 -8 1 -17 25 -28 29 -14 36 -15 48 -3 7
8 16 14 19 14 13 0 5 -21 -14 -40 -29 -29 -25 -40 14 -40 43 0 54 14 62 83 6
55 6 57 -20 67 -34 13 -86 13 -106 0z"/>
<path d="M1 3937 c-1 -49 -1 -50 15 -32 13 17 15 17 10 3 -3 -12 0 -18 9 -18
9 0 12 6 9 15 -4 8 -1 15 5 15 6 0 11 -4 11 -10 0 -18 33 -48 46 -43 10 4 14
-6 14 -36 0 -23 5 -41 10 -41 6 0 10 9 10 20 l0 20 20 -20 c11 -11 20 -24 20
-29 0 -5 7 -14 15 -21 8 -7 15 -21 15 -31 0 -11 5 -19 10 -19 13 0 12 7 -3 50
-6 20 -16 36 -22 35 -5 0 -11 15 -13 33 -2 17 -7 32 -12 32 -5 0 -8 8 -7 18 0
10 -10 32 -23 49 -18 25 -21 35 -12 46 9 11 6 13 -18 9 -21 -3 -30 -10 -30
-23 0 -12 -5 -16 -15 -13 -8 4 -15 12 -15 20 0 17 -20 19 -20 2 -1 -8 -6 -6
-14 4 -11 15 -13 11 -15 -35z"/>
<path d="M2990 3930 c0 -6 -8 -14 -17 -17 -26 -10 -53 -35 -47 -45 8 -13 -16
-48 -34 -48 -15 0 -15 -2 -2 -10 12 -8 10 -10 -11 -10 -27 0 -38 -15 -58 -79
-15 -47 -13 -60 6 -36 14 18 15 18 9 2 -3 -10 -6 -25 -6 -33 0 -8 -5 -14 -10
-14 -6 0 -22 -11 -36 -25 -25 -25 -54 -33 -54 -15 0 6 6 10 14 10 20 0 31 19
18 32 -20 20 -62 0 -69 -32 -7 -35 -18 -38 -34 -8 l-11 21 -17 -22 c-9 -12
-20 -19 -24 -15 -4 4 -2 13 4 21 9 9 8 13 0 13 -18 0 -26 -31 -10 -40 8 -5 18
-8 23 -8 10 0 26 -22 26 -37 0 -7 -3 -7 -8 0 -11 15 -53 37 -60 31 -3 -3 0 -6
7 -6 7 0 9 -4 6 -10 -3 -5 -1 -10 4 -10 6 0 11 -7 11 -15 0 -8 -7 -15 -16 -15
-8 0 -12 -4 -9 -10 3 -5 0 -20 -6 -32 -11 -21 -11 -22 4 -9 15 11 17 11 17 -1
0 -8 -7 -23 -15 -34 -17 -22 -19 -44 -5 -44 6 0 10 7 10 15 0 8 5 15 10 15 6
0 10 7 10 15 0 8 9 19 20 25 12 6 20 7 20 1 0 -5 -4 -11 -8 -13 -14 -6 -52
-66 -52 -82 0 -25 -13 -18 -37 19 -31 48 -38 76 -22 86 7 4 10 11 7 15 -4 3
-14 -1 -23 -10 -9 -9 -21 -16 -26 -16 -5 0 -9 -4 -9 -10 0 -5 7 -7 17 -3 13 5
15 1 10 -23 -7 -37 3 -54 31 -57 27 -2 27 -6 5 -23 -17 -12 -17 -13 0 -19 15
-6 13 -11 -15 -31 -27 -21 -32 -30 -29 -59 2 -29 -5 -42 -43 -83 -25 -27 -46
-52 -46 -56 0 -8 -50 -56 -59 -56 -3 0 -15 -14 -26 -30 -23 -35 -35 -39 -28
-10 7 25 -14 27 -21 2 -4 -11 -18 -25 -31 -32 -14 -7 -25 -17 -25 -21 0 -5
-17 -24 -37 -44 -27 -26 -39 -32 -45 -23 -5 9 -8 8 -8 -6 0 -16 -2 -17 -17 -5
-15 12 -16 12 -10 -4 6 -15 4 -16 -13 -7 -11 6 -20 7 -19 3 3 -18 -1 -36 -7
-30 -4 3 -13 -1 -21 -9 -8 -8 -19 -12 -24 -9 -5 4 -9 1 -9 -5 0 -15 -70 -100
-82 -100 -5 0 -6 9 -3 20 4 13 2 20 -6 20 -19 0 -89 -51 -83 -61 2 -5 -7 -11
-21 -15 -14 -3 -25 -12 -25 -20 0 -13 -15 -18 -47 -17 -7 1 -13 -3 -13 -7 0
-5 -13 -11 -30 -15 -16 -4 -30 -11 -30 -17 0 -6 -7 -8 -15 -4 -8 3 -15 0 -15
-6 0 -7 -5 -6 -15 2 -12 10 -15 10 -15 -1 0 -12 -2 -12 -9 0 -7 10 -9 11 -13
0 -5 -15 -70 -17 -76 -1 -2 7 -28 8 -78 5 -51 -4 -74 -2 -74 5 0 15 -65 47
-110 56 -25 4 -58 28 -118 85 -50 48 -77 81 -70 84 10 4 10 6 0 6 -7 1 -22 -4
-33 -10 -16 -8 -26 -5 -50 15 -17 14 -28 26 -24 26 4 0 0 7 -9 15 -8 8 -17 15
-21 15 -4 0 -13 7 -22 15 -19 20 -9 32 12 15 9 -7 17 -11 20 -9 8 8 -10 26
-34 34 -15 5 -21 4 -17 -3 3 -6 2 -13 -4 -17 -5 -3 -10 0 -11 7 -2 46 -37 98
-66 98 -7 0 -13 7 -13 16 0 8 -4 12 -10 9 -5 -3 -10 1 -10 9 0 17 -25 22 -35
6 -3 -5 -12 -7 -20 -4 -8 4 -13 10 -10 14 3 4 -2 10 -10 14 -8 3 -15 16 -15
30 0 13 -6 27 -12 30 -7 2 -2 4 12 3 17 -1 25 3 25 13 -1 8 9 29 22 47 19 26
20 32 8 37 -8 3 -15 1 -15 -5 0 -6 -5 -7 -11 -3 -8 4 -9 -1 -4 -16 6 -18 4
-22 -7 -17 -11 4 -14 -1 -10 -19 3 -18 0 -24 -12 -24 -11 0 -14 5 -10 12 5 7
2 9 -9 5 -10 -4 -18 1 -22 14 -10 30 -28 22 -23 -10 l4 -30 -23 22 c-12 12
-23 26 -23 30 0 4 -9 17 -20 29 -11 12 -20 28 -20 35 0 7 -8 13 -19 13 -13 0
-20 10 -25 33 -5 25 -9 29 -16 17 -6 -10 -10 -11 -10 -2 0 6 -7 12 -16 12 -11
0 -14 8 -12 33 2 20 -3 37 -12 44 -11 9 -12 12 -2 13 14 0 14 -1 -38 61 -16
20 -30 42 -30 48 0 6 -7 11 -16 11 -11 0 -9 -8 11 -34 15 -19 30 -37 33 -39 4
-2 0 -2 -8 1 -8 3 -26 6 -40 7 -14 1 -28 3 -32 4 -13 2 -9 29 5 34 8 3 2 15
-17 35 -23 25 -27 34 -17 46 7 8 8 17 3 20 -6 3 -12 -1 -16 -9 -3 -8 -12 -15
-20 -15 -12 0 -14 -5 -6 -25 8 -21 7 -25 -10 -25 -13 0 -22 9 -26 25 -3 14
-12 25 -20 25 -8 0 -14 7 -14 15 0 8 -12 18 -27 21 -33 9 -53 27 -53 48 0 10
-9 16 -25 16 -14 0 -25 5 -25 11 0 6 7 9 15 5 23 -8 18 8 -11 35 -17 16 -24
31 -21 46 2 13 0 23 -4 23 -5 0 -9 -488 -9 -1083 l0 -1084 22 2 c13 1 28 10
33 21 10 19 45 22 45 3 0 -6 -4 -8 -8 -5 -5 3 -16 -4 -25 -15 -20 -23 -23 -36
-4 -21 7 6 37 14 67 17 71 9 120 24 120 37 0 11 -14 8 -67 -13 -29 -12 -35
-11 -50 4 -16 16 -16 18 2 32 12 9 15 14 7 15 -7 0 -10 5 -7 11 5 6 12 4 22
-8 8 -10 12 -13 10 -8 -7 14 20 38 28 25 3 -6 3 -15 0 -20 -8 -13 -3 -13 30 0
23 9 26 15 21 36 -6 21 -4 23 7 13 17 -16 19 -51 4 -62 -9 -6 -8 -8 2 -5 7 2
23 22 35 43 20 35 40 49 165 112 88 45 167 93 205 125 64 55 106 98 106 110 0
3 9 4 20 1 21 -6 24 -22 25 -145 0 -39 -4 -58 -12 -58 -6 0 -15 -4 -18 -10 -4
-6 15 -10 49 -10 31 0 56 5 56 10 0 6 -7 10 -15 10 -24 0 -22 188 2 206 16 12
11 13 -35 14 l-53 0 31 45 c17 25 36 43 42 39 6 -4 8 1 3 15 -4 12 -2 21 4 21
6 0 11 9 11 19 0 30 11 51 26 51 8 0 14 -6 14 -12 0 -7 5 -5 11 5 5 9 7 22 3
29 -4 6 -3 8 3 5 6 -4 13 2 16 13 4 17 9 19 32 10 14 -5 24 -6 21 -1 -3 5 2
15 11 22 15 12 16 12 10 -5 -7 -16 -3 -18 30 -12 27 5 34 4 23 -3 -8 -5 -11
-13 -7 -17 3 -4 13 -2 21 5 11 9 15 9 18 0 4 -13 207 -17 246 -5 17 6 22 3 22
-9 0 -12 4 -14 19 -5 24 12 68 13 75 1 7 -11 76 8 76 21 0 4 5 8 11 8 5 0 7
-5 4 -11 -4 -6 2 -13 14 -16 12 -3 21 -9 21 -14 0 -5 9 -1 20 8 14 13 16 19 7
25 -9 6 -9 8 1 8 6 0 12 6 12 13 0 28 17 40 39 28 21 -12 29 -41 11 -41 -5 0
-10 -4 -10 -10 0 -13 51 9 68 29 7 9 12 10 12 3 0 -29 85 -2 93 29 6 23 27 25
27 3 0 -12 7 -10 31 10 34 29 45 32 52 14 2 -7 7 2 11 20 7 29 11 33 32 28 14
-4 24 -2 24 4 0 6 5 8 11 5 6 -4 8 -14 5 -24 -4 -9 2 -5 12 8 11 14 24 21 31
17 9 -6 9 -11 1 -21 -8 -10 -9 -19 -1 -32 9 -16 10 -16 11 6 0 26 12 21 16 -7
2 -9 8 -18 13 -20 6 -2 11 -31 11 -65 1 -127 39 -206 157 -323 34 -34 70 -79
81 -100 22 -42 98 -104 129 -104 33 0 121 -30 138 -46 9 -9 18 -14 21 -11 6 6
-25 57 -35 57 -3 0 -17 9 -30 19 -18 14 -21 20 -11 26 8 5 11 4 7 -2 -4 -6 5
-15 18 -21 15 -7 25 -8 25 -2 0 6 -5 10 -12 10 -6 0 -8 3 -5 6 4 4 13 1 21 -5
8 -7 20 -10 26 -6 7 4 14 -2 17 -14 7 -26 20 -27 26 -3 4 16 5 16 6 0 1 -12 6
-15 18 -11 13 5 15 2 11 -15 -4 -16 -2 -19 10 -15 9 4 13 2 9 -4 -4 -6 -3 -13
2 -15 7 -2 7 -18 1 -42 -5 -24 -5 -46 0 -55 5 -9 10 -11 10 -5 0 14 73 3 73
-11 1 -5 9 -19 20 -30 28 -29 35 -55 32 -110 -1 -28 -3 -63 -4 -80 -1 -23 -3
-27 -11 -15 -5 8 -10 11 -10 5 -1 -26 -17 -36 -43 -26 -17 7 -27 7 -27 1 0 -5
-7 -7 -15 -4 -10 4 -15 0 -15 -15 0 -22 27 -41 58 -41 26 0 79 -27 126 -64
l39 -30 -27 48 c-33 60 -49 126 -47 197 1 31 -3 69 -9 84 -6 15 -13 44 -16 63
-5 33 -4 35 11 22 14 -12 18 -12 26 1 5 8 9 20 9 28 0 11 -3 11 -15 1 -12 -10
-15 -9 -15 5 0 11 -5 15 -14 12 -17 -7 -41 18 -32 32 3 5 2 11 -2 13 -5 1 -12
17 -15 34 -5 28 -3 33 23 44 32 13 52 7 43 -15 -3 -11 2 -15 18 -16 17 -1 19
-3 7 -6 -10 -2 -18 -11 -18 -20 0 -9 6 -13 15 -9 8 3 15 1 15 -4 0 -6 6 -10
14 -10 8 0 17 -6 19 -12 3 -7 6 105 6 250 1 181 -2 261 -9 257 -12 -7 -9 39 3
51 4 4 7 152 7 329 0 243 -3 324 -12 334 -11 11 -10 14 0 18 10 4 12 46 12
179 -1 99 -5 174 -11 174 -5 0 -9 5 -9 11 0 5 5 7 10 4 7 -4 10 95 10 289 0
163 -2 296 -5 296 -3 0 -5 -5 -5 -10z m-433 -1091 c-4 -15 -2 -19 9 -15 9 3
14 -1 14 -14 0 -11 5 -20 10 -20 6 0 10 7 10 15 0 8 5 15 10 15 6 0 10 -10 10
-21 0 -18 2 -19 15 -9 8 7 15 8 15 2 0 -5 11 -9 25 -9 14 0 25 4 25 9 0 5 -4
7 -9 3 -12 -7 -24 12 -16 25 5 8 11 8 19 1 7 -6 16 -8 19 -5 9 10 39 -24 32
-36 -3 -5 0 -10 8 -10 8 0 20 -7 27 -15 9 -10 9 -15 1 -15 -6 0 -11 5 -11 12
0 9 -3 9 -12 0 -19 -19 -18 -45 2 -59 11 -8 17 -20 14 -28 -9 -23 -26 -18 -19
5 4 14 2 20 -9 20 -22 0 -28 -16 -11 -30 8 -7 12 -24 10 -41 l-4 -29 46 25
c44 23 70 25 58 4 -4 -5 -1 -9 5 -9 6 0 15 -11 20 -25 5 -14 13 -25 18 -25 14
0 32 -48 32 -88 0 -25 3 -33 9 -23 7 11 10 9 16 -8 4 -13 4 -25 1 -28 -3 -4
-6 0 -6 8 0 8 -9 15 -20 15 -22 0 -27 -12 -7 -19 6 -2 9 -8 5 -12 -5 -5 -16
-1 -26 8 -23 21 -62 22 -62 2 0 -23 -18 -18 -60 15 -21 17 -42 30 -47 30 -6 0
-18 9 -27 19 -18 20 -44 18 -58 -3 -5 -7 -8 -4 -8 7 0 9 5 17 10 17 6 0 10 5
10 10 0 6 -9 10 -20 10 -11 0 -20 5 -20 10 0 6 -4 10 -9 10 -10 0 -9 -26 2
-36 11 -11 8 -34 -3 -34 -5 0 -10 9 -10 20 0 11 -4 20 -10 20 -5 0 -10 7 -10
15 0 9 -6 12 -15 8 -10 -3 -15 0 -13 8 2 9 -7 13 -32 11 l-35 -1 30 14 c19 9
24 14 13 15 -18 0 -54 57 -44 68 3 3 6 0 6 -7 0 -7 7 -11 14 -8 10 4 13 1 9
-9 -3 -7 0 -14 7 -14 6 0 8 -4 5 -10 -9 -15 7 -12 30 6 17 12 18 16 5 24 -13
8 -12 10 1 15 16 6 22 35 7 35 -4 0 -8 6 -8 14 0 8 -8 13 -17 12 -14 -1 -17 5
-15 27 2 20 -1 27 -8 22 -7 -4 -10 -22 -8 -41 2 -19 0 -34 -4 -34 -4 0 -8 14
-8 31 0 17 -4 28 -10 24 -5 -3 -6 -13 -3 -23 4 -12 3 -14 -5 -7 -6 6 -13 37
-16 70 -3 33 -3 54 0 48 9 -20 24 -15 17 5 -6 16 -6 16 11 -1 18 -17 18 -18 0
-32 -17 -13 -16 -14 19 -13 35 1 50 12 27 20 -7 2 -6 13 2 30 15 33 33 37 25
7z"/>
<path d="M999 2112 c-61 -31 -52 -86 20 -126 57 -31 64 -38 55 -60 -16 -41
-80 -41 -90 0 -8 33 -21 30 -26 -6 -3 -23 -1 -29 8 -26 8 3 16 1 19 -4 4 -6
26 -10 50 -10 48 0 75 24 75 68 0 38 -16 58 -63 76 -51 19 -64 46 -36 72 17
15 20 16 44 0 14 -9 25 -21 25 -26 0 -6 5 -10 11 -10 13 0 8 50 -6 52 -5 0
-20 4 -31 9 -14 5 -33 2 -55 -9z"/>
<path d="M1280 2121 c-8 -5 -33 -57 -55 -115 -22 -58 -45 -106 -52 -106 -6 0
-15 -4 -18 -10 -4 -6 12 -10 39 -10 25 0 46 5 46 10 0 6 -7 10 -15 10 -12 0
-14 7 -9 28 10 40 12 42 54 42 34 0 39 -3 49 -32 8 -22 8 -34 1 -36 -28 -10
-4 -22 43 -22 51 0 51 1 31 18 -13 10 -34 58 -55 124 -19 59 -36 107 -39 107
-3 0 -12 -4 -20 -8z"/>
<path d="M1460 2111 c0 -5 7 -11 15 -15 12 -4 15 -25 15 -101 0 -78 -3 -95
-15 -95 -8 0 -15 -4 -15 -10 0 -6 33 -10 78 -10 64 0 82 4 95 18 25 27 22 78
-5 96 -20 15 -21 16 -5 34 23 26 21 58 -5 76 -24 17 -158 23 -158 7z"/>
<path d="M1730 2111 c0 -5 6 -11 14 -14 10 -4 14 -30 15 -100 2 -83 0 -97 -16
-106 -13 -8 6 -10 79 -11 l96 0 11 30 c11 33 1 39 -20 14 -18 -22 -59 -36 -86
-29 -20 5 -23 12 -23 56 0 48 1 50 23 43 12 -3 24 -11 25 -15 9 -22 22 -6 22
26 0 36 -13 47 -24 20 -3 -8 -15 -15 -26 -15 -19 0 -21 5 -18 48 3 45 4 47 33
45 16 -1 42 -12 59 -24 l29 -22 -6 24 c-4 13 -7 27 -7 32 0 10 -180 9 -180 -2z"/>
<path d="M1980 2110 c0 -5 7 -10 15 -10 12 0 15 -18 15 -100 0 -82 -3 -100
-15 -100 -8 0 -15 -4 -15 -10 0 -12 187 -14 193 -2 10 18 17 62 9 62 -5 0 -14
-11 -21 -24 -9 -16 -24 -25 -47 -28 -60 -7 -66 3 -63 104 3 78 6 92 21 96 37
9 16 22 -37 22 -30 0 -55 -4 -55 -10z"/>
<path d="M646 1774 c-9 -8 -16 -21 -16 -27 0 -28 -74 -187 -87 -187 -8 0 -11
-4 -8 -10 8 -13 75 -13 75 -1 0 5 -5 11 -12 13 -9 3 -9 13 -2 39 9 31 13 34
49 34 37 0 41 -3 51 -35 7 -19 8 -36 3 -38 -26 -10 -3 -22 41 -22 49 0 68 13
32 22 -12 4 -25 25 -37 64 -30 100 -56 164 -65 164 -5 0 -16 -7 -24 -16z"/>
<path d="M843 1773 c15 -4 17 -18 17 -109 0 -86 -3 -104 -15 -104 -8 0 -15 -4
-15 -10 0 -6 38 -10 94 -10 l94 0 11 32 c6 17 8 34 5 37 -4 3 -9 0 -11 -7 -10
-27 -36 -42 -74 -42 l-39 0 0 104 c0 91 2 105 18 109 9 3 -10 5 -43 5 -33 0
-52 -2 -42 -5z"/>
<path d="M1098 1773 c8 -3 12 -35 12 -109 0 -88 -2 -104 -16 -104 -8 0 -12 -4
-9 -10 7 -12 182 -14 188 -2 2 4 7 21 11 37 l6 30 -23 -27 c-18 -23 -31 -28
-65 -28 l-42 0 0 104 c0 91 2 105 18 109 9 3 -8 5 -38 5 -30 0 -49 -2 -42 -5z"/>
<path d="M1353 1773 c15 -4 17 -18 17 -109 0 -86 -3 -104 -15 -104 -8 0 -15
-4 -15 -10 0 -6 38 -10 93 -10 91 0 94 1 105 25 20 43 14 50 -17 21 -23 -22
-36 -27 -67 -24 -39 3 -39 3 -42 51 -3 44 -2 47 21 47 14 0 27 -7 31 -15 8
-23 24 -18 21 8 -1 12 -3 30 -4 41 -1 16 -3 16 -19 -5 -29 -35 -52 -19 -52 36
0 45 0 45 35 45 26 0 43 -7 61 -27 l26 -28 -4 30 -3 30 -95 2 c-52 0 -87 -1
-77 -4z"/>
<path d="M1598 1770 c21 -9 22 -15 22 -110 0 -82 -3 -100 -15 -100 -8 0 -15
-4 -15 -10 0 -5 18 -10 40 -10 22 0 40 5 40 10 0 6 -7 10 -15 10 -12 0 -15 16
-15 87 0 47 2 84 4 82 11 -12 86 -101 120 -142 22 -26 43 -47 48 -47 4 0 8 49
8 108 0 71 4 112 12 120 9 9 2 12 -32 11 -37 0 -41 -2 -22 -9 20 -9 22 -16 22
-86 l0 -77 -22 29 c-12 16 -25 31 -28 34 -3 3 -25 29 -49 58 -39 48 -46 52
-84 51 -35 0 -38 -2 -19 -9z"/>
<path d="M1913 1773 c15 -4 17 -18 17 -109 0 -86 -3 -104 -15 -104 -8 0 -15
-4 -15 -10 0 -18 141 -11 186 9 94 43 95 175 0 211 -15 5 -64 9 -109 9 -45 -1
-74 -3 -64 -6z m143 -19 c42 -20 59 -70 43 -127 -12 -44 -42 -67 -86 -67 l-33
0 0 105 c0 100 1 105 21 105 12 0 36 -7 55 -16z"/>
<path d="M2233 1773 c15 -4 17 -18 17 -109 0 -86 -3 -104 -15 -104 -8 0 -15
-4 -15 -10 0 -6 38 -10 93 -10 91 0 94 1 105 25 20 43 14 50 -17 21 -23 -22
-36 -27 -67 -24 -39 3 -39 3 -42 51 -3 45 -2 47 23 47 14 0 28 -7 31 -15 11
-28 20 -15 16 21 -4 33 -5 34 -23 18 -30 -27 -49 -11 -49 41 0 45 0 45 35 45
26 0 43 -7 61 -27 l26 -28 -4 30 -3 30 -95 2 c-52 0 -87 -1 -77 -4z"/>
<path d="M409 917 c7 -10 10 -41 6 -93 -19 -284 4 -426 81 -501 49 -48 51 -56
27 -104 -16 -32 -28 -83 -40 -176 l-5 -43 1108 0 1109 0 12 25 c8 19 8 25 0
25 -7 0 -5 5 3 10 10 6 11 10 3 10 -7 0 -13 8 -13 18 0 14 -2 15 -10 2 -7 -11
-10 2 -11 45 -1 33 0 68 1 78 1 10 -11 43 -26 73 -22 44 -25 56 -14 69 7 9 16
60 21 118 4 56 9 111 12 122 2 11 -1 27 -6 36 -6 9 -7 24 -2 35 5 11 10 33 12
49 2 24 0 27 -8 15 -9 -12 -10 -12 -5 3 3 10 6 21 6 23 0 3 5 2 10 -1 10 -6
35 41 31 58 -2 11 39 79 53 89 6 4 7 10 3 14 -3 4 -12 2 -19 -3 -7 -6 -51 -21
-98 -33 -47 -12 -98 -25 -115 -30 -44 -11 -175 -65 -215 -88 -41 -23 -80 -31
-187 -37 -146 -9 -311 -31 -403 -55 -83 -21 -437 -12 -477 13 -5 3 -54 9 -109
12 -198 13 -261 22 -291 42 -15 11 -44 26 -63 33 -19 7 -53 23 -75 36 -22 12
-80 34 -130 50 -49 15 -103 35 -120 44 -16 9 -39 20 -49 23 -15 6 -17 5 -7 -6z"/>
</g>
</svg>
