<?xml version="1.0" standalone="no"?>
<!DOCTYPE svg PUBLIC "-//W3C//DTD SVG 20010904//EN"
 "http://www.w3.org/TR/2001/REC-SVG-20010904/DTD/svg10.dtd">
<svg version="1.0" xmlns="http://www.w3.org/2000/svg"
 width="564.000000pt" height="758.000000pt" viewBox="0 0 564.000000 758.000000"
 preserveAspectRatio="xMidYMid meet">
<metadata>
Created by potrace 1.16, written by Peter Selinger 2001-2019
</metadata>
<g transform="translate(0.000000,758.000000) scale(0.100000,-0.100000)"
fill="#000000" stroke="none">
<path d="M0 6711 l0 -869 149 112 c275 204 578 379 776 446 92 31 110 34 225
34 111 1 131 -2 177 -23 61 -27 117 -84 145 -149 16 -36 19 -59 15 -111 -4
-46 1 -86 14 -138 19 -74 19 -75 -1 -196 -46 -274 -61 -341 -83 -365 -10 -11
-17 -35 -17 -58 0 -21 -23 -104 -52 -184 -45 -129 -52 -158 -58 -260 -6 -84
-15 -137 -35 -195 -25 -71 -29 -100 -35 -265 -4 -102 -12 -201 -18 -220 -7
-19 -12 -50 -12 -69 0 -35 -89 -309 -120 -372 -44 -85 -155 -152 -320 -192
-122 -30 -406 -87 -432 -87 -33 0 -19 -17 25 -29 141 -41 395 -158 517 -239
99 -65 159 -119 203 -184 116 -170 233 -689 198 -883 -18 -102 -50 -208 -77
-259 -15 -27 -33 -80 -40 -119 -17 -87 -37 -122 -99 -169 -30 -22 -60 -58 -80
-93 -17 -32 -49 -70 -70 -86 -21 -16 -59 -57 -85 -91 -66 -88 -130 -145 -235
-209 -122 -76 -163 -96 -275 -135 -52 -18 -134 -51 -181 -73 -48 -23 -94 -41
-103 -41 -14 0 -16 -45 -16 -463 l0 -464 1406 -7 c773 -3 2042 -3 2820 0
l1414 7 -2 519 -3 519 -70 28 c-74 29 -125 57 -239 130 -92 59 -137 100 -202
188 -30 39 -71 82 -90 94 -22 13 -45 42 -64 79 -16 33 -41 67 -55 77 -89 62
-110 94 -125 191 -6 31 -22 80 -36 107 -30 56 -69 188 -84 283 -28 171 72 641
177 834 50 92 157 186 311 272 109 61 292 142 397 176 79 25 102 40 64 40 -31
0 -346 62 -455 90 -149 38 -256 106 -298 189 -39 76 -115 311 -126 386 -5 39
-14 86 -20 105 -6 21 -8 74 -4 130 7 110 -5 203 -41 313 -19 58 -25 99 -25
161 0 85 -20 167 -83 336 -14 36 -28 90 -32 120 -4 30 -16 67 -26 82 -11 14
-19 37 -19 51 0 14 -5 38 -11 54 -12 30 -45 237 -55 339 -5 43 -1 78 11 119
12 41 15 75 10 111 -13 110 45 215 150 269 56 29 65 30 179 30 169 0 285 -37
520 -165 109 -60 167 -95 323 -197 l23 -15 0 761 0 761 -2820 0 -2820 0 0
-869z m2274 347 c35 -167 58 -405 65 -658 l6 -235 9 270 c5 149 6 353 2 454
-7 168 -6 183 9 177 9 -3 42 -9 73 -13 141 -16 182 -72 162 -224 -10 -83 -23
-125 -47 -151 -14 -16 -13 -21 17 -54 51 -58 62 -97 68 -226 5 -133 -2 -162
-53 -207 -25 -22 -51 -32 -104 -41 -75 -13 -166 -9 -183 8 -6 6 -14 68 -20
139 -5 70 -12 146 -16 168 -7 38 -9 40 -49 43 -37 3 -43 0 -47 -20 -14 -59
-67 -285 -72 -300 -7 -25 -152 -24 -209 1 -148 65 -247 319 -215 550 18 134
55 208 128 262 23 17 55 34 71 39 37 10 98 -4 127 -31 11 -10 26 -19 33 -19
10 0 12 -9 7 -32 -3 -17 -8 -33 -10 -35 -2 -2 -24 1 -50 8 -99 25 -159 -15
-196 -133 -34 -108 -38 -209 -10 -300 28 -91 42 -119 87 -169 33 -36 90 -76
98 -67 8 10 14 175 6 188 -6 8 -29 19 -53 25 -36 8 -43 14 -43 34 0 24 2 24
75 22 41 -1 80 -7 87 -13 9 -7 13 -52 14 -157 l1 -146 33 245 c19 135 41 313
50 395 26 241 17 221 102 224 37 1 43 -2 47 -21z m683 -8 c18 -10 40 -31 49
-46 42 -64 58 -278 28 -367 -9 -25 -33 -65 -53 -89 l-38 -42 23 -105 c13 -58
24 -131 26 -161 l3 -55 -45 -6 c-25 -4 -47 -5 -49 -3 -2 1 -9 56 -17 121 -21
181 -18 175 -67 171 -38 -3 -42 -5 -40 -28 15 -205 15 -246 2 -256 -21 -17
-87 -25 -92 -11 -3 7 -3 82 0 167 3 85 0 280 -7 434 -10 233 -10 280 2 287 7
5 65 9 128 9 97 0 120 -3 147 -20z m583 11 c65 -6 65 -6 68 -38 l3 -33 -124 0
c-91 0 -126 -3 -130 -12 -2 -7 -2 -50 1 -95 l5 -83 61 0 c72 0 99 -15 94 -51
-3 -22 -8 -24 -73 -29 l-70 -5 1 -40 c0 -22 4 -119 9 -216 l8 -176 96 -7 c53
-3 114 -6 135 -6 l39 0 -7 218 c-3 119 -9 297 -12 395 l-7 177 50 0 50 0 6
-50 c3 -28 12 -203 18 -390 l13 -340 127 0 128 0 7 -34 c3 -19 3 -39 0 -44 -8
-13 -169 -23 -461 -27 -137 -1 -262 -6 -277 -10 l-27 -7 -3 438 c-2 242 1 447
5 457 7 15 21 17 105 16 53 -1 126 -4 162 -8z m-322 -35 c2 -16 -2 -32 -9 -37
-20 -12 -13 -751 7 -762 8 -4 14 -21 14 -36 0 -34 -17 -41 -101 -41 -54 0 -57
2 -64 27 -5 21 -2 32 14 44 21 17 21 25 21 379 l0 363 -26 24 c-50 46 -17 73
86 70 53 -2 55 -3 58 -31z m-752 -1191 c17 -121 36 -297 43 -391 13 -198 15
-540 3 -548 -4 -3 -19 1 -33 7 -21 11 -25 21 -31 92 -17 202 -31 333 -37 343
-3 6 -28 12 -56 13 l-49 3 -9 -39 c-28 -126 -79 -337 -88 -364 -12 -34 -38
-41 -63 -15 -9 8 -16 11 -16 5 0 -21 -139 -13 -187 10 -102 49 -186 171 -239
344 -24 79 -27 107 -28 230 0 155 14 226 64 326 45 89 155 169 231 169 39 0
108 -29 128 -53 7 -10 20 -17 29 -17 12 0 13 -8 8 -42 -4 -23 -8 -44 -10 -46
-2 -2 -30 4 -61 14 -133 38 -202 -13 -254 -186 -29 -100 -32 -117 -32 -197 0
-125 56 -281 133 -369 31 -35 115 -91 123 -82 3 3 8 59 11 126 l7 120 -39 10
c-21 6 -51 13 -66 16 -23 5 -28 12 -28 37 l0 31 100 -4 c60 -2 104 -8 111 -15
9 -9 13 -66 13 -200 0 -203 -1 -205 41 102 46 345 85 669 85 713 0 75 10 83
93 80 l72 -3 31 -220z m1528 198 c14 -68 37 -232 56 -398 24 -213 40 -728 22
-739 -6 -3 -22 -1 -35 5 -24 11 -26 18 -32 108 -7 99 -21 238 -31 304 l-6 37
-53 0 -54 0 -11 -57 c-11 -52 -56 -240 -81 -335 -10 -38 -28 -48 -58 -29 -11
7 -11 23 -2 92 39 285 103 788 112 892 7 67 16 128 22 135 6 7 35 12 77 12 67
0 69 -1 74 -27z m-1107 -2 c84 -39 123 -152 123 -362 0 -134 -21 -200 -88
-271 l-45 -48 21 -98 c34 -151 55 -280 49 -295 -5 -13 -113 -35 -123 -25 -2 3
-10 63 -18 134 -14 116 -32 234 -39 240 -1 1 -24 0 -51 -3 l-48 -6 6 -106 c10
-143 9 -242 -1 -252 -5 -5 -32 -11 -60 -14 -47 -6 -52 -4 -58 16 -4 12 -4 94
0 181 4 92 2 319 -6 534 -11 325 -11 377 2 385 8 5 77 9 154 9 116 0 147 -4
182 -19z m683 6 l95 -2 3 -43 c2 -31 -1 -44 -12 -48 -19 -7 -20 -85 -9 -612 6
-314 7 -331 25 -335 16 -4 19 -13 16 -43 -4 -45 -18 -51 -120 -53 -48 -1 -71
3 -82 15 -9 8 -19 13 -23 11 -16 -10 -120 16 -180 44 -96 46 -151 124 -195
276 -20 69 -23 100 -23 263 0 149 4 199 19 255 31 117 81 201 140 241 32 21
162 44 211 38 22 -3 83 -6 135 -7z m-1777 -1289 c18 -24 44 -60 56 -80 13 -21
25 -38 27 -38 3 0 20 34 39 76 l34 75 51 -3 51 -3 0 -305 c0 -168 4 -296 8
-285 5 11 23 142 41 290 42 352 32 315 85 315 25 0 45 -2 45 -4 0 -2 9 -61 20
-132 13 -83 23 -207 27 -348 6 -211 6 -218 -13 -214 -16 3 -20 16 -26 83 -18
194 -15 185 -52 185 l-33 0 -28 -119 c-16 -66 -31 -124 -34 -129 -3 -5 -24 -7
-47 -4 l-41 4 -6 156 c-12 274 -20 402 -26 402 -3 0 -24 -32 -45 -70 -22 -39
-43 -70 -47 -70 -4 0 -31 32 -59 70 -29 39 -55 69 -57 66 -3 -3 -2 -108 3
-233 13 -325 15 -296 -26 -304 -23 -5 -37 -3 -42 4 -9 15 -10 396 -2 540 6 97
9 106 28 110 12 2 24 5 28 6 4 0 22 -18 41 -41z m726 16 c34 -24 52 -76 58
-174 7 -101 -5 -145 -50 -196 l-30 -35 18 -80 c10 -43 19 -98 19 -122 1 -42 1
-42 -36 -45 -36 -3 -38 -1 -38 25 0 15 -5 65 -12 111 l-11 82 -33 0 -33 0 6
-109 6 -110 -27 -7 c-56 -14 -60 -5 -52 119 3 61 2 208 -4 325 -6 118 -8 218
-4 223 3 5 49 9 102 9 74 0 103 -4 121 -16z m346 0 c118 -56 164 -294 87 -458
l-32 -68 27 -49 c26 -46 27 -49 11 -66 -16 -16 -19 -15 -54 21 l-36 37 -22
-20 c-40 -37 -77 -44 -132 -24 -44 16 -52 24 -79 78 -28 57 -29 64 -29 185 2
138 26 257 65 312 46 64 124 85 194 52z m780 -14 c0 -25 -1 -25 -92 -28 -60
-2 -93 -7 -96 -15 -2 -7 -2 -38 1 -69 l4 -58 43 0 c59 0 75 -8 75 -36 0 -22
-4 -24 -55 -24 l-55 0 6 -162 c4 -90 8 -164 9 -166 1 -1 49 -6 106 -10 71 -6
105 -5 108 2 2 6 40 81 84 166 76 148 146 299 161 348 l7 22 -86 -6 -86 -7 3
34 3 34 129 3 129 3 -6 -31 c-8 -39 -143 -335 -218 -477 -32 -62 -59 -114 -59
-115 0 -2 49 -2 109 0 104 3 110 2 116 -18 4 -12 4 -24 1 -28 -4 -3 -75 -10
-158 -15 -116 -6 -153 -6 -159 4 -5 9 -41 11 -143 6 l-136 -5 0 339 0 340 128
-3 127 -3 0 -25z m-580 -24 c-5 -87 13 -452 24 -494 16 -59 42 -82 90 -82 54
0 69 7 88 44 14 26 18 74 21 304 l4 272 28 0 c34 0 37 -12 46 -241 6 -139 4
-178 -11 -245 -34 -156 -72 -198 -177 -195 -56 1 -100 22 -130 61 -25 34 -37
176 -38 428 l0 192 29 0 c28 0 29 -1 26 -44z m-990 -998 c37 -17 30 -28 -18
-28 -78 0 -108 -40 -148 -200 -16 -64 -23 -125 -24 -187 0 -118 7 -126 110
-131 64 -4 75 -7 75 -22 0 -43 -161 -29 -221 19 -21 17 -24 29 -27 117 -3 82
0 118 22 209 33 135 63 190 119 216 49 22 76 24 112 7z m1106 -29 c4 -19 12
-92 18 -164 7 -71 16 -155 21 -185 5 -30 12 -88 16 -127 l7 -73 -26 0 c-24 0
-25 2 -37 114 -7 62 -15 119 -20 125 -4 7 -20 11 -36 9 -28 -3 -30 -7 -63
-130 -30 -116 -50 -153 -69 -133 -3 3 11 71 31 153 21 81 42 177 47 215 13 86
57 224 73 230 22 9 31 1 38 -34z m837 -188 c3 -22 1 -23 -31 -17 -19 4 -47 2
-62 -4 l-28 -11 42 -36 c61 -52 69 -79 34 -115 -43 -45 -79 -60 -124 -53 -31
5 -40 12 -45 32 -9 36 11 51 33 25 16 -18 22 -19 52 -9 19 7 39 20 45 30 9 15
3 25 -41 66 -29 27 -53 56 -53 65 0 30 60 57 120 54 49 -3 55 -5 58 -27z
m-1683 -1 c31 -12 49 -53 35 -80 -16 -31 -96 -63 -141 -57 -35 5 -39 3 -39
-17 0 -36 32 -58 84 -58 25 0 53 3 64 6 12 4 25 -1 36 -13 17 -19 17 -20 -13
-35 -66 -34 -166 -12 -201 46 -19 32 -26 90 -14 123 11 28 110 88 156 94 4 1
18 -3 33 -9z m1414 -34 c11 -24 11 -39 1 -83 -21 -97 -109 -164 -165 -127 -80
52 -72 150 17 215 35 25 50 29 88 27 38 -3 47 -7 59 -32z m-1239 -21 l5 -40
24 33 c30 39 58 41 71 7 l10 -26 31 23 c30 23 31 23 45 4 23 -33 14 -186 -11
-186 -17 0 -25 23 -26 78 l0 47 -22 -60 c-17 -46 -27 -61 -44 -63 -24 -4 -31
11 -35 83 l-3 40 -43 -68 c-23 -37 -47 -65 -51 -63 -18 11 -19 64 -4 149 13
71 19 87 32 85 10 -2 18 -17 21 -43z m820 -13 l15 -31 44 34 c51 41 67 43 77
13 8 -24 7 -135 -2 -180 -5 -24 -8 -26 -25 -17 -18 9 -20 19 -18 72 2 55 0 62
-16 62 -12 0 -31 -21 -55 -60 -20 -33 -44 -61 -53 -63 -27 -5 -36 35 -21 92 7
28 11 60 8 73 -13 51 22 55 46 5z m-544 -335 c40 -35 24 -47 -61 -47 -57 0
-82 -5 -112 -22 -52 -30 -83 -58 -83 -78 0 -27 61 -77 146 -119 45 -22 93 -53
107 -70 70 -84 28 -170 -111 -224 -56 -22 -201 -23 -242 -2 -36 18 -37 28 -9
56 22 22 40 22 125 0 72 -18 154 18 154 68 0 43 -32 76 -118 118 -83 41 -157
106 -168 148 -5 21 0 33 27 61 109 112 280 167 345 111z m-967 -109 c5 -15 -4
-55 -30 -132 -20 -61 -40 -142 -44 -181 -9 -102 -13 -115 -34 -115 -24 0 -34
38 -25 98 l7 47 -57 -53 c-37 -34 -66 -52 -83 -52 -31 0 -83 51 -83 82 0 54
128 136 187 119 30 -9 31 -8 61 53 16 33 35 79 42 101 7 22 15 43 17 48 9 15
34 6 42 -15z m1951 3 c7 -15 1 -47 -29 -138 -23 -68 -42 -150 -46 -193 -4 -41
-12 -83 -17 -94 -9 -17 -11 -17 -26 -2 -13 13 -16 32 -15 77 l3 61 -56 -51
c-34 -31 -65 -51 -79 -51 -30 0 -72 37 -80 71 -14 58 115 149 183 130 30 -9
31 -9 66 62 19 40 38 86 42 102 4 17 9 33 11 38 8 14 32 7 43 -12z m-1672
-111 c12 -12 22 -32 22 -45 0 -43 -92 -93 -150 -82 -19 4 -30 2 -34 -8 -16
-43 32 -70 113 -62 44 4 63 1 71 -9 16 -18 6 -30 -36 -44 -84 -28 -183 23
-198 101 -9 48 5 81 46 112 79 60 129 71 166 37z m950 -7 c16 -22 15 -95 -2
-136 -20 -48 -80 -97 -119 -97 -77 0 -115 97 -68 173 46 75 151 108 189 60z
m1350 0 c16 -22 15 -95 -2 -136 -7 -18 -30 -47 -50 -65 -50 -43 -94 -44 -130
-1 -26 31 -30 43 -26 89 7 95 159 177 208 113z m-324 -9 l48 -17 -7 -98 c-6
-90 -5 -102 14 -134 12 -20 21 -38 21 -41 0 -12 -49 -2 -62 14 -15 17 -20 29
-32 85 l-7 28 -40 -32 c-57 -45 -118 -51 -153 -16 -35 35 -33 74 4 126 34 46
112 101 145 101 12 0 43 -7 69 -16z m-411 -1506 c28 -34 19 -123 -25 -229 -36
-88 -63 -170 -74 -229 -16 -86 -71 -160 -119 -160 -12 0 -37 -3 -54 -6 l-32
-7 50 -33 c64 -44 87 -74 100 -135 28 -127 -2 -228 -92 -309 -70 -63 -93 -76
-172 -97 -74 -20 -117 -17 -158 10 -13 8 -59 72 -102 142 -43 69 -82 128 -87
131 -4 3 -8 -18 -8 -46 0 -60 -13 -90 -40 -90 -21 0 -40 50 -40 110 l0 35 -40
-63 c-22 -34 -53 -89 -70 -121 -35 -67 -83 -119 -117 -127 -72 -19 -197 21
-278 88 -104 86 -140 183 -115 311 13 72 37 105 110 153 l44 29 -66 6 c-37 3
-74 12 -84 20 -22 18 -74 127 -74 154 0 26 -30 111 -68 195 -43 95 -52 127
-52 185 0 69 20 88 93 87 64 0 176 -41 275 -100 59 -35 301 -248 342 -300 53
-69 82 -95 91 -81 10 17 4 42 -22 87 -23 39 -23 42 -6 42 7 0 23 -22 34 -50
13 -30 28 -50 37 -50 9 0 24 21 37 50 12 28 25 50 30 50 13 0 12 -5 -12 -60
-12 -28 -18 -57 -15 -67 6 -14 16 -7 58 42 74 87 290 299 341 334 54 37 152
87 220 112 68 25 134 20 160 -13z"/>
<path d="M2403 6994 c-3 -9 -1 -66 6 -128 6 -62 11 -136 11 -164 0 -56 5 -60
49 -37 48 24 76 96 76 190 -1 46 -6 90 -14 103 -23 42 -115 68 -128 36z"/>
<path d="M2200 6963 c0 -11 -30 -363 -33 -388 -2 -17 5 -20 52 -23 l54 -3 -7
53 c-3 29 -11 112 -16 183 -12 158 -17 185 -36 185 -8 0 -14 -3 -14 -7z"/>
<path d="M2425 6578 c-3 -13 -2 -104 2 -203 l8 -180 30 3 c44 5 86 33 110 72
16 28 20 52 20 120 0 100 -15 136 -77 180 -50 36 -85 39 -93 8z"/>
<path d="M2745 7015 c-13 -6 -7 -453 6 -477 11 -21 35 -18 110 14 94 39 129
106 129 247 0 70 -4 95 -22 131 -34 65 -66 84 -146 87 -37 1 -71 0 -77 -2z"/>
<path d="M2331 5758 c-7 -95 -17 -210 -22 -256 -5 -46 -7 -87 -4 -92 9 -15
112 -12 117 3 5 13 -27 431 -37 485 -4 22 -11 32 -24 32 -16 0 -19 -17 -30
-172z"/>
<path d="M3896 5863 c-12 -129 -29 -368 -30 -413 l-1 -45 59 -3 59 -3 -6 93
c-28 402 -32 431 -59 436 -13 2 -17 -11 -22 -65z"/>
<path d="M2626 5983 c-15 -4 -17 -11 -11 -41 4 -21 9 -152 11 -292 2 -140 6
-261 9 -269 12 -31 134 7 213 66 59 44 92 143 92 271 -1 89 -13 137 -47 186
-40 58 -101 86 -183 85 -36 -1 -73 -3 -84 -6z"/>
<path d="M3415 5934 c-69 -15 -142 -38 -161 -51 -12 -7 -32 -37 -44 -66 -20
-46 -23 -74 -28 -237 -5 -204 7 -298 52 -396 21 -45 33 -57 92 -92 78 -45 190
-93 198 -84 7 7 5 458 -3 727 l-6 200 -40 2 c-22 0 -49 -1 -60 -3z"/>
<path d="M2166 4593 c-4 -65 -9 -137 -12 -160 l-6 -43 42 0 42 0 -6 38 c-4 20
-10 87 -15 149 -5 61 -12 116 -16 122 -16 27 -23 3 -29 -106z"/>
<path d="M2354 4742 c-8 -5 -10 -62 -6 -189 5 -209 1 -202 92 -155 72 36 92
76 94 182 1 65 -3 84 -20 107 -36 49 -124 79 -160 55z"/>
<path d="M2753 4730 c-12 -5 -33 -31 -47 -57 -43 -85 -60 -161 -60 -268 -1
-86 2 -106 22 -143 47 -87 94 -105 151 -56 l31 26 -20 33 c-25 41 -7 61 22 25
14 -18 21 -20 33 -10 29 24 40 84 40 215 0 115 -3 135 -22 171 -35 66 -88 89
-150 64z"/>
<path d="M3993 2840 c-13 -5 -43 -30 -68 -54 -33 -34 -45 -53 -45 -76 0 -25 4
-30 23 -30 35 0 99 50 135 106 24 36 29 50 20 56 -16 10 -37 9 -65 -2z"/>
<path d="M3424 1330 c-49 -24 -60 -34 -60 -52 1 -20 -3 -23 -35 -21 -26 2 -42
-4 -55 -18 -10 -11 -14 -20 -9 -19 6 2 25 2 43 1 25 -1 32 -5 32 -21 0 -14 7
-20 21 -20 16 0 20 -5 16 -19 -4 -16 0 -18 37 -14 37 4 45 1 79 -32 39 -40 49
-69 20 -63 -10 2 -17 11 -17 21 1 13 -2 14 -15 7 -10 -5 -23 -16 -31 -24 -10
-13 -10 -16 2 -16 8 0 24 -13 35 -28 l21 -28 -24 -21 c-13 -12 -36 -26 -51
-31 l-28 -10 27 -1 c27 -1 48 -25 48 -55 0 -25 -37 -56 -66 -56 -15 0 -32 -8
-39 -17 -11 -15 -15 -15 -29 -4 -25 21 -223 0 -209 -22 4 -6 0 -8 -9 -4 -9 3
-51 0 -94 -7 -70 -11 -75 -13 -45 -19 18 -4 71 -7 117 -7 49 0 84 -4 84 -10 0
-5 9 -10 20 -10 14 0 20 6 18 18 -2 13 5 18 30 20 27 3 32 0 32 -17 0 -12 5
-21 11 -21 5 0 9 10 7 23 -3 21 2 22 76 29 83 8 137 31 117 51 -17 17 -13 27
14 37 39 15 31 36 -12 31 -7 -1 -13 8 -13 20 0 19 4 21 30 16 17 -4 30 -2 30
3 0 10 -7 12 -40 14 -8 1 -15 8 -15 16 0 14 5 16 48 19 26 1 16 24 -13 31 -13
3 -25 11 -28 18 -5 17 28 28 38 12 5 -9 13 -9 25 -3 15 9 16 11 1 16 -24 10
-21 41 4 34 17 -4 19 -1 14 19 -5 19 -1 26 17 32 20 8 20 9 4 15 -13 6 -15 10
-6 21 9 11 8 15 -5 20 -24 9 -28 7 -15 -8 8 -10 9 -16 1 -21 -5 -3 -10 -15
-10 -25 0 -25 -17 -35 -35 -20 -20 17 -19 25 8 38 19 10 17 11 -16 6 -28 -5
-43 -2 -57 11 -24 21 -26 43 -5 51 8 4 12 10 9 15 -3 5 -16 1 -30 -8 -33 -21
-46 -7 -42 43 2 32 7 40 26 42 19 3 22 -1 22 -29 0 -32 1 -32 18 -16 15 16 15
19 2 28 -26 17 17 41 68 37 23 -2 42 0 42 3 0 11 -47 20 -64 13 -9 -3 -16 -1
-16 5 0 16 -8 14 -76 -19z"/>
<path d="M2140 1328 c-53 -15 -63 -30 -15 -23 23 4 53 2 70 -5 27 -10 28 -13
13 -24 -13 -10 -15 -15 -6 -24 19 -19 28 -14 28 14 0 21 4 25 23 22 18 -2 22
-10 24 -45 3 -39 1 -43 -21 -43 -13 0 -27 8 -30 17 -6 15 -8 15 -16 3 -6 -10
-4 -17 5 -23 43 -24 -4 -67 -68 -65 -41 2 -46 5 -41 22 5 15 3 18 -11 13 -9
-4 -19 -7 -22 -7 -3 0 0 -7 7 -15 10 -12 9 -16 -4 -21 -9 -3 -13 -10 -10 -15
3 -5 9 -7 14 -4 4 3 14 -3 21 -12 11 -13 11 -17 2 -20 -21 -7 -14 -23 8 -20
30 3 36 -21 7 -32 -20 -8 -21 -10 -5 -16 9 -4 24 -2 32 5 17 14 35 5 35 -17 0
-10 -6 -14 -19 -10 -12 3 -22 -1 -25 -10 -10 -24 -7 -29 15 -30 13 -1 23 5 26
18 3 10 9 19 14 19 6 0 13 8 16 18 4 9 12 22 19 27 10 8 7 14 -12 28 -23 18
-24 17 -24 -3 0 -15 -5 -20 -17 -18 -29 5 -25 24 14 62 31 30 45 36 80 36 34
0 41 3 36 16 -4 10 1 17 15 21 11 2 23 14 25 25 5 16 11 19 29 15 13 -4 29 -3
36 2 21 13 -13 34 -45 28 -29 -5 -63 7 -63 23 0 6 8 10 18 11 9 0 -14 16 -53
35 -76 37 -74 37 -125 22z"/>
<path d="M3155 1068 c-99 -79 -237 -230 -223 -243 8 -8 205 122 267 176 50 43
81 84 81 104 0 3 -17 5 -37 4 -29 0 -50 -10 -88 -41z"/>
<path d="M2413 1094 c-35 -15 82 -122 228 -210 160 -96 164 -94 49 29 -128
136 -227 201 -277 181z"/>
<path d="M3330 1023 c-14 -2 -35 -6 -47 -8 -24 -6 -83 -52 -83 -66 0 -4 54 -7
121 -5 100 3 123 7 138 22 13 15 15 23 7 41 -10 20 -18 23 -61 22 -27 -1 -61
-3 -75 -6z"/>
<path d="M2222 990 c-11 -19 -11 -25 4 -41 15 -17 32 -19 141 -19 67 0 123 4
123 9 0 5 -17 22 -37 37 -34 26 -47 29 -128 32 -83 3 -91 2 -103 -18z"/>
<path d="M2194 933 c0 -10 -6 -18 -14 -19 -35 -3 -40 -4 -40 -14 0 -5 13 -7
30 -3 26 5 30 3 30 -16 0 -12 -6 -21 -12 -20 -28 3 -36 -2 -31 -20 3 -11 11
-17 19 -14 23 9 35 -6 21 -28 -10 -17 -9 -22 7 -35 11 -8 34 -14 50 -14 17 0
54 -3 82 -6 47 -6 50 -8 46 -30 -3 -19 -1 -23 11 -18 9 3 13 12 10 20 -4 10 4
14 31 14 27 0 34 -3 30 -15 -4 -10 0 -15 14 -15 11 0 22 7 26 15 4 12 26 15
103 16 124 1 180 16 78 20 -38 2 -85 3 -102 2 -18 0 -30 3 -28 8 11 17 -173
29 -208 14 -11 -4 -23 -3 -30 4 -6 6 -23 11 -39 11 -28 0 -68 33 -68 58 0 23
20 52 35 52 8 0 15 5 15 10 0 6 -9 10 -20 10 -11 0 -23 7 -26 15 -8 21 -22 19
-20 -2z"/>
<path d="M3065 865 c-49 -30 -97 -59 -105 -64 -16 -10 25 -8 285 11 175 12
199 17 215 47 19 36 -20 48 -170 55 l-135 6 -90 -55z"/>
<path d="M2358 896 c-124 -13 -152 -27 -121 -64 16 -19 34 -22 187 -33 154
-10 172 -9 207 7 22 9 39 20 39 23 0 4 -33 23 -72 44 -79 40 -78 40 -240 23z"/>
<path d="M2835 884 c-4 -11 -9 -27 -10 -36 -2 -23 -17 -36 -22 -21 -7 20 -44
63 -54 63 -5 0 2 -17 16 -37 25 -37 34 -93 15 -93 -15 0 -2 -80 20 -122 15
-28 21 -68 26 -160 7 -123 17 -169 35 -151 5 5 11 72 14 148 4 90 10 146 19
160 22 34 36 84 25 91 -6 4 -6 11 2 20 9 11 8 14 -5 14 -25 0 -20 51 9 94 28
41 29 46 15 46 -5 0 -20 -18 -32 -40 -23 -41 -37 -50 -40 -27 0 6 -2 17 -2 22
-1 6 -7 18 -12 29 -11 18 -11 18 -19 0z"/>
<path d="M2642 678 c-67 -16 -86 -25 -99 -46 -10 -15 -36 -48 -60 -74 -24 -26
-43 -52 -43 -59 0 -17 55 -4 105 26 44 25 199 148 210 165 9 14 -18 11 -113
-12z"/>
<path d="M2949 687 c26 -32 187 -146 235 -166 90 -39 98 -25 29 52 -27 30 -53
62 -58 71 -11 19 -84 41 -169 52 -46 7 -50 6 -37 -9z"/>
<path d="M2679 588 c-78 -68 -118 -126 -119 -170 0 -10 -9 -27 -19 -37 -43
-43 -54 -98 -25 -122 20 -16 30 -4 80 93 18 36 58 107 88 157 64 104 89 151
81 151 -3 0 -41 -32 -86 -72z"/>
<path d="M2931 654 c2 -5 41 -71 87 -145 46 -73 98 -158 115 -188 37 -64 52
-72 68 -37 14 31 0 72 -37 107 -13 12 -24 31 -24 41 0 40 -41 97 -112 153 -99
80 -102 82 -97 69z"/>
<path d="M2693 472 c-106 -187 -121 -221 -103 -232 28 -17 55 17 103 131 101
236 101 278 0 101z"/>
<path d="M2934 563 c4 -16 35 -90 69 -167 44 -99 68 -142 85 -149 65 -30 41
35 -95 256 -30 48 -57 87 -60 87 -3 0 -2 -12 1 -27z"/>
<path d="M1015 6405 c-163 -36 -435 -174 -695 -353 -117 -80 -320 -232 -320
-239 0 -3 10 1 22 9 50 32 96 27 68 -7 -16 -20 -12 -19 35 5 46 24 81 26 89 5
7 -18 -37 -71 -75 -90 -59 -31 -108 -8 -80 37 9 15 3 12 -23 -9 l-36 -28 0
-92 0 -92 37 -3 c25 -2 42 -11 56 -30 20 -27 20 -29 4 -82 -12 -38 -29 -65
-57 -90 l-40 -36 1 -153 1 -153 66 68 c36 37 86 81 111 98 55 35 191 80 328
110 124 26 161 19 232 -45 33 -28 68 -49 105 -59 76 -22 73 -36 -14 -70 -55
-22 -73 -37 -116 -102 -36 -55 -84 -83 -175 -103 -24 -6 -147 -35 -272 -66
-125 -30 -237 -55 -247 -55 -15 0 -20 -7 -20 -26 0 -24 3 -25 27 -19 82 20
407 85 529 106 178 29 190 26 225 -64 l24 -62 60 -16 c71 -19 83 -40 34 -67
-58 -31 -87 -61 -93 -96 -18 -93 -169 -143 -566 -186 -241 -26 -240 -26 -240
-50 0 -25 0 -25 321 0 286 24 406 26 440 9 28 -13 129 -130 129 -150 0 -27
-73 -185 -98 -211 -39 -42 -108 -63 -405 -123 -150 -31 -297 -61 -327 -68
l-55 -12 -3 -134 -3 -133 23 6 c13 4 44 9 70 13 39 5 49 3 54 -11 19 -49 -39
-106 -108 -106 -27 0 -38 -4 -38 -15 0 -13 21 -15 128 -15 134 0 281 -23 340
-54 73 -38 162 -143 162 -192 0 -12 -8 -32 -18 -44 -15 -19 -27 -22 -100 -21
-45 0 -119 5 -165 10 -45 6 -134 13 -197 16 -63 4 -123 9 -133 11 -9 3 -17 1
-17 -3 0 -9 44 -15 335 -48 241 -28 360 -47 389 -64 88 -50 207 -326 150 -348
-9 -3 -73 9 -142 27 -158 40 -220 54 -397 86 -119 21 -252 51 -317 70 -27 8
-24 -48 4 -72 l22 -19 -18 29 c-29 45 -10 52 81 28 43 -12 169 -40 280 -62
248 -50 354 -80 458 -131 91 -44 151 -96 160 -140 18 -81 -28 -202 -87 -232
-50 -25 -90 -13 -198 59 -113 74 -159 97 -325 160 -95 36 -145 61 -155 76 -8
13 -26 34 -40 48 -14 15 -20 19 -14 11 23 -31 40 -76 37 -93 -7 -28 -82 -50
-157 -46 -56 3 -66 1 -66 -14 0 -11 16 -22 48 -32 27 -9 62 -31 79 -49 30 -32
332 -452 372 -517 30 -51 26 -72 -25 -136 -41 -49 -45 -60 -39 -90 9 -48 -1
-59 -33 -37 -20 13 -53 19 -132 23 l-105 5 -82 165 c-73 146 -83 161 -83 128
0 -26 16 -67 50 -133 62 -118 64 -151 17 -250 -19 -39 -41 -76 -50 -84 -11 -8
-17 -28 -17 -53 0 -35 2 -38 19 -28 44 23 81 2 81 -45 0 -22 -57 -75 -81 -75
-17 0 -19 -8 -19 -68 0 -40 5 -73 12 -80 10 -10 10 -17 0 -32 -17 -28 -15 -50
4 -50 9 0 51 16 93 37 42 20 130 56 196 80 203 74 380 190 476 315 33 43 78
93 100 110 22 18 54 58 71 90 22 41 44 66 77 87 57 37 74 66 95 161 9 41 28
96 41 121 38 74 85 263 85 344 0 153 -56 432 -120 600 -51 135 -69 169 -116
223 l-37 44 -13 -31 c-14 -33 -24 -37 -55 -21 -27 15 -26 68 3 79 20 7 20 9
-14 34 -102 78 -361 204 -540 263 -65 22 -118 42 -118 46 0 9 -1 9 271 63 124
24 262 56 306 70 92 29 188 89 220 137 29 45 133 343 133 382 0 17 5 47 11 66
7 19 15 121 19 225 7 174 10 198 39 289 24 78 31 116 31 182 0 87 11 128 79
312 17 46 31 103 31 126 0 27 7 53 18 67 22 29 46 124 68 274 8 61 19 131 24
156 7 35 4 66 -9 124 -13 51 -17 97 -14 135 7 73 -8 117 -59 174 -56 64 -122
98 -111 57 11 -43 -57 -67 -81 -28 -9 15 -7 22 11 36 12 10 19 21 16 25 -11
11 -166 5 -228 -9z m67 -62 c24 -21 23 -74 -1 -104 -13 -16 -29 -23 -54 -23
-85 0 -105 88 -29 128 36 20 61 20 84 -1z m181 -164 c24 -30 21 -56 -9 -84
-35 -32 -57 -31 -93 3 -29 26 -35 39 -32 73 3 41 101 47 134 8z m-182 -85 c42
-25 49 -57 17 -78 -13 -8 -72 -19 -138 -26 -63 -6 -157 -18 -208 -26 -52 -8
-102 -12 -113 -9 -31 10 -23 50 17 83 88 73 340 105 425 56z m-556 -144 c21
-41 19 -55 -15 -93 -36 -42 -37 -47 -7 -47 46 0 87 -81 68 -133 -22 -58 -126
-87 -169 -47 -32 30 -30 99 3 138 l24 29 -37 24 c-64 42 -49 108 33 144 52 23
83 19 100 -15z m800 -15 c66 -66 -24 -157 -92 -93 -39 36 -25 92 27 111 28 10
41 7 65 -18z m-312 -46 c51 -14 107 -64 107 -96 0 -32 -40 -48 -186 -73 -143
-25 -189 -25 -234 -2 -45 22 -57 56 -37 103 31 75 204 109 350 68z m75 -245
c26 -11 32 -18 32 -44 0 -44 -22 -81 -78 -131 -89 -80 -217 -102 -319 -55 -56
27 -103 84 -103 127 0 50 91 103 203 119 78 11 222 2 265 -16z m-804 -270 c20
-19 20 -20 -1 -55 -10 -16 -45 -44 -83 -64 -36 -20 -79 -45 -96 -56 -17 -11
-38 -17 -47 -13 -21 8 -40 59 -33 88 9 35 55 86 91 102 43 19 150 18 169 -2z
m840 -46 c23 -33 20 -75 -9 -103 -29 -30 -59 -31 -102 -5 -29 17 -33 25 -33
60 0 37 3 42 33 55 49 22 93 19 111 -7z m-653 -1893 c96 -40 120 -62 92 -83
-20 -15 -101 -11 -166 8 -38 11 -117 73 -117 91 0 16 43 29 76 24 16 -3 68
-21 115 -40z m-87 -1029 c87 -30 162 -70 278 -149 96 -65 144 -113 154 -154
13 -52 -36 -181 -85 -226 -33 -30 -124 -67 -167 -67 -35 0 -63 28 -134 135
-18 28 -91 127 -162 221 -70 94 -128 179 -128 187 0 23 102 74 153 76 10 1 51
-10 91 -23z"/>
<path d="M816 6084 c-99 -22 -176 -66 -176 -101 0 -16 -11 -17 155 6 77 11
172 22 211 26 80 8 100 16 91 39 -17 45 -147 58 -281 30z"/>
<path d="M473 5793 c-39 -8 -73 -49 -73 -88 0 -53 15 -75 51 -75 38 0 85 24
99 50 14 27 -4 96 -30 110 -10 5 -20 9 -22 9 -2 -1 -13 -4 -25 -6z"/>
<path d="M805 5881 c-96 -15 -145 -58 -131 -114 9 -37 61 -51 153 -43 102 9
255 43 272 60 12 13 9 19 -18 44 -53 48 -168 70 -276 53z"/>
<path d="M811 5640 c-29 -4 -79 -21 -110 -37 -69 -35 -78 -64 -35 -120 61 -80
203 -97 313 -38 91 50 151 158 102 185 -26 14 -204 21 -270 10z"/>
<path d="M165 5371 c-44 -11 -70 -27 -100 -63 -21 -25 -25 -38 -21 -62 10 -49
22 -53 68 -19 24 17 64 39 90 51 48 21 88 66 72 81 -14 13 -76 20 -109 12z"/>
<path d="M213 2384 c-29 -13 -53 -28 -53 -33 0 -5 41 -62 91 -128 49 -65 122
-165 162 -222 101 -147 124 -171 157 -171 16 0 56 12 90 27 68 29 95 64 129
168 17 52 18 62 6 86 -51 99 -399 303 -509 298 -12 0 -45 -11 -73 -25z"/>
<path d="M4690 6412 c0 -5 7 -12 15 -16 32 -12 10 -66 -26 -66 -22 0 -49 37
-42 56 14 36 -61 -1 -107 -52 -55 -63 -73 -116 -66 -193 5 -50 2 -82 -13 -132
-15 -53 -17 -77 -10 -115 5 -27 18 -103 29 -169 28 -175 39 -226 60 -260 10
-16 21 -55 25 -85 4 -30 18 -84 32 -120 61 -161 82 -248 81 -333 0 -63 6 -100
26 -160 33 -101 48 -220 40 -327 -5 -64 -2 -98 10 -139 9 -30 16 -70 16 -89 0
-36 88 -309 121 -373 23 -47 83 -100 150 -132 66 -32 147 -54 389 -102 102
-20 193 -39 203 -41 15 -5 17 5 17 118 l0 124 -92 18 c-162 32 -310 67 -347
82 -57 24 -77 50 -122 155 -47 113 -49 102 39 199 l49 55 129 0 c71 0 177 -4
237 -8 l107 -8 0 29 0 29 -106 12 c-129 15 -280 52 -337 83 -40 22 -54 41 -77
104 -7 21 -27 40 -63 60 -73 42 -73 59 0 80 73 21 80 27 94 78 21 80 55 94
176 76 82 -12 265 -47 296 -56 13 -4 17 1 17 20 0 28 10 24 -200 77 -145 37
-170 47 -202 89 -62 82 -92 110 -136 126 -26 10 -53 22 -60 27 -18 14 2 34 41
43 47 10 87 32 122 69 60 64 134 65 340 5 l95 -27 0 406 0 406 -103 66 c-341
221 -543 307 -739 317 -70 3 -108 1 -108 -6z m267 -84 c34 -32 29 -88 -10
-106 -55 -27 -117 12 -117 72 0 66 73 85 127 34z m-183 -128 c51 -19 43 -86
-15 -116 -39 -19 -81 -5 -98 33 -15 33 -6 60 27 78 32 17 52 18 86 5z m309
-91 c102 -16 170 -44 206 -85 35 -40 37 -47 16 -64 -13 -11 -35 -10 -118 3
-56 9 -151 21 -212 27 -155 16 -195 41 -143 89 43 40 122 50 251 30z m453
-160 c20 -12 40 -32 45 -46 12 -33 -11 -77 -49 -92 l-30 -12 23 -25 c13 -13
25 -36 28 -50 7 -39 -11 -92 -35 -105 -33 -18 -96 -4 -129 27 -56 54 -27 164
43 164 l30 0 -31 35 c-17 20 -32 41 -32 48 -3 29 4 53 19 70 21 23 67 18 118
-14z m-833 -16 c39 -36 6 -113 -50 -113 -34 0 -73 36 -73 67 0 13 11 35 26 49
27 28 63 27 97 -3z m481 -44 c121 -33 131 -165 14 -184 -59 -10 -249 16 -343
47 -92 30 -27 120 108 148 48 10 163 4 221 -11z m9 -249 c60 -23 115 -60 122
-81 13 -41 -43 -116 -110 -148 -93 -44 -230 -18 -317 59 -73 64 -99 155 -51
175 69 28 276 25 356 -5z m-284 -301 c57 -20 66 -65 22 -110 -58 -58 -131 -28
-131 54 0 24 5 48 12 55 15 15 55 15 97 1z"/>
<path d="M4874 6086 c-71 -32 -49 -60 54 -70 37 -4 131 -16 210 -27 78 -11
147 -17 152 -14 30 18 -42 73 -132 100 -76 23 -244 30 -284 11z"/>
<path d="M5404 5775 c-17 -18 -24 -35 -24 -65 0 -35 4 -43 33 -60 47 -29 98
-23 115 13 24 51 -7 110 -66 127 -29 8 -37 6 -58 -15z"/>
<path d="M4969 5880 c-108 -19 -181 -96 -107 -112 13 -3 59 -14 103 -23 100
-22 255 -26 278 -6 41 34 4 113 -61 130 -57 15 -162 20 -213 11z"/>
<path d="M4900 5642 c-56 -9 -70 -18 -70 -43 0 -53 82 -141 158 -169 63 -24
155 -26 204 -5 38 15 92 71 103 105 9 29 -7 45 -80 80 -54 26 -77 31 -167 34
-56 3 -123 1 -148 -2z"/>
<path d="M520 5264 c-113 -24 -238 -63 -293 -90 -68 -35 -158 -113 -196 -171
-28 -42 -31 -54 -31 -129 l0 -82 62 14 c326 76 548 133 579 150 16 8 44 38 63
68 35 56 74 85 141 107 l40 13 -41 12 c-58 17 -95 38 -128 73 -28 29 -81 52
-116 50 -8 0 -44 -7 -80 -15z"/>
<path d="M5277 5270 c-16 -5 -50 -28 -75 -53 -33 -30 -63 -47 -97 -56 l-50
-13 55 -24 c64 -29 93 -55 123 -107 31 -55 64 -71 227 -112 80 -20 153 -38
163 -41 16 -5 17 7 17 166 l0 170 -26 10 c-42 16 -216 58 -264 64 -25 3 -58 1
-73 -4z"/>
<path d="M595 4828 c-72 -11 -245 -43 -335 -63 -36 -8 -109 -24 -162 -35 l-98
-22 0 -185 0 -185 33 6 c33 5 128 17 302 36 270 30 421 79 445 144 24 65 37
82 83 106 26 14 47 28 47 32 0 3 -22 11 -49 18 -58 14 -85 40 -101 98 -16 62
-40 69 -165 50z"/>
<path d="M5195 4815 c-14 -13 -25 -31 -25 -40 0 -44 -30 -74 -93 -94 l-62 -19
34 -18 c60 -34 89 -63 95 -98 15 -77 128 -123 399 -160 l97 -13 -2 200 -3 200
-65 14 c-88 18 -305 53 -330 53 -12 0 -32 -11 -45 -25z"/>
<path d="M365 4285 c-77 -7 -191 -16 -252 -20 l-113 -7 0 -244 c0 -168 3 -244
11 -244 26 0 611 122 671 140 41 13 77 31 93 48 34 35 97 181 90 207 -3 11
-28 45 -55 75 l-49 55 -128 2 c-70 1 -191 -5 -268 -12z"/>
<path d="M5123 4235 c-41 -43 -63 -74 -60 -84 19 -60 72 -170 93 -192 15 -16
54 -36 94 -48 61 -19 346 -80 378 -81 9 0 12 51 12 224 l0 223 -52 7 c-29 3
-131 9 -226 13 l-174 6 -65 -68z"/>
<path d="M5565 3494 c-175 -61 -353 -146 -484 -231 -82 -53 -83 -55 -60 -67
31 -15 35 -47 10 -70 -25 -23 -59 -13 -67 20 -5 20 -9 22 -20 13 -59 -49 -146
-235 -194 -414 -46 -172 -77 -435 -62 -520 18 -98 55 -221 78 -260 13 -23 30
-72 38 -111 24 -114 36 -132 128 -195 13 -9 37 -42 52 -74 17 -33 43 -66 62
-78 18 -12 63 -60 100 -107 37 -47 95 -107 128 -132 79 -60 236 -149 309 -176
l57 -22 0 56 c0 30 -5 64 -10 75 -7 13 -7 19 0 19 6 0 10 59 10 170 l0 170
-36 0 c-20 0 -49 -9 -65 -21 -37 -26 -48 -18 -42 31 5 35 1 45 -36 91 -23 29
-44 62 -47 75 -7 25 20 70 145 245 45 62 81 122 81 133 0 20 -2 20 -20 -4 -11
-14 -54 -74 -96 -135 -126 -181 -132 -184 -239 -144 -92 34 -124 74 -164 200
-17 53 -14 72 17 115 59 80 310 234 443 271 32 9 59 20 59 25 0 12 -1 12 -130
-37 -144 -53 -159 -61 -275 -136 -152 -98 -195 -107 -247 -51 -34 36 -44 57
-58 125 -15 72 -2 114 46 157 82 71 268 141 495 185 143 28 212 49 124 39 -70
-8 -255 -48 -388 -84 -173 -46 -180 -43 -153 67 18 76 59 151 116 216 47 53
60 57 280 82 181 21 190 22 190 38 0 10 -14 12 -62 5 -99 -12 -222 -12 -246 1
-49 26 -37 85 34 167 50 60 115 94 212 114 l62 13 0 38 0 39 -45 -29 c-84 -53
-235 -67 -235 -21 0 23 28 39 142 81 55 20 91 28 110 24 25 -6 28 -4 28 19 0
14 -1 26 -2 25 -2 0 -34 -11 -73 -25z"/>
<path d="M0 3217 c0 -137 -26 -120 205 -138 231 -19 385 -18 398 2 17 27 -1
65 -59 128 -50 55 -64 63 -137 87 -70 22 -106 27 -244 31 l-163 6 0 -116z"/>
<path d="M5553 3305 c-77 -21 -124 -48 -167 -95 -50 -55 -73 -106 -60 -128 13
-20 105 -27 232 -17 l82 7 0 124 c0 141 6 134 -87 109z"/>
<path d="M0 2930 l0 -109 37 -11 c91 -25 207 -50 328 -70 72 -13 208 -42 304
-66 96 -24 180 -44 188 -44 57 0 -75 283 -149 318 -14 7 -75 19 -135 27 -121
17 -537 65 -559 65 -11 0 -14 -23 -14 -110z"/>
<path d="M5428 2985 c-97 -13 -189 -30 -203 -37 -35 -19 -111 -123 -135 -186
-28 -75 -36 -132 -18 -132 7 0 95 20 193 44 99 24 224 52 278 61 l97 17 0 129
c0 117 -2 129 -17 128 -10 -1 -98 -12 -195 -24z"/>
<path d="M40 2754 c0 -4 39 -50 88 -103 48 -53 99 -112 114 -132 20 -26 43
-42 90 -59 215 -77 279 -108 422 -204 82 -54 125 -65 161 -42 35 23 64 86 71
153 8 80 -16 113 -121 170 -109 57 -232 95 -475 143 -113 23 -236 50 -275 61
-79 22 -75 21 -75 13z"/>
<path d="M0 2570 l0 -140 70 0 c67 0 140 19 140 37 0 28 -177 243 -201 243 -5
0 -9 -60 -9 -140z"/>
<path d="M5580 2689 c-294 -62 -357 -79 -466 -129 -94 -43 -160 -98 -169 -141
-8 -37 11 -123 36 -165 23 -38 66 -58 103 -48 15 4 68 33 117 65 126 83 234
134 407 191 l32 11 0 114 c0 62 -3 113 -7 112 -5 -1 -28 -5 -53 -10z"/>
<path d="M5548 2386 c-178 -63 -418 -236 -418 -301 0 -43 46 -150 80 -186 39
-41 131 -76 172 -66 16 4 45 37 88 99 35 51 88 126 117 165 l53 73 0 120 c0
89 -3 120 -12 120 -7 0 -43 -11 -80 -24z"/>
<path d="M1 2148 l0 -213 87 -175 87 -175 100 -5 c55 -3 110 -11 122 -18 21
-11 22 -11 16 21 -4 27 2 40 36 82 23 28 44 60 47 73 7 27 15 16 -209 329
-179 251 -192 266 -264 288 l-23 6 1 -213z"/>
<path d="M5542 1923 c-91 -131 -112 -164 -112 -181 0 -5 21 -36 46 -68 37 -48
45 -65 42 -91 -4 -37 -1 -39 26 -18 11 8 37 15 58 15 l38 0 0 235 c0 129 -2
235 -4 235 -3 0 -45 -57 -94 -127z"/>
<path d="M0 1591 c0 -154 2 -182 14 -172 22 18 70 133 69 167 -1 17 -19 66
-41 110 l-41 79 -1 -184z"/>
</g>
</svg>
