<?xml version="1.0" standalone="no"?>
<!DOCTYPE svg PUBLIC "-//W3C//DTD SVG 20010904//EN"
 "http://www.w3.org/TR/2001/REC-SVG-20010904/DTD/svg10.dtd">
<svg version="1.0" xmlns="http://www.w3.org/2000/svg"
 width="500.000000pt" height="500.000000pt" viewBox="0 0 500.000000 500.000000"
 preserveAspectRatio="xMidYMid meet">
<metadata>
Created by potrace 1.16, written by Peter Selinger 2001-2019
</metadata>
<g transform="translate(0.000000,500.000000) scale(0.100000,-0.100000)"
fill="#000000" stroke="none">
<path d="M2331 4445 c-124 -27 -265 -110 -368 -217 -149 -154 -283 -418 -348
-685 l-17 -73 -239 0 c-226 0 -240 -1 -259 -20 -11 -11 -20 -25 -20 -32 0 -7
-14 -177 -30 -378 -17 -201 -46 -554 -65 -785 -137 -1669 -127 -1511 -101
-1531 17 -12 249 -14 1586 -14 1505 0 1568 1 1583 18 10 11 17 35 17 57 0 22
-20 287 -45 590 -25 302 -61 737 -80 965 -19 228 -47 568 -62 755 -23 288 -30
342 -45 357 -16 16 -42 18 -267 18 l-249 0 -17 73 c-151 622 -552 993 -974
902z m300 -134 c245 -94 442 -364 548 -751 12 -41 21 -78 21 -82 0 -5 -333 -8
-741 -8 l-741 0 7 33 c4 17 23 82 42 142 113 353 304 589 542 673 56 19 81 22
166 19 71 -3 117 -11 156 -26z m-1061 -978 c0 -10 -7 -72 -15 -138 -8 -66 -15
-148 -15 -182 0 -44 -6 -72 -20 -95 -73 -120 79 -238 176 -137 23 24 29 39 29
75 0 39 -5 50 -36 78 l-36 33 8 104 c4 57 13 143 20 192 l12 87 767 0 767 0
16 -127 c26 -213 28 -260 11 -274 -8 -7 -22 -25 -30 -40 -59 -116 84 -222 177
-133 48 46 48 108 0 163 -16 18 -21 37 -21 80 0 51 -4 95 -26 274 l-7 57 200
0 199 0 12 -157 c7 -87 28 -347 47 -578 19 -231 51 -613 70 -850 19 -236 44
-537 55 -667 11 -130 20 -244 20 -252 0 -14 -145 -16 -1481 -16 l-1482 0 6 88
c7 89 11 140 72 882 85 1035 125 1521 125 1535 0 13 29 15 190 15 174 0 190
-1 190 -17z"/>
</g>
</svg>
