<?xml version="1.0" standalone="no"?>
<!DOCTYPE svg PUBLIC "-//W3C//DTD SVG 20010904//EN"
 "http://www.w3.org/TR/2001/REC-SVG-20010904/DTD/svg10.dtd">
<svg version="1.0" xmlns="http://www.w3.org/2000/svg"
 width="450.000000pt" height="647.000000pt" viewBox="0 0 450.000000 647.000000"
 preserveAspectRatio="xMidYMid meet">
<metadata>
Created by potrace 1.16, written by Peter Selinger 2001-2019
</metadata>
<g transform="translate(0.000000,647.000000) scale(0.100000,-0.100000)"
fill="#000000" stroke="none">
<path d="M4015 6363 c-4 -10 -8 -38 -8 -63 1 -25 -4 -50 -9 -57 -5 -7 -5 -14
1 -17 5 -4 14 2 20 11 9 16 10 16 11 1 0 -9 -5 -20 -11 -23 -6 -5 -3 -13 10
-22 12 -8 25 -12 30 -9 8 5 16 -12 26 -51 2 -7 -1 -13 -6 -13 -5 0 -9 -5 -9
-11 0 -5 4 -8 9 -5 5 4 12 0 14 -6 3 -8 6 -5 6 5 1 10 8 26 17 34 13 13 13 17
2 24 -10 7 -9 9 3 9 18 0 32 -47 18 -56 -11 -6 -12 -34 -1 -34 12 0 31 50 25
66 -7 19 11 18 27 -1 9 -10 9 -15 1 -15 -18 0 -13 -14 10 -28 19 -12 20 -11
14 7 -4 12 -2 21 4 21 6 0 11 -7 11 -15 0 -8 4 -15 9 -15 5 0 8 8 6 18 -2 9
-4 21 -4 26 -1 4 -7 6 -15 3 -14 -6 -36 10 -36 27 0 6 5 5 12 -2 20 -20 28
-14 18 14 -9 23 -8 25 12 18 21 -6 21 -5 9 10 -8 9 -16 31 -18 48 -4 39 -29
68 -58 68 -25 0 -45 18 -39 35 10 26 -47 13 -78 -18 l-30 -31 7 32 c7 35 2 43
-10 15z"/>
<path d="M4261 6123 c5 -31 -2 -52 -16 -47 -8 4 -15 2 -15 -4 0 -6 5 -12 11
-14 9 -3 9 -10 0 -27 -13 -23 -32 -24 -39 -3 -2 8 3 10 15 6 15 -5 15 -4 3 5
-8 6 -18 11 -22 11 -16 0 -7 -37 12 -58 12 -12 16 -22 10 -22 -5 0 -10 -6 -10
-14 0 -8 -6 -16 -12 -19 -10 -3 -9 -8 2 -22 14 -17 13 -18 -4 -12 -16 6 -17 5
-7 -7 7 -8 10 -20 7 -25 -4 -5 1 -14 10 -19 14 -8 14 -10 -5 -15 -17 -4 -21
-1 -21 19 0 13 -4 24 -9 24 -5 0 -12 7 -15 16 -3 8 -2 12 4 9 6 -3 10 -1 10 4
0 6 -7 11 -15 11 -9 0 -15 -9 -15 -25 0 -14 4 -25 8 -25 4 0 8 -9 8 -20 0 -11
-5 -20 -10 -20 -6 0 -5 -5 2 -12 7 -7 12 -27 12 -44 0 -18 5 -36 11 -40 8 -4
10 8 8 40 -4 39 -1 46 13 46 10 0 18 -6 19 -12 0 -7 4 -4 9 7 7 17 9 16 16
-15 5 -19 8 -37 7 -40 -1 -3 7 -7 18 -7 24 -2 25 14 2 20 -13 3 -11 5 6 6 l23
1 -23 20 c-13 10 -20 19 -16 20 4 0 13 -5 20 -10 7 -6 21 -18 32 -26 16 -13
17 -15 3 -10 -13 4 -18 0 -18 -13 0 -11 -3 -28 -7 -38 -6 -16 -5 -16 10 -5 9
8 22 11 29 7 7 -4 4 1 -6 9 -11 9 -17 18 -14 21 2 3 13 -4 23 -16 16 -17 17
-22 5 -29 -8 -5 -18 -6 -22 -4 -4 3 -8 0 -8 -6 0 -8 10 -10 28 -6 15 3 21 3
15 0 -8 -4 -11 -15 -7 -31 5 -18 3 -24 -5 -19 -6 4 -11 14 -11 21 0 11 -6 12
-24 5 -17 -6 -26 -5 -30 3 -2 7 -5 4 -5 -6 -1 -18 -25 -19 -27 -1 -1 5 -5 24
-9 42 -6 25 -10 30 -17 20 -7 -9 -8 -7 -5 10 3 12 1 22 -4 22 -5 0 -9 -11 -9
-25 0 -14 5 -25 11 -25 6 0 9 -10 8 -22 -2 -13 0 -29 4 -35 5 -8 4 -13 -2 -13
-6 0 -11 5 -11 10 0 6 -7 10 -16 10 -13 0 -14 -3 -5 -13 7 -9 7 -18 1 -25 -7
-9 -7 -9 2 -2 20 16 30 11 23 -12 -6 -17 -4 -20 10 -15 12 5 16 2 13 -11 -4
-21 -44 -28 -64 -11 -12 10 -13 9 -9 -3 5 -11 -1 -14 -25 -10 -16 2 -30 8 -30
12 0 5 9 6 20 3 15 -4 19 -2 14 10 -3 9 -12 13 -20 10 -8 -3 -14 0 -14 6 0 6
7 11 16 11 14 0 14 2 1 15 -22 21 -20 125 2 125 13 0 12 4 -5 21 l-21 20 -44
-20 c-24 -11 -56 -22 -72 -26 -26 -5 -27 -6 -11 -30 10 -15 27 -26 43 -26 23
-2 24 -2 3 -6 -12 -2 -20 -9 -16 -14 3 -5 10 -7 15 -4 5 4 9 -3 9 -14 0 -10 3
-27 7 -37 6 -16 7 -16 15 2 7 16 8 16 4 -4 -3 -14 1 -25 9 -28 8 -3 11 -13 8
-21 -5 -14 -9 -13 -23 5 -10 12 -21 18 -25 14 -5 -4 -5 -2 -1 5 7 13 -13 53
-26 53 -5 0 -8 -7 -8 -16 0 -9 5 -12 11 -8 9 5 10 -1 5 -20 -5 -21 -3 -26 11
-26 15 0 16 -2 3 -10 -18 -11 -290 -10 -290 2 0 4 -5 8 -11 8 -6 0 -8 -8 -4
-19 4 -13 -11 -41 -50 -92 -59 -79 -63 -90 -40 -109 23 -19 18 -29 -17 -38
-29 -7 -36 -16 -57 -70 -13 -33 -28 -59 -33 -56 -4 3 -8 -5 -8 -18 0 -13 -5
-40 -11 -60 l-10 -38 -225 0 -226 0 -104 -85 c-70 -58 -101 -90 -98 -100 4 -8
10 -15 14 -15 14 0 19 -28 10 -60 -7 -23 -6 -30 3 -27 7 2 13 13 15 25 5 32
27 46 45 27 18 -17 37 -20 37 -5 0 6 5 10 10 10 7 0 7 -6 0 -19 -17 -34 -11
-37 10 -6 l20 30 -6 -45 c-4 -25 -10 -49 -14 -54 -10 -10 -2 -36 10 -36 5 0
11 8 14 18 4 14 5 14 4 -3 -1 -34 2 -38 17 -25 8 7 15 20 14 29 0 12 -2 11 -9
-4 -7 -15 -9 -6 -8 33 1 37 7 57 20 69 13 11 22 14 26 7 4 -6 18 -14 32 -18
93 -27 114 -25 64 5 -21 13 -23 17 -10 22 9 4 16 3 16 -2 0 -5 11 -7 24 -6 16
2 23 -2 22 -12 0 -9 5 -18 12 -20 7 -3 10 1 7 10 -3 7 1 20 10 27 17 14 16 15
20 -28 1 -18 6 -36 10 -40 5 -4 5 1 2 11 -4 11 -1 17 9 17 10 0 13 -6 10 -18
-4 -13 -1 -18 14 -18 11 0 20 6 20 13 0 7 -5 13 -11 13 -5 0 -7 5 -4 10 3 6
-3 10 -14 10 -12 0 -21 5 -21 11 0 5 4 8 9 5 5 -4 12 0 15 6 5 10 7 10 12 1 3
-7 12 -13 20 -13 9 0 14 -8 13 -17 -3 -35 1 -50 15 -50 11 0 12 6 5 24 -12 33
-12 33 16 20 14 -7 25 -18 25 -26 0 -8 3 -11 7 -8 3 4 12 2 19 -4 10 -8 11 -5
7 12 -3 12 -14 24 -25 26 -10 3 -18 10 -18 15 0 5 10 6 23 2 12 -3 22 -7 22
-8 0 0 6 -11 13 -23 6 -13 12 -30 12 -38 0 -8 5 -15 11 -15 5 0 7 5 4 10 -14
22 8 31 26 11 11 -12 24 -21 28 -21 5 0 7 -9 4 -21 -3 -11 -11 -18 -19 -15 -7
3 -16 2 -18 -3 -7 -10 33 -53 43 -47 4 3 8 -8 9 -24 0 -17 -4 -30 -9 -30 -5 0
-3 -10 6 -23 24 -37 -14 -54 -42 -19 -14 16 -14 16 -7 -3 3 -11 6 -29 6 -40
-1 -11 4 -23 11 -27 20 -12 -21 -10 -45 3 -18 10 -20 9 -15 -5 8 -19 -9 -31
-20 -14 -4 7 -16 19 -26 27 -15 12 -20 11 -37 -4 -11 -10 -24 -14 -32 -9 -24
15 -48 14 -48 -1 0 -8 -4 -15 -10 -15 -5 0 -10 9 -10 20 0 17 -6 20 -37 19
-21 0 -32 -3 -25 -6 19 -8 14 -22 -8 -20 -13 1 -20 9 -21 22 0 19 -1 18 -9 -3
-8 -18 -15 -21 -35 -16 -27 7 -33 -4 -13 -24 8 -8 8 -12 1 -12 -6 0 -18 12
-28 26 -9 14 -19 23 -23 20 -3 -4 0 -12 6 -18 18 -18 14 -27 -8 -21 -11 3 -20
0 -20 -6 0 -6 -6 -10 -12 -9 -7 2 -12 -5 -10 -14 2 -10 -2 -18 -8 -18 -16 0
-12 -27 6 -34 22 -9 24 -8 24 9 0 8 4 15 9 15 5 0 4 -14 -2 -30 -7 -17 -13
-26 -15 -20 -9 27 -17 4 -18 -50 0 -47 -5 -65 -22 -83 -12 -13 -22 -29 -22
-36 0 -9 -8 -11 -25 -7 -14 4 -25 2 -25 -4 0 -5 5 -10 10 -10 12 0 -26 -45
-38 -45 -4 -1 -27 -14 -52 -30 -25 -16 -49 -30 -55 -31 -5 -1 -18 -5 -27 -9
-13 -5 -18 -2 -19 11 0 14 -2 15 -6 4 -11 -27 -33 -42 -65 -44 -17 0 -42 -10
-54 -22 -14 -12 -35 -20 -53 -19 -16 1 -40 -6 -52 -16 -23 -18 -23 -19 -4 -20
28 -2 68 -6 83 -8 6 0 12 -6 12 -11 0 -6 -6 -9 -12 -8 -8 2 -13 -8 -13 -27 0
-23 5 -30 19 -30 11 0 21 -6 24 -13 3 -10 -4 -13 -24 -11 -51 4 -59 0 -88 -43
l-28 -43 7 38 c4 24 3 37 -3 33 -15 -9 -2 35 20 66 21 30 23 48 5 48 -6 0 -23
-27 -35 -60 -13 -33 -28 -58 -33 -54 -5 3 -9 -9 -9 -25 0 -18 -5 -31 -12 -31
-15 0 -38 -45 -38 -74 0 -10 -3 -16 -6 -13 -9 8 -43 -56 -60 -110 -13 -44 -9
-60 13 -42 10 9 13 8 13 -1 0 -10 3 -10 15 0 19 15 20 -1 4 -33 -9 -18 -9 -20
2 -9 18 16 32 15 26 -2 -3 -8 -1 -17 6 -20 7 -2 5 -5 -4 -5 -9 -1 -20 -8 -23
-17 -10 -26 -6 -30 9 -10 12 16 15 17 15 4 0 -9 3 -25 6 -35 5 -14 4 -15 -4
-4 -8 11 -10 8 -9 -12 1 -17 6 -22 13 -16 6 5 14 6 18 1 4 -4 12 1 17 11 6 9
14 15 20 12 5 -4 9 3 9 14 0 12 5 21 10 21 6 0 10 -9 10 -20 0 -21 15 -27 25
-10 4 6 12 10 18 8 18 -3 80 13 94 24 6 5 22 10 35 12 13 1 45 12 70 25 26 12
61 23 78 23 17 1 33 5 36 9 2 4 25 11 49 15 25 3 45 11 45 16 0 6 6 8 14 5 7
-3 26 1 41 9 24 12 26 12 21 -2 -4 -12 -2 -15 9 -11 8 4 17 2 20 -3 11 -18 23
-10 18 13 -3 16 -2 18 5 9 7 -11 11 -10 16 4 6 16 8 16 22 2 16 -16 10 -73 -7
-62 -11 7 -11 -34 1 -61 7 -17 9 -17 9 -2 1 9 5 17 10 17 5 0 7 9 4 20 -5 20
14 80 26 80 3 0 6 -16 7 -35 0 -23 -3 -32 -10 -26 -8 7 -12 -7 -13 -42 -1 -29
-7 -53 -13 -55 -5 -2 -10 -11 -10 -19 0 -10 -6 -13 -17 -9 -10 4 -14 4 -10 0
3 -4 -3 -20 -14 -35 -11 -16 -17 -33 -14 -39 3 -5 2 -10 -4 -10 -16 0 -24 20
-13 33 42 52 62 116 43 145 -16 26 -26 17 -32 -28 -5 -37 -7 -41 -14 -23 -11
34 -24 18 -18 -22 4 -24 2 -35 -6 -35 -8 0 -10 8 -6 19 3 11 0 23 -6 27 -9 5
-10 2 -6 -9 4 -10 -2 -22 -15 -31 -20 -15 -21 -17 -5 -34 10 -11 13 -22 8 -28
-5 -5 -11 -16 -14 -24 -2 -8 -3 -3 -1 13 2 15 -1 27 -8 27 -7 0 -8 14 -4 43 5
35 4 39 -6 22 -6 -11 -16 -23 -22 -27 -8 -5 -7 -13 2 -28 18 -29 15 -43 -9
-37 -15 4 -19 1 -17 -11 3 -11 12 -16 28 -15 26 3 23 -1 -23 -32 -11 -7 -13
-16 -6 -33 5 -13 13 -20 19 -17 7 4 7 13 0 26 -8 15 -7 19 4 19 17 0 29 -31
20 -54 -3 -9 -12 -16 -20 -16 -8 0 -14 -4 -14 -10 0 -20 -19 -10 -23 13 -4 17
-5 16 -6 -8 -3 -62 -6 -75 -16 -72 -5 3 -9 14 -7 26 1 12 -4 29 -12 36 -12 12
-15 12 -20 -2 -4 -8 -2 -21 4 -28 6 -7 8 -20 4 -29 -3 -9 -1 -16 5 -16 16 0 1
-60 -20 -81 -13 -13 -20 -14 -30 -5 -11 9 -11 8 0 -6 11 -15 10 -22 -8 -44
-12 -15 -21 -35 -21 -45 0 -11 -4 -19 -10 -19 -5 0 -7 -6 -4 -14 3 -9 -5 -15
-27 -20 -47 -9 -49 -8 -50 22 l-1 27 -7 -25 c-3 -14 -11 -26 -16 -27 -63 -11
-97 -10 -110 3 -10 10 -23 12 -42 7 -25 -6 -50 -7 -83 -4 -16 2 -12 31 5 31 9
0 12 6 9 15 -4 8 1 26 10 40 15 23 15 25 -4 35 -15 8 -21 6 -30 -9 -5 -11 -10
-23 -10 -28 1 -4 7 3 14 16 8 14 16 19 20 13 3 -6 -3 -26 -14 -44 -11 -18 -20
-27 -20 -20 0 6 -5 12 -10 12 -7 0 -7 -6 -2 -17 10 -20 5 -43 -9 -43 -6 0 -7
5 -3 11 5 8 -3 10 -25 7 -37 -5 -40 -1 -8 12 14 6 16 9 6 9 -9 1 -20 11 -26
23 -9 21 -10 21 -29 -11 -17 -29 -22 -31 -54 -26 -19 3 -51 7 -70 10 -120 15
-207 30 -254 44 -17 5 -51 12 -75 15 -24 4 -49 10 -55 13 -6 4 -17 8 -26 9 -8
2 -42 10 -75 18 -103 25 -198 47 -257 58 -32 5 -58 13 -58 17 0 3 -26 7 -58 7
-98 3 -102 3 -102 19 0 8 -4 15 -10 15 -5 0 -10 -4 -10 -10 0 -5 -7 -10 -15
-10 -24 0 -17 18 13 35 l27 16 -27 -6 c-29 -5 -49 11 -25 21 12 4 13 11 4 35
-15 38 -31 38 -24 -1 4 -16 2 -32 -2 -35 -14 -8 -40 41 -34 64 3 11 1 21 -5
21 -6 0 -9 17 -7 38 2 30 2 32 -4 8 -9 -44 -31 -45 -31 -2 0 20 5 36 11 36 5
0 7 5 3 11 -10 18 -24 -14 -26 -58 0 -21 -4 -42 -9 -48 -7 -10 -9 -16 -9 -37
0 -21 -20 14 -20 35 0 10 5 15 10 12 6 -4 10 7 9 27 -2 58 18 129 30 109 7
-11 43 -4 75 15 13 8 16 17 11 33 -3 12 -12 20 -18 19 -25 -6 -18 17 8 32 36
20 73 69 60 78 -6 4 -10 13 -11 20 -1 6 -2 21 -2 33 -1 11 -6 17 -12 14 -10
-6 -9 -53 2 -71 8 -12 -19 -50 -29 -40 -4 4 -1 11 7 16 8 5 11 13 6 17 -4 4
-14 -1 -22 -11 -10 -15 -14 -16 -14 -5 0 8 5 20 11 26 16 16 17 112 1 125 -9
8 -11 7 -6 -6 7 -19 -5 -20 -29 -2 -16 12 -16 14 -2 20 12 4 14 10 7 22 -6 11
-4 30 6 55 11 29 12 45 5 62 -8 17 -7 28 3 41 7 11 11 23 7 28 -3 6 4 5 14 -1
11 -6 24 -7 28 -3 3 4 5 -17 4 -45 -2 -29 0 -56 4 -59 4 -4 8 17 8 47 1 30 3
43 6 29 2 -14 6 -36 10 -50 l6 -25 8 30 c6 20 5 32 -4 37 -9 6 -9 8 0 8 16 0
53 -36 54 -52 0 -7 7 4 15 26 7 21 11 42 9 46 -3 5 -1 11 4 15 6 3 9 -11 8
-34 -1 -46 3 -54 27 -45 10 4 16 18 16 36 0 16 3 27 8 25 4 -3 8 9 8 26 1 28
0 29 -12 12 -10 -14 -14 -15 -14 -4 1 17 30 58 30 40 0 -7 5 -9 10 -6 6 3 10
16 10 29 0 12 3 26 8 30 4 4 13 22 20 39 7 18 10 22 8 10 -5 -30 11 -30 17 0
3 12 5 4 4 -18 -2 -88 3 -130 13 -115 5 8 12 32 16 54 5 29 9 35 16 25 7 -10
8 -8 5 9 -3 13 -3 31 1 40 5 14 7 13 12 -7 4 -19 10 -12 32 45 30 75 27 88
-23 99 -19 4 -36 2 -46 -7 -14 -11 -16 -11 -11 4 7 18 9 18 -162 74 -63 22
-118 43 -122 49 -4 5 -8 6 -8 1 0 -5 -6 -3 -13 3 -8 6 -16 8 -19 5 -4 -3 -25
0 -48 7 -35 11 -43 10 -51 -2 -7 -12 -9 -11 -9 2 0 23 -70 32 -71 9 0 -13 -1
-13 -7 0 -9 19 -48 25 -57 9 -6 -8 -10 -7 -16 2 -8 12 -11 11 -19 -1 -6 -10
-10 -11 -10 -3 0 9 -7 10 -25 3 -16 -6 -26 -6 -30 1 -4 5 -16 7 -27 3 -11 -3
-27 -7 -34 -8 -7 -1 -16 -5 -20 -8 -3 -4 -17 -3 -30 2 -32 13 -31 -4 2 -18 14
-7 22 -17 19 -23 -4 -6 -11 -6 -18 -1 -19 14 -47 22 -47 13 0 -5 10 -11 23
-15 15 -4 18 -9 10 -14 -20 -13 0 -29 34 -29 43 0 47 -5 45 -55 -3 -54 7 -100
19 -92 5 3 9 -5 9 -17 0 -18 -2 -19 -15 -9 -9 7 -19 10 -22 6 -10 -9 18 -27
37 -23 22 4 24 37 3 52 -16 13 -16 14 -1 15 20 0 13 40 -8 40 -8 0 -14 9 -14
20 0 24 13 26 34 4 9 -8 21 -12 27 -8 7 4 9 0 5 -14 -7 -20 13 -40 39 -40 5 0
11 -5 13 -11 4 -13 -36 -34 -54 -27 -20 8 -18 -11 3 -23 14 -8 15 -12 4 -25
-11 -14 -11 -16 4 -16 12 0 15 -5 10 -17 -7 -18 -12 -59 -19 -141 -2 -23 -6
-46 -10 -50 -13 -13 -26 23 -20 58 4 27 3 32 -6 20 -9 -12 -10 -8 -5 17 4 18
2 34 -4 38 -7 4 -12 -5 -13 -22 -3 -70 -6 -90 -16 -119 -5 -18 -6 -36 -2 -40
5 -5 5 -25 1 -44 -8 -39 -21 -29 -17 12 2 19 -2 28 -15 31 -11 3 -19 12 -19
21 0 19 20 22 20 4 0 -7 5 -5 11 5 12 21 1 46 -12 26 -6 -10 -9 -8 -9 9 0 13
4 21 9 18 5 -3 11 5 13 19 5 22 2 24 -26 22 -25 -2 -32 2 -34 21 -3 18 1 22
23 22 20 0 26 -4 21 -15 -3 -9 0 -15 8 -15 8 0 13 14 14 35 1 19 -3 35 -8 35
-6 0 -10 -7 -10 -16 0 -13 -3 -14 -14 -4 -8 6 -12 19 -9 28 5 14 3 15 -8 5
-20 -20 -30 -15 -24 10 5 23 -30 76 -42 63 -4 -3 4 -17 17 -31 13 -14 20 -28
16 -32 -4 -5 -13 0 -20 10 -17 23 -26 22 -26 -4 0 -12 8 -23 19 -26 12 -3 18
-14 19 -34 0 -16 -4 -29 -9 -29 -5 0 -9 10 -9 23 0 16 -9 26 -33 36 -28 11
-30 13 -13 20 14 5 16 10 8 15 -13 8 -45 -18 -35 -28 4 -3 1 -6 -5 -6 -7 0 -5
-11 5 -30 8 -17 12 -36 10 -43 -3 -7 -9 -1 -14 13 -10 25 -10 25 -17 3 -4 -12
-2 -31 3 -42 12 -22 15 -52 3 -36 -10 14 -42 15 -43 1 0 -6 -4 -2 -9 9 -8 19
-9 19 -9 -2 -1 -12 4 -25 9 -28 17 -10 11 -25 -7 -18 -15 5 -16 3 -5 -8 16
-17 16 -56 0 -73 -11 -11 -17 -5 -35 33 -18 35 -20 47 -9 49 8 2 11 13 9 30
-3 19 -2 23 5 13 7 -10 11 -10 17 -1 4 7 3 15 -2 19 -14 9 -25 59 -14 65 5 3
23 -10 40 -29 26 -30 31 -33 31 -15 0 11 -4 20 -9 20 -5 0 -16 11 -25 25 -14
21 -14 24 -1 19 8 -4 15 -2 15 4 0 5 -7 12 -15 16 -21 8 -19 23 4 29 19 5 28
57 9 57 -5 0 -6 -4 -3 -10 10 -17 -7 -11 -22 7 -11 13 -16 15 -20 5 -2 -7 -11
-19 -19 -26 -11 -12 -11 -15 1 -20 10 -4 15 1 15 16 0 17 3 19 12 10 10 -10
10 -17 0 -33 -7 -11 -10 -29 -7 -40 4 -11 2 -19 -4 -19 -6 0 -11 14 -11 30 0
21 -5 30 -16 30 -11 0 -15 -6 -11 -20 6 -24 -27 -67 -39 -49 -4 7 -8 26 -9 43
0 17 -7 40 -14 51 -11 19 -12 18 -8 -7 2 -16 0 -28 -4 -28 -5 0 -9 9 -9 20 0
18 -3 19 -20 10 -11 -6 -20 -18 -20 -28 0 -15 -2 -15 -10 -2 -9 13 -11 13 -20
0 -13 -20 -13 -103 0 -95 6 3 10 15 10 26 0 23 15 25 24 3 11 -28 7 -46 -8
-41 -8 3 -17 1 -20 -6 -10 -24 -35 24 -30 57 l5 31 -15 -30 -14 -30 -1 30 c-1
24 -3 27 -11 15 -8 -11 -9 -7 -4 14 5 19 3 27 -4 22 -6 -3 -13 0 -15 6 -3 7
-6 -2 -6 -19 -1 -18 -5 -33 -11 -33 -5 0 -10 -7 -10 -15 0 -8 -7 -15 -15 -15
-8 0 -19 -10 -26 -21 -8 -15 -8 -19 0 -15 6 4 11 3 11 -2 0 -12 -49 -34 -61
-27 -5 4 -9 -4 -9 -17 0 -18 2 -20 10 -8 5 8 12 12 15 8 3 -3 -1 -13 -10 -21
-20 -20 -19 -27 3 -27 14 0 14 -2 3 -9 -8 -5 -11 -16 -8 -24 3 -8 -3 -23 -14
-33 -12 -11 -19 -29 -18 -48 0 -17 -2 -42 -5 -56 -4 -14 -4 -19 0 -12 3 6 10
12 16 12 6 0 3 -9 -6 -19 -18 -19 -14 -47 5 -36 5 4 9 -1 9 -9 0 -9 -4 -16
-10 -16 -5 0 -10 -7 -10 -16 0 -10 6 -14 15 -10 8 3 15 1 15 -4 0 -5 -9 -11
-20 -15 -19 -6 -19 -29 -20 -1721 l0 -1714 2250 0 2250 0 0 2788 c0 1533 -4
2782 -8 2775 -11 -17 -110 -13 -117 5 -2 7 0 10 5 7 6 -3 10 -1 10 4 0 6 -4
11 -10 11 -14 0 -12 59 3 73 20 20 47 20 47 1 0 -20 13 -11 16 12 1 8 -4 18
-12 21 -8 3 -14 10 -14 15 0 6 7 4 16 -3 14 -12 16 -11 12 6 -2 11 -11 19 -20
19 -9 -1 -19 5 -23 13 -4 12 0 14 15 10 14 -3 20 -1 17 6 -2 7 -12 11 -21 11
-9 -1 -16 3 -16 10 0 6 -7 2 -15 -8 -20 -26 -22 -21 -16 49 4 51 6 55 12 30
l7 -30 1 32 c0 17 6 35 11 38 8 5 7 11 -1 21 -6 8 -8 14 -4 14 5 0 0 9 -11 21
-14 16 -15 22 -5 28 10 6 9 10 -3 14 -9 4 -16 11 -16 17 0 6 5 8 11 5 7 -5 9
3 7 21 -2 15 -9 29 -17 32 -10 3 -11 -2 -6 -18 5 -14 3 -20 -3 -16 -6 3 -13 0
-16 -6 -3 -9 -9 -7 -20 6 -9 11 -19 16 -23 12 -4 -4 -3 -10 2 -14 6 -4 16 -14
22 -23 10 -13 10 -16 -2 -16 -8 0 -15 4 -15 9 0 4 -3 7 -7 7 -19 -3 -33 2 -33
12 0 5 5 7 11 3 8 -5 8 -1 0 14 -12 23 1 70 22 84 8 5 3 8 -10 8 -13 0 -22 -3
-22 -7z m-3179 -3666 c64 -3 90 -10 150 -40 88 -43 173 -124 230 -219 37 -62
39 -70 28 -102 -23 -70 -122 -195 -195 -245 -84 -58 -146 -74 -317 -79 l-158
-4 0 335 c0 213 -4 338 -10 342 -5 3 -10 9 -10 13 0 7 120 6 282 -1z m618
-137 c0 -150 9 -199 49 -277 19 -38 123 -143 141 -143 13 0 93 70 113 99 58
85 61 96 67 286 l5 180 35 1 c19 1 47 -1 63 -3 l27 -5 0 -109 c0 -69 -4 -109
-10 -109 -7 0 -7 -7 1 -21 17 -33 2 -133 -31 -205 -32 -70 -130 -178 -192
-209 -70 -36 -48 -53 107 -85 107 -21 84 -26 -30 -6 -172 31 -295 102 -387
225 -67 88 -76 127 -81 326 -2 94 -7 178 -12 188 -7 17 -2 18 64 16 l71 -3 0
-146z m855 125 c171 -44 293 -156 340 -312 10 -33 15 -96 15 -206 l0 -158 -62
3 -63 3 -5 151 c-5 147 -6 152 -39 217 -55 109 -157 183 -267 194 l-54 6 -1
-119 c0 -65 0 -194 0 -286 l2 -168 -66 0 -65 0 0 338 c0 257 -3 341 -12 351
-18 18 193 7 277 -14z m890 -135 c42 -80 99 -185 125 -235 26 -49 68 -129 93
-177 l44 -86 -59 -17 c-33 -9 -61 -15 -62 -13 -1 2 -9 20 -19 41 l-17 37 -195
0 -196 0 -17 -31 c-33 -60 -34 -60 -99 -57 l-61 3 54 99 c30 55 84 156 120
225 154 294 198 371 205 364 4 -4 42 -73 84 -153z m-1253 -1002 l3 -43 43 -1
42 -2 0 39 c0 33 3 39 20 39 20 0 21 -5 18 -95 -2 -82 -5 -95 -20 -95 -13 0
-18 10 -20 42 -3 45 -1 44 -73 39 -11 -1 -15 -13 -15 -41 0 -33 -3 -40 -20
-40 -19 0 -20 7 -20 93 0 52 3 97 7 100 18 18 32 4 35 -35z m635 -24 c3 -8 0
-20 -6 -28 -12 -14 -5 -46 9 -46 5 0 6 -9 3 -21 -7 -25 -34 -36 -88 -37 l-40
-1 2 62 c1 34 2 67 2 74 2 24 109 21 118 -3z"/>
<path d="M963 2342 c-22 -3 -22 -3 -18 -218 2 -118 7 -219 10 -224 17 -28 185
1 254 44 47 30 129 122 138 155 13 51 -88 174 -174 212 -46 21 -163 38 -210
31z"/>
<path d="M3295 2120 c-85 -152 -90 -140 59 -140 l127 0 -56 108 c-30 59 -59
113 -64 121 -6 10 -24 -15 -66 -89z"/>
<path d="M3976 6094 c-3 -8 -10 -13 -15 -10 -4 3 -22 1 -39 -3 -17 -5 -33 -6
-35 -3 -2 4 -2 2 -1 -5 2 -6 -4 -17 -12 -24 -8 -7 -13 -18 -10 -25 3 -8 0 -11
-10 -7 -8 3 -14 -1 -14 -8 0 -8 -3 -24 -6 -36 -6 -20 -3 -22 30 -19 20 1 41
-1 48 -6 8 -4 -4 -8 -29 -8 -32 0 -43 -4 -43 -16 0 -8 4 -13 8 -10 4 2 14 1
22 -5 12 -7 12 -9 -4 -9 -15 0 -16 -2 -6 -15 7 -9 19 -14 26 -11 6 2 14 -3 17
-13 5 -21 67 -28 67 -8 0 7 4 6 9 -2 8 -12 14 -13 36 -3 16 7 23 17 19 24 -5
7 -3 8 6 3 8 -5 19 1 31 16 15 20 19 21 19 7 0 -12 8 -18 23 -18 17 0 19 2 8
9 -12 8 -12 12 -2 25 9 10 11 28 7 50 -5 23 -3 36 6 39 8 3 5 6 -6 6 -13 1
-16 4 -8 14 11 14 2 41 -15 45 -8 1 -13 -10 -14 -30 -1 -18 -3 -25 -6 -15 -2
9 -8 17 -12 17 -4 0 -26 16 -48 35 -33 28 -42 32 -47 19z"/>
<path d="M461 6068 c-1 -18 -16 -24 -24 -10 -2 4 -2 2 -1 -5 2 -6 -4 -17 -12
-23 -7 -7 -19 -30 -24 -51 -13 -49 -31 -52 -20 -4 4 20 4 38 -1 41 -9 5 -13
-8 -10 -38 2 -11 -5 -18 -14 -18 -15 0 -15 -2 -1 -15 15 -16 11 -44 -8 -57 -7
-5 -7 -8 2 -8 7 0 10 -5 7 -10 -4 -6 -11 -8 -16 -5 -10 7 -10 -18 -1 -52 5
-17 11 -20 22 -13 10 6 11 10 3 10 -7 0 -13 8 -13 18 0 9 4 13 8 7 4 -5 15
-11 25 -11 10 -1 16 0 13 4 -3 3 2 11 12 19 12 10 13 13 2 11 -8 -2 -14 5 -15
15 0 10 -5 21 -11 25 -9 5 -8 11 2 20 12 11 14 10 14 -6 0 -19 36 -59 49 -54
3 1 6 -3 6 -9 0 -16 37 -29 52 -17 7 5 14 5 17 -1 7 -10 11 -10 51 4 16 5 17
8 5 16 -12 8 -11 10 5 8 40 -3 46 1 40 21 -5 14 -2 20 9 20 11 0 16 9 16 30 0
24 -4 30 -22 30 -18 0 -20 2 -8 9 8 6 18 7 22 5 13 -8 9 10 -8 34 -8 12 -13
26 -9 31 3 5 0 13 -6 17 -8 4 -9 3 -5 -4 10 -16 0 -15 -29 4 -16 11 -40 15
-70 12 -25 -2 -47 1 -49 7 -3 5 -5 2 -5 -7z"/>
<path d="M2400 5986 c0 -4 5 -16 10 -27 7 -11 7 -19 1 -19 -5 0 -12 6 -14 13
-4 9 -6 9 -6 -1 -1 -7 5 -15 13 -18 16 -6 13 -61 -4 -78 -5 -5 -10 -17 -10
-25 0 -14 1 -14 10 -1 8 12 10 9 8 -10 -2 -14 -7 -28 -12 -31 -4 -4 -3 -16 3
-28 9 -16 9 -27 -2 -47 -13 -26 -14 -26 -20 -5 -3 11 -1 24 4 27 5 3 7 9 5 13
-3 4 -7 38 -10 75 -5 66 -15 100 -17 60 -3 -46 -7 -65 -13 -71 -3 -3 -7 0 -7
8 -1 8 -5 -2 -9 -21 -7 -33 -7 -32 -9 15 0 36 2 46 9 35 7 -11 10 -7 10 17 0
26 -3 30 -20 26 -11 -3 -28 1 -37 8 -9 8 -14 9 -10 3 4 -7 -5 -11 -23 -11 -20
0 -30 5 -31 16 0 11 -2 12 -6 3 -2 -6 -9 -10 -14 -6 -5 3 -9 -6 -9 -20 0 -14
6 -26 13 -26 9 0 9 -2 0 -8 -6 -4 -13 -23 -16 -42 -3 -30 -4 -29 -5 12 -1 26
-7 48 -14 51 -10 4 -10 6 0 6 6 1 12 8 12 16 0 16 -3 17 -65 17 -64 -1 -105 9
-105 25 0 12 -2 12 -16 -1 -10 -11 -21 -13 -32 -7 -9 4 -23 6 -31 3 -8 -3 -11
0 -7 7 5 7 1 9 -8 5 -9 -3 -16 -1 -16 5 0 6 -5 11 -11 11 -5 0 -7 -5 -3 -12 5
-8 0 -9 -14 -6 -12 4 -22 2 -22 -3 0 -5 5 -9 11 -9 6 0 9 -6 7 -12 -3 -7 -11
-13 -19 -13 -8 0 -14 6 -14 13 0 6 -4 11 -10 10 -5 -2 -9 -19 -8 -38 2 -22 0
-29 -5 -18 -11 26 -36 6 -30 -25 3 -14 1 -31 -3 -39 -4 -7 -3 -18 3 -25 14
-17 2 -29 -15 -15 -25 21 -41 -3 -38 -57 1 -30 -2 -51 -8 -51 -6 0 -8 18 -6
45 4 34 2 43 -9 39 -13 -5 -13 -28 -7 -276 1 -16 6 -28 12 -28 6 0 10 15 8 33
-3 53 1 161 6 155 7 -6 13 -61 14 -132 2 -90 12 -60 12 36 0 46 4 89 7 95 4 7
7 -15 5 -47 -2 -56 10 -82 20 -42 3 10 5 6 6 -11 1 -17 -3 -26 -9 -22 -5 3
-10 2 -10 -4 0 -5 6 -12 13 -14 9 -4 8 -8 -3 -16 -13 -9 -13 -11 2 -11 9 0 19
-8 21 -17 3 -10 6 0 7 22 1 22 6 54 10 70 l8 30 1 -30 c1 -23 3 -27 11 -15 8
12 10 10 10 -8 0 -13 -3 -21 -7 -19 -5 3 -9 -10 -10 -29 -1 -26 2 -34 15 -34
15 -1 15 -2 0 -11 -10 -5 -18 -17 -18 -25 0 -8 4 -13 9 -9 5 3 12 1 16 -5 3
-5 0 -10 -7 -10 -10 0 -9 -3 2 -9 8 -6 17 -8 21 -5 4 2 10 0 14 -6 3 -5 -3
-10 -14 -10 -32 0 -25 -20 7 -21 15 0 34 -2 42 -3 8 -2 24 0 35 5 18 7 18 8
-5 9 -14 2 -28 2 -32 1 -5 0 -8 11 -8 26 1 24 2 26 13 12 14 -18 47 -32 47
-19 0 5 -8 11 -17 13 -17 4 -17 5 0 6 9 0 17 5 17 10 0 5 -8 12 -17 14 -17 4
-17 5 0 6 13 1 17 9 17 39 -1 20 0 60 1 87 l1 50 9 -43 c4 -23 12 -48 16 -55
4 -6 9 -21 9 -32 3 -40 4 -45 13 -45 4 0 9 23 10 52 1 61 10 78 12 22 l2 -39
7 35 7 35 2 -34 c1 -24 5 -32 15 -28 10 4 18 -4 25 -24 7 -22 14 -27 27 -22
11 4 13 8 6 11 -7 2 -12 8 -12 13 0 6 5 7 10 4 6 -3 10 0 10 7 0 10 3 9 9 -2
6 -8 7 -18 5 -22 -3 -4 -1 -8 5 -8 6 0 17 12 25 28 15 27 15 26 16 -30 0 -32
4 -58 8 -58 4 0 7 17 6 38 -2 20 0 27 2 14 5 -20 7 -21 21 -7 10 11 13 26 9
45 -3 16 -1 32 4 35 6 3 10 -4 11 -17 0 -22 1 -22 9 -3 8 19 9 19 9 -2 1 -12
-5 -25 -11 -30 -9 -5 -3 -9 16 -13 17 -3 29 -9 27 -15 -2 -5 -8 -9 -14 -7 -6
2 -5 -4 3 -12 17 -21 30 -20 30 2 0 21 44 28 81 13 14 -6 17 -10 9 -10 -10 -1
-16 -11 -17 -28 l-2 -28 11 25 c11 25 11 25 15 3 3 -13 9 -23 14 -23 5 0 9 10
9 23 1 22 1 22 15 -3 8 -14 14 -19 15 -12 0 6 4 12 9 12 5 0 7 -9 4 -20 -4
-14 0 -20 10 -20 9 0 18 8 20 18 4 16 5 16 6 0 1 -11 7 -15 15 -12 8 3 24 -4
35 -15 l21 -21 0 37 c0 46 17 33 22 -16 2 -19 8 -36 15 -38 7 -3 10 5 9 21 -2
17 1 23 10 19 16 -6 19 18 4 33 -6 6 -3 10 10 11 13 1 19 -4 18 -15 -2 -32 4
-77 9 -64 4 10 8 9 17 -3 10 -15 12 -14 12 4 0 11 -4 19 -9 18 -5 -1 -12 4
-15 12 -3 8 0 11 7 7 6 -4 11 -1 11 8 0 8 3 21 6 29 3 10 -2 17 -13 20 -14 4
-14 5 5 6 16 1 22 -5 22 -21 0 -19 2 -20 10 -8 7 11 10 6 10 -21 0 -31 4 -37
25 -41 17 -4 25 -1 25 9 0 8 -4 11 -10 8 -16 -10 -12 21 5 35 12 10 15 9 15
-6 0 -16 2 -17 10 -4 7 11 10 5 11 -25 1 -23 4 -31 6 -17 2 12 11 22 19 22 9
0 14 7 12 18 -2 12 5 18 25 20 15 2 27 -2 27 -8 0 -6 -8 -10 -17 -8 -10 2 -19
-5 -21 -16 -3 -14 0 -17 13 -12 13 4 16 2 11 -9 -3 -8 -1 -15 4 -15 5 0 12 9
15 20 9 28 23 25 18 -4 -3 -13 0 -27 6 -30 6 -4 12 -4 12 1 6 39 4 55 -7 60
-21 8 -16 22 5 16 11 -3 22 -12 24 -22 4 -14 5 -14 6 2 1 21 31 23 31 2 0 -8
9 -15 20 -15 12 0 20 7 20 16 0 11 5 14 16 10 9 -3 19 -6 22 -6 4 0 1 -4 -6
-9 -11 -7 -11 -9 2 -14 9 -4 16 -2 16 2 0 5 9 7 20 4 23 -6 26 6 8 26 -10 11
-10 14 0 18 15 6 16 63 1 63 -8 0 -8 4 0 14 9 11 9 15 -1 19 -10 4 -10 6 0 6
7 1 12 14 12 32 0 17 -4 28 -10 24 -5 -3 -10 -1 -10 4 0 6 3 11 8 11 4 0 7 16
8 35 0 19 -3 35 -8 35 -5 0 -6 5 -2 11 4 7 8 31 9 55 1 39 -1 44 -19 44 -14 0
-17 -3 -9 -8 10 -6 10 -12 -2 -28 -14 -18 -14 -18 -15 6 0 18 -3 21 -9 11 -5
-7 -6 -21 -4 -31 7 -28 -9 -51 -27 -40 -11 7 -12 12 -3 18 8 5 8 12 -3 26 -14
19 -14 19 -14 -2 0 -27 -8 -28 -27 -4 -15 18 -15 18 -2 -38 2 -8 -3 -15 -11
-15 -12 0 -15 14 -15 70 0 39 3 80 7 92 8 25 -7 41 -16 17 -3 -9 -6 -50 -6
-92 -1 -66 -3 -75 -14 -59 -18 23 -25 22 -19 -3 3 -11 1 -20 -5 -20 -22 0 -62
20 -62 31 0 6 6 9 14 6 12 -5 14 4 10 45 -3 28 -7 55 -10 60 -3 4 2 8 12 8 13
0 11 5 -9 20 -14 11 -32 20 -41 20 -9 0 -16 5 -16 10 0 6 -4 10 -9 10 -10 0
-9 -25 1 -36 4 -3 4 -12 1 -20 -3 -8 0 -14 6 -14 6 0 11 10 11 23 l0 22 20
-25 c11 -14 20 -31 20 -39 0 -11 -4 -9 -15 5 -15 18 -16 17 -10 -13 4 -18 2
-34 -4 -38 -7 -4 -11 4 -11 19 0 14 -5 26 -11 26 -6 0 -9 -9 -6 -20 4 -15 1
-20 -11 -18 -10 2 -19 14 -22 27 -6 30 -27 39 -33 14 -2 -10 -3 -5 -2 10 1 15
-2 30 -7 33 -4 3 -8 0 -8 -7 0 -8 -4 -8 -15 1 -13 11 -14 10 -9 -4 3 -9 10
-16 15 -16 13 0 11 -97 -2 -106 -6 -3 -8 -17 -5 -29 3 -13 2 -27 -4 -30 -6 -4
-10 10 -10 34 0 22 5 43 10 46 15 9 12 25 -5 25 -8 0 -15 7 -15 16 0 8 4 13 9
10 5 -4 7 3 4 14 -4 16 -8 18 -19 9 -11 -9 -14 -8 -13 7 4 36 -1 77 -8 71 -3
-4 -6 -32 -5 -62 0 -31 -4 -53 -9 -49 -5 3 -9 14 -9 25 0 10 -4 19 -9 19 -5 0
-8 16 -6 36 3 31 1 35 -16 31 -10 -3 -19 -1 -19 4 0 4 -7 6 -16 2 -12 -4 -15
0 -13 23 3 42 0 64 -9 64 -4 0 -6 -20 -5 -44 2 -39 0 -43 -17 -39 -12 3 -20
14 -21 27 0 11 -3 15 -6 9 -7 -18 -23 -16 -23 2 0 8 4 15 9 15 5 0 11 9 14 21
4 16 3 18 -9 8 -17 -14 -18 -3 -3 41 9 26 9 34 -2 41 -22 13 -38 -8 -29 -41 5
-18 4 -32 -3 -39 -9 -9 -9 -14 1 -20 8 -5 10 -15 5 -28 -12 -31 -53 -13 -53
23 0 20 4 25 17 20 16 -6 16 -6 0 12 -9 10 -17 30 -17 44 0 14 -7 31 -15 38
-8 7 -15 9 -15 6z"/>
<path d="M1409 5906 c-1 -14 -2 -32 -3 -38 -1 -7 14 -15 34 -18 25 -4 36 -11
38 -25 2 -15 1 -16 -6 -7 -12 18 -21 17 -38 -5 -12 -17 -13 -17 -14 0 0 11 -8
17 -22 17 -13 0 -29 4 -37 9 -17 11 -6 31 17 31 13 0 13 2 -4 15 -26 20 -34
19 -34 -4 0 -36 -12 -51 -39 -50 l-26 1 25 8 c19 5 21 9 10 13 -8 4 -24 5 -35
3 -11 -3 -23 -5 -26 -5 -4 -1 -12 -14 -19 -31 -7 -16 -16 -27 -21 -24 -14 8
-6 38 11 46 12 5 11 7 -3 7 -10 1 -15 6 -12 11 3 6 2 10 -3 10 -6 0 -8 8 -5
19 3 10 0 22 -6 25 -7 5 -11 -3 -12 -21 -1 -17 -3 -21 -6 -10 -2 9 -8 15 -13
12 -5 -3 -6 -13 -3 -23 5 -14 2 -13 -11 3 -17 20 -17 19 -11 -8 4 -19 2 -26
-5 -22 -5 3 -10 13 -10 21 0 8 -7 14 -15 14 -18 0 -18 -1 -5 -34 6 -17 14 -24
24 -20 17 7 46 -17 46 -38 0 -8 11 -14 27 -13 21 0 28 -5 29 -20 1 -11 5 -33
9 -50 5 -23 4 -26 -4 -15 -9 12 -10 9 -9 -15 1 -16 7 -33 12 -37 15 -10 2 -20
-18 -12 -10 4 -16 18 -16 41 0 20 -4 32 -10 28 -5 -3 -10 -1 -10 4 0 6 7 11
16 11 11 0 14 5 10 16 -3 9 -6 20 -6 26 0 6 -9 8 -20 5 -11 -3 -20 0 -20 6 0
7 -6 3 -12 -7 -8 -15 -7 -21 6 -28 19 -10 21 -35 4 -40 -15 -5 -11 -140 5
-150 8 -5 8 -8 1 -8 -6 0 -11 -13 -10 -30 1 -36 16 -41 16 -5 0 14 5 25 10 25
6 0 10 -6 10 -13 0 -8 7 -14 15 -14 9 0 14 6 11 14 -3 7 2 13 12 14 11 1 8 4
-8 9 -24 8 -24 8 -2 9 12 1 22 5 22 10 0 5 -10 7 -22 3 -14 -3 -19 -2 -14 6 4
7 3 12 -3 12 -5 0 -12 -8 -14 -17 -2 -10 -2 -7 0 7 2 14 4 33 4 43 0 9 7 17
15 17 8 0 14 -9 14 -20 0 -11 7 -20 15 -20 8 0 14 3 14 8 -1 4 -1 25 1 47 1
32 3 36 10 20 7 -16 9 -12 9 18 1 28 -2 36 -11 31 -10 -5 -10 -4 -1 6 7 8 15
11 18 8 10 -9 12 -162 3 -180 -6 -13 -5 -18 7 -18 8 0 15 8 16 18 1 9 2 26 3
37 0 11 8 20 16 20 8 0 16 -9 18 -20 3 -17 1 -18 -8 -5 -9 12 -10 9 -6 -12 4
-16 2 -28 -4 -28 -12 0 -13 -37 -1 -44 5 -4 7 4 4 16 -4 19 -3 20 6 8 10 -13
11 -13 11 0 0 12 2 13 9 1 5 -7 13 -11 19 -7 6 3 13 -2 15 -11 3 -10 6 23 7
72 1 81 3 87 13 59 10 -26 16 -30 33 -24 28 11 38 1 42 -39 3 -41 1 -38 27
-43 11 -1 23 -10 27 -18 5 -12 7 -11 7 4 1 13 6 17 20 13 18 -4 20 3 26 67 11
135 -7 237 -36 196 -9 -12 -10 -11 -5 4 4 11 0 26 -10 37 -9 10 -14 24 -11 32
4 10 -4 14 -26 14 -63 2 -77 7 -77 28 0 16 2 17 10 5 5 -8 10 -10 10 -4 0 6
-7 17 -15 24 -13 11 -15 8 -16 -14z"/>
<path d="M1560 5910 c0 -12 -4 -18 -10 -15 -5 3 -10 1 -10 -4 0 -6 7 -11 15
-11 9 0 12 -6 8 -16 -5 -13 -7 -13 -14 -2 -6 9 -9 7 -9 -8 0 -18 5 -21 33 -19
l32 3 -1 -137 c-1 -141 11 -341 14 -233 1 28 7 52 12 52 9 0 14 -14 11 -32 0
-5 8 -8 19 -8 17 0 24 12 22 40 0 3 -3 84 -7 180 -3 96 -8 185 -9 197 -3 30
-16 42 -16 15 0 -12 -4 -22 -10 -22 -17 0 -11 -38 8 -43 15 -4 15 -5 1 -6 -15
-1 -17 -14 -15 -96 0 -52 -2 -95 -6 -95 -5 0 -8 48 -8 106 0 98 -1 105 -18
100 -13 -4 -19 -1 -19 9 0 9 6 14 14 11 7 -3 13 -1 13 4 0 6 -9 10 -20 10 -12
0 -17 5 -14 14 3 8 1 17 -5 21 -7 3 -11 -3 -11 -15z"/>
<path d="M770 5851 c0 -12 -10 -23 -28 -29 -16 -5 -29 -17 -29 -26 0 -21 13
-20 26 2 10 16 10 16 11 0 0 -10 7 -18 15 -18 13 0 15 -10 14 -47 -2 -27 -7
-51 -13 -55 -7 -5 -7 -8 2 -8 6 0 12 -9 12 -19 0 -11 6 -22 13 -24 10 -4 10
-6 0 -6 -7 -1 -13 -8 -13 -17 0 -8 -5 -12 -10 -9 -6 4 -8 11 -5 16 4 5 0 9 -8
9 -10 0 -13 -8 -9 -25 4 -22 1 -25 -22 -25 -14 0 -26 6 -27 13 -1 6 -2 19 -3
27 -2 8 -3 23 -4 33 -1 10 -6 15 -12 12 -5 -3 -10 -1 -10 4 0 6 7 11 15 11 11
0 14 7 9 24 -3 13 -1 33 5 45 10 17 9 20 -4 15 -13 -5 -18 -23 -14 -50 0 -4
-4 -10 -9 -13 -5 -3 -12 -34 -15 -68 -4 -50 -2 -63 9 -63 9 0 13 -9 10 -29 -2
-22 0 -28 11 -24 10 4 12 14 9 29 -6 24 7 33 19 14 3 -5 15 -10 26 -10 10 0
19 -4 19 -10 0 -5 7 -10 16 -10 14 0 14 2 0 15 -8 9 -12 23 -9 32 4 11 8 13
11 5 2 -7 8 -12 14 -12 6 0 7 7 4 16 -5 12 -2 15 11 10 17 -6 17 -5 0 8 -12 9
-14 16 -8 21 6 3 11 13 11 21 0 8 -4 13 -9 10 -5 -3 -9 25 -9 62 0 40 3 59 8
47 6 -17 8 -15 12 13 7 50 -4 97 -24 100 -12 2 -18 -4 -18 -17z"/>
<path d="M384 5748 c3 -13 6 -77 6 -143 l0 -120 20 25 c23 31 35 71 22 79 -6
3 -4 11 4 19 9 8 14 9 14 2 0 -6 5 -8 10 -5 6 4 9 14 8 23 -2 9 3 16 10 15 6
-2 12 2 12 7 0 6 -7 10 -16 10 -8 0 -13 4 -9 10 3 5 12 7 19 4 13 -5 46 30 46
48 0 5 -10 8 -22 8 -13 0 -43 9 -67 20 -55 26 -65 25 -57 -2z"/>
<path d="M2676 4750 c-10 -11 -16 -26 -13 -33 4 -11 0 -13 -16 -9 l-22 5 23
-20 c25 -23 31 -43 6 -22 -13 10 -17 10 -25 -2 -5 -8 -9 -20 -9 -27 0 -7 -5
-10 -12 -6 -6 4 -8 3 -4 -4 3 -6 1 -23 -5 -39 -6 -15 -13 -22 -16 -15 -3 6
-11 12 -19 12 -8 0 -14 5 -14 11 0 5 5 7 10 4 6 -3 10 2 10 12 0 32 -28 -8
-36 -52 -7 -38 -6 -39 11 -25 16 14 17 13 11 -7 -8 -25 9 -40 28 -24 7 6 16 7
21 3 4 -4 5 5 3 21 -3 15 -1 30 3 33 5 3 9 13 9 23 0 11 7 18 18 18 40 0 42 3
43 56 0 28 3 45 6 37 3 -8 11 -18 17 -22 8 -6 7 -11 -3 -17 -12 -8 -13 -16 -2
-50 10 -34 14 -39 25 -29 15 15 28 60 15 52 -5 -3 -9 -12 -9 -20 0 -8 -5 -14
-10 -14 -10 0 -7 48 5 85 6 16 5 17 -4 5 -15 -22 -13 -7 4 26 17 34 14 39 -17
23 -23 -12 -23 -12 -4 10 25 27 0 28 -28 1z"/>
<path d="M1576 4085 c4 -11 2 -13 -9 -9 -17 6 -30 -13 -41 -59 -5 -20 -3 -27
5 -22 8 6 8 2 -1 -14 -6 -12 -9 -32 -7 -44 3 -17 5 -15 6 8 1 26 3 28 12 12
11 -18 11 -18 24 0 7 10 18 38 24 61 8 28 16 40 23 35 9 -5 9 -8 0 -11 -7 -2
-12 -10 -12 -18 0 -18 28 -7 33 14 3 10 5 3 6 -15 1 -21 -3 -31 -11 -29 -7 1
-10 1 -5 -1 11 -7 8 -31 -9 -66 l-16 -32 21 22 c11 12 21 29 21 38 0 14 2 15
15 2 11 -11 12 -22 5 -48 -12 -42 -12 -49 -1 -49 5 0 12 8 15 18 4 11 16 24
29 31 22 12 47 53 47 79 0 11 -3 12 -14 3 -12 -10 -13 -8 -9 9 6 22 23 38 23
21 0 -6 7 -8 15 -5 8 4 15 1 15 -5 0 -6 6 -11 14 -11 7 0 16 -9 19 -21 5 -19
4 -19 -11 -6 -26 22 -46 32 -38 19 4 -7 -3 -30 -15 -51 -12 -21 -19 -45 -17
-52 3 -8 17 11 31 41 15 30 27 49 27 42 0 -7 -5 -23 -11 -34 -6 -11 -12 -35
-13 -52 -2 -17 -6 -44 -9 -61 l-7 -30 11 28 c6 15 15 27 20 27 5 0 15 15 23
33 l14 32 2 -40 c2 -33 4 -35 9 -15 4 18 14 26 34 28 15 1 27 -2 27 -8 0 -11
27 -14 33 -2 2 4 7 19 11 35 6 26 5 27 -15 15 -17 -10 -23 -10 -26 0 -3 6 -9
10 -14 6 -5 -3 -12 2 -15 10 -3 9 -11 13 -16 9 -7 -4 -8 6 -4 31 5 26 3 36 -6
37 -7 1 -20 3 -28 4 -30 3 -70 17 -70 25 0 4 -13 10 -29 12 -28 4 -28 3 -20
-26 11 -39 11 -55 0 -38 -11 19 -24 17 -33 -5 -5 -11 -7 2 -4 33 5 49 4 51
-28 62 -43 16 -57 15 -50 -3z"/>
<path d="M2205 3930 c3 -5 0 -10 -8 -10 -9 0 -12 -9 -9 -28 2 -19 -3 -33 -17
-46 -12 -11 -21 -25 -21 -33 0 -25 -32 -113 -41 -113 -5 0 -9 -18 -9 -40 0
-29 5 -42 20 -50 14 -8 20 -8 20 0 0 6 5 8 10 5 6 -4 7 -11 4 -17 -4 -7 -2 -8
5 -4 6 4 22 1 34 -7 22 -14 47 -12 47 4 0 5 -9 8 -19 6 -11 -1 -19 3 -18 8 1
6 10 9 20 8 9 -2 17 3 17 10 0 8 4 7 10 -3 12 -19 13 -8 1 23 -6 15 -6 29 1
38 8 11 9 10 4 -4 -3 -11 -2 -16 4 -12 6 3 7 17 4 31 -5 20 -3 23 12 17 14 -5
16 -3 10 13 -6 15 -5 17 6 6 10 -10 10 -17 1 -31 -10 -16 -9 -22 3 -32 10 -8
13 -21 9 -38 -6 -25 -6 -25 9 -6 12 15 16 16 16 5 1 -8 5 -5 11 8 10 27 4 42
-16 42 -8 0 -13 9 -12 19 0 11 6 17 14 14 9 -4 13 4 13 23 0 15 3 24 7 21 4
-4 13 7 20 24 16 37 17 52 3 44 -6 -3 -7 1 -4 9 3 9 2 16 -3 16 -5 0 -15 -20
-22 -45 -15 -50 -42 -83 -34 -40 3 13 11 30 19 36 16 13 19 33 4 24 -5 -3 -10
-1 -10 4 0 6 4 11 9 11 11 0 41 72 34 83 -9 15 -52 7 -56 -10 -4 -17 -5 -17
-6 0 -1 20 -27 23 -46 4 -16 -17 -35 -83 -27 -93 4 -4 1 -3 -7 1 -11 6 -13 4
-8 -8 4 -10 2 -14 -7 -11 -7 3 -19 -10 -28 -29 -15 -32 -15 -36 0 -51 15 -15
15 -17 -2 -33 -17 -17 -18 -17 -12 7 7 24 7 24 -9 5 -8 -11 -13 -25 -11 -32 3
-7 -1 -13 -9 -13 -8 0 -15 6 -15 14 0 15 55 125 71 141 5 5 9 16 9 24 0 8 6
22 14 30 8 9 18 28 21 44 6 23 4 27 -15 27 -11 0 -18 -4 -15 -10z"/>
</g>
</svg>
