<?xml version="1.0" standalone="no"?>
<!DOCTYPE svg PUBLIC "-//W3C//DTD SVG 20010904//EN"
 "http://www.w3.org/TR/2001/REC-SVG-20010904/DTD/svg10.dtd">
<svg version="1.0" xmlns="http://www.w3.org/2000/svg"
 width="400.000000pt" height="544.000000pt" viewBox="0 0 400.000000 544.000000"
 preserveAspectRatio="xMidYMid meet">
<metadata>
Created by potrace 1.16, written by Peter Selinger 2001-2019
</metadata>
<g transform="translate(0.000000,544.000000) scale(0.100000,-0.100000)"
fill="#000000" stroke="none">
<path d="M1 3978 c0 -805 4 -1451 9 -1437 4 15 8 71 8 124 1 111 9 173 26 194
8 11 8 15 -1 18 -8 3 -13 21 -13 44 0 36 2 39 27 39 21 0 24 3 15 12 -16 16
-15 43 3 58 9 7 15 29 15 51 0 22 5 39 11 39 6 0 27 18 48 40 21 22 40 37 44
33 11 -10 8 -25 -3 -18 -5 3 -10 -1 -10 -9 0 -26 27 -18 34 10 10 37 18 24 10
-14 -4 -18 -10 -29 -15 -26 -5 3 -9 0 -9 -5 0 -18 5 -26 13 -23 11 3 8 -16 -4
-24 -6 -4 -8 -21 -5 -43 4 -25 3 -30 -3 -16 l-9 20 -7 -20 c-20 -58 -24 -62
-64 -69 -23 -3 -41 -11 -41 -16 0 -16 83 -7 97 10 9 12 12 8 18 -23 4 -21 17
-44 29 -52 11 -9 21 -19 22 -23 2 -17 19 -48 31 -57 14 -10 53 -140 53 -175 0
-11 4 -20 9 -20 4 0 9 -25 10 -56 0 -34 7 -61 16 -70 8 -8 17 -31 21 -52 9
-47 65 -206 93 -261 12 -23 39 -60 59 -83 32 -36 37 -47 37 -90 0 -35 5 -52
16 -59 9 -5 19 -19 23 -31 3 -13 19 -32 36 -43 32 -21 36 -51 7 -49 -24 2 -9
-20 35 -50 21 -14 40 -21 43 -15 4 5 10 7 14 4 12 -7 11 -59 -1 -66 -15 -9 13
-49 40 -55 12 -4 22 -10 22 -14 0 -4 13 -6 30 -4 16 2 32 -1 35 -6 3 -6 17
-10 31 -10 17 0 27 -8 35 -27 5 -15 28 -44 50 -64 44 -41 41 -27 89 -373 35
-247 36 -297 12 -349 -27 -57 -124 -208 -145 -225 -13 -11 -30 -8 -109 22 -51
19 -110 42 -130 50 -44 19 -121 21 -167 5 -23 -8 -44 -29 -72 -75 l-41 -64
-48 0 c-58 0 -95 -15 -133 -52 -32 -33 -36 -22 -6 16 11 14 28 26 37 26 12 0
13 3 4 12 -9 9 -22 5 -58 -21 -25 -18 -48 -31 -49 -29 -6 5 19 34 40 46 19 11
19 11 -4 12 -13 0 -37 -14 -57 -34 -19 -19 -34 -31 -34 -28 0 4 -5 0 -10 -8
-19 -29 -10 5 10 38 22 35 16 40 -18 16 -24 -16 -68 -93 -55 -96 5 0 17 -2 28
-3 59 -5 101 -55 72 -84 -8 -8 -7 -11 2 -11 8 0 11 -6 7 -16 -4 -9 -1 -23 5
-30 9 -11 8 -14 -2 -14 -10 -1 -9 -4 4 -14 24 -18 21 -29 -6 -21 -12 4 3 -9
33 -29 38 -26 65 -36 93 -36 40 0 112 31 120 52 4 10 6 10 6 1 1 -16 -33 -48
-73 -67 -17 -9 -25 -16 -18 -16 19 0 92 39 141 76 52 40 102 52 138 33 24 -13
21 -14 -50 -29 -48 -10 -97 -30 -140 -55 -36 -22 -64 -41 -62 -43 2 -2 36 13
76 32 84 41 136 48 120 17 -7 -12 -37 -25 -94 -39 -46 -12 -94 -26 -108 -32
-21 -9 -20 -10 11 -5 64 9 155 15 143 9 -7 -3 -10 -11 -7 -19 5 -12 -2 -14
-156 -38 -14 -3 25 -5 85 -5 65 -1 134 5 170 13 78 19 96 19 89 0 -5 -13 107
-15 976 -15 l983 0 71 52 c39 29 73 53 75 55 2 2 2 6 -2 9 -3 3 -40 -20 -81
-52 -42 -31 -79 -54 -83 -50 -3 3 0 24 7 46 14 42 61 91 128 134 23 14 42 29
42 32 0 4 -12 -2 -27 -11 -58 -39 -93 -57 -93 -48 0 4 14 28 30 53 32 48 36
60 20 60 -12 0 -80 68 -80 80 0 6 -9 27 -20 47 -11 21 -20 43 -20 50 0 7 -4
13 -9 13 -4 0 -6 11 -4 24 6 27 -15 45 -28 25 -6 -9 -9 -10 -9 -2 0 7 -11 23
-25 37 -24 24 -31 55 -25 111 2 24 64 91 104 112 16 8 41 26 55 39 14 13 35
27 46 31 25 7 78 46 130 95 22 21 43 38 48 38 4 0 7 7 7 15 0 8 6 15 13 15 16
1 57 35 57 48 0 6 11 19 25 30 14 11 25 25 25 30 0 6 21 29 48 51 26 22 72 61
102 86 30 26 69 54 86 62 29 14 31 18 23 46 -5 16 -16 38 -26 49 -17 18 -16
21 9 67 33 58 75 198 84 283 3 34 10 68 14 73 5 6 16 69 25 140 15 124 30 194
60 295 13 43 29 225 27 300 -1 19 -1 52 -2 72 -1 21 5 52 13 70 8 18 25 60 38
93 13 33 27 64 31 69 4 6 8 21 8 34 0 21 2 23 16 11 15 -12 16 -10 10 21 -5
25 -4 31 3 20 13 -19 14 -17 35 59 9 36 23 69 30 75 30 26 70 251 47 265 -6 4
-14 21 -17 39 -5 26 -4 31 8 27 10 -4 17 1 21 14 3 12 1 21 -4 21 -5 0 -9 5
-9 10 0 6 15 11 33 11 21 1 25 3 12 6 -33 8 -42 23 -13 23 15 0 33 3 42 6 11
4 16 0 16 -14 0 -12 9 -22 21 -25 16 -4 20 -11 16 -26 -3 -14 0 -21 9 -21 8 0
14 10 14 26 0 28 18 29 32 1 4 -9 12 -25 16 -34 13 -25 32 -28 32 -4 0 14 6
21 20 21 17 0 20 -7 20 -40 0 -33 -3 -40 -20 -40 -11 0 -20 -4 -20 -10 0 -5
18 -10 40 -10 l40 0 0 50 c0 32 -4 50 -12 50 -9 0 -9 3 0 12 9 9 12 245 12
1000 l0 988 -2000 0 -2000 0 1 -1462z m2208 621 c7 11 15 10 44 -8 42 -26 47
-26 47 -2 0 10 9 21 19 24 13 3 18 0 15 -7 -3 -7 5 -21 17 -32 l22 -19 -13 25
c-13 25 -13 25 8 6 12 -10 33 -18 46 -18 14 0 23 -4 20 -9 -3 -5 2 -6 11 -3
12 5 16 2 13 -11 -2 -10 3 -20 10 -22 8 -3 10 2 6 14 -3 10 3 5 13 -12 19 -29
19 -30 2 -40 -17 -9 -16 -12 10 -23 32 -14 51 -54 23 -50 -9 2 -17 -3 -17 -11
0 -12 -20 -14 -110 -12 -127 3 -138 -8 -14 -14 90 -5 176 -21 185 -36 3 -5 -2
-6 -11 -3 -10 4 -27 -4 -45 -21 -16 -16 -42 -29 -57 -30 -15 -1 -44 -5 -63 -9
-26 -6 -31 -5 -20 3 11 8 4 10 -30 11 -153 1 -184 3 -155 10 28 7 29 8 5 10
-14 1 -27 2 -30 2 -3 0 -23 -1 -45 -3 -27 -2 -39 1 -37 9 2 13 -2 12 -88 -8
-19 -5 -62 -11 -95 -15 -56 -6 -59 -5 -40 10 11 8 26 13 34 10 11 -4 12 -3 1
10 -7 8 -10 22 -6 30 6 18 36 20 36 3 0 -9 3 -9 12 0 7 7 24 12 39 12 31 0 41
10 30 28 -5 8 -17 9 -45 1 -21 -6 -40 -8 -44 -5 -3 3 2 6 11 6 18 0 23 15 8
24 -5 4 -12 0 -15 -6 -3 -7 -3 -1 0 15 4 19 2 27 -7 27 -11 0 -11 3 1 10 11 7
18 5 26 -5 10 -13 14 -7 25 30 13 45 29 60 29 28 1 -13 29 49 30 65 0 1 4 2 8
2 4 0 9 -12 10 -26 1 -15 14 -38 29 -53 l26 -26 -7 25 c-13 46 -12 55 8 52 15
-3 18 1 13 17 -5 21 7 29 18 11 3 -6 18 1 33 15 l27 25 8 -22 c6 -18 10 -19
16 -9z m-189 -308 c0 -8 52 -8 97 0 4 1 13 0 18 -1 6 -1 -19 -8 -55 -15 -57
-11 -60 -13 -25 -13 22 -1 60 3 85 8 32 6 96 2 222 -14 98 -13 181 -26 185
-29 3 -4 -1 -7 -10 -7 -10 0 -17 -7 -17 -16 0 -12 -7 -15 -24 -12 -14 3 -31 1
-38 -3 -9 -6 -6 -9 10 -9 12 0 22 -4 22 -10 0 -5 10 -10 23 -10 12 0 32 -3 44
-6 20 -5 21 -8 8 -21 -10 -9 -13 -24 -8 -41 6 -24 5 -26 -10 -13 -20 16 -22 9
-4 -20 10 -17 10 -23 0 -26 -7 -3 -13 -9 -13 -15 0 -6 6 -8 14 -5 19 8 25 -11
12 -40 -8 -16 -17 -21 -30 -17 -15 5 -18 3 -12 -11 5 -14 4 -15 -7 -7 -8 7
-12 29 -10 59 2 34 0 44 -7 33 -5 -8 -10 -22 -10 -31 0 -9 -7 -19 -15 -23 -9
-3 -12 -12 -8 -21 4 -13 1 -16 -18 -13 -16 2 -23 -2 -21 -10 4 -19 -40 -11
-45 8 -4 13 -3 13 6 0 5 -8 13 -11 18 -7 9 9 -17 28 -32 23 -5 -2 -9 -8 -8
-14 1 -5 -4 -13 -13 -16 -9 -3 -12 -2 -9 4 11 17 14 65 6 79 -6 8 -11 1 -16
-21 -4 -18 -9 -27 -12 -20 -2 6 -9 12 -15 12 -6 0 -8 -7 -4 -15 3 -8 1 -15 -4
-15 -6 0 -10 7 -10 15 0 18 -16 20 -26 3 -5 -8 -11 -6 -20 6 -11 16 -13 16
-26 -3 -15 -21 -15 -21 -26 3 -9 21 -7 28 14 51 29 31 26 45 -5 19 -11 -10
-27 -19 -36 -20 -9 -1 -27 -10 -40 -18 -13 -9 -39 -15 -57 -15 -18 1 -48 -2
-65 -6 -23 -5 -33 -4 -33 4 0 9 -5 8 -14 -2 -12 -11 -26 -12 -71 -4 -42 7 -59
6 -65 -2 -5 -9 -10 -8 -19 3 -8 9 -24 13 -42 11 -25 -3 -28 -1 -19 10 8 9 24
13 46 10 19 -2 34 0 34 5 0 6 -6 10 -14 10 -23 0 -25 36 -3 83 17 35 28 46 56
54 34 10 34 11 9 12 -26 1 -42 21 -17 21 6 0 9 6 6 14 -4 9 3 16 19 20 16 4
24 13 22 24 -2 13 9 20 52 29 71 14 80 15 80 4z m-254 -629 c6 -4 13 -15 17
-24 4 -11 13 -15 26 -11 15 4 21 1 21 -11 0 -10 -4 -14 -10 -11 -5 3 -10 -3
-10 -14 0 -11 7 -24 16 -29 21 -12 7 -37 -21 -37 -15 0 -19 -6 -17 -22 2 -13
-2 -23 -7 -23 -6 0 -11 6 -12 13 0 6 -4 3 -9 -8 -7 -16 -9 -17 -9 -3 -1 25
-17 30 -36 12 -19 -20 -29 -12 -30 24 0 22 -5 27 -23 25 -12 -2 -22 2 -22 7 0
6 7 10 15 10 15 0 20 16 16 58 -1 15 2 21 8 17 6 -3 11 -1 11 6 0 9 4 9 15 -1
16 -14 35 -6 35 16 0 15 9 18 26 6z m737 -170 c24 -27 52 -63 61 -80 17 -32
56 -62 56 -42 0 5 -8 10 -17 10 -15 0 -16 2 -3 10 12 7 19 1 35 -29 11 -21 28
-50 38 -64 25 -35 15 -64 -23 -65 -16 0 -37 -5 -47 -10 -32 -17 -140 -14 -168
4 -18 12 -25 13 -25 4 0 -7 -9 -3 -20 10 -16 18 -23 21 -32 12 -17 -17 -38
-15 -32 3 4 10 0 15 -15 15 -12 0 -20 -3 -19 -7 1 -5 -8 -28 -21 -52 -24 -46
-67 -90 -89 -91 -7 0 -11 -4 -8 -9 6 -10 -22 -37 -30 -29 -2 3 1 18 7 34 7 16
13 37 14 46 2 21 -14 11 -60 -38 -16 -17 -48 -41 -70 -53 -22 -11 -35 -21 -30
-21 19 -1 -90 -49 -112 -49 -13 -1 -23 -5 -23 -10 0 -14 -51 -10 -57 4 -3 9
-16 12 -36 10 -87 -11 -117 -13 -117 -7 0 9 50 32 68 32 7 0 10 5 7 11 -4 6
-13 8 -20 5 -7 -2 -15 4 -18 13 -4 17 3 18 64 18 37 -1 65 -5 63 -9 -3 -4 0
-8 5 -8 6 0 11 4 11 8 0 12 117 45 129 37 7 -3 11 2 11 14 0 22 -16 36 -25 22
-3 -5 -14 -8 -25 -6 -11 2 -22 -1 -25 -6 -4 -5 -10 -7 -15 -4 -5 3 -11 1 -15
-5 -4 -6 -11 -7 -17 -4 -6 4 -14 0 -20 -7 -7 -11 -8 -9 -5 6 2 11 9 19 17 17
8 -2 23 1 34 6 12 6 47 22 79 37 32 15 61 33 64 41 3 8 9 14 14 14 12 0 44 33
52 53 7 18 23 22 31 8 5 -8 -48 -71 -60 -71 -12 0 -33 -28 -26 -35 4 -4 1 -6
-7 -3 -20 6 -52 -28 -45 -47 4 -8 10 -15 16 -15 5 0 6 5 2 12 -4 7 -3 8 5 4
14 -9 43 12 35 25 -3 5 1 7 8 4 17 -6 52 21 43 34 -3 7 2 11 14 11 14 0 19 -5
15 -15 -4 -9 0 -15 8 -15 7 0 14 9 15 20 1 12 -3 18 -9 14 -6 -4 -9 -1 -6 7 3
9 19 14 41 14 27 0 41 6 54 25 19 26 28 120 12 120 -5 0 -9 4 -9 9 0 5 7 8 16
7 11 -1 18 8 20 24 3 31 -17 91 -28 84 -4 -3 -8 0 -8 6 0 7 8 9 23 4 40 -12
48 -25 43 -68 -3 -23 -3 -33 0 -24 3 9 26 39 51 67 63 69 93 70 156 3z m-965
-54 c26 -11 52 -21 59 -21 6 0 9 -5 7 -11 -5 -13 87 -72 127 -81 38 -9 100 10
144 45 21 17 56 35 79 42 23 6 47 16 55 22 15 12 11 -8 -15 -73 -16 -40 -12
-50 11 -27 9 9 26 21 38 27 21 10 -7 -18 -99 -100 -23 -20 -59 -44 -80 -55
-21 -10 -46 -22 -54 -26 -19 -9 -133 14 -174 35 -50 25 -70 39 -84 58 -7 9
-18 14 -24 11 -8 -5 -9 -1 -5 10 4 10 1 19 -8 22 -8 4 -15 13 -15 20 0 8 -7
17 -15 20 -8 4 -12 10 -9 15 3 6 1 15 -4 22 -7 9 -9 46 -3 65 3 7 27 0 69 -20z
m1429 -47 c21 -6 64 -11 96 -12 40 -2 57 -6 57 -16 0 -7 -3 -13 -7 -14 -49 -5
-69 -4 -75 5 -5 7 -8 6 -8 -2 0 -10 -8 -12 -29 -7 -24 5 -29 3 -35 -18 l-6
-25 -50 26 c-35 18 -46 28 -38 34 8 5 0 6 -17 2 -36 -8 -45 -14 -22 -14 10 0
17 -7 17 -15 0 -8 6 -15 13 -15 26 0 80 -32 67 -40 -7 -4 4 -15 32 -29 l43
-22 -29 25 c-16 14 -26 26 -23 26 14 0 57 -24 57 -32 0 -4 4 -8 9 -8 5 0 9 11
9 25 0 15 -6 25 -15 25 -8 0 -11 4 -8 10 3 6 13 6 23 1 9 -5 43 -19 76 -31 47
-19 60 -20 66 -9 7 10 12 6 20 -13 7 -14 28 -34 48 -45 20 -10 42 -29 48 -42
l12 -23 18 28 c10 16 31 41 47 55 15 15 37 49 48 75 l19 49 -7 -40 c-24 -147
-206 -280 -350 -255 l-48 8 55 1 c96 3 163 40 108 60 -12 4 -21 10 -19 12 12
10 -46 76 -83 95 -35 17 -45 19 -66 8 -21 -11 -34 -10 -81 6 -31 10 -67 24
-80 31 -69 36 -66 35 -66 5 0 -17 4 -23 14 -19 9 4 16 -3 20 -17 5 -19 11 -21
39 -17 25 4 34 2 34 -8 0 -8 11 -17 24 -21 35 -8 42 -35 16 -56 -22 -18 -22
-18 11 -12 26 4 30 3 19 -5 -19 -14 -67 -14 -75 -1 -4 6 -16 8 -27 4 -43 -13
-198 182 -198 251 0 16 19 19 157 23 56 2 119 -2 140 -7z m-1553 -130 c4 -5
-3 -7 -14 -4 -28 7 -25 -11 5 -27 14 -7 25 -21 25 -31 0 -10 9 -23 20 -29 14
-7 20 -7 20 0 0 5 7 10 15 10 8 0 15 -4 15 -10 0 -5 6 -10 14 -10 7 0 19 -7
26 -15 15 -18 12 -18 -30 -4 -26 9 -34 9 -41 -2 -5 -8 -3 -17 4 -22 7 -5 1 -7
-15 -4 -19 3 -28 0 -28 -9 0 -8 -9 -14 -19 -14 -11 0 -29 -12 -42 -27 -13 -17
-23 -23 -26 -16 -2 7 -10 10 -17 7 -7 -3 -18 2 -25 10 -7 8 -21 12 -34 8 -19
-5 -20 -3 -9 10 10 13 10 17 -4 22 -12 5 -14 9 -5 20 6 7 9 20 5 29 -3 8 0 18
6 22 8 5 8 11 -1 21 -9 11 -6 14 18 14 16 0 39 7 51 16 12 8 27 12 34 8 7 -5
8 -3 3 6 -4 7 -2 16 6 21 18 11 36 11 43 0z m806 -165 c0 -11 -60 -66 -72 -66
-8 0 -19 -10 -25 -22 -29 -61 -43 -97 -43 -112 0 -8 -6 -19 -12 -23 -24 -15
-38 -49 -25 -62 6 -6 8 -11 4 -11 -3 0 -2 -11 3 -25 6 -16 6 -25 0 -25 -5 0
-8 -14 -6 -31 4 -31 27 -60 59 -72 14 -5 16 -14 11 -45 -4 -24 -2 -42 5 -46
17 -11 -21 -41 -49 -39 -45 3 -71 15 -66 29 7 18 -14 17 -37 0 -12 -10 -28
-11 -53 -6 -42 10 -77 2 -70 -15 4 -10 -2 -10 -22 1 -32 17 -42 17 -42 4 0 -5
10 -10 23 -11 21 0 21 -1 2 -9 -24 -10 -50 11 -42 34 5 12 16 15 41 11 43 -5
52 6 26 30 -12 10 -20 13 -20 7 0 -7 5 -12 12 -12 6 0 9 -3 5 -6 -8 -8 -47 5
-47 16 0 5 9 12 20 15 11 3 20 11 20 17 0 7 -4 7 -12 1 -7 -5 -32 -11 -55 -12
-34 -2 -43 1 -43 13 0 13 3 14 19 4 15 -9 23 -9 35 1 17 15 11 41 -11 41 -13
0 -13 -3 -3 -15 8 -9 8 -15 2 -15 -6 0 -12 5 -14 10 -2 6 -18 11 -36 13 -31 2
-38 7 -26 20 3 3 14 1 25 -6 10 -6 22 -7 26 -3 4 5 3 11 -4 13 -7 2 -10 10 -7
18 3 7 0 16 -7 21 -9 5 -8 10 7 16 14 6 13 7 -8 3 -15 -3 -30 0 -34 7 -4 7 -3
8 4 4 7 -4 12 -1 12 8 0 10 6 13 15 10 10 -4 15 0 15 14 0 16 5 19 23 15 20
-4 21 -3 5 10 -25 20 -22 30 7 23 16 -4 25 -2 25 5 0 6 7 9 15 5 9 -3 15 0 15
9 0 8 4 15 8 15 5 0 17 8 28 18 25 23 84 45 84 31 0 -6 7 -3 16 6 9 9 25 13
38 10 11 -2 15 -2 9 1 -7 3 -13 10 -13 15 0 6 5 7 10 4 6 -3 10 -1 10 5 0 6 5
8 10 5 6 -3 10 -1 10 4 0 6 5 11 10 11 12 0 30 14 65 48 12 12 29 20 36 17 8
-3 29 9 48 25 33 29 41 34 41 26z m650 -206 c14 -11 31 -20 38 -20 6 0 12 -4
12 -9 0 -5 11 -12 25 -15 14 -4 25 -10 25 -15 0 -5 14 -12 30 -16 17 -4 30
-11 30 -16 0 -6 5 -7 12 -3 8 5 9 2 5 -9 -4 -10 -1 -17 6 -17 21 -1 53 -30 41
-38 -5 -4 -10 -17 -10 -29 0 -16 6 -23 21 -23 14 0 16 -3 7 -9 -7 -4 -24 -6
-38 -3 -14 2 -24 0 -24 -7 0 -7 -5 -9 -12 -5 -8 5 -9 2 -5 -9 6 -17 -13 -24
-27 -10 -9 9 -46 11 -46 2 0 -4 6 -10 13 -12 9 -4 8 -8 -3 -16 -12 -8 -8 -11
19 -11 25 0 32 -4 27 -15 -3 -8 0 -15 7 -15 7 0 -1 -8 -18 -19 -16 -10 -31
-14 -33 -10 -2 5 -10 2 -18 -5 -19 -20 -18 -32 2 -15 14 12 16 11 13 -6 -3
-11 -11 -20 -19 -20 -9 0 -15 -9 -14 -23 0 -17 -5 -22 -25 -21 -14 0 -20 3
-13 6 14 6 16 43 2 43 -5 0 -10 -4 -10 -9 0 -8 -21 -8 -40 -1 -3 1 -9 2 -14 1
-4 -1 -14 3 -22 10 -7 6 -17 8 -23 5 -17 -11 -41 6 -41 29 0 13 -8 26 -17 30
-15 5 -16 4 -5 -6 6 -7 12 -17 12 -21 0 -14 -22 -8 -35 9 -12 16 -13 15 -12
-10 2 -21 6 -27 18 -24 22 6 45 -23 41 -48 -4 -16 -2 -17 10 -7 19 15 32 4 17
-14 -6 -8 -9 -20 -6 -29 7 -17 -9 -30 -18 -15 -3 5 -16 10 -28 10 -12 0 -35 8
-52 18 -46 28 -73 32 -123 16 -42 -12 -53 -12 -97 3 -27 9 -54 21 -58 27 -6 7
-7 5 -4 -6 5 -13 -3 -17 -34 -20 -22 -2 -43 1 -46 6 -4 5 -11 -1 -16 -15 l-10
-24 -7 30 c-13 54 -12 64 10 58 11 -3 27 2 36 11 9 10 24 14 34 11 14 -5 17
-2 13 13 -6 23 23 38 34 18 11 -18 54 -31 51 -16 -2 7 3 15 10 17 7 3 11 -1
10 -8 -2 -7 6 -14 17 -16 11 -1 14 0 8 3 -22 10 -14 23 15 22 31 0 89 20 60
21 -23 1 -24 21 -2 21 14 0 14 3 4 15 -16 20 -6 30 31 30 27 0 29 -3 27 -30
-2 -21 1 -30 12 -30 18 0 32 62 16 69 -16 7 19 33 41 31 10 -1 31 -7 46 -14
53 -21 72 -8 56 37 -6 14 -5 21 1 17 5 -3 5 6 -1 24 -8 22 -7 41 5 76 9 25 16
55 16 65 0 25 8 25 40 0z m-495 -610 c5 -7 11 -8 18 -1 15 12 180 5 206 -8 10
-6 33 -13 51 -16 43 -8 50 -12 50 -35 0 -37 -49 -29 -63 10 -3 9 -6 6 -6 -8
-1 -20 -4 -22 -23 -15 -13 4 -67 8 -121 8 -57 0 -97 4 -98 10 0 6 -4 1 -9 -10
l-8 -20 -8 20 c-9 20 -34 27 -45 12 -3 -5 -9 -1 -12 8 -4 9 -3 13 3 10 6 -3
10 -1 10 6 0 12 28 38 42 39 4 0 10 -5 13 -10z m244 -346 c17 -4 45 -19 61
-34 16 -15 32 -25 35 -22 3 3 5 1 5 -5 0 -14 -20 -30 -45 -36 -19 -4 -19 -5 1
-6 12 0 27 6 34 14 16 19 34 19 49 1 7 -8 25 -18 41 -21 26 -6 47 -31 36 -42
-3 -3 -19 2 -37 11 -38 19 -42 20 -34 5 4 -6 -2 -13 -14 -16 -14 -3 -21 -13
-21 -28 0 -26 -36 -41 -57 -23 -15 12 -17 0 -4 -21 6 -9 18 -11 35 -7 19 5 24
3 20 -8 -3 -8 -13 -12 -25 -9 -10 3 -19 0 -19 -6 0 -7 -9 -5 -25 5 -15 10 -25
12 -25 5 0 -6 5 -11 10 -11 6 0 10 -5 10 -11 0 -8 -4 -8 -14 0 -7 6 -22 8 -31
4 -14 -5 -17 -3 -12 10 3 9 2 17 -2 17 -5 0 -11 -5 -13 -12 -5 -13 -118 -18
-118 -5 0 4 -5 7 -11 7 -5 0 -7 -4 -4 -10 13 -20 -14 -9 -29 12 -9 12 -16 17
-16 10 0 -9 -5 -10 -19 -2 -11 5 -26 7 -34 4 -11 -4 -17 2 -19 18 -2 13 -9 22
-16 21 -6 -2 -12 4 -12 12 0 8 4 15 9 15 5 0 11 -7 15 -15 7 -20 18 -19 47 6
13 11 25 16 27 10 2 -6 8 -11 14 -11 6 0 6 6 -2 15 -7 8 -16 12 -21 10 -4 -3
-16 2 -26 12 -20 20 -37 23 -50 10 -4 -5 -3 -8 2 -7 22 5 33 -1 38 -19 4 -17
2 -19 -21 -10 -38 15 -52 29 -53 53 0 11 -3 15 -6 9 -2 -7 -12 -13 -20 -13
-10 0 -13 -6 -9 -17 4 -13 1 -12 -13 5 -19 22 -41 30 -41 14 0 -4 5 -13 12
-20 15 -15 4 -26 -18 -18 -10 4 -14 13 -11 26 3 11 1 20 -4 20 -5 0 -9 -4 -9
-10 0 -5 -15 -10 -32 -10 -30 1 -31 2 -15 14 21 16 22 30 2 22 -8 -3 -15 -1
-15 4 0 5 17 12 38 16 20 4 43 11 49 16 7 6 24 8 38 6 13 -3 22 -1 19 3 -3 5
8 9 24 9 16 0 32 3 36 7 19 20 251 39 315 27z"/>
<path d="M3411 1158 c9 -17 9 -24 -3 -32 -57 -43 -82 -72 -94 -108 -7 -19 -24
-25 -24 -8 0 6 -5 9 -12 8 -7 -2 -15 11 -19 27 -6 28 -7 29 -14 8 -8 -24 -9
-25 -47 -27 -17 -1 -24 -8 -26 -28 -3 -22 -9 -28 -28 -28 -14 0 -24 -6 -24
-15 0 -8 -6 -12 -15 -9 -23 9 -38 -5 -23 -24 10 -12 10 -14 0 -8 -8 5 -16 -2
-22 -19 -6 -17 -14 -24 -22 -19 -7 4 -4 -2 6 -14 11 -12 25 -22 33 -22 8 0 11
-5 7 -11 -4 -8 -9 -8 -17 0 -16 16 -31 13 -18 -3 7 -8 26 -19 43 -25 26 -9 29
-9 18 4 -9 11 -9 15 -1 15 7 0 9 5 5 11 -4 7 1 10 12 7 12 -2 19 -12 20 -28 0
-14 4 -32 8 -39 6 -9 3 -17 -8 -23 -9 -5 -16 -18 -16 -28 0 -11 -5 -20 -11
-20 -6 0 -9 -6 -6 -14 3 -7 0 -19 -6 -25 -8 -8 -7 -11 3 -11 12 0 12 -2 2 -8
-28 -18 5 -57 87 -105 45 -26 81 -52 81 -57 0 -6 15 -10 33 -10 17 0 70 -14
117 -31 47 -16 92 -32 101 -35 12 -4 20 3 28 27 18 52 13 114 -11 156 -20 33
-23 52 -23 143 0 99 -2 109 -35 175 -29 60 -34 79 -32 132 2 47 -3 73 -18 103
-11 22 -25 40 -31 40 -6 0 -5 -8 2 -22z"/>
<path d="M3876 219 c14 -15 18 -37 19 -89 0 -38 -2 -67 -6 -64 -4 2 -10 -2
-13 -8 -6 -15 -1 24 8 62 7 29 -6 49 -49 75 l-30 19 22 -25 c28 -31 38 -73 23
-96 -10 -15 -10 -14 -5 10 3 18 2 26 -4 23 -5 -4 -12 -2 -16 4 -3 5 -16 15
-27 21 l-21 12 21 -28 c12 -15 22 -36 22 -46 0 -10 6 -22 14 -26 7 -4 18 -18
25 -30 11 -22 47 -40 58 -29 3 3 0 12 -7 21 -14 17 -10 18 23 6 33 -13 40 -4
17 22 -11 11 -17 25 -13 30 3 6 1 7 -5 3 -16 -10 -19 13 -8 56 9 35 8 40 -19
68 -32 33 -59 42 -29 9z"/>
</g>
</svg>
