<?xml version="1.0" standalone="no"?>
<!DOCTYPE svg PUBLIC "-//W3C//DTD SVG 20010904//EN"
 "http://www.w3.org/TR/2001/REC-SVG-20010904/DTD/svg10.dtd">
<svg version="1.0" xmlns="http://www.w3.org/2000/svg"
 width="500.000000pt" height="500.000000pt" viewBox="0 0 500.000000 500.000000"
 preserveAspectRatio="xMidYMid meet">
<metadata>
Created by potrace 1.16, written by Peter Selinger 2001-2019
</metadata>
<g transform="translate(0.000000,500.000000) scale(0.100000,-0.100000)"
fill="#000000" stroke="none">
<path d="M2497 4254 c-3 -5 -64 -191 -135 -414 -72 -223 -168 -522 -214 -665
l-84 -260 -712 -5 -712 -5 387 -280 c213 -154 470 -340 572 -413 102 -73 186
-134 188 -136 4 -4 -28 -103 -337 -1039 -56 -170 -99 -311 -97 -314 4 -3 232
160 532 382 39 29 137 101 220 161 82 60 197 144 255 188 147 109 137 107 208
55 33 -24 155 -114 272 -199 116 -85 242 -177 280 -205 38 -27 173 -126 300
-219 127 -92 232 -167 234 -165 2 2 -95 303 -215 669 -120 366 -219 670 -219
676 0 7 143 115 317 240 174 126 371 268 437 317 67 48 179 128 249 179 70 50
130 95 133 99 3 5 -314 9 -704 9 l-709 0 -213 663 c-117 364 -217 668 -220
676 -4 7 -10 10 -13 5z"/>
</g>
</svg>
