<?xml version="1.0" standalone="no"?>
<!DOCTYPE svg PUBLIC "-//W3C//DTD SVG 20010904//EN"
 "http://www.w3.org/TR/2001/REC-SVG-20010904/DTD/svg10.dtd">
<svg version="1.0" xmlns="http://www.w3.org/2000/svg"
 width="564.000000pt" height="811.000000pt" viewBox="0 0 564.000000 811.000000"
 preserveAspectRatio="xMidYMid meet">
<metadata>
Created by potrace 1.16, written by Peter Selinger 2001-2019
</metadata>
<g transform="translate(0.000000,811.000000) scale(0.100000,-0.100000)"
fill="#000000" stroke="none">
<path d="M0 7470 l0 -640 68 0 c87 0 181 -16 251 -42 31 -11 64 -21 74 -21 10
-1 28 -14 39 -29 11 -16 36 -37 57 -48 21 -10 57 -35 81 -55 24 -20 67 -48 94
-62 28 -15 45 -28 39 -30 -14 -5 -33 6 -198 111 -150 96 -146 94 -177 111 -59
33 -172 51 -295 46 l-33 -1 0 -1004 0 -1004 498 1 c448 2 741 -8 915 -29 l49
-6 -17 33 -17 34 38 -37 c33 -31 48 -37 102 -43 58 -6 62 -6 56 12 -5 15 -3
15 13 -3 12 -15 52 -30 130 -49 118 -28 186 -61 108 -51 -55 7 -80 13 -102 25
-53 28 -212 46 -573 66 -80 4 -149 10 -154 12 -4 3 -11 0 -15 -6 -5 -8 -22 -8
-59 -1 -28 5 -104 10 -169 11 -65 1 -131 2 -148 2 -16 0 -77 0 -135 -1 -58 -1
-118 0 -135 1 -16 2 -109 -2 -205 -8 l-175 -10 0 -185 0 -185 65 -22 c35 -12
65 -21 67 -20 1 2 -18 18 -42 37 -24 19 -44 39 -45 44 0 9 11 2 99 -66 60 -47
151 -87 201 -89 14 0 34 -5 45 -10 15 -7 10 -8 -19 -5 -57 7 -37 -6 98 -64 91
-40 125 -51 150 -46 19 4 26 3 18 -3 -9 -5 -1 -10 27 -14 22 -2 50 -15 63 -27
l23 -22 -40 20 c-22 11 -58 23 -80 27 -37 6 -39 5 -20 -9 11 -8 15 -16 8 -16
-6 0 -19 7 -27 16 -9 8 -21 14 -26 12 -6 -2 18 -24 53 -49 34 -26 112 -88 172
-138 98 -82 195 -149 195 -134 0 12 -38 71 -74 118 -38 48 -38 49 -7 20 18
-16 56 -60 83 -97 49 -66 53 -69 132 -94 61 -19 94 -24 141 -21 122 10 328
-30 625 -120 9 -3 8 1 -4 11 -11 9 -16 16 -11 16 5 0 18 -9 29 -19 12 -11 77
-42 146 -70 69 -27 167 -70 217 -95 51 -25 97 -46 102 -46 5 0 14 -7 22 -16 7
-8 29 -24 48 -34 46 -24 131 -103 131 -121 0 -8 -23 10 -51 38 -28 29 -55 50
-60 47 -5 -3 -9 -1 -9 4 0 16 -148 107 -158 97 -3 -3 -24 6 -48 20 -23 14 -50
25 -60 25 -10 0 -25 6 -33 14 -9 8 -38 24 -64 35 l-48 21 16 -22 c28 -41 16
-42 -24 -3 -36 36 -176 103 -189 91 -3 -3 3 -8 12 -12 9 -3 16 -11 16 -16 0
-5 -13 1 -29 14 -16 14 -65 34 -114 47 -92 25 -135 24 -77 -2 58 -26 23 -23
-246 27 -33 6 34 -14 151 -46 44 -12 82 -25 85 -29 3 -4 34 -17 70 -29 36 -12
70 -26 77 -32 7 -5 17 -7 22 -4 5 4 12 2 16 -3 3 -6 58 -41 123 -80 65 -38
140 -87 168 -109 27 -21 89 -65 137 -96 48 -32 87 -61 87 -65 0 -3 20 -28 45
-54 25 -26 41 -47 36 -47 -5 0 -26 20 -47 45 -42 51 -57 53 -26 3 11 -18 26
-55 33 -83 7 -27 23 -61 36 -75 l23 -25 -22 -8 c-21 -8 -37 5 -38 29 0 17 -50
117 -76 151 -13 17 -24 41 -24 52 0 13 -6 21 -17 21 -9 0 -49 30 -89 68 -79
74 -127 112 -142 112 -5 0 -17 9 -27 20 -19 20 -41 28 -30 10 12 -19 -12 -10
-31 12 -12 14 -14 19 -4 13 11 -6 12 -5 5 3 -6 6 -19 13 -30 15 -11 1 -38 15
-60 29 -22 14 -51 29 -65 33 -23 7 -22 4 13 -32 20 -21 37 -45 37 -53 0 -8
-19 7 -43 35 -23 27 -41 53 -39 58 1 5 -1 6 -6 3 -5 -3 -18 1 -28 9 -26 20
-37 19 -30 -2 3 -11 -3 -7 -17 9 -23 28 -123 78 -156 78 -11 0 -39 8 -63 19
-24 10 -59 22 -78 26 l-35 7 30 -27 c35 -31 15 -23 -35 14 -23 17 -48 26 -75
26 -22 1 -45 4 -50 7 -23 13 -75 18 -92 9 -33 -19 -126 -50 -134 -45 -5 3 -39
-2 -76 -11 -98 -23 -100 -23 -224 -40 -63 -8 -155 -15 -205 -16 -87 -2 -91 -4
-86 -23 5 -21 5 -21 -19 1 -21 19 -43 23 -197 33 -96 6 -176 10 -178 7 -6 -5
107 -34 166 -42 58 -8 176 -43 215 -62 21 -11 30 -12 33 -4 2 7 19 0 41 -18
49 -39 306 -169 502 -254 180 -79 308 -155 353 -211 17 -21 45 -55 61 -75 17
-20 36 -47 43 -61 27 -52 48 -71 87 -77 46 -7 97 -41 139 -92 l30 -36 -35 31
c-44 40 -81 62 -130 79 -42 15 -44 14 -29 -15 9 -16 8 -18 -6 -13 -12 4 -15 2
-12 -8 3 -8 13 -14 23 -14 10 0 20 -6 23 -13 6 -19 -19 -14 -44 9 -12 12 -20
27 -17 35 3 8 -3 26 -13 42 -10 15 -26 43 -36 63 -21 42 -193 219 -213 219 -7
0 -26 11 -42 24 -37 31 -128 76 -233 116 -47 18 -89 36 -95 40 -5 4 -25 12
-44 19 -32 10 -33 10 -19 -6 24 -28 26 -54 6 -102 -21 -51 -45 -73 -70 -65
-10 3 -18 0 -18 -6 0 -8 -11 -10 -33 -6 -38 7 -52 -1 -36 -21 14 -16 9 -16
-28 -2 -15 6 -46 12 -68 14 -22 1 -51 6 -65 10 -25 6 -25 6 -5 -10 21 -19 18
-18 -72 2 -18 4 -21 1 -18 -18 1 -13 6 -33 11 -44 5 -14 -4 -9 -28 15 -67 64
-74 68 -149 75 l-74 7 25 -21 25 -21 -27 4 c-15 3 -38 12 -50 20 -36 25 -46
18 -13 -9 17 -13 37 -24 46 -25 16 0 29 -20 29 -43 0 -7 -8 -2 -18 10 -9 12
-28 24 -42 27 -14 2 -24 8 -23 13 1 5 -12 16 -28 25 -16 10 -29 12 -29 7 0
-15 31 -40 122 -100 43 -28 76 -54 74 -58 -3 -4 19 -29 47 -56 29 -28 46 -42
39 -33 -8 9 -11 22 -7 28 3 5 0 10 -7 10 -19 1 -76 50 -58 50 10 1 5 10 -14
26 -23 20 -25 25 -11 23 11 -2 31 -21 45 -41 14 -20 50 -53 80 -73 30 -20 76
-59 102 -88 46 -51 74 -61 44 -15 -8 13 -29 57 -46 98 -17 41 -43 88 -58 104
l-27 29 31 -21 c34 -23 114 -107 114 -119 0 -5 -14 7 -31 25 -17 19 -32 32
-35 29 -8 -8 74 -162 98 -183 28 -25 99 -54 133 -54 14 0 25 -3 25 -8 0 -4 9
-13 20 -20 29 -18 25 -9 -23 50 -24 29 -46 60 -51 68 -12 24 73 -71 107 -120
17 -25 44 -55 59 -68 30 -25 73 -90 65 -98 -2 -3 -15 11 -27 30 -12 20 -26 36
-31 36 -11 0 64 -110 96 -140 21 -20 43 -24 177 -36 209 -19 466 -71 627 -128
24 -9 54 -16 67 -16 15 0 24 -6 24 -15 0 -8 5 -15 11 -15 26 0 208 -144 196
-156 -4 -4 -17 1 -29 12 -23 20 -18 5 11 -31 9 -12 4 -9 -14 6 -35 31 -80 60
-86 57 -2 -2 -3 -1 -2 1 1 2 -9 13 -23 23 -36 29 -23 33 22 7 l39 -21 -35 31
c-19 17 -40 31 -45 31 -6 0 -26 10 -45 23 -51 34 -194 81 -186 61 5 -12 2 -13
-17 -3 -21 12 -21 11 -8 -7 8 -10 28 -34 45 -51 54 -59 21 -44 -40 18 -32 33
-50 57 -40 53 12 -5 17 -4 13 3 -3 5 -34 18 -69 27 -35 10 -82 24 -105 32 -24
7 -43 9 -43 3 0 -5 5 -9 10 -9 6 0 10 -10 10 -23 0 -13 5 -28 12 -35 9 -9 9
-12 0 -12 -6 0 -28 23 -49 50 -35 47 -41 50 -78 49 -22 0 -71 4 -110 9 -38 6
-101 13 -140 16 l-70 5 70 -64 c39 -35 75 -64 80 -63 6 1 23 -4 39 -11 34 -14
44 -8 25 16 -8 10 3 6 23 -10 20 -15 44 -27 53 -27 9 0 84 -13 167 -30 82 -16
153 -30 156 -30 13 0 -86 94 -127 121 -64 41 -40 36 28 -6 68 -42 101 -70 101
-84 0 -24 60 -47 165 -63 108 -17 109 -17 30 -12 -44 3 -97 9 -118 14 -37 8
-38 7 -22 -10 9 -10 12 -21 7 -24 -5 -3 -15 6 -22 20 -8 13 -23 26 -34 29 -12
2 -92 18 -180 35 -87 17 -160 29 -162 27 -2 -2 7 -19 21 -37 38 -51 30 -51
-18 2 -23 25 -52 48 -64 51 -13 3 -23 3 -23 1 0 -8 82 -79 108 -94 15 -8 35
-25 45 -38 10 -12 87 -67 170 -122 84 -54 190 -126 237 -158 47 -33 99 -67
116 -75 l32 -16 -9 39 c-12 55 -82 190 -113 219 -31 29 -34 46 -6 31 17 -9 19
-8 13 7 -6 16 -5 16 11 4 9 -8 15 -20 12 -27 -2 -6 6 -22 20 -35 23 -22 75
-142 89 -207 9 -42 29 -52 107 -53 80 -1 49 -17 -35 -18 -101 -2 -88 -44 43
-136 45 -31 80 -59 77 -62 -3 -2 -48 26 -101 62 l-96 67 -20 -24 -20 -23 11
30 c9 27 8 32 -16 52 -14 13 -22 23 -18 23 5 0 14 -5 20 -11 14 -14 33 -3 33
20 0 10 -15 24 -37 34 l-38 17 35 -30 c50 -44 23 -36 -35 10 -27 22 -56 40
-63 40 -7 0 -11 4 -8 9 3 4 -3 16 -14 26 -11 10 -20 15 -20 10 0 -4 8 -14 18
-22 15 -12 14 -13 -13 -7 -16 4 -35 14 -42 23 -41 57 -154 151 -181 151 -6 0
-12 4 -14 9 -4 11 -215 160 -348 246 -116 75 -201 109 -169 68 7 -10 0 -6 -16
8 -17 14 -46 32 -65 39 -19 7 -41 18 -47 23 -9 7 -13 4 -14 -9 0 -14 -2 -15
-6 -4 -6 17 -32 40 -46 40 -9 0 -6 -32 8 -75 3 -11 -7 5 -23 35 -30 56 -56 86
-80 92 -15 3 -43 26 -132 105 -67 60 -100 80 -100 62 0 -8 -7 -6 -18 4 -10 10
-22 17 -25 17 -4 0 -26 14 -49 30 -22 17 -44 30 -48 30 -4 0 -34 16 -66 35
-32 20 -64 33 -72 30 -7 -2 -11 -1 -8 3 2 4 -13 18 -35 30 -38 22 -51 19 -27
-7 10 -11 10 -13 1 -7 -28 16 -11 -29 35 -93 41 -57 72 -111 72 -126 0 -11
-29 -4 -40 10 -7 8 -17 15 -23 15 -6 0 -1 -10 11 -22 11 -13 26 -36 32 -52
l10 -28 -36 31 c-20 18 -39 29 -42 26 -7 -7 52 -65 67 -65 12 0 76 -40 110
-70 13 -11 30 -20 37 -20 7 0 73 -20 146 -46 73 -25 151 -49 173 -54 80 -18
125 -30 180 -51 90 -33 56 -33 -47 0 -51 17 -109 33 -128 36 -19 3 -57 14 -85
24 -140 52 -314 103 -329 98 -9 -4 -14 -3 -11 2 3 5 -4 13 -16 16 -12 4 -24 2
-28 -4 -5 -8 -15 -5 -31 9 -13 11 -27 20 -31 20 -4 0 -16 3 -26 7 -37 14 6
-24 52 -46 56 -26 96 -63 86 -80 -6 -9 -12 -5 -24 13 -10 14 -27 31 -39 37
-21 11 -22 11 -9 -5 8 -9 11 -19 7 -23 -3 -3 1 -15 11 -25 19 -22 6 -23 -21
-3 -26 20 -37 19 -29 -3 4 -12 -1 -10 -18 8 -24 25 -24 25 -27 3 -2 -12 5 -34
15 -50 16 -26 16 -27 0 -14 -16 12 -17 10 -17 -28 0 -45 24 -91 46 -91 8 0 17
-7 20 -15 7 -17 86 -65 109 -65 9 0 14 -4 11 -9 -3 -5 25 -27 62 -49 60 -36
76 -41 157 -47 50 -4 109 -10 133 -15 35 -6 40 -5 31 6 -6 8 -7 14 -2 14 5 0
16 -9 26 -20 9 -11 28 -20 41 -20 20 0 188 -46 240 -66 15 -6 17 -4 11 6 -5 8
6 4 23 -9 44 -31 203 -81 280 -88 87 -8 134 9 169 61 21 33 27 53 27 99 0 59
10 74 25 35 15 -42 20 -107 7 -102 -6 2 -16 -6 -21 -18 -17 -37 -90 -86 -141
-94 l-47 -7 24 -18 c28 -23 106 -59 125 -59 7 0 11 -6 8 -13 -4 -12 53 -28
156 -44 14 -2 40 -6 59 -9 32 -6 33 -6 21 17 l-13 24 26 -24 c24 -21 30 -23
67 -13 24 6 40 6 40 0 0 -5 8 -8 18 -6 10 2 17 -3 17 -12 0 -11 -14 -15 -60
-15 -92 1 -236 13 -275 25 -19 5 -36 10 -37 10 -2 0 -2 -9 0 -20 4 -22 17 -39
17 -21 0 7 4 10 10 6 16 -10 -21 -38 -100 -76 -100 -49 -176 -66 -355 -80
-195 -15 -318 -8 -625 36 -58 8 -156 21 -217 28 l-113 13 0 -286 0 -286 38
-23 c34 -21 23 -24 -20 -6 -17 7 -18 -17 -18 -414 l0 -421 2820 0 2820 0 0
4055 0 4055 -2820 0 -2820 0 0 -640z m5059 -6304 c15 -8 33 -22 40 -30 11 -14
11 -16 -5 -17 -11 -1 -24 -1 -30 0 -16 2 -37 -26 -29 -39 10 -16 25 -12 19 5
-4 8 -1 15 5 15 7 0 14 -7 17 -15 4 -8 14 -15 24 -15 13 0 17 -5 13 -20 -6
-23 -58 -29 -66 -7 -2 6 -8 8 -13 4 -15 -14 29 -39 59 -33 22 5 27 2 27 -15 0
-26 -28 -36 -43 -15 -11 14 -15 15 -31 3 -29 -21 -10 -40 35 -35 29 3 39 0 39
-11 0 -8 -3 -12 -6 -8 -4 3 -19 0 -34 -8 -22 -11 -29 -12 -33 -2 -2 6 -8 9
-12 4 -5 -4 -3 -13 3 -19 9 -9 18 -8 38 1 22 10 29 9 35 -1 15 -23 10 -27 -33
-30 -35 -3 -42 -7 -43 -25 -1 -21 3 -23 42 -23 59 0 55 -20 -4 -22 l-48 -1 45
-6 c32 -4 46 -11 48 -23 4 -23 -40 -25 -62 -2 -9 8 -16 14 -17 12 -8 -36 -7
-38 37 -38 34 0 44 -4 44 -16 0 -13 -9 -15 -45 -12 -24 1 -46 -1 -47 -7 -2 -5
18 -11 45 -13 57 -4 63 -22 8 -22 -43 0 -55 -9 -45 -34 4 -11 19 -16 45 -16
21 0 39 -4 39 -10 0 -5 -21 -10 -46 -10 -27 0 -43 -4 -39 -10 3 -5 23 -10 43
-10 l37 0 -28 -28 c-23 -23 -36 -27 -82 -27 -46 0 -59 4 -82 28 l-28 27 -3
247 c-3 271 0 292 52 324 37 23 77 24 115 5z"/>
<path d="M1 4146 c1 -92 4 -116 15 -116 8 0 14 -4 14 -10 0 -5 -7 -10 -16 -10
-34 0 0 -19 44 -25 26 -3 70 -15 97 -25 28 -11 68 -24 90 -29 88 -22 133 -34
191 -52 33 -11 74 -18 90 -18 22 1 15 5 -26 15 -31 7 -40 12 -22 10 39 -3 29
11 -11 16 -16 3 -32 8 -35 14 -18 24 -164 83 -268 108 -69 17 -49 21 28 5 66
-13 91 -22 200 -71 48 -21 145 -59 215 -83 l128 -44 -46 42 c-26 23 -62 60
-80 82 -19 22 10 0 63 -49 66 -60 103 -86 114 -82 8 3 30 -2 47 -11 34 -17 85
-32 127 -38 14 -2 34 -6 45 -11 16 -5 18 -4 8 6 -6 7 -22 14 -36 15 -13 2 -36
15 -52 29 -15 14 -34 26 -41 26 -8 0 -22 8 -32 18 -9 9 -30 25 -45 35 -15 9
-82 62 -150 116 -148 119 -264 194 -343 222 -43 16 -93 23 -187 26 l-128 6 2
-117z"/>
<path d="M1 3754 l-2 -146 153 5 c84 3 189 10 233 16 44 5 103 13 130 16 36 5
45 3 34 -4 -8 -5 -65 -16 -125 -23 l-109 -13 100 -5 c129 -6 355 13 470 40 50
11 111 25 137 31 26 5 62 17 80 25 l33 15 -32 -5 c-18 -3 -47 1 -65 8 -18 8
-76 22 -128 31 -52 9 -138 26 -190 37 -158 33 -301 58 -372 63 -37 3 -88 10
-115 15 -26 6 -75 15 -108 20 -33 6 -74 12 -92 15 l-31 6 -1 -147z"/>
<path d="M4 3505 c-6 -14 -1 -64 12 -119 4 -17 2 -31 -5 -35 -7 -5 -3 -12 13
-20 22 -12 43 -51 28 -51 -13 0 -27 15 -27 29 0 8 -5 16 -11 18 -7 2 -11 -18
-11 -59 0 -62 9 -88 30 -88 7 0 7 4 -1 12 -27 27 -10 30 18 3 43 -41 37 -18
-7 27 -20 21 -32 38 -27 38 6 0 31 -22 55 -48 42 -47 47 -49 113 -56 38 -4 70
-5 73 -3 9 9 -44 55 -89 77 -30 15 -48 30 -48 41 0 10 -4 21 -10 24 -5 3 -10
14 -10 23 0 11 8 6 23 -15 12 -18 27 -33 33 -33 6 0 23 -9 37 -20 l26 -21 -11
31 c-6 17 -33 54 -62 83 -38 38 -42 45 -18 28 38 -26 101 -108 102 -131 1 -23
33 -56 76 -79 47 -25 61 -27 43 -4 -13 15 -12 15 16 1 32 -16 96 -15 235 2 80
9 97 7 59 -10 -23 -9 -23 -10 6 -7 19 1 30 8 30 17 0 8 4 18 9 21 11 8 -42 76
-108 141 -39 37 -73 57 -163 93 -63 25 -119 43 -124 39 -6 -3 -18 1 -28 10
-18 17 -175 51 -191 41 -5 -3 -11 -1 -15 5 -10 16 -65 12 -71 -5z"/>
<path d="M0 3007 c0 -7 13 -20 29 -28 27 -13 28 -15 13 -29 -14 -13 -15 -12
-10 2 4 10 1 19 -8 22 -22 9 -23 8 -22 -16 0 -46 8 -66 29 -71 13 -4 18 -10
14 -18 -5 -7 -3 -10 6 -7 15 6 76 -34 97 -64 7 -10 23 -23 35 -29 17 -9 20 -9
10 1 -6 7 -9 18 -7 25 4 9 12 6 28 -9 12 -13 44 -36 71 -51 28 -16 62 -39 78
-51 15 -13 34 -21 41 -18 14 5 95 -39 108 -60 4 -6 7 -18 7 -26 0 -10 -3 -9
-10 5 -11 23 -81 75 -100 75 -7 0 12 -22 42 -50 30 -27 49 -49 43 -50 -5 0
-26 16 -45 36 -66 69 -239 184 -239 159 0 -17 154 -145 175 -145 3 0 29 -16
59 -35 36 -23 56 -31 59 -22 2 7 22 -6 48 -33 31 -32 66 -54 119 -75 41 -17
79 -32 83 -34 12 -4 -61 108 -93 145 -40 46 -131 114 -144 107 -6 -3 -8 -2 -3
2 8 9 -20 45 -36 45 -5 0 -1 -12 8 -27 16 -24 16 -26 0 -20 -9 4 -22 7 -28 7
-8 0 -7 3 2 9 11 7 9 14 -9 39 -27 36 -50 48 -61 30 -6 -9 -11 -9 -23 1 -9 8
-16 19 -16 25 0 11 -27 31 -101 75 -42 24 -64 28 -34 5 11 -8 20 -18 20 -22 0
-4 10 -22 23 -39 39 -55 10 -36 -53 34 -114 127 -205 207 -205 180z"/>
<path d="M38 1897 c-40 -11 -50 -32 -20 -40 16 -4 16 -5 0 -6 -12 -1 -18 -9
-18 -25 0 -19 6 -26 28 -29 l27 -4 -27 -2 -28 -1 0 -131 0 -132 45 6 c27 4 45
3 45 -3 0 -6 -20 -10 -45 -10 -43 0 -45 -1 -45 -29 0 -33 13 -38 106 -46 60
-5 229 -29 362 -52 89 -15 416 -24 522 -15 207 19 311 51 340 106 13 26 13 29
-5 42 -10 8 -16 17 -12 20 4 4 13 1 22 -6 8 -7 15 -8 15 -2 0 23 -34 34 -112
38 -46 2 -119 13 -163 24 -44 12 -97 21 -117 20 -22 0 -61 10 -93 25 -30 15
-61 24 -68 22 -6 -3 3 -8 21 -12 18 -4 35 -12 38 -16 8 -14 -11 -11 -66 10
-46 17 -50 18 -50 3 -1 -16 -2 -16 -13 -1 -18 24 -85 51 -90 36 -2 -7 -16 -1
-36 16 -18 15 -45 29 -59 32 -15 3 -53 19 -86 36 -32 17 -60 28 -63 26 -2 -3
23 -22 57 -42 34 -21 74 -49 88 -62 15 -14 38 -33 52 -42 71 -45 221 -166 265
-212 49 -52 49 -51 -19 9 -88 79 -102 82 -65 15 12 -23 13 -28 3 -13 -34 48
-170 175 -233 219 -62 41 -64 42 -47 15 13 -23 10 -21 -16 8 -18 21 -54 53
-80 70 -25 18 -74 55 -108 82 -81 64 -157 80 -252 53z"/>
<path d="M481 1863 c-20 -4 -11 -11 57 -44 44 -22 93 -42 109 -44 36 -6 106
-27 213 -64 52 -19 98 -29 118 -26 21 3 30 0 26 -6 -3 -6 2 -10 12 -8 11 1 26
-1 34 -5 29 -12 205 -54 210 -49 2 2 -13 20 -35 38 -28 24 -50 34 -73 35 -19
0 -46 6 -60 14 -68 37 -383 139 -432 140 -19 1 -38 5 -41 9 -7 10 -105 17
-138 10z"/>
</g>
</svg>
