<?xml version="1.0" standalone="no"?>
<!DOCTYPE svg PUBLIC "-//W3C//DTD SVG 20010904//EN"
 "http://www.w3.org/TR/2001/REC-SVG-20010904/DTD/svg10.dtd">
<svg version="1.0" xmlns="http://www.w3.org/2000/svg"
 width="336.000000pt" height="500.000000pt" viewBox="0 0 336.000000 500.000000"
 preserveAspectRatio="xMidYMid meet">
<metadata>
Created by potrace 1.16, written by Peter Selinger 2001-2019
</metadata>
<g transform="translate(0.000000,500.000000) scale(0.100000,-0.100000)"
fill="#000000" stroke="none">
<path d="M0 4795 c0 -169 2 -205 14 -205 8 0 17 7 20 15 8 22 103 18 116 -4 5
-9 10 -11 10 -5 0 14 59 5 90 -15 14 -8 47 -35 74 -58 26 -24 57 -43 67 -43
11 0 22 -7 25 -15 4 -9 11 -15 18 -14 6 1 18 0 26 -3 8 -4 24 -9 35 -14 11 -4
26 -6 32 -5 7 1 13 -6 13 -15 0 -10 3 -14 7 -11 3 4 12 -5 20 -20 10 -19 11
-28 2 -33 -17 -11 -70 4 -114 32 -22 14 -62 28 -90 31 -60 9 -117 28 -130 45
-6 7 -23 15 -40 18 -16 3 -43 13 -60 23 -16 10 -36 16 -43 14 -7 -3 -22 3 -33
13 -11 10 -29 18 -39 19 -20 2 -20 -20 -20 -2272 l0 -2273 1680 0 1680 0 0
2500 0 2500 -30 0 c-30 0 -30 0 -30 -59 0 -38 -5 -61 -12 -65 -10 -5 -10 -7 0
-12 19 -9 17 -171 -3 -190 -8 -9 -15 -21 -14 -27 0 -9 2 -8 6 1 2 6 9 12 14
12 14 0 11 -38 -3 -43 -10 -4 -10 -6 0 -6 19 -1 16 -98 -3 -98 -11 0 -12 4 -5
11 13 13 13 43 0 51 -6 3 -7 -1 -4 -10 9 -22 -17 -70 -27 -53 -4 7 -3 18 3 25
18 23 -8 14 -28 -9 -10 -12 -13 -18 -6 -14 7 4 12 1 12 -8 0 -8 6 -17 13 -20
8 -3 7 -8 -5 -16 -10 -6 -18 -16 -18 -21 0 -6 8 -3 18 7 15 15 17 16 20 2 2
-10 10 -14 23 -11 16 5 19 0 19 -36 0 -23 -5 -41 -11 -41 -7 0 -9 10 -5 25 5
19 2 25 -10 25 -13 0 -15 -9 -10 -51 5 -48 4 -51 -15 -46 -15 4 -19 2 -15 -9
3 -8 2 -14 -3 -14 -12 0 -35 29 -28 36 10 10 -15 64 -29 64 -8 0 -14 -4 -14
-10 0 -5 7 -10 15 -10 23 0 18 -30 -7 -40 l-23 -9 23 0 c13 -1 20 -5 17 -11
-7 -12 -46 -3 -56 12 -3 5 -9 0 -12 -11 -3 -12 -2 -21 1 -21 4 0 8 -21 10 -47
1 -29 9 -51 20 -59 15 -12 14 -13 -10 -14 -29 0 -46 15 -26 23 9 3 7 10 -7 21
-27 21 -35 20 -35 -4 0 -18 -11 -25 -34 -21 -5 1 -6 -7 -3 -18 4 -18 2 -19
-14 -10 -15 8 -19 6 -19 -8 0 -22 28 -65 38 -59 4 2 7 -7 7 -20 0 -23 -2 -22
-32 13 -20 23 -33 49 -33 65 0 15 -5 30 -11 34 -8 4 -9 -3 -3 -27 4 -19 8 -52
8 -73 1 -22 7 -41 14 -44 6 -2 9 -8 6 -14 -3 -5 2 -16 12 -23 18 -14 18 -14
-3 -15 -12 0 -27 -8 -32 -17 -9 -16 -10 -16 -11 4 0 12 6 23 13 26 6 2 9 8 5
12 -12 12 -19 1 -29 -46 -10 -44 -4 -63 12 -39 7 11 8 6 4 -18 -6 -30 -5 -32
17 -23 36 13 48 4 41 -31 -4 -22 -3 -29 5 -24 7 4 12 3 12 -3 0 -17 -24 -18
-52 -2 -34 20 -40 13 -32 -37 4 -27 11 -39 19 -36 7 3 16 1 19 -4 11 -18 -22
-21 -40 -3 -15 14 -23 15 -36 7 -9 -5 -21 -7 -25 -3 -4 5 -1 12 7 17 8 5 11
13 6 17 -5 4 -11 3 -13 -4 -2 -7 -10 -10 -17 -7 -17 7 -40 -46 -26 -60 7 -7
10 -2 10 16 0 15 5 30 12 34 7 5 9 1 6 -13 -3 -12 -2 -27 3 -34 8 -12 11 -11
19 1 5 8 10 13 11 10 0 -3 2 -15 5 -27 3 -16 -1 -23 -12 -23 -8 0 -12 -5 -9
-11 5 -7 13 -5 25 6 17 16 19 15 29 -4 8 -13 8 -22 1 -26 -6 -4 -8 -11 -5 -16
4 -5 0 -9 -8 -9 -16 0 -12 -36 5 -46 16 -10 22 5 8 21 -7 8 -9 15 -5 15 4 0
14 -8 22 -17 13 -16 14 -15 9 15 -6 32 10 45 20 17 4 -8 10 -15 15 -15 5 0 9
7 9 15 0 17 16 20 25 5 3 -5 1 -10 -4 -10 -6 0 -11 -7 -11 -15 0 -8 -7 -15
-15 -15 -19 0 -19 -34 0 -50 8 -7 17 -27 21 -46 3 -19 10 -34 15 -34 5 0 9 -5
9 -10 0 -6 -8 -5 -19 2 -11 7 -18 15 -16 19 9 13 -21 59 -37 59 -12 0 -15 5
-11 17 5 13 2 15 -11 10 -10 -4 -21 -7 -24 -7 -4 0 -2 -4 4 -8 6 -4 14 -17 18
-29 6 -19 4 -23 -13 -23 -23 0 -27 -19 -8 -39 10 -11 9 -13 -5 -8 -12 4 -19
-1 -24 -16 -4 -12 -2 -23 5 -25 6 -2 11 -11 10 -20 0 -13 -4 -11 -17 7 -9 13
-17 30 -17 38 0 19 -18 17 -30 -3 -7 -12 -6 -18 3 -21 18 -7 15 -22 -10 -45
-13 -11 -18 -17 -11 -14 6 4 14 2 18 -4 3 -5 1 -10 -4 -10 -6 0 -11 -4 -11
-10 0 -18 30 -11 31 8 0 12 3 10 10 -7 5 -13 8 -24 7 -25 -31 -14 -69 -22 -73
-15 -8 12 -43 -11 -48 -32 -3 -10 0 -22 6 -28 8 -8 8 -14 0 -22 -8 -8 -13 -3
-17 18 -6 32 -17 975 -16 1451 l0 322 -94 0 c-85 0 -94 -2 -99 -20 -4 -15 -14
-20 -41 -20 -20 0 -44 -4 -54 -9 -22 -11 -106 -31 -131 -31 -21 0 -104 -40
-109 -53 -2 -4 -10 -3 -17 3 -10 8 -14 2 -20 -27 -6 -35 -4 -40 33 -73 22 -19
42 -44 44 -54 1 -11 11 -20 21 -22 21 -3 48 22 41 39 -3 8 32 30 93 59 130 61
143 65 143 40 0 -22 -18 -32 -60 -32 -44 0 -93 -27 -118 -66 -12 -19 -27 -34
-32 -34 -15 0 -12 -53 6 -89 10 -21 21 -30 30 -27 8 3 14 0 13 -7 -1 -6 -1
-17 0 -24 1 -15 79 -52 124 -60 l35 -5 4 -107 c2 -58 5 -220 7 -359 2 -230 1
-253 -15 -259 -9 -3 -66 2 -127 12 -100 17 -111 17 -121 3 -13 -18 -25 -21
-76 -19 l-35 1 25 20 25 20 -32 0 c-17 0 -35 -5 -38 -10 -4 -6 -32 -10 -63 -9
-45 2 -65 -3 -94 -22 -21 -13 -40 -32 -43 -41 -8 -22 -45 -24 -45 -2 0 8 -5
12 -10 9 -5 -3 -10 -2 -10 4 0 5 -5 22 -12 38 -6 15 -13 37 -15 48 -2 11 -15
30 -29 41 -15 12 -24 26 -20 32 3 5 -6 31 -20 57 -13 26 -23 53 -21 59 2 6 -7
24 -19 39 -13 16 -24 34 -24 41 0 6 -13 26 -30 44 -31 34 -39 67 -18 74 9 3 8
13 -4 38 -19 39 -13 47 32 44 16 -1 30 2 30 6 0 5 24 16 53 24 56 16 137 68
137 87 0 7 10 21 23 33 12 12 22 32 23 45 1 20 -3 23 -30 18 -17 -3 -40 -8
-51 -11 -16 -5 -15 -4 3 5 12 7 22 15 22 18 0 3 4 12 9 19 6 11 13 11 37 0 34
-15 47 -30 33 -39 -5 -3 -11 -28 -13 -56 -2 -28 -6 -61 -10 -74 -4 -18 -2 -16
8 6 8 17 20 62 26 100 7 39 17 76 22 83 14 16 1 108 -20 146 -9 17 -31 45 -48
62 -27 28 -41 33 -120 43 -148 20 -203 33 -197 47 8 20 -8 39 -18 23 -7 -11
-9 -10 -9 4 0 9 6 17 14 17 20 0 25 33 12 74 l-11 36 -827 0 -828 0 0 -205z
m1664 -1082 c-3 -21 -13 -54 -23 -73 -14 -31 -21 -35 -58 -38 -22 -2 -57 4
-77 12 -19 8 -38 11 -41 7 -2 -5 -24 -11 -47 -15 -23 -4 -47 -11 -53 -16 -16
-13 -58 26 -50 47 9 27 74 73 104 74 45 1 94 8 156 23 96 22 97 22 89 -21z
m902 -203 l3 -189 -30 -21 c-17 -13 -37 -19 -48 -15 -12 4 -21 0 -25 -11 -5
-14 -15 -15 -64 -9 -31 4 -62 11 -69 17 -18 15 -53 0 -53 -23 0 -22 -32 -39
-38 -21 -2 7 -10 12 -18 12 -9 0 -33 15 -56 32 -36 29 -39 36 -34 66 3 19 14
42 26 52 18 16 139 50 177 50 27 0 122 55 123 71 0 25 24 66 36 62 6 -2 19 6
30 18 19 22 19 22 -6 15 -14 -4 -50 -12 -80 -17 -30 -6 -63 -14 -72 -19 -10
-6 -26 -10 -36 -10 -10 0 -22 -3 -26 -7 -3 -4 -14 -9 -24 -11 -97 -22 -158 2
-138 55 6 14 9 15 15 4 7 -10 19 -7 60 13 30 15 67 26 89 26 70 -1 196 22 221
42 13 10 27 16 30 13 3 -3 6 -91 7 -195z m-778 -3094 c2 -89 -1 -121 -10 -128
-19 -11 -166 -10 -189 2 -17 10 -19 22 -19 118 0 72 4 112 12 120 9 9 42 12
108 10 l95 -3 3 -119z"/>
<path d="M1590 411 c0 -108 0 -108 24 -108 17 0 26 6 29 21 4 20 4 20 6 -1 0
-13 6 -23 12 -23 5 0 8 4 5 8 -2 4 0 14 5 22 8 12 9 11 7 -5 -3 -17 4 -20 45
-23 46 -3 48 -2 44 23 -1 14 -23 45 -47 70 -24 25 -39 45 -32 45 18 0 31 42
20 63 -7 13 -21 17 -63 17 l-55 0 0 -109z"/>
<path d="M1935 4157 c-9 -22 1 -107 15 -121 6 -6 10 -24 10 -41 0 -17 7 -40
15 -52 26 -37 49 -34 110 14 82 64 138 86 202 79 28 -3 59 -3 68 0 23 9 49 64
37 76 -7 7 -14 3 -22 -11 -6 -12 -15 -19 -21 -15 -5 3 -16 0 -24 -6 -9 -7 -15
-8 -15 -2 0 31 -120 45 -247 29 -70 -9 -109 6 -116 46 -3 20 -4 20 -12 4z"/>
</g>
</svg>
