<?xml version="1.0" standalone="no"?>
<!DOCTYPE svg PUBLIC "-//W3C//DTD SVG 20010904//EN"
 "http://www.w3.org/TR/2001/REC-SVG-20010904/DTD/svg10.dtd">
<svg version="1.0" xmlns="http://www.w3.org/2000/svg"
 width="500.000000pt" height="500.000000pt" viewBox="0 0 500.000000 500.000000"
 preserveAspectRatio="xMidYMid meet">
<metadata>
Created by potrace 1.16, written by Peter Selinger 2001-2019
</metadata>
<g transform="translate(0.000000,500.000000) scale(0.100000,-0.100000)"
fill="#000000" stroke="none">
<path d="M1785 4404 c-362 -66 -691 -315 -853 -645 -333 -683 39 -1493 775
-1686 77 -20 131 -26 253 -30 161 -6 266 7 388 44 l52 17 43 -42 c145 -142
376 -105 464 76 37 75 38 174 4 245 l-23 47 30 35 c80 91 165 242 213 380 84
243 81 559 -6 792 -150 397 -480 678 -894 763 -119 24 -324 26 -446 4z m488
-117 c178 -47 346 -140 478 -264 167 -158 281 -369 325 -600 22 -120 15 -345
-15 -456 -85 -318 -289 -572 -576 -715 -170 -85 -332 -118 -534 -109 -165 7
-291 39 -436 112 -290 144 -486 390 -577 725 -28 102 -31 370 -6 475 56 229
150 398 305 552 153 151 328 244 553 294 126 28 348 21 483 -14z"/>
<path d="M1328 3965 c-137 -113 -271 -321 -317 -495 -141 -525 148 -1052 664
-1213 274 -85 574 -46 822 109 40 25 73 47 73 50 0 2 -23 -7 -50 -21 -307
-156 -691 -132 -986 60 -517 336 -601 1056 -177 1513 27 28 47 52 44 52 -3 0
-36 -25 -73 -55z"/>
<path d="M2963 2069 c-12 -4 -61 -36 -108 -71 -86 -62 -102 -85 -93 -131 4
-21 903 -1443 937 -1481 51 -58 170 -75 252 -37 63 30 149 108 170 155 22 49
24 124 5 169 -7 18 -94 134 -192 259 -677 854 -808 1020 -851 1072 -49 61 -82
79 -120 65z m782 -1024 c169 -209 311 -391 317 -405 13 -32 -3 -96 -37 -150
-14 -22 -26 -40 -28 -40 -1 0 -2 21 -3 48 0 26 -9 72 -20 102 -20 58 -203 337
-438 670 -76 107 -129 186 -118 175 11 -11 158 -191 327 -400z"/>
</g>
</svg>
