<?xml version="1.0" standalone="no"?>
<!DOCTYPE svg PUBLIC "-//W3C//DTD SVG 20010904//EN"
 "http://www.w3.org/TR/2001/REC-SVG-20010904/DTD/svg10.dtd">
<svg version="1.0" xmlns="http://www.w3.org/2000/svg"
 width="500.000000pt" height="500.000000pt" viewBox="0 0 500.000000 500.000000"
 preserveAspectRatio="xMidYMid meet">
<metadata>
Created by potrace 1.16, written by Peter Selinger 2001-2019
</metadata>
<g transform="translate(0.000000,500.000000) scale(0.100000,-0.100000)"
fill="#000000" stroke="none">
<path d="M230 4261 c-87 -27 -165 -95 -203 -180 -33 -70 -30 -189 5 -256 34
-64 100 -128 160 -155 46 -20 49 -20 2307 -20 l2261 -1 49 22 c68 29 142 109
170 184 54 143 -13 309 -153 383 l-51 27 -2260 2 c-1243 1 -2271 -2 -2285 -6z"/>
<path d="M230 2801 c-84 -26 -160 -91 -201 -171 -33 -64 -33 -185 -1 -255 29
-63 83 -119 147 -153 l50 -27 2275 0 2275 0 50 27 c111 59 170 155 170 278 0
123 -59 219 -170 278 l-50 27 -2260 2 c-1243 1 -2271 -2 -2285 -6z"/>
<path d="M560 1350 c-396 -6 -385 -3 -477 -103 -138 -152 -94 -387 91 -485
l51 -27 2275 0 2275 0 51 27 c60 32 118 94 147 157 33 71 30 189 -5 257 -35
67 -91 122 -153 150 l-50 23 -1930 3 c-1062 2 -2085 1 -2275 -2z"/>
</g>
</svg>
