<?xml version="1.0" standalone="no"?>
<!DOCTYPE svg PUBLIC "-//W3C//DTD SVG 20010904//EN"
 "http://www.w3.org/TR/2001/REC-SVG-20010904/DTD/svg10.dtd">
<svg version="1.0" xmlns="http://www.w3.org/2000/svg"
 width="350.000000pt" height="523.000000pt" viewBox="0 0 350.000000 523.000000"
 preserveAspectRatio="xMidYMid meet">
<metadata>
Created by potrace 1.16, written by Peter Selinger 2001-2019
</metadata>
<g transform="translate(0.000000,523.000000) scale(0.100000,-0.100000)"
fill="#000000" stroke="none">
<path d="M0 4724 c0 -471 1 -508 18 -520 16 -12 16 -13 0 -14 -16 0 -17 -23
-16 -280 1 -252 3 -280 17 -275 12 4 12 2 -2 -9 -15 -12 -17 -28 -15 -105 1
-71 5 -95 17 -102 14 -9 14 -10 -1 -5 -17 5 -18 -6 -18 -143 0 -143 1 -149 22
-164 22 -14 22 -15 3 -14 -16 2 -21 -5 -23 -35 -3 -33 0 -38 22 -44 14 -3 26
-10 26 -15 0 -6 -8 -5 -19 1 -11 5 -22 10 -26 10 -3 0 -5 -297 -5 -659 1 -503
4 -661 13 -665 9 -3 9 -5 0 -5 -10 -1 -13 -184 -13 -841 l0 -840 655 0 c514 0
654 3 649 13 -6 9 -4 9 8 0 12 -10 251 -13 1101 -13 l1087 0 0 837 c0 769 -2
838 -17 855 -16 18 -16 18 0 12 15 -6 17 33 16 529 0 409 -3 537 -12 541 -9 3
-9 5 0 5 8 1 12 43 12 142 1 127 0 141 -14 129 -13 -11 -14 -10 -9 4 3 9 10
16 15 16 15 0 10 488 -4 494 -9 3 -8 5 0 5 10 1 13 174 12 831 l0 829 -56 -2
c-44 -2 -59 -8 -74 -26 -21 -25 -25 -21 -9 10 9 16 7 19 -14 19 -15 0 -26 -7
-29 -17 -4 -16 -5 -16 -6 -1 -1 15 -15 17 -126 15 -79 -1 -125 -5 -125 -12 0
-5 -4 -4 -9 4 -12 19 -36 0 -45 -34 -4 -14 -11 -25 -16 -25 -5 0 -1 15 10 34
l19 35 -159 0 -159 0 -4 -52 -3 -52 -2 51 -2 50 -55 2 -55 1 0 -50 0 -50 -33
3 c-19 1 -34 7 -34 14 0 9 5 10 18 3 32 -17 39 -10 39 36 l0 45 -64 0 -63 0
-11 -42 -11 -43 2 40 2 40 -230 2 c-170 2 -231 -1 -237 -10 -6 -9 -8 -9 -8 1
0 21 -18 13 -23 -10 l-4 -23 -2 23 c-1 21 -5 22 -71 22 l-70 0 5 -27 5 -28
-12 28 c-9 21 -18 27 -44 27 -23 0 -34 -5 -37 -17 -4 -17 -5 -17 -6 0 -2 25
-19 21 -24 -5 l-4 -23 -2 23 c-1 18 -7 22 -31 22 -17 0 -30 -5 -30 -12 0 -9
-3 -9 -8 -3 -4 6 -22 12 -39 13 -26 2 -33 -2 -34 -15 0 -16 -2 -15 -9 2 -7 17
-9 17 -9 3 -1 -10 -5 -18 -11 -18 -5 0 -9 6 -7 13 3 17 -80 22 -101 5 -9 -7
-13 -8 -9 -2 5 8 -17 11 -73 11 -44 0 -80 -2 -80 -4 0 -2 7 -20 15 -40 8 -20
13 -38 11 -40 -2 -2 -11 15 -21 40 l-16 43 -106 2 -106 2 7 -50 c6 -44 4 -50
-11 -50 -12 0 -14 3 -6 8 16 10 5 92 -13 92 -7 0 -15 -8 -17 -17 -4 -15 -5
-15 -6 -2 -1 13 -18 16 -105 18 l-105 2 -4 -33 -4 -33 -1 33 c-2 27 -6 32 -27
32 -24 0 -25 -3 -20 -42 l4 -43 -11 43 -11 42 -60 0 c-45 0 -63 -4 -73 -17
-13 -17 -14 -17 -8 0 5 14 0 17 -39 17 -27 0 -47 -5 -50 -12 -4 -10 -6 -10 -6
0 -1 6 -10 12 -22 12 -16 0 -19 -5 -15 -22 l6 -23 -11 22 c-11 21 -17 22 -200
23 l-188 0 -1 -506z m154 334 c16 -106 98 -515 106 -533 5 -12 9 94 9 278 l1
297 30 0 30 0 0 -392 0 -392 -28 27 c-16 15 -32 24 -37 20 -4 -5 -5 -3 -2 4 4
6 -4 25 -18 42 -25 29 -38 84 -85 360 -5 29 -12 56 -15 59 -3 3 -5 -139 -5
-316 l0 -322 -30 0 -30 0 0 455 0 455 34 0 c32 0 34 -2 40 -42z m324 -155 l2
-193 44 0 c45 0 57 -11 52 -46 -2 -15 -13 -20 -49 -22 l-47 -3 0 -189 0 -189
48 -3 c45 -3 47 -4 50 -35 l3 -33 -85 0 -86 0 0 456 0 455 33 -3 32 -3 3 -192z
m221 32 c19 -80 21 -121 21 -382 l0 -293 45 0 45 0 0 420 0 420 35 0 35 0 0
-427 0 -427 -27 -28 c-24 -25 -34 -28 -92 -28 -53 0 -69 4 -88 22 l-23 21 1
436 c1 473 0 472 48 266z m458 143 c22 -21 23 -27 23 -190 0 -137 -3 -173 -16
-193 -15 -22 -14 -26 3 -52 16 -25 18 -48 15 -240 l-2 -213 -35 0 -35 0 0 218
c0 214 -1 217 -19 193 l-19 -25 -13 42 c-12 41 -11 44 19 86 l32 44 0 141 0
141 -40 0 -40 0 -1 -157 c-1 -154 -1 -157 -15 -108 -8 28 -18 64 -23 80 -5 17
-13 81 -16 143 l-7 112 83 0 c71 0 86 -3 106 -22z m307 -29 c9 -28 18 -110 22
-183 6 -112 3 -145 -15 -232 -47 -222 -49 -219 -50 104 l-1 292 -40 0 -40 0 0
-385 c0 -336 2 -385 15 -385 16 0 18 -12 9 -47 -9 -32 -44 -29 -77 5 l-26 28
0 401 c1 391 1 402 22 427 19 24 27 26 93 26 l73 0 15 -51z m204 9 c5 -24 22
-113 38 -198 15 -85 30 -159 34 -163 4 -4 15 34 24 85 10 51 25 131 34 178
l16 85 7 -45 c15 -90 9 -184 -22 -338 -38 -195 -36 -191 -56 -188 -21 3 -23
11 -70 246 l-38 195 -3 -362 -2 -363 -30 0 -30 0 0 455 0 455 44 0 c43 0 44
-1 54 -42z m242 -414 l0 -455 -27 3 -26 3 0 360 c1 198 -2 377 -7 399 -5 21
-6 62 -3 92 6 51 7 54 34 54 l29 0 0 -456z m264 404 c3 -29 11 -111 16 -183 6
-71 17 -199 24 -284 l13 -153 -26 -59 c-14 -33 -28 -59 -31 -59 -4 0 -12 71
-18 158 -16 207 -34 393 -38 390 -1 -2 -7 -59 -13 -128 -6 -69 -18 -199 -26
-290 -8 -91 -16 -183 -18 -205 -2 -37 -4 -40 -34 -43 l-33 -3 0 52 c0 28 7
122 15 208 25 266 55 609 55 631 0 18 6 20 54 20 l55 0 5 -52z m215 15 c28
-107 23 -160 -30 -308 -6 -16 -14 -45 -19 -63 -5 -19 -11 -36 -14 -39 -3 -4
-6 96 -6 220 l0 227 30 0 c25 0 30 -5 39 -37z m171 -418 l0 -455 -29 0 -29 0
-27 148 c-14 81 -33 176 -40 212 -24 116 -27 172 -12 215 l14 40 12 -55 c6
-30 19 -98 30 -150 l19 -95 1 298 1 297 30 0 30 0 0 -455z m280 440 c9 -11 7
-21 -11 -46 -13 -18 -25 -27 -27 -21 -2 7 -21 12 -43 12 l-39 0 0 -384 0 -385
37 -3 36 -3 -27 -32 c-34 -41 -64 -42 -99 -5 l-27 28 0 400 0 401 23 26 c20
23 29 26 93 26 51 1 75 -3 84 -14z m230 3 c0 -33 -14 -58 -29 -56 -14 3 -16
-16 -19 -159 l-2 -163 51 0 c28 0 49 -3 47 -7 -29 -61 -32 -63 -65 -63 l-33 0
0 -109 c0 -102 -2 -111 -22 -125 -49 -34 -48 -40 -48 339 l0 355 60 0 c41 0
60 -4 60 -12z m327 -10 c22 -21 23 -27 23 -186 0 -147 -2 -167 -20 -192 -20
-28 -20 -28 0 -53 19 -23 20 -41 20 -241 l0 -216 -35 0 -35 0 -2 217 -3 217
-37 -52 -38 -52 0 -165 0 -165 -35 0 c-40 0 -37 -21 -38 220 -1 133 1 150 25
210 45 114 41 109 47 67 l6 -38 38 50 37 50 0 141 0 140 -40 0 -40 0 0 -106
c0 -92 -4 -117 -31 -192 -16 -48 -33 -90 -38 -95 -5 -5 -7 365 -2 451 1 8 25
12 88 12 75 0 90 -3 110 -22z m-2370 -447 c20 -59 23 -78 14 -98 -7 -14 -11
-88 -11 -183 0 -153 -1 -160 -20 -160 -11 0 -26 12 -35 30 -13 24 -15 81 -14
352 l0 323 20 -95 c11 -52 32 -128 46 -169z m1353 -216 l0 -225 -30 0 -30 0 0
157 c0 148 2 161 28 225 15 37 28 68 30 68 1 0 2 -101 2 -225z m-350 -432 c0
-20 -13 -52 -19 -49 -3 2 -6 -11 -6 -29 0 -18 4 -31 9 -27 5 3 7 -1 4 -9 -4
-10 5 -15 33 -17 36 -2 40 0 53 30 23 52 29 72 27 82 -1 5 5 4 13 -4 18 -14
22 -75 6 -85 -6 -4 -7 -11 -4 -17 5 -7 2 -8 -6 -3 -9 5 -10 2 -5 -14 5 -17 1
-23 -20 -31 -34 -13 -38 -13 -29 3 6 10 4 10 -7 0 -15 -15 -43 -18 -35 -4 4 5
-2 7 -11 5 -31 -8 -55 19 -60 71 -4 34 -3 46 5 41 8 -5 10 -1 6 9 -4 9 2 25
11 35 18 20 35 26 35 13z m-295 -272 c-3 -6 -14 -8 -25 -6 -12 2 -18 0 -15 -6
4 -5 11 -7 16 -4 5 4 9 1 9 -5 0 -6 -7 -13 -17 -17 -14 -6 -14 -7 3 -15 75
-34 72 -37 -42 -36 -60 0 -104 2 -97 4 9 4 9 11 1 30 -6 13 -15 24 -20 24 -4
0 -8 6 -8 14 0 16 32 21 138 24 37 1 61 -2 57 -7z m1369 -13 c-4 -7 -2 -8 5
-4 6 4 14 0 17 -8 3 -9 11 -16 18 -16 16 0 37 -37 30 -55 -7 -17 -16 -19 -29
-6 -6 6 -15 4 -22 -4 -8 -9 -9 -16 -3 -20 6 -3 10 -2 10 4 0 6 7 8 15 5 19 -8
19 -25 0 -50 -15 -19 -15 -19 -9 1 4 15 4 17 -4 6 -6 -8 -8 -21 -5 -28 6 -16
-16 -63 -29 -63 -4 0 -8 6 -8 14 0 7 -13 19 -30 26 -26 11 -28 14 -14 28 11
11 12 17 4 22 -9 5 -8 15 4 38 9 17 16 41 16 53 0 18 2 19 15 9 13 -11 14 -10
9 4 -5 12 -2 15 10 10 8 -3 14 -11 13 -17 -1 -7 6 -11 16 -9 9 2 17 -3 17 -9
0 -7 3 -9 7 -6 10 11 -40 54 -59 51 -19 -2 -22 5 -12 30 3 9 10 13 15 10 5 -3
6 -10 3 -16z m-1814 -135 c0 -10 -17 -13 -67 -13 -129 0 -438 -10 -475 -16
-43 -7 -50 6 -14 25 18 10 29 10 45 2 16 -9 26 -9 42 0 12 6 30 9 40 6 10 -3
19 -2 19 1 0 4 92 7 205 8 166 1 205 -2 205 -13z m291 -17 c4 -5 13 -5 20 0
21 12 59 11 71 -3 12 -15 144 -18 153 -3 3 5 23 9 43 8 20 -1 80 2 133 5 88 6
98 4 114 -13 18 -20 17 -21 -6 -47 l-24 -27 34 27 c24 20 37 25 46 17 10 -8
13 -5 11 13 0 14 -6 23 -12 20 -7 -2 -14 0 -18 5 -3 5 90 9 219 10 155 1 225
-2 225 -10 0 -7 4 -7 13 -1 6 5 68 10 136 11 l124 1 -21 -22 c-16 -17 -19 -26
-11 -34 6 -6 8 -16 5 -22 -9 -14 -49 -14 -63 0 -8 8 -17 8 -31 0 -28 -15 -59
-14 -65 2 -3 10 -9 10 -26 0 -26 -16 -95 -17 -124 -2 -16 9 -22 9 -25 0 -5
-14 -122 -15 -122 -1 0 6 -11 10 -25 10 -15 0 -25 -6 -25 -15 0 -21 -106 -11
-132 11 -10 10 -18 14 -18 9 0 -4 -7 -2 -15 5 -23 19 -18 -1 6 -27 21 -22 21
-23 3 -29 -10 -4 -28 -17 -39 -30 -21 -24 -61 -34 -83 -20 -7 4 -16 5 -19 2
-4 -3 -1 -6 6 -6 7 0 10 -4 6 -10 -3 -5 -12 -7 -20 -4 -8 4 -12 11 -8 18 4 6
-2 4 -12 -4 -18 -14 -18 -15 3 -18 14 -2 20 -8 15 -15 -3 -7 3 -3 15 7 19 17
22 17 22 3 0 -10 -3 -18 -7 -18 -52 -8 -64 -6 -73 10 -10 20 -50 35 -50 20 0
-5 8 -9 18 -9 10 0 19 -7 19 -15 0 -11 -4 -12 -10 -6 -6 6 -15 7 -21 2 -6 -5
-98 -11 -204 -14 -175 -5 -198 -4 -238 13 -24 11 -44 22 -44 24 0 3 7 3 15 0
18 -7 20 7 3 24 -9 9 -3 12 29 10 30 -1 40 -5 36 -15 -6 -14 -29 -18 -36 -5
-2 4 -2 2 -1 -5 2 -6 -2 -14 -9 -17 -7 -2 4 -3 23 0 28 3 31 2 15 -5 -17 -8
-14 -10 15 -9 19 1 44 -2 54 -7 14 -6 17 -5 12 3 -4 7 -2 12 3 12 6 0 11 -6
11 -12 0 -10 3 -9 9 1 7 10 13 11 31 1 20 -11 25 -10 36 5 8 10 11 22 8 26 -8
13 -32 11 -41 -3 -14 -22 -43 -18 -40 4 1 14 -5 22 -18 24 -19 3 -19 2 -2 -11
11 -7 14 -16 8 -19 -5 -4 -12 -2 -16 4 -3 5 -11 10 -18 10 -6 0 -2 -7 9 -15
23 -17 14 -19 -21 -3 -14 6 -25 15 -25 20 0 5 4 7 9 3 5 -3 13 0 17 6 4 7 3 9
-3 6 -6 -4 -13 -1 -16 7 -3 8 2 13 16 13 116 1 118 2 105 23 -7 11 -14 16 -16
10 -5 -13 -95 -13 -109 1 -8 8 -17 7 -32 -3 -18 -11 -25 -10 -43 1 -43 27
-150 9 -132 -21 3 -4 0 -8 -5 -8 -23 0 -6 30 59 102 21 23 176 35 191 14z
m-868 -107 c65 -4 194 4 204 13 19 15 228 23 237 9 4 -6 34 -11 70 -11 52 0
66 -4 82 -22 10 -12 13 -18 5 -13 -9 5 -12 4 -8 -3 4 -5 17 -8 30 -5 18 4 20
3 7 -7 -13 -10 -12 -11 3 -6 21 7 120 -40 112 -53 -2 -5 2 -14 10 -21 12 -10
18 -10 29 -1 10 8 16 9 21 1 3 -5 35 -10 70 -10 39 0 65 -4 67 -12 3 -8 11 -6
29 5 18 12 51 15 142 15 64 0 117 -4 117 -9 0 -13 74 -11 88 3 8 8 15 8 29 -2
15 -12 16 -12 6 0 -10 11 -8 17 9 32 24 20 43 24 32 6 -4 -7 -3 -8 5 -4 6 4 9
11 6 15 -2 5 7 19 20 31 14 13 25 21 25 17 0 -3 11 5 25 18 13 14 30 25 37 24
8 0 9 -2 2 -5 -6 -2 -8 -19 -6 -36 4 -27 2 -30 -14 -24 -17 7 -17 6 1 -14 14
-15 15 -20 4 -20 -11 0 -11 -2 -1 -9 10 -6 10 -10 -2 -20 -8 -7 -21 -9 -27 -5
-7 4 -9 3 -6 -3 4 -6 0 -16 -8 -23 -12 -10 -18 -10 -32 1 -14 12 -16 12 -8 0
6 -11 4 -13 -9 -8 -11 4 -15 3 -11 -4 4 -6 14 -8 24 -4 9 3 3 -6 -13 -20 -36
-31 -56 -33 -30 -3 10 12 0 7 -23 -12 -24 -18 -41 -36 -38 -38 6 -6 -89 -72
-103 -72 -5 0 -23 -13 -40 -29 -16 -16 -34 -26 -38 -23 -4 4 -4 1 0 -5 4 -7 7
-98 6 -201 0 -176 1 -190 20 -207 11 -10 17 -22 13 -28 -3 -5 -1 -7 4 -4 6 4
22 -10 35 -31 14 -20 44 -57 68 -81 24 -24 37 -41 31 -37 -19 12 -61 14 -61 4
0 -15 -21 3 -30 26 -11 30 -1 40 21 20 10 -9 19 -13 19 -7 0 15 -36 44 -44 36
-4 -5 -7 -3 -6 2 6 27 0 37 -14 26 -10 -8 -16 -9 -21 -1 -3 6 -10 8 -14 6 -4
-3 -6 8 -5 25 1 16 -3 32 -9 36 -7 3 -9 3 -5 -1 10 -11 -31 -48 -45 -41 -7 4
-3 -1 7 -9 11 -9 24 -16 29 -16 5 0 4 -7 -3 -15 -7 -8 -17 -12 -23 -8 -5 3 -7
1 -4 -4 17 -27 -108 -33 -128 -6 -16 21 -35 9 -35 -23 0 -25 -14 -32 -25 -14
-4 7 -11 7 -18 2 -7 -5 -23 -12 -35 -15 -22 -5 -23 -4 -8 12 9 10 16 23 16 29
0 7 7 12 15 12 9 0 15 9 15 25 0 14 -7 28 -15 31 -9 4 -15 19 -15 36 0 24 3
29 17 24 10 -4 14 -4 10 0 -4 4 7 13 25 18 l33 11 1 202 c1 182 0 201 -15 195
-14 -5 -14 -4 -2 11 21 26 24 74 4 81 -13 5 -14 4 -3 -9 10 -13 9 -15 -9 -15
-12 0 -19 -4 -16 -10 3 -6 -1 -13 -9 -16 -9 -3 -13 -10 -10 -15 8 -14 24 -10
24 6 0 8 5 15 10 15 14 0 13 -13 -2 -28 -18 -18 -36 -14 -43 9 -6 17 -9 18
-16 8 -6 -11 -9 -10 -15 4 -3 9 -13 17 -20 17 -12 0 -12 5 1 30 18 35 29 39
20 8 -5 -18 -4 -20 4 -8 6 8 8 23 5 34 -4 10 -2 16 3 13 5 -3 15 -1 23 5 12 8
11 9 -4 4 -13 -4 -17 -2 -13 7 3 9 -2 13 -16 12 -11 -1 -23 -8 -25 -16 -3 -11
-1 -11 7 1 17 25 13 -7 -6 -43 -9 -19 -18 -27 -21 -19 -3 10 -7 10 -20 0 -13
-11 -15 -10 -9 4 4 12 2 15 -9 11 -17 -6 -19 8 -2 25 7 7 8 12 2 12 -6 0 -15
-10 -21 -22 l-10 -22 -28 29 c-16 17 -24 23 -20 15 7 -13 6 -13 -7 -2 -9 7
-19 23 -22 36 -4 15 -15 25 -31 28 -13 3 -22 1 -19 -3 9 -16 -34 -9 -50 7 -9
8 -16 13 -16 9 0 -3 -5 -3 -10 0 -8 5 -7 11 1 21 6 8 8 14 4 14 -5 0 0 10 11
23 l19 22 -23 -19 c-17 -15 -25 -17 -34 -8 -7 7 -19 12 -27 12 -9 0 -1 -8 17
-17 24 -12 30 -19 22 -27 -8 -8 -15 -6 -24 6 -7 10 -15 16 -17 13 -3 -2 -23 7
-44 21 -27 17 -33 24 -17 21 12 -3 22 0 22 5 0 7 5 6 13 -1 8 -6 17 -8 21 -4
3 4 23 8 44 9 53 3 54 3 47 14 -3 6 -17 8 -31 6 -24 -5 -169 -9 -189 -6 -26 4
-450 -2 -457 -6 -4 -3 -8 -3 -8 1 0 3 12 10 28 16 26 10 26 11 8 24 -16 12
-17 17 -6 29 9 12 17 13 31 5 15 -8 19 -6 21 8 1 10 3 1 5 -19 3 -31 8 -38 26
-39z m1753 -44 c-7 -18 15 -20 33 -2 11 10 13 10 7 0 -5 -9 0 -13 13 -13 11 0
19 6 17 13 -1 6 -1 9 1 4 3 -4 8 -5 12 -3 4 3 8 -2 8 -10 0 -10 -11 -15 -36
-14 -67 0 -69 -1 -61 -32 5 -15 6 -29 2 -29 -4 -1 7 -4 23 -8 26 -5 30 -11 29
-38 -1 -23 2 -30 13 -26 7 3 23 -3 33 -12 11 -10 23 -15 27 -12 3 4 2 7 -4 7
-6 0 -9 8 -6 19 3 11 -2 21 -11 24 -11 4 -13 1 -9 -11 6 -15 5 -15 -11 -3 -16
14 -16 15 0 24 16 9 118 5 204 -7 21 -4 30 -2 21 3 -9 6 -10 11 -2 15 6 4 11
2 11 -5 0 -9 3 -9 14 0 11 9 16 9 22 0 8 -13 -38 -59 -59 -59 -7 1 -1 7 13 14
l25 14 -25 -1 c-14 0 -33 3 -42 7 -11 5 -18 4 -18 -3 0 -6 8 -11 17 -11 16 0
10 -14 -8 -16 -5 -1 -12 -2 -16 -3 -3 0 3 -11 14 -23 12 -13 24 -43 28 -67 6
-39 5 -43 -10 -37 -10 3 -23 2 -30 -4 -10 -8 -15 -5 -21 12 -11 33 -11 40 3
68 8 16 9 26 3 28 -6 2 -8 8 -4 13 11 18 -43 8 -61 -11 -10 -11 -24 -19 -31
-18 -7 2 -13 -1 -14 -7 -1 -5 -7 -17 -13 -25 -7 -8 8 1 33 21 44 35 70 40 70
15 0 -13 -35 -48 -77 -77 -13 -9 -48 -38 -79 -65 -32 -27 -71 -61 -88 -75
l-30 -27 34 -51 c25 -36 42 -51 58 -51 15 0 21 -4 16 -11 -5 -8 1 -10 18 -6
30 8 52 -12 41 -38 -4 -13 -3 -16 5 -11 8 4 12 0 12 -11 0 -15 2 -16 10 -3 8
13 10 12 10 -2 0 -20 -15 -24 -25 -8 -4 6 -16 8 -28 5 -12 -2 -16 -2 -9 1 15
7 16 64 1 64 -6 0 -8 -8 -4 -19 3 -11 1 -22 -4 -26 -7 -3 -8 0 -5 9 3 9 1 16
-5 16 -6 0 -11 -6 -11 -12 -1 -7 -7 1 -15 17 -14 30 -14 30 -9 3 4 -19 2 -28
-6 -28 -13 0 -71 58 -97 98 -21 30 -36 28 -76 -10 -19 -18 -53 -49 -76 -68
-23 -19 -61 -52 -84 -74 -54 -50 -96 -76 -113 -69 -20 7 -17 23 9 52 21 24 21
25 0 8 -12 -11 -23 -14 -27 -8 -8 12 32 41 48 35 7 -3 21 6 32 18 l19 23 -22
-18 c-16 -14 -23 -15 -29 -6 -4 7 1 18 11 26 11 7 14 13 9 13 -6 0 -15 -5 -21
-11 -8 -8 -14 -6 -22 9 -6 11 -19 28 -28 38 -10 10 -18 25 -18 33 -1 9 -6 15
-12 14 -7 -2 -22 11 -34 28 l-21 30 20 19 c11 10 23 16 28 12 4 -4 4 -1 0 6
-10 17 13 15 58 -3 64 -27 106 -1 119 72 5 26 1 38 -20 60 -14 16 -24 23 -20
17 4 -7 -5 -9 -24 -6 -19 3 -28 9 -25 17 7 18 -32 26 -55 12 -11 -7 -19 -15
-19 -19 0 -12 23 -5 38 12 10 11 12 11 6 1 -5 -9 -3 -12 4 -7 7 4 12 2 12 -4
0 -6 -6 -13 -14 -16 -8 -3 -19 -18 -26 -34 -6 -15 -20 -30 -31 -33 -12 -3 -19
-14 -19 -29 0 -28 -17 -48 -35 -42 -7 3 -16 1 -20 -5 -4 -7 0 -8 10 -4 15 5
15 3 3 -16 -11 -18 -11 -23 1 -30 8 -5 10 -14 6 -21 -5 -8 -4 -11 2 -7 14 9
37 -19 28 -33 -3 -5 1 -10 9 -10 18 0 58 -54 48 -65 -4 -5 -2 -6 3 -2 6 3 17
-4 25 -16 12 -19 11 -21 -2 -9 -13 10 -18 9 -29 -5 -13 -16 -12 -17 4 -4 20
16 24 -1 3 -18 -10 -8 -11 -22 -6 -52 9 -49 -10 -49 -26 1 -7 21 -14 29 -18
21 -4 -7 -6 -17 -3 -24 2 -7 -3 -19 -11 -27 -14 -13 -15 -12 -9 3 4 11 -3 26
-20 44 -14 16 -24 21 -21 12 4 -9 2 -22 -3 -30 -5 -8 -8 70 -7 197 l1 211 76
49 c42 27 84 49 93 48 9 0 16 3 15 6 -4 15 61 59 82 55 15 -3 21 1 21 14 0 23
19 41 38 34 11 -5 13 -3 7 8 -4 8 -5 11 0 7 4 -4 16 -3 25 2 20 11 32 87 15
94 -5 2 39 5 99 5 92 1 107 -1 102 -14z m-1435 -245 c0 -33 3 -59 8 -56 4 3 6
-28 4 -68 -2 -40 1 -84 6 -97 8 -18 10 -20 10 -6 1 10 6 15 11 12 6 -4 10 36
10 114 0 111 -1 120 -17 114 -17 -6 -17 -6 -1 10 9 9 23 17 30 17 8 0 9 -3 3
-8 -6 -4 -8 -44 -4 -102 l5 -95 3 90 c1 54 8 102 17 120 10 21 13 24 10 8 -2
-12 2 -24 10 -27 10 -4 14 -25 15 -73 1 -74 15 -183 18 -143 l3 25 12 -29 c12
-26 13 -18 14 77 1 103 17 168 39 158 4 -2 14 7 20 20 l13 24 0 -22 c0 -13 4
-23 9 -23 10 0 9 -26 -2 -36 -4 -4 -7 0 -7 9 0 9 -4 17 -9 17 -4 0 -6 -11 -3
-25 2 -14 9 -22 15 -18 6 4 8 -4 3 -23 -5 -21 -4 -25 4 -14 7 11 10 -6 10 -60
0 -41 4 -81 9 -89 5 -8 8 20 8 70 0 124 2 155 11 143 5 -9 11 -8 20 2 7 8 9
14 3 14 -5 0 -12 7 -15 16 -6 14 -4 15 10 4 13 -12 17 -11 26 1 8 12 9 11 5
-2 -3 -9 -1 -21 3 -25 5 -5 10 -57 11 -116 1 -87 4 -106 15 -101 8 3 14 12 14
21 0 8 3 13 6 9 3 -3 0 -56 -7 -118 -9 -87 -9 -114 0 -117 8 -3 10 -21 5 -65
-6 -54 -5 -59 8 -46 11 10 13 16 4 21 -8 6 -8 8 1 8 18 0 21 -13 9 -35 -24
-43 -33 -24 -40 82 -9 148 -8 203 4 203 6 0 10 7 10 16 0 9 -6 14 -12 11 -14
-4 -17 -122 -9 -277 l4 -75 -26 -3 -27 -3 0 120 c0 140 -2 150 -35 143 -28 -5
-24 -22 6 -22 18 0 19 -8 19 -125 0 -69 -3 -125 -7 -125 -5 0 -7 53 -6 117 1
81 -1 105 -6 78 -17 -81 -19 -125 -8 -118 7 4 8 0 4 -11 -4 -10 -8 -30 -8 -44
-1 -27 -1 -27 -9 3 -6 24 -8 26 -9 8 -1 -17 -7 -23 -25 -23 -31 0 -34 11 -30
93 2 39 0 66 -5 63 -12 -8 -21 18 -21 57 0 35 -16 27 -23 -13 -3 -16 -4 -11
-4 13 1 28 5 37 18 37 13 0 19 -10 22 -37 3 -35 4 -34 5 10 2 46 1 47 -27 47
l-29 0 -1 -127 c-1 -69 -4 -129 -6 -133 -3 -4 -14 -10 -25 -13 -11 -3 -18 -1
-14 4 3 5 1 9 -5 9 -7 0 -11 50 -13 133 l-3 132 -29 0 c-16 -1 -31 -6 -34 -13
-2 -7 2 -12 10 -12 10 0 12 -18 8 -82 l-4 -83 -6 65 c-6 57 -7 52 -8 -46 l-2
-111 -25 5 c-14 2 -25 11 -25 21 -1 15 -1 15 -10 -1 -6 -9 -7 -24 -3 -33 5
-14 15 -17 57 -12 28 2 43 2 33 0 -9 -2 -15 -8 -12 -13 3 -4 13 -6 23 -4 15 5
17 18 12 155 -3 82 -2 149 3 149 4 0 7 -60 7 -132 0 -73 3 -143 6 -155 5 -19
2 -23 -16 -23 -20 0 -21 -1 -4 -17 17 -17 17 -18 -6 -21 -14 -2 -26 1 -28 7
-2 6 -10 11 -18 11 -8 0 -14 5 -14 10 0 15 16 12 30 -5 7 -8 18 -15 24 -15 18
1 -35 40 -54 40 -13 0 -17 -5 -13 -20 3 -12 0 -20 -8 -20 -7 0 -10 -3 -7 -6 4
-3 -2 -14 -11 -23 -12 -12 -17 -30 -15 -56 4 -44 -11 -37 -25 13 -8 25 -7 30
5 25 8 -3 14 -1 14 5 0 10 -25 23 -38 19 -4 -1 -6 -8 -4 -14 2 -7 -1 -13 -6
-13 -5 0 -9 7 -10 15 -1 8 -3 22 -4 30 -1 9 -11 15 -25 15 -20 0 -23 5 -23 40
0 22 4 40 9 40 6 0 8 -9 6 -20 -2 -11 1 -20 7 -20 5 0 8 7 5 15 -4 8 -2 17 3
20 6 4 10 -1 10 -9 0 -8 4 -18 10 -21 6 -4 7 1 3 10 -4 12 -1 16 13 15 44 -5
45 -3 41 73 -2 39 -9 83 -14 97 -8 19 -7 27 3 33 8 4 14 13 14 18 0 6 -5 7
-11 3 -9 -5 -10 3 -5 30 4 20 3 36 -2 36 -5 0 -5 25 -1 57 5 34 4 64 -2 75 -8
14 -5 26 10 47 18 25 19 30 6 41 -8 6 -18 9 -22 7 -5 -3 -17 1 -28 9 -16 12
-17 14 -2 14 9 0 17 -4 17 -10 0 -5 7 -7 15 -4 8 4 15 18 15 33 0 35 14 55 34
48 9 -4 16 -1 16 5 0 6 6 5 16 -3 15 -12 16 -11 9 11 -6 20 -5 22 5 13 7 -6
12 -36 11 -73z m1636 -22 c1 -42 20 -63 40 -46 8 6 16 8 19 5 8 -8 -6 -28 -15
-23 -4 3 -8 -1 -8 -9 0 -20 2 -19 27 8 20 21 22 21 34 5 7 -10 18 -18 25 -18
6 0 11 -5 11 -10 0 -7 6 -7 20 0 16 9 18 8 14 -5 -3 -8 -10 -12 -15 -9 -5 3
-9 -3 -9 -13 0 -14 -2 -15 -9 -5 -7 11 -9 11 -14 -2 -4 -9 -1 -15 5 -13 7 1
11 -20 11 -63 -1 -96 -1 -98 -12 -81 -6 9 -5 23 1 35 10 20 10 20 -7 6 -17
-14 -18 -13 -13 2 6 14 1 15 -34 12 -26 -4 -38 -2 -33 5 3 6 0 9 -8 5 -8 -3
-20 2 -27 11 -7 8 -20 15 -30 15 -10 0 -23 7 -30 15 -15 18 1 20 19 3 11 -11
12 -9 2 9 -8 17 -8 22 5 27 8 3 12 2 9 -4 -3 -6 -1 -10 4 -10 6 0 11 9 11 20
0 11 5 20 10 20 23 0 21 31 -4 61 -21 24 -24 34 -15 45 14 17 16 17 16 2z
m777 -298 c5 -5 6 -13 2 -17 -4 -4 -10 -3 -14 2 -7 10 -16 13 -61 23 -21 4
-22 3 -11 -17 9 -18 14 -20 26 -10 9 8 14 8 14 1 0 -6 6 -9 13 -6 7 2 21 -2
32 -10 19 -14 18 -15 -9 -10 -16 3 -34 8 -39 11 -6 4 -8 -1 -4 -11 4 -10 7
-21 7 -26 0 -4 13 -12 28 -18 l28 -10 -7 -68 c-5 -38 -8 -113 -8 -166 -1 -102
-12 -124 -30 -60 l-11 37 5 -35 c3 -19 14 -43 26 -52 11 -10 19 -25 17 -35 -3
-15 -6 -15 -24 5 -21 22 -22 22 -26 4 -3 -11 -1 -26 4 -33 8 -11 8 -10 4 4 -3
10 -2 15 3 12 12 -7 10 -45 -1 -45 -5 0 -11 7 -15 16 -5 14 -8 12 -19 -7 -7
-13 -10 -28 -6 -34 3 -5 -2 -4 -11 4 -17 14 -24 37 -8 27 5 -4 7 3 4 14 -3 13
-1 20 6 18 8 -2 12 38 15 130 4 133 14 169 42 158 7 -3 16 -1 19 5 4 5 3 9 -2
8 -27 -5 -48 23 -44 59 1 6 -3 20 -9 30 -10 14 -11 13 -6 -8 5 -23 4 -24 -9
-7 -9 13 -11 27 -5 48 5 17 5 29 -1 29 -5 0 -9 7 -9 16 0 8 -4 12 -10 9 -12
-7 -14 18 -2 29 9 10 93 -1 106 -14z m-1180 -35 c-7 -18 7 -20 24 -3 9 9 13 7
18 -7 4 -10 19 -30 34 -44 34 -33 35 -59 3 -55 -18 2 -22 -1 -14 -10 6 -7 7
-17 3 -22 -4 -4 1 -2 11 5 14 11 20 11 32 1 17 -14 20 -46 6 -55 -6 -3 -6 -18
0 -38 10 -37 12 -63 3 -54 -4 3 -15 -5 -26 -18 -11 -14 -28 -25 -38 -25 -10 0
-20 -5 -22 -11 -2 -7 -10 -3 -18 7 -8 11 -10 16 -5 11 9 -7 45 20 45 35 0 4
-7 8 -15 8 -8 0 -15 8 -16 18 0 14 -2 14 -9 -3 -7 -16 -9 -13 -9 18 -1 29 -5
37 -19 37 -24 0 -42 -19 -35 -36 3 -8 -1 -14 -11 -14 -9 0 -16 -8 -15 -17 0
-11 3 -13 6 -5 13 33 23 4 23 -68 l0 -80 -27 -1 c-16 0 -43 -2 -62 -5 -33 -4
-61 9 -61 28 0 6 7 5 15 -2 12 -10 16 -9 21 4 4 11 14 15 28 11 11 -2 15 -2 9
1 -7 3 -13 10 -13 15 0 6 5 7 10 4 6 -3 10 -1 10 4 0 6 -10 11 -22 12 -54 3
-61 5 -66 18 -3 10 0 12 12 8 11 -4 19 -1 23 10 4 9 2 18 -4 20 -6 2 -9 12 -6
22 3 11 0 28 -6 40 -10 17 -9 21 4 21 9 0 13 -4 10 -10 -3 -6 1 -7 10 -4 20 8
16 49 -5 49 -8 0 -20 4 -27 8 -6 4 -13 2 -15 -4 -4 -11 -38 -2 -38 11 0 5 8 9
18 9 51 0 119 32 107 51 -3 4 6 15 20 24 14 9 25 13 25 8 0 -5 -10 -14 -22
-20 -16 -7 -18 -11 -7 -11 18 -1 49 30 53 52 1 12 45 66 53 67 1 0 0 -7 -3
-15z m-707 -207 c0 -36 -6 -61 -19 -77 -10 -13 -18 -31 -18 -40 0 -14 2 -14
11 -1 7 12 9 8 7 -14 -3 -31 -41 -65 -53 -46 -3 6 -3 10 2 9 14 -3 43 13 43
23 0 6 -7 5 -15 -2 -9 -7 -18 -10 -22 -6 -3 3 -14 -1 -24 -10 -10 -9 -24 -14
-31 -11 -9 4 -7 6 4 6 20 1 38 30 38 60 0 16 -6 21 -25 21 -14 0 -25 4 -25 10
0 5 -14 7 -30 5 -17 -2 -28 0 -24 6 3 5 10 6 16 3 7 -4 8 -2 4 5 -8 13 -47 5
-57 -12 -4 -5 -12 0 -19 13 l-12 22 -22 -21 c-19 -18 -56 -29 -56 -17 0 2 -3
13 -6 23 -6 16 -5 16 8 -1 15 -19 16 -19 43 -2 22 14 25 20 14 27 -9 6 -10 9
-2 9 6 0 15 -4 18 -10 3 -5 11 -10 16 -10 6 0 7 5 4 10 -3 6 -1 10 6 10 6 0 9
-8 6 -19 -4 -15 -1 -18 12 -13 9 3 19 10 23 16 5 8 11 7 19 -1 13 -13 39 -7
39 9 0 6 -6 8 -14 5 -9 -4 -13 0 -12 11 2 9 12 18 24 18 12 1 19 -3 15 -9 -3
-5 0 -8 8 -5 7 2 16 15 20 29 5 20 7 21 14 7 7 -18 -14 -48 -35 -48 -6 0 -8
-4 -5 -10 3 -5 2 -10 -4 -10 -11 0 -9 -26 4 -37 4 -4 6 -3 2 2 -3 6 2 19 10
30 15 19 15 19 9 -7 -4 -17 -2 -28 4 -28 5 0 10 15 10 34 0 19 4 37 8 40 13 8
30 -8 33 -31 4 -22 4 -22 16 3 7 15 10 24 6 21 -6 -7 -32 22 -33 36 0 4 9 7
21 7 11 0 17 5 14 10 -3 6 -2 10 3 10 5 0 9 -24 9 -52z m-867 32 c0 -6 20 -32
45 -58 33 -34 43 -52 39 -67 -4 -16 -3 -17 5 -5 10 13 15 8 12 -12 0 -5 2 -7
7 -5 4 1 24 -16 45 -39 33 -37 34 -41 14 -37 -14 3 -29 -2 -36 -11 -17 -20
-42 -21 -35 -1 4 9 0 15 -10 15 -9 0 -16 8 -16 20 0 22 15 27 23 8 3 -7 6 -8
6 -3 1 19 -17 38 -29 30 -7 -4 -10 -23 -8 -47 4 -40 4 -40 -29 -36 -18 2 -34
0 -35 -4 -2 -4 -4 15 -5 42 -1 47 16 63 18 17 1 -17 2 -18 6 -4 2 9 9 17 14
17 5 0 9 5 9 11 0 6 -7 9 -15 6 -8 -4 -17 -2 -20 3 -3 5 -13 6 -23 3 -21 -8
-47 -33 -34 -33 5 0 12 -13 14 -29 l4 -30 -23 22 c-33 32 -30 63 7 76 17 5 30
7 30 3 0 -4 5 1 11 11 8 13 6 31 -6 68 -17 50 -15 79 5 79 5 0 10 -5 10 -10z
m1385 -569 c11 -14 15 -21 9 -18 -7 4 -17 0 -24 -8 -7 -8 -9 -15 -4 -15 5 0
-2 -10 -16 -21 l-25 -21 28 6 c18 4 27 2 27 -6 0 -6 7 -3 16 8 8 10 13 14 10
8 -6 -12 17 -26 43 -28 14 -1 27 -30 25 -56 -1 -8 -2 -21 -3 -28 -1 -8 -6 -10
-13 -6 -7 4 -10 4 -6 -1 4 -4 0 -14 -10 -21 -9 -7 -13 -16 -9 -20 4 -5 13 -2
18 6 8 11 9 10 4 -7 -5 -18 -3 -22 10 -17 9 4 13 9 11 12 -3 3 -1 11 6 19 9
11 7 12 -7 6 -17 -6 -18 -5 -3 16 9 13 14 29 11 37 -7 19 21 28 46 14 30 -15
26 -30 -7 -30 -25 0 -28 -3 -28 -35 0 -19 4 -35 9 -35 4 0 7 -8 6 -17 -3 -32
1 -44 11 -38 6 3 10 0 10 -8 0 -8 9 -26 20 -40 15 -18 17 -28 9 -33 -8 -5 -9
-3 -4 6 6 9 4 11 -4 6 -9 -6 -8 -13 5 -27 17 -19 17 -20 -2 -13 -17 7 -18 6
-4 -11 13 -17 13 -18 0 -10 -8 5 -26 11 -39 13 -18 2 -22 -1 -18 -12 4 -9 2
-16 -4 -16 -6 0 -9 8 -7 18 2 10 12 17 26 16 25 -1 30 14 7 22 -13 5 -13 8 0
27 17 25 20 41 5 32 -6 -4 -9 -1 -8 7 2 8 -7 14 -22 15 -14 0 -31 1 -38 2 -7
1 -11 5 -8 10 3 4 18 7 33 4 l28 -3 -25 12 c-14 7 -31 21 -39 31 -9 12 -22 17
-37 14 -15 -3 -24 1 -24 8 0 7 -7 15 -15 19 -18 6 -18 5 -5 -29 6 -15 16 -25
23 -23 18 7 46 -27 36 -43 -7 -11 -10 -9 -15 7 -4 16 -11 20 -26 16 -14 -3
-19 -1 -14 6 4 7 3 12 -2 12 -13 0 -35 56 -28 69 8 12 36 3 54 -18 12 -14 13
-14 8 2 -3 11 -2 16 4 12 6 -3 10 -2 10 3 0 13 -68 48 -76 39 -4 -4 0 -7 9 -7
9 0 19 -5 23 -11 4 -7 0 -9 -14 -5 -16 5 -24 1 -34 -18 -9 -18 -17 -23 -27
-17 -8 5 -10 14 -6 21 6 9 10 9 17 -1 8 -11 9 -10 5 3 -3 9 -1 19 6 22 7 2 4
5 -5 5 -10 1 -18 7 -18 15 0 7 -7 19 -15 26 -19 15 -14 23 9 14 9 -3 16 -12
16 -19 0 -8 5 -17 12 -21 6 -4 8 -3 4 4 -3 5 6 20 21 31 26 19 27 20 6 21 -12
0 -24 -6 -27 -12 -3 -7 -3 0 -1 16 2 16 1 26 -2 22 -9 -8 -33 14 -33 30 0 8 5
14 10 14 6 0 10 -6 10 -12 0 -7 11 -14 25 -14 21 -2 22 0 10 13 -8 7 -27 16
-43 18 -26 3 -28 1 -24 -23 3 -15 9 -32 14 -38 5 -8 1 -13 -12 -17 -11 -3 -20
-13 -20 -23 0 -9 3 -14 7 -11 3 4 12 -5 20 -20 9 -18 10 -30 3 -37 -7 -7 -10
-3 -10 12 0 12 -9 26 -19 32 -26 13 -41 13 -41 -2 0 -6 3 -8 6 -5 9 9 44 -11
44 -25 0 -9 -3 -9 -12 0 -19 19 -25 14 -24 -18 1 -16 2 -30 3 -30 13 0 32 14
27 21 -3 5 0 9 5 9 6 0 11 -6 11 -14 0 -8 10 -22 22 -30 12 -9 18 -16 14 -16
-5 0 -18 8 -29 18 -19 16 -19 16 -13 -8 6 -21 5 -23 -6 -10 -7 8 -20 15 -28
15 -10 0 -14 9 -13 28 1 15 -2 25 -6 23 -4 -3 -7 5 -7 17 1 13 -5 22 -14 22
-10 0 -14 -9 -13 -25 1 -14 0 -18 -3 -7 -6 18 -29 23 -39 7 -4 -6 1 -7 12 -3
10 3 15 3 11 -1 -3 -4 -2 -21 2 -37 6 -19 5 -29 -2 -29 -6 0 -7 -8 -3 -17 5
-15 4 -16 -6 -5 -7 6 -24 12 -37 12 -17 0 -22 4 -19 15 4 8 2 17 -3 20 -6 4
-10 11 -10 17 0 6 6 6 15 -2 9 -7 14 -18 12 -25 -3 -6 4 -12 15 -12 10 -1 22
5 25 13 8 21 -6 32 -17 14 -8 -13 -10 -12 -10 3 0 39 -47 62 -81 40 l-24 -15
22 20 c12 11 19 23 15 27 -4 5 -2 5 4 2 7 -4 17 0 24 8 7 8 16 13 20 10 5 -3
11 4 15 15 7 22 45 48 45 30 0 -5 -6 -10 -12 -10 -9 0 -8 -3 2 -9 8 -6 17 -8
21 -5 4 2 6 -4 5 -13 0 -9 5 -18 13 -21 8 -3 11 0 7 6 -3 6 -1 23 6 39 6 15
11 31 10 34 -5 24 92 67 104 47 4 -7 10 -4 16 6 5 9 13 14 19 11 5 -4 9 -1 9
6 0 7 1 10 3 8 1 -2 11 -15 22 -28z m341 -3 c3 -4 10 -6 15 -3 5 4 9 1 9 -4 0
-6 -4 -11 -10 -11 -5 0 -10 -8 -10 -17 1 -16 3 -15 18 3 16 18 20 19 38 7 l21
-13 -26 -75 c-22 -66 -27 -74 -45 -69 -39 13 -95 56 -90 69 3 7 1 23 -6 34 -9
18 -7 25 16 46 21 20 23 25 10 25 -10 0 -15 4 -11 9 7 12 64 11 71 -1z m-901
-44 c19 4 34 -3 56 -25 17 -16 35 -27 40 -23 5 3 16 0 24 -6 11 -9 15 -9 15
-1 0 6 5 11 10 11 6 0 10 -7 10 -15 0 -8 -6 -15 -13 -15 -33 0 -79 -62 -56
-76 5 -3 9 4 9 15 0 15 4 19 17 14 11 -4 14 -3 9 5 -4 8 0 12 11 12 16 -1 16
-2 -3 -19 l-22 -17 28 -19 c15 -10 26 -25 23 -32 -8 -20 -23 -16 -16 5 5 13
-1 11 -23 -8 -23 -20 -25 -21 -10 -3 18 22 15 43 -7 43 -7 0 -6 -4 3 -10 9 -6
10 -10 3 -10 -6 0 -18 6 -25 13 -16 16 -38 11 -38 -9 0 -9 4 -12 10 -9 5 3 17
2 27 -3 12 -7 6 -9 -23 -8 -32 1 -40 5 -42 21 -2 26 15 44 36 38 13 -3 18 2
19 18 2 16 -1 19 -9 11 -8 -8 -15 -7 -25 6 -11 15 -12 15 -7 1 7 -22 -4 -27
-41 -18 l-30 7 34 1 c19 0 31 4 28 8 -4 3 -3 11 2 17 6 7 2 24 -9 46 -11 19
-19 29 -20 22 0 -7 -4 -10 -10 -7 -5 3 -10 1 -10 -5 0 -7 7 -10 15 -6 8 3 15
2 15 -3 0 -5 -8 -11 -17 -15 -10 -3 -25 -9 -33 -12 -12 -5 -13 -4 -2 7 20 21
14 34 -8 14 -11 -10 -17 -22 -14 -26 3 -5 -7 -14 -21 -19 -14 -5 -24 -14 -20
-19 6 -11 -29 -34 -38 -25 -3 3 -8 1 -12 -5 -3 -6 1 -11 9 -11 10 0 16 -9 16
-25 0 -15 6 -25 15 -25 9 0 12 6 8 18 -5 13 -3 14 7 5 18 -17 2 -36 -26 -29
-18 5 -22 3 -18 -9 3 -8 11 -12 18 -8 6 3 7 2 3 -3 -5 -5 -12 -9 -15 -10 -4 0
-15 -4 -25 -9 -10 -4 -21 -5 -24 -1 -4 3 1 6 10 6 16 0 21 11 18 38 -1 6 3 12
9 12 5 0 10 7 10 15 0 25 -17 17 -26 -12 -5 -22 -8 -24 -11 -10 -3 10 1 24 7
32 9 11 9 15 1 15 -6 0 -11 -4 -11 -10 0 -12 -22 -9 -32 5 -4 5 -3 14 1 20 5
5 12 25 16 43 4 18 9 31 11 29 3 -2 19 9 35 24 32 29 64 39 57 17 -3 -7 -19
-16 -36 -20 -28 -8 -31 -12 -28 -40 2 -23 9 -32 25 -35 11 -1 20 0 20 5 -4 22
3 32 22 32 12 0 17 4 14 11 -4 6 -20 8 -38 4 -26 -5 -29 -4 -14 5 9 6 27 10
40 8 18 -2 22 2 22 24 1 14 7 34 15 43 13 16 14 15 22 -4 6 -16 14 -20 33 -17z
m1028 -19 c7 2 28 -4 47 -13 32 -16 35 -22 34 -57 -1 -42 -39 -135 -56 -135
-5 0 -6 5 -3 11 4 6 1 9 -6 8 -24 -5 -60 12 -53 23 5 8 1 9 -10 5 -9 -4 -15
-3 -11 2 3 5 0 11 -6 13 -9 3 -7 19 5 58 22 68 39 105 44 91 2 -5 9 -8 15 -6z
m-1158 -385 c-3 -5 13 -14 35 -21 45 -14 51 -30 17 -48 -12 -6 -30 -25 -39
-41 -9 -16 -36 -41 -60 -56 -23 -15 -50 -37 -59 -47 -9 -11 -21 -17 -28 -13
-6 4 -11 1 -11 -6 0 -8 -15 -29 -34 -47 -29 -28 -37 -31 -55 -21 -12 6 -25 8
-30 5 -5 -3 -11 2 -13 12 -3 19 26 52 97 108 61 49 170 154 171 166 2 16 4 19
10 19 3 0 3 -4 -1 -10z m748 -74 c4 -11 1 -13 -11 -9 -15 6 -15 5 -3 -10 10
-13 17 -14 27 -6 7 6 18 7 25 3 7 -4 26 -7 43 -6 22 1 26 -2 16 -8 -8 -5 -32
-7 -52 -5 -31 4 -36 3 -31 -11 3 -9 8 -12 12 -5 4 5 12 7 18 3 8 -5 7 -11 -3
-19 -10 -10 -16 -10 -28 2 -9 9 -17 11 -21 5 -3 -5 0 -10 7 -11 10 0 10 -2 0
-6 -6 -2 -10 -8 -8 -12 3 -4 -9 -16 -25 -26 -16 -11 -29 -24 -29 -28 0 -5 4
-6 9 -3 5 3 11 -3 14 -14 3 -13 -1 -21 -15 -26 -11 -3 -17 -8 -15 -11 3 -2 14
0 24 5 13 7 22 6 30 -3 10 -10 9 -15 -4 -19 -9 -4 -19 -3 -22 1 -9 13 -64 9
-69 -5 -2 -7 -11 -12 -20 -12 -14 0 -14 -2 -3 -9 10 -6 20 -3 32 12 10 12 18
17 19 10 0 -8 7 -10 18 -6 9 4 4 -5 -13 -19 -27 -24 -31 -25 -53 -10 -12 8
-21 21 -18 28 3 8 0 11 -10 7 -9 -3 -14 2 -14 17 0 13 -4 19 -12 14 -7 -4 -8
-3 -4 4 4 7 15 12 25 12 21 0 44 -23 34 -34 -4 -4 1 -4 10 0 17 6 17 8 1 25
-14 15 -14 19 -3 19 8 0 25 7 37 16 17 12 20 19 12 29 -8 9 -6 14 6 19 12 5
15 2 10 -9 -3 -9 -2 -13 4 -10 6 4 8 17 6 31 -3 13 0 24 5 24 5 0 9 -7 9 -17
0 -20 7 -15 12 9 1 9 -1 17 -6 16 -5 0 -13 6 -17 14 -6 10 -9 8 -9 -7 0 -16
-2 -17 -10 -5 -11 17 13 35 32 24 7 -5 9 -2 5 8 -3 9 0 21 6 27 14 14 14 14
20 -3z m-443 -158 c0 -5 -5 -6 -12 -2 -7 4 -8 3 -4 -5 6 -9 13 -9 29 2 27 17
99 16 105 -1 2 -6 -1 -12 -8 -12 -6 0 -8 5 -4 11 4 8 0 8 -15 0 -11 -7 -20
-17 -18 -23 1 -8 -10 -11 -33 -9 -19 1 -32 0 -29 -3 3 -4 34 -8 68 -10 48 -2
64 1 71 13 5 9 10 11 10 4 0 -6 3 -19 7 -29 4 -11 3 -15 -4 -11 -7 4 -10 -2
-9 -16 0 -14 8 -24 18 -24 20 -2 24 12 8 22 -8 5 -8 11 0 20 9 10 7 20 -5 39
-19 29 -9 34 21 11 19 -15 19 -15 -1 -8 -18 6 -18 5 -6 -10 10 -13 17 -15 27
-6 10 8 21 2 49 -28 30 -32 33 -40 20 -49 -18 -14 -20 -28 -2 -18 9 5 9 4 0
-6 -18 -20 -29 -3 -14 22 11 18 9 24 -18 49 -38 34 -47 24 -22 -25 12 -23 15
-38 9 -42 -7 -4 -4 -10 6 -16 9 -5 16 -16 16 -24 0 -10 -9 -5 -25 14 -15 18
-23 37 -19 46 3 9 2 16 -4 16 -6 0 -12 -4 -14 -10 -1 -5 -14 -11 -27 -13 -28
-4 -38 -21 -20 -33 9 -5 10 -2 6 9 -9 24 -4 21 26 -12 21 -24 23 -30 11 -35
-9 -3 -12 -1 -9 4 3 6 2 10 -4 10 -5 0 -12 -6 -14 -12 -4 -8 -6 -7 -6 4 -1 9
5 18 12 21 6 2 0 4 -15 3 -28 -1 -36 -10 -18 -19 6 -3 5 -4 -2 -3 -7 2 -14 11
-14 22 -3 37 -6 39 -14 9 l-8 -30 -1 28 c-1 28 -31 40 -31 12 0 -8 -9 -19 -19
-25 -30 -16 -35 -12 -17 15 9 14 14 25 11 25 -10 0 -35 -28 -35 -39 0 -17 -17
-13 -24 6 -4 9 -1 20 6 24 8 5 5 8 -10 6 -23 -1 -29 -12 -12 -22 6 -3 10 -11
10 -17 0 -7 -6 -6 -15 2 -8 7 -15 19 -15 26 0 8 -10 14 -24 14 -18 0 -23 5
-21 23 1 12 0 14 -2 5 -2 -10 -9 -18 -14 -18 -6 0 -6 -7 1 -19 6 -12 6 -22 1
-25 -5 -4 -12 0 -14 6 -3 8 -6 6 -6 -4 -1 -11 6 -18 18 -18 15 0 18 -5 13 -22
-5 -19 -7 -20 -10 -5 -2 9 -7 17 -12 17 -5 0 -11 -8 -13 -17 -3 -10 -5 2 -6
26 -1 36 -3 41 -15 32 -8 -7 -12 -20 -9 -31 3 -10 0 -27 -6 -37 -9 -15 -10
-13 -5 11 5 21 4 27 -5 22 -16 -10 -14 0 5 30 15 22 15 24 1 18 -9 -3 -19 -14
-22 -24 -3 -10 -13 -21 -21 -24 -11 -4 -15 -2 -11 7 3 8 1 20 -4 28 -7 12 -9
12 -9 -1 -1 -12 -3 -11 -11 3 -8 14 -14 16 -25 6 -11 -9 -12 -15 -3 -25 7 -9
8 -14 1 -14 -6 0 -12 6 -15 13 -2 6 -8 9 -12 5 -4 -4 -2 -16 6 -25 13 -16 12
-17 -3 -4 -15 11 -18 11 -18 0 0 -18 -34 31 -37 54 -2 10 1 16 7 12 6 -4 9
-12 8 -18 -3 -13 4 -17 25 -17 8 0 7 4 -3 11 -12 8 -11 9 6 4 13 -3 26 1 34
10 9 11 16 12 25 5 9 -8 15 -8 20 0 10 16 25 2 18 -18 -6 -15 -5 -15 10 -3 18
14 24 47 8 36 -5 -3 -13 -1 -16 5 -5 8 -11 7 -22 -1 -11 -10 -10 -4 4 23 10
20 31 44 47 54 16 9 26 12 22 5 -4 -6 -3 -11 3 -11 5 0 11 5 13 11 2 6 15 -1
30 -14 l26 -25 7 25 c3 13 10 21 15 18 6 -4 19 -3 30 0 17 6 18 8 6 21 -19 18
-32 18 -17 0 9 -11 6 -13 -18 -12 -16 1 -33 5 -38 10 -4 5 -1 7 9 3 9 -3 21 0
27 7 12 14 71 17 71 4z m-545 -933 c15 -48 18 -50 24 -20 8 38 35 40 39 3 4
-38 22 -36 22 2 0 24 4 30 21 30 17 0 20 -4 15 -22 -3 -13 -11 -47 -17 -75 -9
-41 -17 -53 -31 -53 -16 0 -23 11 -19 33 0 4 -3 7 -9 7 -5 0 -10 -9 -10 -20 0
-12 -7 -20 -18 -20 -13 0 -21 14 -30 53 -7 28 -15 62 -18 75 -5 16 -2 22 10
22 9 0 19 -7 21 -15z m1044 -2 c10 -17 12 -17 25 0 15 20 56 23 74 5 17 -17
15 -113 -2 -127 -8 -7 -27 -11 -43 -9 -26 3 -28 6 -31 56 -3 48 -5 52 -24 46
-13 -4 -24 -1 -29 7 -6 10 -11 11 -20 2 -8 -8 -4 -14 18 -25 21 -10 28 -20 28
-42 0 -35 -23 -51 -58 -42 -18 4 -27 13 -27 26 0 21 24 27 35 10 4 -6 11 -7
17 -4 6 4 -3 15 -21 26 -33 21 -41 54 -19 76 18 18 65 15 77 -5z"/>
</g>
</svg>
