<?xml version="1.0" standalone="no"?>
<!DOCTYPE svg PUBLIC "-//W3C//DTD SVG 20010904//EN"
 "http://www.w3.org/TR/2001/REC-SVG-20010904/DTD/svg10.dtd">
<svg version="1.0" xmlns="http://www.w3.org/2000/svg"
 width="563.000000pt" height="846.000000pt" viewBox="0 0 563.000000 846.000000"
 preserveAspectRatio="xMidYMid meet">
<metadata>
Created by potrace 1.16, written by Peter Selinger 2001-2019
</metadata>
<g transform="translate(0.000000,846.000000) scale(0.100000,-0.100000)"
fill="#000000" stroke="none">
<path d="M2490 7829 c0 -5 5 -7 10 -4 27 17 20 -58 -29 -285 -24 -110 -26
-133 -9 -128 6 2 17 28 24 56 6 29 14 55 17 58 3 3 17 -22 32 -55 23 -51 32
-61 53 -61 23 0 24 1 10 18 -8 9 -27 37 -41 61 l-26 45 40 17 c36 17 39 21 39
59 0 22 -4 40 -9 40 -4 0 -25 -11 -46 -25 -20 -15 -39 -24 -42 -22 -3 4 12 82
41 220 3 13 -3 17 -30 17 -19 0 -34 -5 -34 -11z"/>
<path d="M3530 7830 c0 -5 7 -10 15 -10 8 0 15 -6 14 -12 -1 -21 -30 -174 -57
-300 -11 -48 -17 -90 -14 -93 14 -13 22 -1 33 53 17 76 33 113 59 137 22 20
22 20 41 -4 10 -13 19 -33 19 -46 0 -39 -27 -91 -54 -103 -27 -12 -33 -26 -17
-36 46 -29 111 160 74 214 -19 27 -31 25 -66 -7 l-29 -28 7 42 c3 23 12 72 20
110 20 92 20 93 -15 93 -16 0 -30 -4 -30 -10z"/>
<path d="M1433 7800 c-85 -18 -143 -65 -143 -117 0 -23 5 -33 15 -33 17 0 19
9 6 29 -16 25 10 60 63 86 48 24 126 34 126 17 0 -11 -32 -161 -56 -264 -16
-67 -22 -79 -44 -86 -20 -7 -10 -10 48 -15 43 -4 80 -3 90 3 13 7 7 9 -26 10
l-44 0 7 43 c4 23 18 92 32 152 14 61 28 122 31 138 5 30 24 35 65 16 28 -13
47 -48 47 -85 0 -37 -51 -84 -92 -85 -31 0 -31 -1 -9 -10 78 -31 166 64 135
146 -17 44 -156 75 -251 55z"/>
<path d="M2803 7776 c-70 -33 -104 -96 -68 -126 21 -17 29 -6 14 18 -29 46 39
105 136 119 56 7 56 11 14 -180 -35 -159 -42 -177 -69 -177 -10 0 -21 -4 -24
-8 -6 -10 140 -9 150 1 4 4 -4 7 -18 7 -13 0 -27 2 -30 5 -4 5 23 145 56 285
11 48 16 55 39 58 19 2 34 -5 52 -24 54 -58 12 -144 -70 -144 -24 0 -24 -1 21
-92 54 -109 91 -157 143 -186 69 -39 191 -21 191 28 0 11 -4 20 -10 20 -5 0
-10 -9 -10 -20 0 -39 -61 -51 -128 -25 -56 23 -91 74 -180 258 -2 4 6 7 18 7
33 0 90 62 90 97 0 71 -55 103 -177 103 -72 0 -97 -5 -140 -24z"/>
<path d="M3787 7756 c-19 -19 -39 -51 -44 -72 -6 -29 -15 -40 -33 -44 l-25 -6
23 -8 c20 -7 23 -13 18 -39 -3 -18 -10 -66 -16 -107 -20 -159 -50 -206 -127
-202 -33 3 -54 -15 -33 -28 15 -9 63 3 96 25 51 33 89 137 109 298 6 46 7 47
41 47 19 0 34 5 34 10 0 6 -13 10 -28 10 -39 0 -41 4 -30 53 11 52 18 58 64
66 41 7 48 24 10 29 -17 2 -35 -7 -59 -32z"/>
<path d="M1739 7627 c-68 -45 -119 -193 -73 -211 16 -6 84 54 84 75 0 5 3 9 8
9 4 0 6 -17 4 -39 -5 -51 13 -61 47 -25 14 15 18 22 8 14 -9 -7 -20 -10 -24
-7 -5 6 22 161 34 193 9 23 -50 17 -88 -9z"/>
<path d="M3212 7619 c-52 -51 -65 -123 -32 -176 35 -58 75 -43 120 46 25 51
23 110 -6 142 -24 27 -45 24 -82 -12z"/>
<path d="M3864 7618 c-16 -18 -21 -26 -11 -19 9 8 20 11 23 9 3 -3 -2 -47 -11
-98 -9 -51 -14 -95 -11 -98 11 -11 57 31 96 88 40 59 58 76 45 43 -15 -39 -25
-117 -16 -126 10 -10 57 17 65 38 4 12 2 13 -14 3 -10 -7 -21 -10 -24 -8 -2 3
4 41 14 85 25 103 25 122 4 105 -8 -8 -21 -27 -28 -44 -17 -39 -88 -136 -100
-136 -5 0 -6 21 -2 48 23 159 21 165 -30 110z"/>
<path d="M2800 7178 c-22 -4 -3 -6 49 -3 47 2 79 0 72 -4 -7 -5 3 -12 28 -20
53 -15 143 -99 174 -161 14 -27 26 -47 28 -45 2 2 5 -11 6 -28 1 -17 7 -33 12
-36 5 -3 8 -34 7 -69 -1 -35 1 -65 6 -68 4 -3 8 -13 8 -22 0 -13 -2 -14 -9 -4
-12 19 -22 -23 -12 -51 7 -20 8 -20 16 -1 5 10 9 21 9 24 1 3 7 14 13 26 20
36 27 122 12 141 -12 14 -12 16 0 8 11 -6 13 1 9 41 -5 57 -42 135 -85 181
-31 33 -130 86 -144 77 -5 -3 -19 1 -31 7 -26 15 -116 18 -168 7z"/>
<path d="M1380 7171 c0 -5 10 -13 23 -16 12 -4 39 -20 60 -37 20 -16 42 -26
49 -22 7 4 8 3 4 -5 -4 -6 -1 -23 8 -36 54 -82 59 -98 61 -198 2 -75 -1 -102
-12 -113 -8 -8 -13 -19 -11 -25 2 -6 16 11 31 39 31 56 52 202 27 187 -10 -6
-11 -2 -6 18 3 14 2 37 -4 52 -8 21 -15 25 -33 20 -20 -5 -20 -5 -5 8 11 9 14
18 7 28 -8 12 -10 12 -20 -1 -8 -12 -9 -10 -4 9 6 20 4 23 -10 17 -12 -4 -16
-2 -12 8 6 16 -16 28 -37 20 -8 -3 -17 -1 -21 5 -4 7 0 8 11 4 11 -4 15 -3 10
5 -4 6 -23 14 -44 17 -20 3 -45 10 -54 16 -11 6 -18 6 -18 0z"/>
<path d="M1771 7148 c21 -22 29 -39 26 -57 -2 -14 -2 -20 0 -13 9 26 32 8 121
-98 51 -60 101 -110 110 -110 13 0 14 -2 4 -9 -10 -6 -10 -10 3 -21 9 -7 42
-45 74 -85 31 -39 62 -70 69 -67 8 2 10 -2 5 -14 -5 -13 -3 -16 10 -11 10 4
14 2 11 -7 -4 -10 130 -176 142 -176 2 0 4 12 4 26 0 21 -3 24 -14 15 -10 -9
-15 -8 -19 4 -4 8 -3 14 1 14 25 -4 32 4 32 39 0 28 -3 33 -10 22 -9 -13 -13
-11 -31 10 -65 79 -95 110 -107 110 -7 0 -10 5 -7 10 3 6 0 16 -7 23 -7 8 -33
37 -57 65 -25 28 -49 48 -54 45 -6 -3 -7 -1 -3 5 4 7 -4 24 -18 39 -15 15 -26
32 -26 36 0 5 -7 6 -16 3 -9 -3 -12 -2 -9 4 4 6 -3 21 -14 33 -11 12 -49 57
-85 99 -36 44 -67 72 -69 65 -3 -7 -6 -6 -6 4 -1 10 -13 19 -32 23 -54 11 -58
7 -28 -26z"/>
<path d="M3960 7173 c-8 -3 -24 -13 -34 -22 -11 -9 -16 -10 -12 -3 4 6 3 12
-1 12 -5 0 -19 -20 -31 -45 -22 -45 -30 -72 -13 -46 16 25 31 1 31 -50 0 -28
5 -60 11 -71 7 -12 13 -78 15 -147 2 -69 8 -127 12 -129 13 -4 1 -166 -12
-175 -6 -4 16 -6 48 -5 45 1 55 4 44 12 -8 6 -16 14 -16 19 -1 4 -2 8 -3 10 0
1 -2 17 -3 35 -2 18 -9 39 -16 47 -9 10 -9 15 -1 15 6 0 11 16 11 36 0 24 -4
33 -12 28 -6 -4 -8 -3 -4 4 3 6 3 49 0 96 -5 62 -11 86 -20 86 -8 0 -14 7 -14
16 0 8 5 12 10 9 6 -3 10 -2 10 4 0 5 -4 13 -10 16 -5 3 -10 14 -10 23 0 15 2
15 11 2 7 -11 8 8 3 65 -11 112 -9 127 16 147 22 18 19 21 -10 11z"/>
<path d="M4213 7155 c7 -14 14 -25 17 -25 3 0 4 -130 3 -290 -2 -227 -6 -296
-17 -317 l-14 -28 60 -3 c56 -3 60 -2 44 13 -9 9 -16 19 -17 23 0 4 -2 27 -3
52 -2 25 -6 62 -10 83 -3 20 -2 37 3 37 5 0 8 20 7 45 0 25 -4 45 -8 45 -5 0
-8 5 -8 11 0 5 5 7 10 4 17 -10 16 141 -1 162 -7 7 -5 13 3 16 10 3 11 9 1 25
-8 14 -9 23 -3 27 10 6 8 71 -3 81 -7 7 20 37 48 52 16 9 7 11 -52 12 l-71 0
11 -25z"/>
<path d="M3413 7163 c-20 -8 -16 -33 5 -27 16 5 16 5 0 -6 -10 -6 -18 -23 -17
-38 0 -22 2 -23 8 -9 6 16 9 17 18 5 6 -7 15 -26 18 -41 4 -15 12 -30 18 -34
6 -3 7 -1 3 5 -4 7 -2 12 4 12 8 0 10 -9 6 -23 -3 -13 8 -55 29 -107 19 -47
35 -79 35 -72 0 6 4 12 9 12 5 0 7 -9 4 -20 -4 -13 1 -26 13 -35 16 -13 16
-14 2 -9 -16 5 -16 3 -1 -35 9 -22 20 -38 24 -35 5 3 8 -6 7 -19 -2 -24 25
-98 46 -125 7 -10 14 -6 27 20 14 27 15 36 5 48 -7 8 -23 43 -36 77 -13 37
-27 60 -33 56 -6 -4 -8 0 -4 11 4 10 3 15 -3 11 -6 -3 -10 5 -10 19 0 36 -10
56 -29 56 -14 0 -14 2 -1 10 13 9 13 12 -1 23 -9 6 -14 18 -11 25 2 7 -3 24
-12 37 -9 13 -16 34 -16 45 0 12 -4 19 -9 16 -5 -3 -9 0 -8 7 1 32 -4 48 -13
42 -6 -4 -10 5 -10 20 0 17 -4 24 -12 19 -8 -5 -9 -2 -5 10 14 35 -16 63 -50
49z"/>
<path d="M2571 7015 c-7 -20 -17 -33 -22 -29 -6 3 -7 -5 -3 -22 5 -18 3 -25
-4 -20 -6 4 -8 -2 -5 -16 4 -19 3 -20 -6 -8 -9 13 -11 11 -11 -7 0 -12 -3 -30
-6 -40 -5 -15 -4 -15 5 -3 6 8 11 10 11 4 0 -6 -7 -17 -15 -24 -19 -16 -20
-44 -1 -37 10 4 13 -2 12 -18 0 -13 -4 -21 -8 -18 -5 2 -8 -8 -8 -24 0 -23 2
-25 11 -13 9 12 10 10 6 -8 -9 -39 21 -106 68 -152 25 -24 45 -41 45 -37 0 4
10 -2 22 -13 13 -12 31 -19 40 -16 10 2 18 0 18 -6 0 -5 10 -6 21 -3 15 5 19
4 15 -4 -5 -7 4 -11 26 -11 l33 1 -35 15 c-19 8 -49 26 -67 40 -18 14 -38 22
-45 18 -7 -5 -8 -3 -4 5 12 18 -25 56 -37 39 -7 -10 -8 -9 -4 2 6 19 -37 102
-47 92 -4 -4 -5 5 -1 21 5 18 3 27 -5 27 -6 0 -10 8 -9 18 4 48 -2 113 -11
107 -5 -3 -10 -2 -10 4 0 5 5 13 10 16 6 3 10 19 10 35 0 16 7 48 16 70 9 23
15 43 12 45 -2 3 -10 -11 -17 -30z"/>
<path d="M1957 5593 c-24 -3 -35 -8 -31 -15 4 -6 11 -25 15 -42 l7 -31 1 28
c1 16 5 26 10 23 10 -7 2 -56 -10 -56 -5 0 -9 -40 -9 -90 0 -53 4 -90 10 -90
6 0 10 -7 10 -16 0 -8 -4 -12 -10 -9 -11 7 -13 -15 -4 -39 3 -9 10 -13 15 -10
5 3 8 -12 8 -33 -1 -38 -1 -38 -9 -8 -7 28 -8 29 -9 5 -6 -74 -5 -210 1 -210
3 0 4 -8 1 -19 -3 -10 0 -22 6 -26 8 -4 9 23 5 97 -4 57 -5 101 -2 98 3 -3 8
-51 12 -108 l7 -104 -25 4 c-14 2 -25 -1 -25 -6 1 -5 -5 -13 -13 -17 -8 -6 4
-9 34 -9 26 0 50 4 53 10 4 6 -1 7 -12 3 -15 -5 -16 -4 -6 8 8 10 9 28 3 59
-13 63 -12 210 0 210 6 0 10 7 10 15 0 8 -4 15 -10 15 -5 0 -7 7 -4 15 4 8 12
15 20 15 16 0 18 12 5 26 -24 23 -29 206 -8 292 3 12 3 21 -1 20 -4 -1 -24 -3
-45 -5z"/>
<path d="M3470 5490 c0 -6 -4 -9 -9 -6 -19 12 -21 -45 -7 -174 4 -36 3 -39 -3
-15 -7 23 -9 13 -10 -45 0 -51 2 -70 9 -60 13 21 12 -158 -2 -183 -5 -10 -6
-26 -2 -35 6 -14 8 -13 15 8 7 22 8 21 6 -9 -1 -21 -8 -36 -17 -38 -13 -4 -13
-3 0 6 8 6 10 11 4 11 -7 0 -22 -9 -35 -20 -21 -17 -22 -19 -6 -20 10 0 16 4
12 9 -3 6 8 8 28 4 l33 -5 -3 52 c-2 32 2 59 9 68 10 12 10 14 1 8 -10 -5 -13
11 -13 69 0 48 4 74 10 70 6 -4 10 8 10 29 0 24 -4 35 -12 34 -16 -4 -13 80 4
132 8 24 8 35 0 38 -6 2 -8 17 -5 36 3 20 1 36 -6 40 -6 4 -11 2 -11 -4z"/>
<path d="M1770 4137 c-14 -7 -33 -28 -42 -48 -9 -19 -23 -41 -32 -48 -9 -8
-16 -24 -16 -37 0 -38 -20 -72 -39 -67 -15 4 -17 -3 -14 -59 5 -79 12 -101 23
-73 7 19 8 19 18 -5 5 -14 17 -43 26 -65 20 -49 27 -85 18 -85 -12 0 -40 -54
-35 -67 3 -9 -6 -13 -27 -13 -24 0 -31 -4 -26 -15 3 -9 0 -15 -8 -15 -7 0 -23
-11 -36 -25 -13 -14 -18 -25 -12 -25 7 0 12 -5 12 -11 0 -6 -8 -8 -19 -4 -11
3 -22 1 -26 -5 -4 -6 -12 -9 -19 -7 -6 3 -21 -2 -31 -10 -17 -12 -18 -15 -5
-23 13 -9 13 -11 0 -20 -8 -5 -21 -10 -28 -10 -7 0 -10 -4 -7 -10 3 -5 2 -10
-3 -10 -6 0 -21 -17 -33 -37 -32 -52 -33 -54 -15 -47 20 8 20 9 -7 -60 -12
-33 -31 -64 -42 -70 -11 -6 -25 -18 -31 -26 -10 -12 -9 -16 8 -23 12 -4 26 -3
32 3 5 5 14 10 18 10 14 0 9 -70 -8 -101 -13 -26 -46 -139 -85 -294 -6 -22
-14 -44 -20 -50 -5 -5 -9 -17 -9 -28 0 -10 -7 -25 -16 -34 -8 -9 -13 -22 -10
-29 13 -35 -68 -130 -102 -120 -11 4 -23 2 -27 -4 -17 -28 -24 0 -25 103 0
130 -8 267 -19 350 -5 39 -3 66 4 81 21 39 27 79 26 154 -2 67 -15 122 -30
122 -4 0 -16 -7 -27 -15 -12 -8 -24 -12 -27 -9 -10 10 -27 -59 -33 -135 -7
-92 10 -316 30 -391 8 -30 16 -101 18 -157 l3 -101 -31 -22 c-23 -15 -30 -27
-27 -41 4 -13 0 -19 -11 -19 -10 0 -15 -4 -12 -9 3 -5 -1 -12 -10 -15 -16 -6
-42 8 -56 31 -5 6 -16 9 -26 6 -11 -2 -36 7 -56 21 -32 21 -45 24 -82 19 -40
-5 -46 -4 -51 16 -3 11 -10 21 -15 21 -6 0 -8 -7 -4 -15 7 -19 -8 -19 -28 0
-9 9 -29 15 -48 14 -18 -2 -43 3 -54 9 -12 6 -24 8 -28 4 -4 -3 -4 1 -1 10 4
10 14 14 26 11 23 -6 25 10 3 28 -14 11 -20 9 -44 -17 -22 -25 -34 -31 -66
-30 l-39 2 -10 59 -10 60 -50 0 c-48 0 -50 -1 -53 -30 -4 -49 -12 -75 -21 -75
-17 0 -42 32 -37 46 3 8 1 25 -4 39 -5 14 -6 27 0 30 5 3 8 13 8 23 -1 9 2 28
6 41 8 22 6 23 -18 17 -23 -6 -26 -3 -26 19 0 28 -17 34 -27 9 -3 -10 -13 -14
-25 -11 -14 4 -18 1 -14 -8 3 -8 1 -17 -4 -20 -6 -4 -10 -25 -10 -49 0 -51 -7
-61 -28 -40 -12 13 -13 17 -2 24 12 8 10 85 -6 250 -3 25 -7 79 -10 120 -3 41
-6 82 -8 90 -2 8 -4 -684 -5 -1537 l-1 -1553 2815 0 2815 0 0 201 c0 196 0
201 -20 196 -15 -4 -20 0 -20 14 0 23 0 23 -67 2 -59 -19 -68 -39 -34 -82 10
-13 16 -33 13 -47 -3 -19 -10 -24 -36 -23 -28 0 -29 1 -8 9 12 5 22 14 22 20
0 13 -27 13 -35 0 -4 -6 -14 -10 -23 -8 -10 1 -23 -1 -30 -6 -22 -13 -29 5 -7
20 19 14 19 14 -2 35 -19 19 -22 20 -44 6 -37 -24 -77 -28 -120 -10 -50 19
-75 12 -59 -18 17 -31 -13 -51 -64 -44 -37 5 -38 4 -34 -19 7 -37 -5 -51 -26
-30 -14 13 -20 14 -25 5 -6 -10 -12 -9 -25 4 -19 19 -19 17 -6 49 8 21 6 26
-11 31 -12 4 -18 13 -15 20 3 8 0 16 -7 19 -9 3 -9 5 1 5 19 1 14 18 -8 24
-11 3 -20 12 -20 20 0 10 7 13 20 10 16 -4 19 -2 14 11 -3 9 -1 22 5 30 6 7 8
16 4 19 -3 4 -1 7 6 7 7 0 9 4 6 10 -3 5 -1 10 5 10 6 0 9 4 5 9 -3 5 -1 12 5
16 5 3 10 15 10 27 0 15 5 19 20 15 11 -3 22 -1 25 3 3 5 -21 12 -52 16 l-58
7 35 13 c25 9 29 13 14 13 -29 1 -35 10 -23 33 8 15 8 23 -1 32 -8 8 -10 7 -5
-5 6 -17 -23 -55 -33 -44 -4 3 0 10 8 15 13 8 12 10 -2 10 -10 0 -18 -7 -18
-15 0 -8 -6 -15 -13 -15 -8 0 -13 15 -14 40 -2 35 1 40 20 40 12 0 28 4 36 9
9 6 19 5 27 -4 7 -7 24 -10 38 -8 28 6 33 -5 14 -26 -10 -10 -10 -15 -1 -18 7
-2 9 -11 6 -19 -3 -8 0 -14 7 -14 6 0 8 -5 4 -11 -4 -7 -1 -10 7 -7 16 5 25
78 10 78 -6 0 -11 5 -11 10 0 12 67 13 74 1 3 -5 0 -11 -8 -14 -7 -3 -16 -22
-18 -41 -4 -35 -3 -36 32 -35 31 0 32 1 13 9 -27 11 -27 8 -8 54 17 41 32 46
44 13 10 -27 24 -26 32 5 9 35 0 50 -27 44 -12 -3 -24 -1 -26 5 -2 6 -19 12
-38 14 -19 2 -35 4 -35 5 0 1 -12 3 -28 5 -36 5 -138 56 -145 73 -2 7 0 18 7
25 14 14 15 37 1 37 -5 0 -10 -8 -10 -17 -1 -17 -1 -17 -11 0 -5 9 -17 17 -25
17 -11 0 -13 6 -9 20 3 11 3 20 -2 20 -11 0 -35 -55 -33 -77 4 -34 0 -43 -20
-43 -11 0 -20 -5 -20 -11 0 -6 6 -9 14 -6 20 8 30 -35 11 -46 -8 -4 -15 -16
-15 -26 0 -13 -7 -18 -25 -18 -15 0 -25 5 -25 13 0 8 -5 14 -11 14 -6 0 -8 -7
-5 -16 3 -8 2 -13 -3 -10 -18 11 -22 -55 -7 -95 5 -10 -1 -19 -19 -27 -35 -16
-42 -15 -75 8 l-28 20 15 56 c13 50 12 58 -2 80 -8 13 -23 24 -33 24 -15 0
-15 2 -2 10 9 6 10 10 3 10 -6 0 -14 -4 -17 -9 -3 -4 -16 -6 -28 -4 -16 3 -31
-4 -47 -21 -14 -14 -30 -26 -38 -26 -7 0 -13 -4 -13 -9 0 -5 -15 -18 -33 -29
-33 -19 -33 -19 -60 2 -15 12 -27 27 -27 34 0 7 -6 12 -13 12 -10 0 -13 -11
-10 -40 4 -43 -13 -54 -37 -25 -12 14 -15 14 -34 -4 -30 -27 -57 -29 -91 -5
-17 11 -46 27 -65 34 -19 7 -43 22 -53 32 -25 25 -42 23 -66 -11 -21 -29 -26
-99 -9 -111 11 -8 -3 -51 -13 -44 -10 6 -94 14 -145 14 -27 0 -32 4 -37 27 -5
27 9 47 24 37 4 -2 10 0 13 5 3 5 -1 11 -9 15 -8 3 -15 1 -15 -4 0 -9 -106 -3
-122 7 -5 2 -7 -1 -6 -8 2 -6 -3 -14 -11 -17 -10 -3 -12 0 -8 11 3 9 2 19 -4
22 -5 4 -8 18 -7 33 4 33 -27 43 -37 13 -3 -12 -14 -21 -24 -21 -23 0 -71 -47
-71 -69 0 -12 -11 -17 -45 -18 -25 -1 -45 2 -45 7 0 6 -5 10 -12 10 -7 0 -21
11 -33 25 -18 23 -22 25 -47 13 -16 -7 -28 -19 -28 -25 0 -7 -6 -13 -13 -13
-18 0 -63 -39 -60 -51 2 -5 -6 -9 -17 -9 -11 0 -20 7 -20 15 0 19 -53 20 -69
2 -6 -8 -23 -12 -41 -9 -22 3 -30 0 -30 -11 0 -8 -7 -17 -15 -21 -19 -7 -19
-30 1 -50 10 -11 13 -23 8 -38 -5 -13 -8 -26 -9 -30 -1 -18 -14 -17 -20 2 -6
19 -12 21 -41 17 -24 -4 -34 -2 -34 7 0 14 -38 52 -45 45 -2 -3 -11 -22 -20
-42 -13 -32 -13 -36 0 -31 21 8 18 -16 -4 -44 -25 -29 -35 -28 -27 3 5 18 2
25 -9 25 -8 0 -14 8 -13 18 3 36 -2 62 -13 62 -6 0 -9 -7 -5 -15 3 -9 0 -15
-8 -15 -8 0 -16 -5 -18 -12 -3 -9 -6 -9 -12 0 -4 7 -3 12 3 12 7 0 7 9 0 28
-7 19 -6 38 1 56 18 49 14 56 -35 56 -25 0 -45 -4 -45 -10 0 -5 5 -10 10 -10
6 0 10 -7 10 -15 0 -9 9 -15 21 -15 17 0 20 -4 15 -22 -4 -13 -9 -38 -13 -56
-3 -17 -12 -32 -19 -32 -8 0 -14 -8 -15 -17 0 -12 -2 -13 -6 -5 -4 10 -9 9
-24 -4 -18 -16 -19 -16 -20 2 -1 10 -2 24 -4 29 -1 6 -3 31 -3 58 -1 26 -6 47
-12 47 -10 0 -7 -121 4 -138 3 -6 -9 -10 -31 -10 -21 0 -39 -5 -41 -11 -2 -6
-12 -11 -23 -11 -10 0 -18 3 -16 8 1 4 -3 7 -8 7 -5 0 -9 -3 -8 -7 2 -5 -5 -8
-16 -8 -16 0 -18 6 -14 48 6 80 9 87 31 90 16 2 22 10 22 28 0 17 4 23 12 18
6 -4 17 1 24 11 12 16 10 20 -12 32 -40 20 -63 16 -70 -12 -5 -19 -10 -23 -19
-15 -6 5 -15 6 -20 2 -4 -4 -5 13 -2 38 6 48 -6 89 -18 58 -3 -8 -5 -28 -3
-44 2 -19 -1 -28 -9 -27 -7 2 -13 -5 -13 -15 0 -11 -6 -7 -16 13 -10 19 -13
42 -9 62 4 20 2 33 -5 33 -15 0 -12 37 5 54 20 19 25 110 9 156 -12 36 -5 72
16 85 6 3 30 -2 53 -13 23 -11 62 -26 87 -33 25 -7 52 -18 60 -25 8 -7 27 -10
42 -7 25 5 83 -18 158 -62 14 -8 50 -15 79 -15 46 0 60 -4 83 -27 24 -23 28
-24 28 -9 0 12 5 16 14 13 8 -3 17 1 20 9 9 24 7 35 -6 33 -33 -4 -66 2 -84
16 -17 13 -11 14 64 15 79 0 85 -2 112 -29 17 -16 31 -24 33 -17 3 7 14 2 29
-11 13 -13 30 -23 38 -23 7 0 -6 14 -28 30 -23 17 -42 32 -42 35 0 3 19 5 43
5 119 1 130 2 116 11 -8 5 -24 9 -36 9 -34 0 -28 15 13 35 20 9 56 32 79 50
24 18 72 47 108 64 72 35 90 35 166 -6 24 -12 58 -23 75 -23 25 0 42 -11 82
-52 63 -67 84 -100 84 -136 0 -35 9 -45 26 -31 9 8 10 18 3 35 -12 32 -12 97
0 89 27 -16 16 21 -23 79 -25 37 -39 67 -32 69 8 3 7 11 -1 30 -7 15 -8 27 -3
27 5 0 11 -9 15 -19 3 -11 13 -25 22 -33 15 -11 16 -11 10 5 -3 9 -2 17 4 17
6 0 7 5 3 12 -4 7 -3 8 5 4 6 -4 9 -12 6 -17 -4 -5 2 -9 11 -9 17 0 16 -1 -1
-13 -27 -20 -4 -31 73 -34 49 -2 67 2 81 16 10 10 28 20 40 24 19 5 20 3 9
-10 -10 -13 -9 -15 7 -11 11 2 19 10 17 17 -2 11 10 12 60 7 35 -4 68 -12 74
-17 6 -5 15 -5 19 -1 5 4 5 1 1 -6 -4 -6 -17 -12 -29 -12 -12 0 -29 -5 -37
-11 -11 -8 -3 -9 32 -6 26 2 45 1 42 -4 -3 -5 -1 -9 5 -9 5 0 11 6 13 12 3 7
12 1 23 -16 l19 -28 18 24 c11 14 21 19 25 13 10 -12 45 -16 37 -4 -3 5 4 9
16 9 12 0 18 -4 15 -10 -8 -13 -2 -13 37 4 18 8 46 18 62 21 22 5 27 10 23 25
-6 23 17 45 38 37 8 -4 17 -2 20 3 11 18 35 10 35 -10 0 -17 -7 -20 -40 -20
-23 0 -40 -5 -40 -11 0 -8 19 -10 64 -5 47 5 66 3 75 -7 16 -20 87 -7 83 15
-1 9 5 18 13 22 12 4 15 1 10 -13 -5 -18 -1 -19 72 -15 43 2 86 4 95 5 22 0
35 19 13 19 -15 0 -15 2 -1 15 8 8 26 15 41 15 14 0 24 4 21 9 -4 5 0 11 6 14
10 3 10 7 0 20 -9 11 -11 21 -4 33 6 10 12 13 16 6 4 -7 16 -2 31 14 29 29 45
30 79 3 17 -13 28 -34 32 -60 7 -39 7 -39 42 -33 44 9 96 34 69 34 -20 0 -56
37 -57 58 0 6 -6 12 -14 12 -7 0 -19 7 -26 15 -7 8 -21 15 -31 15 -11 0 -19 7
-19 18 0 9 -7 26 -16 37 -14 19 -15 19 -21 -3 -3 -15 -9 -19 -13 -12 -10 17
-66 18 -62 1 5 -21 -13 -28 -65 -25 -26 2 -53 -2 -60 -8 -7 -6 -19 -8 -27 -5
-20 8 -63 97 -58 120 2 9 -2 17 -8 17 -7 0 -24 9 -39 19 -14 10 -53 22 -86 26
-33 4 -65 11 -70 15 -11 9 -52 -16 -42 -26 4 -4 13 -1 21 5 12 10 18 9 33 -8
9 -12 28 -21 40 -21 13 0 23 -3 23 -8 0 -4 12 -13 28 -20 45 -21 63 -38 56
-56 -10 -26 -34 -19 -45 14 -10 28 -12 29 -34 14 -22 -14 -24 -14 -30 5 -6 21
-25 29 -25 12 0 -17 -32 -42 -46 -37 -8 3 -18 -4 -24 -14 -12 -22 -36 -26 -43
-7 -6 14 -27 -36 -27 -64 0 -10 5 -19 10 -19 6 0 10 -9 10 -19 0 -11 -4 -23
-10 -26 -6 -3 -10 -1 -10 4 0 6 -5 11 -11 11 -6 0 -9 -7 -5 -15 7 -20 -32 -41
-47 -26 -16 16 -30 13 -23 -4 8 -23 -37 -19 -59 5 -21 23 -55 27 -55 5 0 -8
-8 -23 -17 -33 -17 -17 -23 -17 -122 -1 -58 9 -125 14 -149 11 -32 -4 -43 -2
-38 7 4 6 1 11 -8 11 -8 0 -16 6 -19 13 -3 9 -7 9 -17 0 -9 -9 -19 -3 -43 24
-17 20 -50 43 -72 53 -22 9 -55 30 -73 45 -29 24 -45 29 -110 33 -42 3 -86 11
-97 18 -32 23 -41 21 -195 -30 -77 -25 -178 -47 -214 -45 -17 0 -18 2 -5 7 26
11 109 85 109 96 0 18 43 62 79 81 33 16 44 17 218 13 25 0 54 7 70 17 23 15
42 17 139 12 l112 -6 43 33 c58 44 97 56 181 56 l69 0 25 55 c26 56 38 70 32
38 -1 -10 2 -18 7 -18 6 0 9 3 8 8 -2 4 6 7 17 7 13 0 20 -7 20 -18 0 -11 9
-23 20 -28 18 -8 19 -11 5 -38 -8 -15 -13 -32 -10 -36 3 -5 -3 -11 -12 -13
-17 -4 -17 -5 0 -6 26 -2 20 -30 -9 -41 -14 -6 -41 -10 -60 -10 -30 0 -34 -3
-34 -25 0 -15 -6 -25 -15 -25 -9 0 -12 -6 -8 -16 5 -13 7 -13 15 -2 7 10 11 9
23 -6 18 -23 10 -40 -16 -33 -11 3 -19 0 -19 -7 0 -8 21 -13 60 -14 36 -2 60
2 60 8 0 5 -9 10 -19 10 -11 0 -23 5 -27 12 -5 8 0 9 17 4 33 -11 102 -11 125
-1 10 4 27 7 37 6 10 -1 29 8 43 22 24 24 67 27 80 6 3 -5 18 -9 34 -9 15 0
31 -6 33 -12 4 -10 6 -10 6 -1 1 7 -15 20 -34 29 -19 9 -35 20 -35 24 0 13 28
20 32 8 7 -19 30 3 25 22 -7 28 19 32 68 10 24 -11 52 -20 62 -20 21 0 78 -20
112 -39 13 -7 36 -11 51 -7 20 3 30 1 34 -10 9 -22 8 -24 -10 -24 -13 0 -12
-5 6 -30 15 -22 30 -30 50 -30 22 0 28 4 24 15 -7 17 -31 20 -36 5 -2 -6 -9
-1 -17 11 -12 21 -12 22 18 16 31 -6 36 -1 32 31 -1 6 5 12 13 12 9 0 12 7 9
20 -4 14 0 20 10 20 8 0 22 3 31 6 11 4 16 1 16 -10 0 -20 26 -21 34 -1 9 24
21 17 35 -21 11 -30 16 -35 36 -30 13 3 27 2 30 -4 3 -5 19 -10 34 -10 33 0
44 -9 32 -24 -13 -15 -16 -57 -7 -84 l8 -23 17 23 c10 13 24 34 31 47 11 22
10 27 -15 46 -24 20 -25 23 -9 29 9 4 22 2 28 -4 14 -14 26 -13 21 3 -5 12 38
39 81 52 12 3 34 -1 50 -10 24 -12 25 -15 9 -16 -18 0 -17 -1 4 -10 22 -9 22
-11 9 -32 -16 -23 -58 -36 -58 -18 0 6 -7 11 -15 11 -8 0 -15 5 -15 10 0 6
-11 10 -24 10 -27 0 -44 -39 -23 -52 9 -6 9 -8 0 -8 -7 0 -13 -7 -13 -15 0 -8
5 -15 10 -15 15 0 12 -48 -2 -53 -18 -5 -14 -147 4 -158 7 -5 9 -9 4 -9 -4 0
2 -9 15 -19 13 -11 24 -27 24 -37 0 -9 6 -19 14 -22 9 -3 11 0 6 8 -6 9 -4 11
4 5 8 -4 11 -18 7 -36 -4 -20 -1 -31 12 -38 10 -6 12 -11 5 -11 -7 0 -13 -8
-13 -17 0 -10 -7 -26 -15 -36 -17 -24 -3 -59 30 -77 33 -18 59 -5 75 36 13 31
36 54 54 54 3 0 6 -20 6 -44 0 -35 -6 -51 -29 -77 -16 -17 -34 -28 -40 -25 -7
5 -11 -2 -11 -18 0 -14 -5 -26 -10 -26 -19 0 -52 -37 -41 -45 6 -3 11 -1 11 4
0 6 7 11 15 11 8 0 15 -4 15 -10 0 -5 -4 -10 -10 -10 -5 0 -10 -9 -10 -19 0
-12 -9 -21 -24 -25 -36 -9 -56 3 -56 33 0 33 -7 42 -26 34 -8 -3 -14 -19 -14
-39 0 -26 -4 -34 -18 -34 -15 0 -17 6 -14 35 3 27 1 35 -12 35 -9 0 -16 5 -16
10 0 6 8 10 19 10 14 0 17 6 13 25 -3 16 -10 25 -19 23 -20 -4 -30 -98 -11
-109 10 -7 10 -11 0 -21 -17 -17 -15 -28 6 -28 13 -1 11 -4 -7 -14 -24 -13
-24 -14 -4 -20 11 -4 20 -14 19 -24 0 -10 5 -16 14 -13 14 3 161 30 168 31 2
0 1 -4 -2 -9 -3 -5 26 -9 64 -9 l70 -1 0 210 0 209 -25 0 c-14 0 -25 5 -25 10
0 6 11 8 25 4 l25 -6 0 83 c0 53 -4 79 -9 70 -8 -12 -12 -12 -26 2 -9 10 -21
17 -26 17 -5 0 -9 9 -9 21 0 11 -4 28 -9 38 -7 12 -5 31 4 57 l13 39 7 -37 c6
-34 25 -54 25 -28 0 6 7 10 15 10 13 0 15 43 15 331 0 276 -2 330 -13 320 -8
-6 -17 -8 -20 -4 -4 3 -7 -1 -7 -10 0 -14 -4 -15 -26 -5 -20 10 -27 9 -34 -2
-7 -11 -12 -8 -21 14 -11 23 -10 29 2 37 19 12 76 11 84 -1 3 -5 13 -10 21
-10 12 0 14 34 14 215 0 161 -3 215 -12 215 -9 0 -9 3 0 12 16 16 16 100 0
116 -9 9 -9 15 0 24 8 8 12 45 12 100 0 74 -3 88 -16 88 -13 0 -15 -11 -12
-64 1 -35 0 -62 -4 -59 -5 2 -8 -14 -8 -36 0 -23 -4 -41 -9 -41 -14 0 0 -54
18 -68 9 -7 15 -16 14 -20 -3 -11 -36 -21 -76 -21 -34 -1 -37 -3 -23 -16 8 -8
24 -15 35 -15 11 0 23 -4 26 -10 3 -5 0 -7 -9 -4 -9 3 -17 -2 -21 -15 -7 -24
-21 -27 -28 -8 -4 9 -6 9 -6 0 -1 -7 -10 -13 -22 -13 -11 0 -28 -4 -38 -9 -12
-7 -18 -6 -19 2 -1 7 -5 29 -8 50 -5 29 -3 38 7 37 32 -5 40 0 34 21 -5 13 -3
19 3 15 5 -3 12 3 15 14 3 11 18 22 38 28 29 7 34 12 31 35 -2 18 1 27 11 27
12 0 14 13 10 68 -3 37 -11 76 -17 87 -23 36 -35 109 -37 213 -1 93 -3 102
-19 97 -9 -3 -24 -3 -33 1 -20 7 -77 95 -77 118 0 9 -3 15 -7 13 -5 -3 -9 9
-10 25 -4 53 -23 97 -38 91 -10 -3 -19 5 -26 23 -6 16 -13 23 -16 17 -3 -7
-11 -13 -19 -13 -9 0 -13 -4 -10 -9 3 -5 -1 -22 -9 -37 -14 -28 -20 -24 -27
21 -4 25 -54 28 -52 3 2 -18 -32 -21 -53 -5 -7 5 -13 6 -13 1 0 -4 -7 1 -15
12 -8 11 -15 14 -15 7 0 -25 -20 -13 -20 12 0 27 -7 30 -30 15 -13 -8 -12 -10
3 -10 12 0 17 -8 16 -27 -1 -18 -3 -22 -6 -10 -4 15 -7 16 -20 5 -13 -10 -17
-10 -20 0 -6 16 -18 15 -37 -4 -22 -22 -11 -34 32 -35 56 -1 70 -10 61 -39 -4
-14 -7 -19 -8 -12 -1 6 -5 12 -11 12 -5 0 -7 -6 -5 -12 3 -7 -6 -34 -19 -60
-19 -37 -24 -63 -25 -135 -1 -50 3 -94 10 -103 8 -11 12 -12 16 -2 6 17 23 15
23 -2 0 -8 6 -17 13 -19 6 -3 2 -6 -11 -6 -12 -1 -25 -8 -28 -16 -4 -10 -22
-15 -53 -17 l-46 -1 45 -6 c46 -6 58 -23 20 -29 -11 -2 -20 -8 -20 -14 0 -6
-9 -8 -20 -5 -16 4 -20 0 -20 -20 0 -17 -4 -23 -14 -20 -9 4 -15 -5 -20 -31
-3 -20 -4 -37 -2 -39 8 -9 51 24 52 40 2 53 3 53 39 49 l35 -4 1 -132 c1 -72
3 -155 5 -184 2 -39 -1 -55 -12 -59 -8 -3 -14 -14 -14 -24 0 -17 8 -19 70 -19
59 0 71 -3 80 -20 8 -14 21 -20 47 -20 29 0 34 3 25 12 -21 21 -14 48 13 50
57 3 60 3 57 -13 -1 -9 4 -19 13 -23 8 -3 15 -12 15 -21 0 -11 11 -15 46 -15
25 0 43 -4 40 -8 -2 -4 -64 -9 -138 -11 -317 -9 -315 -10 -299 47 5 18 6 32 1
32 -9 0 -24 66 -21 93 1 9 -3 17 -8 17 -6 0 -11 -12 -11 -27 -1 -24 -2 -26
-11 -10 -5 9 -7 22 -4 27 3 6 1 10 -4 10 -6 0 -11 -19 -11 -42 0 -24 -4 -48
-8 -54 -9 -14 -72 -27 -147 -29 -60 -1 -105 -17 -105 -35 0 -6 -4 -10 -10 -10
-5 0 -10 6 -10 13 0 9 -14 13 -47 12 -27 -1 -51 -3 -55 -4 -13 -2 -9 -22 5
-20 26 3 36 -2 31 -15 -3 -8 -11 -13 -18 -10 -7 3 -19 -2 -26 -11 -13 -16 -7
-30 13 -30 7 0 11 -8 11 -18 -2 -24 5 -21 38 13 15 17 33 30 38 30 10 0 15
-24 10 -45 -5 -19 -10 -130 -10 -190 1 -43 6 -63 17 -73 15 -11 15 -12 -1 -12
-13 0 -17 -5 -13 -20 3 -10 -1 -24 -7 -30 -19 -15 -26 -2 -15 27 5 14 7 28 4
33 -2 4 -5 39 -6 78 -2 84 -11 106 -33 77 -8 -11 -15 -29 -15 -40 0 -11 -2
-33 -4 -50 -3 -18 1 -40 10 -54 9 -14 11 -26 5 -30 -5 -3 -12 -16 -16 -27 -5
-16 -12 -20 -26 -17 -13 3 -20 0 -21 -8 -1 -8 -3 -27 -5 -44 -2 -16 -5 -47 -7
-68 -2 -34 -4 -37 -24 -32 -16 4 -26 -1 -35 -15 -9 -13 -23 -20 -43 -19 -16 0
-24 3 -17 6 18 7 15 20 -8 26 -23 6 -39 39 -22 45 7 2 12 12 12 22 0 23 18 30
48 19 13 -5 22 -5 22 1 0 6 9 10 20 10 14 0 20 7 20 21 0 16 -3 19 -12 12 -7
-6 -26 -8 -43 -6 -57 9 -225 12 -225 4 0 -4 4 -11 9 -16 5 -6 13 -27 16 -47 6
-30 4 -38 -8 -38 -8 0 -17 -7 -21 -15 -3 -8 -1 -15 4 -15 21 0 9 -19 -21 -34
-22 -11 -36 -13 -49 -6 -32 17 -63 11 -122 -25 -32 -19 -74 -39 -95 -44 -21
-5 -132 -10 -247 -10 -127 0 -228 -4 -260 -12 -28 -6 -68 -16 -88 -21 -21 -5
-47 -21 -62 -38 -13 -17 -29 -30 -34 -30 -5 0 -39 -20 -74 -44 l-64 -44 -67 7
c-67 7 -90 16 -71 29 17 11 22 35 12 55 -10 20 -34 23 -41 5 -4 -9 -6 -9 -6
-1 -1 16 -41 3 -41 -14 0 -32 -18 0 -25 44 -4 30 -14 53 -26 61 -37 26 -101
114 -90 125 6 6 16 4 27 -7 9 -10 25 -15 35 -13 19 5 68 -27 124 -82 48 -46
69 -53 161 -50 67 2 88 7 98 20 6 9 34 27 61 39 28 12 70 32 95 44 61 29 100
32 100 6 0 -13 7 -20 19 -20 17 0 18 4 11 31 -13 43 -14 44 -73 44 -46 -1
-225 -28 -269 -41 -11 -3 -17 2 -20 18 -2 17 -11 24 -38 28 -59 10 -131 50
-151 85 -23 38 -45 49 -126 65 -65 13 -98 10 -248 -24 -33 -8 -83 -17 -111
-20 l-52 -6 -6 82 c-9 120 -9 127 1 190 10 59 26 88 48 88 8 0 15 6 18 13 2 6
8 -1 12 -16 6 -22 3 -33 -14 -49 -20 -18 -22 -26 -16 -87 8 -73 13 -81 69
-100 33 -11 40 -11 55 3 26 26 22 207 -7 321 -13 52 -25 138 -29 205 -4 82
-11 128 -25 158 -11 24 -27 78 -35 120 -9 43 -24 86 -33 97 -36 44 -51 77 -54
123 -2 26 -9 60 -15 76 -18 44 -8 61 24 40 28 -18 32 -9 10 20 -19 25 -19 36
0 36 8 0 15 -4 15 -10 0 -5 8 -6 17 -3 10 4 12 8 6 10 -7 3 -17 21 -24 41 -6
20 -21 47 -32 59 -16 18 -18 25 -8 37 10 12 8 17 -13 28 -25 13 -110 160 -100
171 3 3 -1 19 -10 35 -14 28 -14 30 3 35 10 2 21 14 24 26 4 17 0 25 -19 33
-13 6 -24 17 -24 24 0 7 -9 16 -20 19 -11 4 -18 10 -15 15 3 5 -1 10 -7 13 -7
2 0 10 17 17 66 28 72 33 81 68 7 27 16 38 34 42 18 4 21 8 12 14 -8 5 -33 1
-59 -9 -33 -13 -48 -14 -56 -6 -6 6 -19 11 -29 11 -9 0 -22 9 -28 20 -6 11
-15 18 -20 15 -4 -3 -6 3 -3 13 2 10 -3 24 -11 31 -20 17 -21 35 -1 27 8 -3
15 -1 15 4 0 6 11 10 24 10 26 0 53 24 37 34 -5 3 -12 0 -14 -6 -4 -9 -8 -10
-14 -2 -4 6 -16 13 -25 17 -10 3 -25 21 -33 39 -8 18 -13 26 -11 16 7 -24 -5
-30 -20 -10 -19 25 -18 46 3 38 16 -6 16 -6 0 12 -9 10 -17 23 -17 28 0 5 -19
31 -42 57 -43 47 -43 47 -108 47 -36 0 -76 -6 -90 -13z m-560 -1844 c7 -32 21
-70 31 -85 11 -15 19 -43 19 -67 0 -39 13 -56 22 -29 3 7 12 0 23 -17 10 -17
27 -43 38 -60 28 -39 25 -53 -24 -149 -24 -44 -53 -100 -65 -123 -21 -43 -21
-43 -40 -22 -14 16 -26 19 -51 14 -28 -5 -33 -3 -33 14 0 24 -16 36 -23 19 -3
-7 -3 29 0 81 5 70 3 92 -5 87 -9 -5 -12 24 -14 111 -3 232 -7 208 43 248 24
19 49 35 56 35 6 0 17 -26 23 -57z m3846 -128 c-19 -14 -19 -15 7 -15 15 0 27
-6 28 -12 6 -145 3 -278 -7 -305 -7 -18 -10 -33 -6 -33 4 0 0 -5 -10 -10 -20
-12 -48 -3 -49 16 -1 8 -3 26 -5 42 -2 15 -6 53 -10 85 -3 31 -10 60 -15 63
-5 3 -9 16 -9 29 0 13 -6 28 -14 32 -22 13 -30 52 -12 59 9 3 16 12 16 20 0 8
5 14 11 14 6 0 9 7 5 15 -4 12 4 15 42 15 43 -1 46 -2 28 -15z m-3781 -504
c-6 -38 -22 -86 -34 -106 -12 -21 -24 -54 -26 -74 -2 -20 -4 -37 -4 -38 -1 -2
0 -5 2 -6 1 -2 -4 -11 -11 -20 -12 -14 -12 -19 2 -32 18 -19 19 -33 6 -130 -5
-38 -5 -72 -1 -75 24 -17 45 -410 23 -418 -8 -2 -6 -13 8 -32 11 -15 20 -31
20 -35 0 -17 -66 -70 -89 -71 -20 0 -27 -8 -34 -35 -15 -56 -24 -10 -26 124 0
65 -2 121 -5 125 -2 4 -5 151 -7 326 -3 252 -1 320 9 324 9 3 12 -9 11 -46 -2
-51 5 -72 23 -72 14 0 4 148 -11 163 -12 12 -15 30 -3 24 4 -3 22 3 40 13 22
12 29 20 20 24 -7 3 -3 4 9 2 20 -4 52 19 51 37 0 13 14 81 18 89 16 25 19 -1
9 -61z m1298 -38 c27 -25 55 -56 61 -67 7 -12 35 -58 61 -103 55 -95 78 -110
192 -126 40 -6 73 -16 73 -21 0 -6 -37 -20 -83 -31 -65 -16 -103 -19 -187 -15
-102 5 -106 6 -137 37 -17 18 -41 50 -54 70 -12 21 -37 54 -54 73 -17 19 -36
51 -44 70 -7 19 -19 50 -27 68 -12 28 -19 71 -11 73 1 0 22 3 47 6 25 3 47 7
49 9 2 2 18 4 35 4 23 0 43 -12 79 -47z m-1577 -77 c9 -4 14 2 15 17 1 15 4
10 9 -13 11 -46 25 -329 36 -750 3 -102 6 -206 7 -232 0 -27 5 -48 9 -48 13 0
9 -22 -8 -41 -9 -10 -22 -15 -29 -13 -8 3 -21 -6 -30 -20 -14 -20 -25 -26 -54
-25 -33 0 -34 1 -13 11 12 6 23 16 23 22 6 47 5 57 -3 62 -4 3 -15 21 -23 40
-8 19 -19 34 -24 34 -15 0 -14 -17 2 -23 9 -4 9 -7 0 -18 -8 -7 -9 -17 -4 -23
8 -10 15 -55 12 -81 -1 -5 -10 8 -21 30 -11 21 -19 46 -17 54 1 8 -6 17 -15
19 -12 2 -17 -5 -20 -24 -5 -41 -26 -41 -34 0 -3 20 -10 33 -15 30 -5 -3 -9 2
-9 11 0 15 -2 15 -15 1 -17 -16 -20 -30 -6 -21 5 3 12 1 16 -5 3 -5 -1 -10 -9
-10 -8 0 -18 4 -21 10 -11 17 -25 11 -18 -7 6 -16 5 -16 -10 -4 -9 7 -17 20
-17 28 0 20 -29 73 -40 73 -6 0 -9 -6 -7 -12 1 -8 -7 -12 -21 -10 -12 2 -22 0
-21 -5 1 -4 0 -12 -1 -18 -1 -5 -3 -23 -3 -40 -3 -41 -40 -47 -69 -10 -11 15
-31 31 -44 35 -13 5 -24 16 -24 25 0 21 -28 19 -32 -2 -3 -16 -6 -15 -26 5
l-23 24 23 -7 23 -6 -23 20 c-21 18 -23 26 -17 62 7 38 6 41 -13 35 -12 -4
-24 -2 -29 6 -11 19 -53 44 -85 52 -15 3 -39 18 -52 33 l-25 27 -27 -27 c-31
-31 -46 -34 -65 -11 -7 9 -22 14 -35 11 -16 -3 -25 3 -34 22 -7 14 -16 33 -20
41 -9 19 -1 80 11 80 5 0 9 7 9 15 0 15 62 22 151 16 22 -1 43 4 52 13 21 21
26 20 20 -3 -4 -17 2 -18 70 -17 52 1 73 5 70 13 -2 6 5 14 16 18 12 3 21 13
21 21 0 8 8 18 18 21 24 10 55 51 58 79 1 13 -5 33 -14 44 -15 17 -22 19 -51
10 -48 -14 -75 -4 -89 32 -6 18 -11 32 -9 33 12 10 57 13 62 5 12 -19 35 -10
35 13 0 17 10 29 34 42 35 19 41 18 91 -15 60 -40 75 -35 75 23 0 18 5 27 16
27 9 0 14 7 12 18 -2 10 -13 17 -27 17 -15 0 -27 8 -32 22 -4 12 -15 26 -25
31 -21 12 -10 18 46 26 36 4 50 2 68 -14 13 -11 21 -23 19 -27 -3 -5 22 -9 56
-9 40 -1 55 1 42 7 -16 6 -17 8 -3 8 18 1 41 34 31 45 -3 3 0 6 8 6 8 0 28 16
44 35 17 19 38 35 48 35 9 0 18 8 18 18 1 15 2 15 6 0 2 -9 11 -19 19 -22z
m574 -341 c0 -12 6 -28 13 -34 8 -6 12 -23 9 -40 -2 -16 1 -32 8 -36 10 -6 12
14 7 91 -3 54 -9 110 -13 124 -6 23 -4 22 18 -7 17 -22 28 -56 37 -115 14 -91
27 -128 48 -128 16 0 16 8 -2 40 -8 14 -14 38 -15 54 0 29 0 29 34 -16 19 -24
40 -63 47 -87 7 -23 22 -49 33 -56 25 -18 34 -11 13 9 -8 9 -18 30 -22 48 -4
18 -9 41 -11 51 -10 32 11 17 28 -20 9 -21 26 -49 37 -62 19 -22 21 -22 20 -5
-5 47 0 54 31 48 36 -8 39 7 9 37 -11 11 -17 24 -13 27 3 4 9 1 11 -5 3 -7 15
-13 27 -13 42 0 74 -23 79 -58 3 -18 18 -47 32 -64 25 -30 27 -36 23 -125 -3
-86 0 -97 23 -95 4 1 15 -8 24 -18 16 -18 17 -24 5 -61 -12 -36 -12 -44 5 -75
16 -30 17 -37 4 -45 -12 -8 -6 -13 13 -10 4 0 12 -9 19 -20 12 -23 5 -69 -11
-69 -6 0 -10 -9 -10 -20 0 -11 -4 -20 -10 -20 -5 0 -11 -12 -11 -27 -1 -16 -3
-21 -6 -11 -3 13 -12 15 -41 11 -30 -4 -34 -2 -22 7 15 12 8 11 -57 -6 -15 -4
-23 -2 -23 6 0 6 -6 18 -14 26 -9 9 -12 26 -9 52 l5 39 -62 0 c-34 1 -75 -3
-89 -7 -45 -13 -220 8 -267 32 -41 20 -42 22 -49 82 -3 34 -5 89 -4 122 1 33
-3 69 -9 81 -14 26 -16 75 -3 89 24 26 32 83 20 150 -11 64 -11 68 10 85 25
20 26 44 6 119 -23 85 -18 88 30 16 25 -37 45 -78 45 -91z m-1046 -665 c16 -6
26 -17 26 -29 0 -10 9 -21 20 -24 24 -6 27 -42 4 -51 -51 -20 -91 10 -51 38
18 12 19 15 5 15 -9 1 -20 -3 -23 -9 -12 -19 -160 -81 -201 -84 -38 -3 -110
-24 -161 -48 -12 -6 -19 -16 -16 -24 3 -8 1 -14 -5 -14 -5 0 -13 7 -16 16 -5
13 -9 13 -32 -5 -26 -20 -54 -28 -54 -14 0 14 34 43 50 43 10 0 23 6 29 13 6
8 30 19 53 26 24 7 66 21 95 31 28 10 61 16 72 13 17 -4 21 -1 21 20 0 22 10
31 73 61 83 40 78 39 111 26z m2598 -24 c10 -5 16 -11 14 -15 -3 -4 -1 -13 4
-21 7 -12 10 -11 16 5 12 33 44 47 44 20 0 -8 -4 -15 -9 -15 -15 0 -19 -39 -5
-51 11 -9 14 -9 14 0 0 8 8 10 21 6 15 -5 19 -4 15 4 -4 6 -1 11 6 11 8 0 6 5
-4 11 -26 15 -22 33 11 46 32 12 51 2 51 -28 0 -23 31 -34 42 -15 11 19 39 9
31 -11 -5 -12 -15 -14 -45 -9 -27 4 -37 3 -33 -4 4 -6 1 -17 -5 -25 -7 -8 -9
-15 -6 -15 4 0 2 -10 -5 -22 -10 -19 -9 -20 7 -13 11 4 29 10 42 12 13 3 22
13 22 24 0 11 5 19 11 19 7 0 10 -14 7 -35 -3 -31 -1 -36 26 -45 25 -9 33 -7
52 11 25 23 41 19 53 -15 7 -18 9 -14 16 22 4 23 10 42 15 42 4 0 6 -9 3 -20
-6 -23 -8 -23 35 -11 20 6 32 6 32 0 0 -16 29 -10 39 8 10 19 23 13 27 -12 1
-8 -4 -15 -12 -15 -21 0 -17 -38 6 -50 15 -8 21 -6 29 8 7 13 7 22 -1 30 -5 5
-7 15 -4 21 8 13 44 -8 87 -52 30 -29 49 -29 49 2 0 30 31 82 54 91 32 12 39
1 14 -20 l-23 -19 33 -34 c19 -19 30 -37 25 -39 -4 -3 -2 -3 5 -1 7 1 22 -2
33 -8 15 -7 24 -7 34 1 11 9 18 7 34 -9 35 -35 75 -23 60 18 -8 19 -15 23 -43
19 -25 -3 -37 1 -45 14 -15 24 -14 64 2 66 36 3 81 19 85 30 2 8 -3 10 -15 7
-10 -3 -3 2 16 10 45 21 64 14 51 -19 -5 -14 -5 -28 -1 -31 13 -7 39 4 45 21
3 7 12 11 21 8 13 -5 12 -10 -6 -35 -11 -16 -27 -29 -34 -29 -22 0 -45 -51
-32 -71 5 -9 7 -29 3 -44 -5 -20 -10 -25 -15 -16 -11 17 -23 -1 -27 -38 -2
-13 -10 -31 -18 -39 -17 -17 -40 -6 -32 15 4 8 -5 28 -19 45 -23 27 -30 28
-26 5 1 -4 -8 -3 -20 3 -14 8 -19 18 -15 32 4 16 -4 12 -35 -18 -21 -21 -39
-34 -39 -29 0 6 -5 2 -11 -8 -12 -20 -29 -23 -29 -4 0 7 -8 29 -19 50 l-19 37
-4 -30 c-3 -17 -1 -30 4 -30 4 0 8 -4 8 -9 0 -6 -12 -6 -32 0 -42 12 -44 11
-30 -3 18 -18 15 -49 -3 -42 -8 4 -15 13 -15 21 0 8 -13 19 -30 24 -16 6 -30
18 -30 26 0 11 -5 13 -17 8 -10 -4 -34 -11 -53 -15 -19 -4 -42 -11 -51 -14
-12 -5 -18 -1 -22 15 -4 14 -11 20 -21 16 -8 -3 -17 -1 -19 6 -3 7 -13 1 -26
-16 -25 -30 -41 -28 -42 6 0 21 -1 21 -8 2 -5 -11 -6 -25 -4 -31 6 -16 -10
-25 -25 -15 -10 6 -10 15 -3 34 15 38 -2 34 -38 -10 -17 -20 -33 -34 -37 -30
-4 4 -1 13 6 22 10 12 10 15 -4 15 -9 0 -22 -11 -28 -25 -14 -30 -28 -33 -28
-5 0 27 -25 25 -44 -2 -15 -21 -16 -21 -36 -3 -14 13 -18 25 -13 42 3 15 1 28
-6 33 -19 11 11 94 35 97 17 2 17 1 2 -3 -21 -6 -24 -24 -4 -24 43 0 59 27 31
50 -12 10 -18 10 -30 0 -12 -10 -15 -10 -15 4 0 9 -7 16 -15 16 -8 0 -15 9
-15 20 0 15 -7 20 -24 20 -14 0 -28 -4 -31 -10 -10 -16 -25 -12 -25 6 0 11 -6
15 -20 11 -15 -4 -22 1 -26 19 -3 13 -2 30 4 37 11 13 66 15 94 3z m1641 -53
c-20 -7 -15 -23 6 -23 10 0 25 -7 32 -16 11 -14 11 -18 -5 -29 -16 -12 -16
-14 4 -20 16 -5 19 -10 10 -20 -9 -11 -6 -14 12 -17 21 -4 21 -5 -7 -13 -16
-5 -36 -14 -43 -21 -13 -14 -42 -8 -42 8 0 5 -9 21 -19 34 l-20 25 -3 -37 -3
-36 -25 21 c-14 12 -20 20 -13 19 6 -2 10 0 10 3 -1 4 6 16 17 28 16 17 17 23
6 36 -7 9 -11 16 -9 18 49 28 86 46 94 46 6 0 4 -3 -2 -6z m-399 -16 c-9 -25
21 -39 60 -29 27 8 36 7 40 -3 6 -18 81 -38 107 -30 32 10 32 -18 1 -76 -23
-42 -34 -54 -53 -54 -19 0 -25 6 -27 28 -4 30 -22 27 -22 -4 0 -11 -7 -20 -17
-20 -10 -1 -25 -2 -33 -3 -8 -1 -20 -4 -27 -9 -7 -4 -22 3 -37 16 -29 27 -36
63 -10 53 9 -3 20 -6 26 -6 6 0 8 -7 5 -15 -5 -10 4 -16 29 -21 28 -5 38 -2
49 12 22 29 18 44 -15 55 -16 6 -30 15 -30 21 0 5 -23 8 -52 6 -44 -2 -53 0
-56 15 -6 30 7 65 26 70 32 9 41 7 36 -6z m-1500 -78 c-2 -4 5 -9 17 -11 12
-2 28 -13 36 -24 12 -19 12 -24 -2 -38 -18 -18 -85 -22 -85 -5 0 6 -15 10 -32
8 -77 -5 -118 1 -138 21 -11 11 -27 20 -36 20 -9 0 -14 6 -12 13 7 19 53 20
72 2 18 -19 41 -22 75 -11 16 6 21 5 17 -3 -9 -14 -3 -14 27 0 14 6 31 22 38
35 9 17 15 21 20 12 4 -7 6 -15 3 -19z"/>
<path d="M3838 2173 c0 -10 -1 -26 0 -35 3 -32 -17 -71 -31 -61 -6 6 -22 13
-34 16 -22 5 -23 3 -17 -33 5 -31 2 -42 -15 -56 -11 -10 -24 -33 -27 -51 -3
-18 -12 -33 -20 -33 -7 0 -17 -6 -21 -14 -4 -7 -24 -23 -43 -35 -23 -14 -29
-21 -17 -21 10 0 20 -7 23 -15 7 -16 59 -15 184 5 93 16 139 14 160 -5 23 -21
64 -19 85 5 15 17 16 20 3 20 -9 0 -18 10 -21 21 -5 19 -11 21 -41 15 l-36 -7
7 33 c3 18 8 35 10 38 9 10 79 8 102 -3 19 -10 25 -8 37 7 11 16 16 17 29 6
19 -16 29 -8 21 18 -6 18 -16 20 -73 21 -62 0 -106 17 -75 28 20 8 15 53 -6
53 -11 0 -23 13 -31 35 -14 39 -35 48 -26 12 4 -14 1 -28 -8 -35 -12 -10 -16
-8 -20 10 -4 13 -1 26 6 30 7 5 0 6 -16 2 -22 -5 -31 -1 -48 20 -24 30 -38 33
-41 9z"/>
</g>
</svg>
