<?xml version="1.0" standalone="no"?>
<!DOCTYPE svg PUBLIC "-//W3C//DTD SVG 20010904//EN"
 "http://www.w3.org/TR/2001/REC-SVG-20010904/DTD/svg10.dtd">
<svg version="1.0" xmlns="http://www.w3.org/2000/svg"
 width="547.000000pt" height="800.000000pt" viewBox="0 0 547.000000 800.000000"
 preserveAspectRatio="xMidYMid meet">
<metadata>
Created by potrace 1.16, written by Peter Selinger 2001-2019
</metadata>
<g transform="translate(0.000000,800.000000) scale(0.100000,-0.100000)"
fill="#000000" stroke="none">
<path d="M0 7306 c0 -539 3 -696 13 -699 9 -4 9 -6 0 -6 -10 -1 -13 -668 -13
-3301 l0 -3300 2735 0 2735 0 0 4000 0 4000 -2735 0 -2735 0 0 -694z m2574
-892 c1 -33 4 -38 29 -41 26 -3 27 -2 27 37 0 36 2 40 25 40 24 0 25 -2 25
-70 0 -49 4 -70 13 -70 9 0 9 -2 -1 -9 -8 -4 -12 -17 -10 -27 2 -13 -4 -20
-18 -22 -18 -3 -22 4 -28 37 -6 38 -9 41 -37 41 -31 0 -31 -1 -26 -36 8 -46
-17 -59 -45 -23 -11 13 -15 25 -10 27 5 1 7 32 4 72 -4 66 -4 70 19 79 30 11
32 9 33 -35z m614 19 c28 -14 32 -20 32 -56 0 -26 -6 -44 -17 -52 -15 -11 -15
-15 6 -41 20 -25 21 -29 6 -32 -9 -2 -24 0 -33 4 -9 4 -20 8 -24 8 -3 1 -10 5
-15 10 -5 5 -3 6 5 2 6 -4 12 -3 12 2 0 9 -22 22 -36 22 -3 0 -9 -11 -14 -25
-5 -14 -16 -25 -25 -25 -12 0 -15 15 -16 73 -1 39 -3 83 -4 97 -1 14 2 28 8
32 14 9 75 -1 115 -19z m530 -10 c3 -19 -1 -20 -42 -16 -42 5 -46 4 -46 -16 0
-18 6 -21 40 -21 33 0 40 -3 40 -20 0 -17 -7 -20 -40 -20 -58 0 -54 -27 6 -36
34 -5 44 -10 42 -23 -3 -13 -15 -16 -62 -14 -32 1 -61 4 -64 8 -4 4 -7 46 -7
93 l0 87 40 5 c56 8 89 -2 93 -27z m896 12 c7 -19 -12 -30 -53 -30 -36 0 -53
-18 -26 -28 8 -4 15 -1 15 5 0 6 6 5 17 -3 9 -8 19 -12 22 -9 3 3 7 -5 9 -17
3 -21 -1 -23 -37 -23 -32 0 -39 -3 -35 -15 4 -10 20 -15 45 -15 35 0 39 -3 39
-24 0 -24 -2 -24 -57 -19 -89 7 -84 1 -81 105 l3 93 67 -3 c45 -3 68 -8 72
-17z m236 -6 c0 -19 -23 -25 -73 -19 -13 1 -18 -4 -15 -17 3 -14 12 -18 41
-17 33 1 37 -2 37 -22 0 -21 -5 -24 -40 -24 -34 0 -40 -3 -40 -21 0 -20 4 -21
46 -15 43 5 45 5 42 -17 -3 -20 -8 -22 -68 -22 l-65 0 0 100 0 100 68 -3 c58
-3 67 -6 67 -23z m-1960 18 c0 -1 16 -41 35 -87 19 -46 35 -90 35 -97 0 -20
-28 -15 -42 7 -9 13 -24 20 -46 20 -29 0 -33 -3 -30 -22 2 -18 -1 -22 -17 -20
-38 6 -48 12 -38 25 17 23 33 85 27 103 -5 15 -4 16 5 4 8 -12 11 -11 16 5 16
49 26 65 40 65 8 0 15 -1 15 -3z m572 -21 c19 -20 23 -33 20 -61 -4 -30 -11
-39 -43 -55 -21 -11 -45 -17 -53 -14 -12 5 -16 0 -16 -20 0 -19 -5 -26 -20
-26 -19 0 -20 7 -20 100 l0 100 54 0 c43 0 58 -5 78 -24z m480 13 c14 -8 22
-8 27 0 4 5 8 -12 9 -39 2 -39 -2 -54 -17 -67 -20 -16 -20 -17 0 -45 l20 -28
-24 0 c-13 0 -32 9 -42 20 -24 26 -43 25 -47 -2 -2 -15 -10 -23 -23 -23 -19 0
-20 7 -20 98 l-1 97 49 0 c26 0 58 -5 69 -11z m-1539 -1894 c0 -20 2 -23 13
-14 8 6 12 14 10 18 -5 11 28 36 49 36 14 0 19 -6 17 -19 -3 -14 1 -17 13 -12
9 3 14 2 10 -4 -4 -6 -14 -9 -23 -8 -11 2 -17 -3 -16 -14 1 -10 -2 -16 -6 -13
-22 13 -17 -17 6 -45 35 -41 20 -59 -22 -28 -17 13 -29 29 -27 36 3 6 -1 12
-9 12 -8 0 -15 -12 -16 -27 -5 -63 -47 -51 -48 14 0 23 3 40 8 37 5 -3 6 18 3
46 l-5 51 21 -20 c12 -11 22 -31 22 -46z m862 5 l28 -29 28 31 c43 45 55 33
51 -51 -3 -62 -6 -71 -23 -71 -15 0 -19 7 -19 38 -1 33 -2 35 -14 20 -16 -22
-35 -23 -42 -3 -10 26 -22 16 -20 -15 1 -17 -1 -35 -5 -41 -12 -20 -36 -2 -41
30 -2 16 -1 28 4 25 4 -3 8 18 8 45 0 28 4 51 8 51 5 0 21 -13 37 -30z m-2255
-1900 c11 -11 20 -30 20 -42 0 -25 -37 -68 -58 -68 -8 0 -20 -7 -27 -17 -7 -9
-19 -14 -29 -10 -13 5 -16 21 -16 75 0 38 3 72 7 75 15 15 83 7 103 -13z m534
-74 c9 -43 8 -50 -10 -63 -18 -13 -19 -12 -24 29 -7 56 -34 60 -38 6 -2 -24
-8 -38 -17 -38 -14 0 -30 34 -21 48 2 4 1 14 -4 21 -13 22 -30 2 -30 -35 0
-27 -4 -34 -19 -34 -15 0 -20 9 -22 43 -7 76 -8 74 89 73 l87 -1 9 -49z"/>
</g>
</svg>
