<?xml version="1.0" standalone="no"?>
<!DOCTYPE svg PUBLIC "-//W3C//DTD SVG 20010904//EN"
 "http://www.w3.org/TR/2001/REC-SVG-20010904/DTD/svg10.dtd">
<svg version="1.0" xmlns="http://www.w3.org/2000/svg"
 width="564.000000pt" height="809.000000pt" viewBox="0 0 564.000000 809.000000"
 preserveAspectRatio="xMidYMid meet">
<metadata>
Created by potrace 1.16, written by Peter Selinger 2001-2019
</metadata>
<g transform="translate(0.000000,809.000000) scale(0.100000,-0.100000)"
fill="#000000" stroke="none">
<path d="M0 4045 l0 -4045 2820 0 2820 0 0 4045 0 4045 -2820 0 -2820 0 0
-4045z m2101 3653 c1 -7 0 -20 -1 -27 -1 -12 1 -13 13 -2 11 8 17 9 22 1 4 -6
15 -8 26 -5 12 4 26 0 37 -11 16 -16 17 -16 20 -1 2 9 8 17 13 17 6 0 8 -3 6
-7 -3 -5 8 -8 24 -9 16 -1 29 2 29 6 0 17 40 18 50 2 6 -11 10 -12 11 -4 1 6
3 17 4 22 1 6 3 13 4 16 0 3 10 -4 21 -17 16 -19 21 -21 29 -10 5 8 14 10 22
5 24 -15 99 -12 108 4 6 11 12 12 30 3 12 -7 26 -9 31 -6 6 4 14 -4 19 -17 7
-18 10 -20 15 -8 8 19 77 25 88 8 6 -10 10 -10 17 0 6 11 10 9 14 -7 5 -21 2
-21 -139 -21 -105 0 -144 3 -144 12 0 9 -3 9 -12 0 -9 -9 -68 -12 -204 -12
-187 0 -192 1 -187 20 3 11 9 20 14 20 5 0 9 5 9 10 0 6 -17 10 -37 10 -28 0
-34 3 -23 10 22 14 70 12 71 -2z m-940 -114 c3 -10 4 -108 1 -217 -4 -157 -2
-204 9 -225 18 -35 28 -41 53 -35 12 3 29 5 38 5 10 -1 20 4 24 9 4 6 11 6 20
-2 11 -9 14 -8 14 5 0 11 7 16 18 14 9 -1 23 1 31 6 8 5 16 4 20 -3 4 -6 15
-9 24 -5 9 3 23 -1 32 -10 15 -14 19 -14 47 0 18 9 27 11 23 4 -6 -9 -2 -9 12
-1 11 6 23 7 27 3 4 -3 11 0 17 8 8 13 10 13 19 0 6 -10 10 -11 10 -2 0 15 36
16 46 1 3 -6 15 -9 25 -6 11 3 19 0 20 -6 0 -8 2 -8 6 0 3 8 14 11 29 7 16 -4
24 -2 24 7 0 11 2 11 10 -1 5 -8 12 -11 16 -7 4 4 14 1 22 -5 11 -10 17 -9 27
5 11 16 25 18 102 13 48 -2 95 -7 104 -11 10 -3 20 -1 24 5 5 8 11 8 22 -1 9
-8 17 -9 21 -3 9 13 254 16 247 3 -4 -5 -2 -9 4 -9 5 0 13 5 17 11 4 8 64 9
198 5 212 -6 231 -8 242 -18 12 -12 41 -9 53 6 9 11 91 13 457 10 245 -1 448
-5 451 -8 6 -6 -40 -8 -252 -11 -66 -1 -154 -5 -195 -9 -41 -3 -201 -8 -355
-11 -263 -5 -438 -9 -850 -20 -93 -3 -368 -7 -610 -11 l-440 -6 -3 28 c-1 15
4 31 10 36 10 6 10 10 -2 19 -12 9 -11 10 8 6 12 -3 22 -1 22 4 0 5 -4 9 -10
9 -5 0 -10 9 -10 20 0 11 -6 20 -14 20 -7 0 -16 9 -19 21 -4 14 -2 19 8 15 15
-5 29 20 19 36 -3 5 -12 7 -20 4 -19 -7 -46 45 -33 65 7 11 10 9 15 -9 5 -18
12 -23 30 -19 13 2 25 -1 28 -7 2 -6 5 4 5 22 1 17 -4 32 -10 32 -6 0 -9 -6
-6 -14 3 -8 -2 -16 -15 -19 -17 -5 -19 -2 -15 18 2 16 -3 32 -17 47 -14 15
-16 20 -5 16 9 -3 21 -3 27 1 15 9 32 100 21 107 -4 2 -6 11 -3 19 4 8 10 13
14 10 5 -3 16 5 24 17 12 17 13 24 3 30 -7 5 -3 7 12 5 14 -2 28 -12 32 -23z
m649 -152 c27 -34 27 -101 0 -130 -48 -51 -131 -32 -149 33 -10 37 -8 51 11
92 22 46 104 49 138 5z m1099 7 c19 -21 33 -64 23 -74 -3 -3 -38 -5 -78 -5
-72 0 -73 0 -65 -22 4 -13 20 -29 36 -37 24 -12 30 -11 56 8 44 33 70 23 31
-12 -49 -45 -131 -24 -152 38 -13 40 -6 70 23 103 28 30 98 31 126 1z m1110
11 c44 -23 51 -118 12 -154 -10 -9 -35 -19 -54 -23 -77 -12 -128 95 -76 161
16 20 29 26 60 26 22 0 48 -4 58 -10z m-2575 -626 c4 -53 4 -99 2 -102 -3 -3
-26 -7 -50 -9 -58 -5 -86 20 -86 75 0 52 27 77 75 69 34 -6 35 -5 35 29 0 19
4 34 9 34 4 0 11 -43 15 -96z m1389 54 c40 -48 9 -118 -55 -120 -50 -2 -78 24
-78 71 0 44 8 57 40 70 33 13 71 5 93 -21z m-1134 -25 c52 -43 22 -133 -44
-133 -48 0 -79 29 -79 75 0 65 73 99 123 58z m465 -1114 c-19 -22 -19 -22 2
-11 12 6 24 8 28 5 3 -3 6 0 6 8 0 18 81 24 92 6 8 -13 78 -18 78 -5 0 4 4 8
10 8 5 0 7 -7 4 -15 -4 -8 -1 -15 4 -15 6 0 13 -8 15 -17 4 -14 5 -13 6 4 1
25 21 42 21 18 0 -9 5 -13 10 -10 6 3 13 -1 16 -10 6 -14 9 -14 16 -3 7 9 8 4
4 -14 -6 -28 8 -48 18 -26 5 10 7 10 12 1 8 -19 37 -16 30 2 -4 11 1 15 17 15
12 0 17 4 11 8 -7 5 -6 15 3 32 7 14 13 22 14 18 1 -5 3 -12 4 -18 1 -5 3 -14
4 -20 0 -5 6 -10 11 -10 10 0 27 -12 53 -37 9 -8 16 -7 30 4 19 18 23 4 8 -26
-7 -13 -5 -17 9 -17 10 0 16 4 14 8 -7 10 5 48 14 47 20 -3 32 2 27 11 -3 6
-18 7 -32 4 -19 -5 -24 -3 -21 7 5 17 48 25 48 10 0 -21 20 -11 26 13 8 32 35
43 31 13 -1 -17 5 -22 28 -27 20 -4 26 -8 18 -13 -7 -5 -16 -6 -20 -4 -5 3
-21 -1 -38 -8 l-30 -14 35 6 c34 5 34 5 15 -11 -19 -15 -19 -17 -3 -29 13 -11
15 -16 6 -25 -8 -8 -9 -15 -2 -22 17 -17 37 7 38 44 1 33 15 53 17 24 0 -7 4
-2 10 10 5 13 7 28 4 33 -4 5 1 6 9 3 12 -5 13 -10 5 -25 -14 -28 -1 -42 32
-35 18 3 34 0 43 -10 8 -8 20 -13 27 -12 6 2 13 -5 14 -16 6 -33 23 -42 39
-20 8 10 12 21 9 24 -3 3 -8 -1 -10 -7 -8 -22 -25 -14 -18 7 4 11 2 20 -4 20
-6 0 -11 9 -11 21 0 15 4 19 19 14 11 -3 22 -1 26 5 10 17 25 1 25 -27 0 -21
-2 -24 -15 -13 -9 8 -15 8 -15 2 0 -14 27 -21 71 -18 26 2 36 -1 32 -10 -3 -8
-16 -11 -38 -7 -19 3 -35 1 -39 -6 -4 -6 -2 -11 4 -11 7 0 10 -7 7 -15 -5 -11
-1 -12 16 -7 28 10 109 0 85 -10 -9 -4 -28 -5 -43 -2 -23 4 -25 2 -19 -20 4
-17 1 -27 -13 -34 -13 -8 -15 -14 -7 -22 11 -11 19 -9 63 17 2 2 -4 12 -14 23
-22 24 -8 26 23 4 22 -15 25 -15 45 2 12 11 23 20 25 20 2 1 5 10 7 21 2 10 4
20 4 22 2 8 61 -59 61 -69 0 -5 5 -10 11 -10 7 0 10 12 7 30 -3 17 -1 30 4 30
4 0 8 -13 8 -29 0 -32 -23 -57 -41 -45 -7 4 -10 2 -7 -7 3 -8 -1 -22 -10 -31
-14 -16 -13 -18 6 -18 11 0 24 -5 28 -12 9 -14 -25 -40 -43 -34 -7 3 -13 1
-13 -4 0 -6 8 -10 18 -11 10 0 12 -3 5 -6 -22 -8 -14 -23 12 -23 14 0 25 -5
25 -11 0 -5 -4 -8 -9 -5 -16 10 -33 -23 -27 -50 6 -23 5 -25 -16 -18 -21 6
-22 6 -8 -11 14 -17 13 -18 -2 -12 -10 3 -20 1 -24 -4 -3 -6 -17 -9 -29 -7
-16 4 -22 1 -18 -8 3 -9 11 -10 29 -4 13 5 24 7 24 4 0 -8 -52 -54 -61 -54 -5
0 -11 -11 -15 -25 -3 -14 -11 -22 -16 -19 -6 4 -8 -2 -3 -15 4 -13 1 -29 -7
-38 -11 -14 -11 -16 2 -9 8 4 6 0 -5 -9 -11 -9 -19 -21 -17 -27 2 -6 -4 -8
-12 -5 -9 4 -18 2 -21 -3 -4 -6 1 -10 9 -10 23 0 29 -18 12 -36 -18 -17 -21
-28 -6 -19 16 10 11 -31 -5 -45 -8 -7 -15 -18 -15 -26 0 -7 -8 -18 -17 -23
-15 -9 -14 -10 11 -11 l29 0 -27 -21 c-24 -19 -38 -48 -16 -34 6 3 10 -1 10
-9 0 -9 -4 -16 -10 -16 -18 0 -11 -20 8 -21 9 0 12 -3 5 -5 -7 -3 -9 -12 -6
-20 3 -8 1 -14 -4 -14 -5 0 -10 -24 -11 -52 -2 -105 -6 -158 -13 -158 -4 0 -5
-16 -2 -37 5 -28 3 -34 -7 -28 -9 6 -11 4 -5 -5 4 -7 2 -16 -6 -21 -12 -8 -11
-11 4 -20 9 -5 17 -15 17 -20 0 -6 -4 -7 -10 -4 -5 3 -10 -1 -10 -9 0 -9 -7
-16 -15 -16 -21 0 -19 -46 2 -54 14 -6 15 -9 4 -15 -7 -5 -13 -19 -12 -32 3
-56 7 -74 16 -81 7 -5 7 -11 0 -15 -12 -9 -13 -23 -1 -41 4 -7 5 -20 2 -28 -3
-8 -2 -12 3 -9 5 3 12 1 16 -5 3 -6 -1 -13 -10 -17 -16 -5 -16 -7 -1 -15 9 -5
16 -14 16 -19 0 -6 -4 -8 -9 -4 -5 3 -12 1 -15 -4 -3 -5 2 -12 11 -15 15 -6
15 -8 3 -16 -13 -8 -12 -10 3 -10 9 0 17 -7 17 -16 0 -9 10 -25 22 -35 21 -19
21 -20 2 -34 -11 -8 -14 -15 -6 -15 6 0 12 -5 12 -12 0 -6 7 -19 15 -28 12
-13 13 -23 5 -44 -12 -32 -6 -46 18 -46 15 0 15 -2 2 -10 -8 -5 -10 -10 -5
-10 6 0 4 -4 -4 -9 -16 -10 -6 -31 14 -31 9 0 12 -6 9 -15 -4 -8 -1 -15 6 -15
6 0 9 -4 6 -9 -4 -5 -1 -11 6 -13 8 -3 5 -11 -9 -23 -12 -10 -20 -22 -17 -27
3 -4 -2 -8 -10 -8 -9 0 -16 -8 -16 -19 0 -28 -65 -123 -95 -139 -14 -7 -25
-20 -25 -30 0 -13 -4 -12 -20 8 -11 14 -20 19 -20 11 0 -10 -3 -11 -14 -2 -11
9 -15 9 -18 -1 -4 -10 -8 -11 -20 0 -22 18 -74 -8 -55 -28 10 -10 7 -11 -14
-6 -28 6 -56 -14 -45 -33 4 -5 0 -13 -8 -18 -8 -4 -16 -26 -18 -48 -2 -33 1
-43 20 -56 l24 -17 -30 -18 c-26 -15 -30 -22 -25 -48 2 -17 5 -39 6 -49 1 -11
7 -16 17 -12 9 3 7 -1 -5 -11 -14 -11 -16 -18 -7 -21 6 -3 10 -8 7 -13 -3 -4
2 -14 11 -21 13 -11 14 -9 9 14 -5 17 -3 27 4 27 6 0 11 -9 11 -19 0 -29 17
-34 24 -8 6 21 7 21 20 4 9 -12 15 -14 18 -6 3 8 9 7 20 -5 9 -9 30 -16 47
-16 17 0 31 -5 31 -11 0 -5 -4 -7 -10 -4 -5 3 -10 1 -10 -5 0 -8 9 -10 25 -6
19 5 25 2 26 -11 0 -16 2 -15 9 2 6 14 9 4 9 -37 1 -47 -2 -59 -19 -68 -12 -7
-22 -25 -26 -49 -6 -35 -10 -40 -41 -46 -29 -5 -40 -2 -60 17 -14 13 -29 33
-34 45 -7 20 -15 22 -65 21 -53 -2 -57 -4 -79 -37 -36 -58 -48 -64 -88 -47
-30 12 -36 20 -42 58 -9 52 -20 75 -29 60 -3 -6 -2 -29 3 -51 9 -43 -4 -56
-27 -28 -17 20 -54 117 -72 192 l-18 70 -1 -50 c0 -27 8 -79 19 -115 11 -36
20 -68 20 -72 0 -4 -21 2 -46 12 -76 33 -96 22 -23 -11 63 -29 67 -33 73 -70
4 -25 14 -44 30 -54 22 -15 23 -21 20 -87 -3 -40 -6 -73 -8 -75 -2 -2 -30 8
-62 23 -48 22 -160 64 -170 64 -2 0 -4 -17 -6 -37 -3 -32 -7 -38 -28 -41 -14
-2 -32 -5 -40 -8 -13 -4 -13 -6 0 -14 13 -8 13 -12 -2 -27 -19 -19 -23 -17
-32 13 -9 29 19 57 49 50 17 -4 25 0 33 20 18 38 16 41 -35 64 -86 38 -441
140 -541 155 -15 2 -37 7 -49 10 -17 6 -22 3 -21 -11 0 -11 -3 -27 -7 -36 -5
-13 -3 -18 9 -18 9 0 16 8 16 20 0 15 7 20 25 20 27 0 32 -9 13 -28 -8 -8 -8
-12 -1 -12 6 0 13 -10 16 -21 5 -17 -1 -24 -24 -32 -33 -13 -38 -27 -9 -27 25
0 25 -11 0 -38 -26 -28 -40 -28 -40 1 0 34 -16 55 -32 39 -9 -9 -8 -12 6 -12
15 0 17 -6 14 -35 -3 -24 0 -35 9 -35 18 0 16 -19 -3 -27 -15 -5 -15 -7 0 -15
14 -8 14 -11 2 -24 -31 -31 -68 -13 -81 38 -6 24 -10 26 -32 17 -34 -13 -39
-5 -18 27 l17 27 -26 -5 c-14 -3 -26 -1 -26 3 0 9 7 11 60 13 23 1 29 -2 24
-16 -2 -9 1 -20 7 -24 9 -5 10 -2 6 9 -3 10 -2 17 4 17 6 0 8 9 4 19 -4 13 1
24 16 35 29 20 33 46 10 68 -14 13 -21 14 -31 5 -10 -9 -11 -9 -8 3 3 10 15
14 34 12 26 -2 27 -1 12 11 -23 18 -23 27 -1 27 11 0 14 3 7 10 -23 23 -207
32 -309 15 -25 -4 -31 -2 -31 14 0 10 5 17 11 15 6 -3 19 3 30 12 17 13 17 15
3 10 -10 -3 -18 -1 -18 4 0 6 9 10 21 10 11 0 30 5 41 11 16 9 23 8 29 -2 7
-11 9 -11 9 -1 0 7 -7 15 -15 18 -8 4 -12 10 -9 15 10 17 -7 49 -26 49 -10 0
-20 7 -24 15 -4 12 0 14 21 9 18 -5 24 -4 19 5 -4 6 -16 11 -26 11 -24 0 -37
20 -13 21 10 0 13 3 6 6 -7 2 -13 9 -13 14 0 6 5 7 11 4 11 -8 40 25 33 37 -3
4 -16 3 -30 -2 -33 -13 -54 -13 -54 0 0 6 11 10 25 10 14 0 25 3 25 6 0 11
-28 33 -34 27 -3 -4 -6 -2 -6 4 0 6 7 13 15 17 8 3 15 1 15 -4 0 -6 5 -10 11
-10 5 0 7 5 4 10 -4 6 -2 17 5 25 12 15 -3 31 -19 20 -5 -3 -12 -1 -16 5 -3 6
1 13 9 16 24 9 19 24 -8 24 -19 0 -23 4 -19 20 3 10 8 19 12 18 17 -2 31 3 31
12 0 5 -7 7 -15 4 -8 -4 -15 -1 -15 5 0 6 7 11 15 11 18 0 20 16 3 24 -10 5
-10 7 0 12 23 11 12 21 -18 18 -22 -3 -30 1 -30 12 0 11 -6 14 -22 8 -13 -3
-19 -3 -15 2 4 4 20 8 34 9 15 0 28 7 30 15 4 13 3 13 -7 0 -8 -11 -13 -12
-16 -3 -3 7 -13 9 -21 6 -12 -5 -15 -2 -10 10 5 13 0 17 -21 18 -21 1 -18 3
17 13 47 12 68 36 32 36 -12 0 -21 5 -21 10 0 6 -4 10 -10 10 -5 0 -10 -8 -10
-17 0 -14 -2 -15 -13 -4 -10 10 -8 16 11 31 21 18 32 47 12 35 -5 -3 -10 -2
-10 4 0 5 -8 12 -17 14 -15 4 -15 6 5 12 23 8 27 16 15 29 -4 4 -8 31 -8 62
-2 41 -7 58 -21 68 -11 8 -15 18 -10 23 5 4 11 2 13 -4 3 -7 11 -13 20 -13 10
0 12 -6 7 -22 -6 -21 -6 -21 11 -5 16 17 16 19 1 36 -12 13 -14 21 -7 26 12 7
14 44 5 69 -3 9 -10 14 -14 11 -4 -3 -10 2 -13 10 -4 9 -1 12 9 8 21 -8 18 44
-3 56 -16 9 -16 10 5 11 28 0 29 16 1 25 -21 7 -21 7 -1 21 11 8 26 30 32 49
6 19 16 35 21 35 5 0 9 5 9 10 0 17 -28 11 -39 -7 -13 -23 -14 -7 -1 17 6 12
17 17 28 14 14 -5 14 -3 -2 10 -11 9 -25 16 -31 16 -7 0 -20 9 -30 20 -17 19
-17 19 16 7 19 -7 37 -16 41 -22 5 -6 8 -5 8 3 0 7 -9 20 -19 29 -22 18 -19
33 7 33 26 0 49 18 36 28 -15 10 -27 62 -14 62 5 0 10 9 10 20 0 11 -5 20 -11
20 -5 0 -7 5 -4 10 3 6 -1 17 -9 26 -9 8 -16 21 -16 27 0 8 4 7 12 -1 17 -17
28 -15 28 4 0 9 -5 12 -11 8 -7 -4 -10 -1 -7 7 3 8 -2 19 -11 26 -9 6 -12 15
-8 19 4 4 15 0 24 -9 15 -15 18 -15 35 5 15 17 19 18 24 5 5 -13 9 -13 32 -1
16 8 28 10 30 4 2 -6 11 -10 20 -10 15 1 15 2 0 11 -10 5 -20 9 -23 9 -12 -1
-65 66 -65 82 0 10 -4 18 -10 18 -5 0 -10 -7 -10 -15 0 -9 -6 -12 -17 -8 -11
4 -12 8 -5 11 22 7 12 23 -10 17 -14 -4 -18 -3 -11 2 7 5 14 31 17 58 3 28 5
52 6 55 0 3 5 -2 10 -10 8 -12 10 -11 10 6 0 22 51 74 72 74 7 0 24 9 38 20
14 11 30 20 35 20 6 0 10 -28 11 -63 1 -130 96 -227 221 -227 113 0 213 113
213 242 0 17 3 19 12 10 7 -7 22 -12 34 -12 24 0 121 -75 116 -91 -1 -5 6 -9
15 -7 12 2 17 -3 15 -13 -1 -10 6 -19 18 -22 13 -3 20 0 20 10 0 8 -5 11 -12
7 -7 -4 -8 -3 -4 4 10 16 34 4 42 -21 6 -18 8 -18 15 -4 8 14 13 14 45 1 20
-8 39 -12 43 -8 3 4 0 9 -6 11 -7 3 -13 9 -13 15 0 6 -18 28 -40 49 -22 22
-40 46 -40 54 0 17 -17 20 -22 4 -2 -6 -12 -1 -22 10 -16 18 -17 21 -4 21 17
0 31 24 21 34 -4 3 -13 0 -21 -7 -13 -10 -14 -8 -8 16 3 15 2 27 -3 27 -5 0
-14 -12 -19 -27 -7 -18 -11 -22 -11 -10 -1 9 -7 17 -14 17 -7 0 -13 9 -13 21
0 17 5 19 26 14 l25 -7 -24 25 c-12 14 -20 30 -16 36 3 6 -1 11 -9 11 -9 0
-16 7 -16 15 0 9 -9 15 -25 15 -15 0 -25 6 -25 15 0 9 -6 12 -15 9 -8 -4 -21
-2 -28 4 -10 9 -48 14 -187 27 -14 1 -29 3 -35 4 -5 2 -23 2 -40 2 -16 -1 -70
-3 -120 -5 -49 -2 -107 -7 -127 -11 -26 -5 -43 -3 -53 5 -13 11 -14 10 -10 -3
7 -17 -19 -29 -75 -32 -19 -1 -36 -7 -38 -14 -2 -6 -8 -11 -14 -11 -6 0 -7 7
-4 16 3 9 2 12 -5 9 -6 -5 -9 11 -8 44 2 28 7 51 11 51 5 0 7 4 3 10 -3 5 -11
8 -18 6 -7 -1 -9 -1 -4 1 12 7 8 23 -6 23 -17 0 -42 45 -32 59 4 7 15 9 26 6
16 -5 19 -1 20 22 l1 28 8 -25 c5 -17 8 -19 9 -8 1 10 4 18 9 17 4 -1 18 2 30
6 18 6 20 10 10 16 -10 7 -9 9 5 9 9 0 17 -4 17 -9 0 -6 12 -6 30 0 17 6 30
15 30 20 0 6 9 5 20 -1 14 -8 26 -8 41 0 11 7 23 9 26 6 3 -2 16 -1 29 4 14 6
26 6 29 0 4 -6 -4 -10 -17 -10 -21 -1 -21 -2 -5 -11 10 -6 21 -8 24 -5 4 3 11
1 18 -4 8 -7 12 -5 12 5 0 8 -5 11 -10 8 -6 -4 -7 4 -3 20 5 22 3 25 -14 22
-26 -5 -26 11 -1 18 12 3 27 -4 40 -20 21 -23 49 -24 35 -1 -4 7 -2 8 4 4 7
-4 12 -13 12 -21 0 -16 27 -28 32 -13 2 6 17 -2 32 -17 28 -28 28 -28 21 -4
-4 13 -12 26 -16 27 -5 2 -9 10 -9 18 0 17 -5 17 -32 3 -17 -9 -20 -9 -15 4 3
8 2 18 -3 23 -5 5 6 9 26 9 22 0 34 -5 34 -14 0 -11 3 -11 15 -1 8 7 15 9 15
4 0 -5 7 -1 14 9 10 13 16 15 21 7 6 -9 10 -9 15 1 7 10 11 10 24 0 12 -10 16
-10 16 -2 0 7 4 10 9 6 5 -3 13 0 17 6 3 6 9 7 13 3 8 -12 73 -35 66 -24 -3 4
13 6 35 3 26 -4 40 -2 40 5 0 6 7 9 15 6 20 -8 19 -22 -2 -27 -17 -4 -17 -5 1
-12 13 -6 21 -3 28 9 7 12 13 14 28 6 13 -7 21 -7 25 0 3 5 1 10 -4 10 -6 0
-11 5 -11 10 0 7 7 7 20 0 11 -6 17 -16 14 -22 -4 -6 -3 -8 4 -4 6 3 13 2 17
-4 4 -6 11 -5 21 4 18 19 18 25 -3 50 -17 20 -17 20 0 6 15 -11 20 -11 27 0 7
11 12 10 26 -5 17 -17 17 -17 -4 -11 -26 9 -28 3 -5 -24 20 -23 53 -27 53 -5
0 17 16 20 25 5 9 -15 25 -2 18 15 -4 11 -1 13 13 8 16 -6 17 -5 4 9 -8 8 -21
15 -30 14 -10 -1 -14 7 -13 21 2 15 -5 24 -26 31 -16 6 -32 8 -35 5 -3 -4 -6
-1 -6 5 0 7 -8 12 -17 12 -10 0 -29 9 -43 20 -14 11 -35 20 -48 20 -13 0 -21
4 -18 9 3 5 -10 12 -29 15 -19 4 -35 11 -35 16 0 5 -7 7 -15 4 -8 -4 -15 -2
-15 4 0 5 -9 12 -20 15 -13 3 -20 0 -20 -10 0 -10 -6 -12 -22 -7 -54 16 -89
34 -94 49 -5 13 -10 11 -32 -10 -29 -29 -38 -31 -46 -9 -4 11 -2 15 8 11 10
-4 13 -1 10 8 -4 9 -16 12 -39 8 -43 -7 -52 10 -18 37 25 20 26 22 6 16 -24
-8 -33 9 -10 17 8 3 7 9 -6 19 -18 13 -17 15 10 28 15 7 34 12 42 11 7 -1 10
2 6 8 -3 7 3 11 16 11 16 0 20 -5 16 -20 -3 -11 -1 -20 4 -20 5 0 9 7 9 16 0
11 6 14 20 9 14 -5 28 3 52 29 37 40 63 48 53 16 -4 -12 -2 -20 5 -20 13 0 35
20 41 38 3 9 10 8 27 -4 16 -11 21 -22 17 -35 -6 -18 -5 -19 14 -8 15 10 17
16 9 26 -8 10 -6 13 5 13 8 0 18 -6 20 -12 4 -10 8 -9 16 2 10 13 13 12 26 -4
12 -16 15 -17 15 -4 0 19 20 28 60 28 16 0 32 5 35 11 4 6 10 8 13 5 3 -3 -3
-16 -14 -27z m-521 -926 c10 -6 0 -52 -16 -72 -8 -9 -25 -12 -54 -8 -24 2 -43
3 -43 1 0 -12 25 -54 32 -54 4 0 8 -6 8 -13 0 -31 90 -48 132 -26 11 6 27 27
36 47 l17 37 30 -27 c24 -23 26 -28 11 -28 -13 0 -17 -5 -13 -20 3 -11 2 -20
-2 -20 -3 0 -11 -10 -16 -22 -6 -13 -19 -23 -30 -23 -11 0 -26 -6 -33 -12 -7
-7 -24 -13 -36 -13 -13 0 -29 -7 -36 -15 -7 -8 -19 -15 -27 -15 -9 0 -13 6 -9
15 4 11 -1 15 -18 15 -29 0 -39 10 -25 27 9 10 5 13 -20 13 -25 0 -31 4 -31
21 0 11 4 17 10 14 7 -4 7 3 0 20 -6 15 -8 30 -5 35 3 5 0 12 -6 16 -19 11 -1
62 32 95 27 27 36 30 68 24 20 -4 40 -9 44 -12z m2242 -33 c21 -23 14 -64 -13
-79 -14 -7 -17 -18 -14 -40 3 -24 13 -35 48 -52 39 -19 49 -20 77 -9 18 7 37
18 42 24 19 21 49 42 41 28 -4 -7 -9 -25 -11 -40 -1 -14 -7 -28 -13 -30 -6 -2
-20 -12 -33 -23 -24 -20 -34 -25 -25 -10 3 5 -2 12 -11 16 -10 3 -19 1 -21 -4
-2 -6 -12 -11 -22 -11 -10 0 -21 -4 -24 -9 -4 -5 -21 -5 -42 2 -31 10 -35 14
-32 38 3 16 1 26 -4 23 -4 -3 -8 9 -8 25 0 17 -4 31 -10 31 -12 0 -14 26 -2
33 4 2 1 2 -5 1 -7 -2 -13 3 -13 10 0 8 -3 21 -6 30 -7 19 38 66 64 66 10 0
27 -9 37 -20z m-148 -57 c-2 -21 0 -57 6 -81 14 -51 73 -132 111 -150 15 -8
30 -20 33 -28 4 -10 16 -12 47 -8 38 5 40 4 22 -10 -11 -9 -32 -17 -48 -18
-15 -1 -43 -2 -60 -4 -18 -1 -43 4 -55 12 -14 9 -24 10 -28 4 -4 -6 -11 -7
-17 -4 -6 4 -8 -1 -3 -15 5 -18 2 -21 -20 -21 -14 0 -24 4 -20 9 3 5 2 12 -3
15 -4 2 -13 -4 -20 -15 -11 -17 -9 -19 11 -19 12 0 37 -13 55 -30 18 -16 37
-30 43 -30 5 0 9 -5 9 -10 0 -6 11 -8 28 -4 24 7 26 5 14 -9 -11 -12 -11 -20
-2 -38 10 -17 14 -19 21 -8 7 12 9 12 9 0 0 -8 6 -11 16 -7 8 3 13 2 10 -3 -3
-5 4 -11 15 -14 16 -4 20 -11 16 -26 -7 -28 9 -27 18 2 7 20 8 19 12 -10 2
-17 11 -34 20 -37 13 -5 14 -4 3 9 -7 9 -10 19 -6 22 4 4 11 1 16 -7 8 -12 10
-11 10 5 0 12 3 16 8 9 4 -6 16 -14 27 -18 15 -6 17 -9 6 -16 -10 -5 -6 -8 12
-7 28 2 35 12 15 20 -8 4 -7 6 4 6 9 1 19 -5 21 -11 4 -10 7 -10 15 0 6 9 11
7 19 -11 9 -19 18 -24 40 -21 25 2 26 1 11 -10 -21 -15 -24 -36 -5 -36 6 0 4
-5 -6 -11 -10 -6 -22 -21 -27 -35 -8 -19 -4 -29 19 -55 20 -21 30 -27 33 -17
3 7 5 -1 5 -18 0 -30 -1 -30 -19 -12 -22 22 -58 24 -58 3 0 -8 -4 -15 -10 -15
-18 0 -11 -39 9 -49 23 -13 35 -3 20 16 -9 10 -7 13 7 14 11 0 14 3 7 6 -17 6
-16 23 1 23 7 0 16 -11 18 -25 3 -14 2 -25 -1 -25 -3 0 -14 -14 -23 -30 -17
-30 -12 -40 10 -18 6 6 15 9 19 5 3 -4 -2 -13 -12 -21 -11 -8 -16 -20 -12 -30
4 -10 1 -16 -8 -16 -8 0 -15 -4 -15 -10 0 -5 5 -10 11 -10 5 0 8 -4 5 -8 -3
-5 6 -15 19 -22 13 -7 22 -17 19 -22 -8 -12 33 -51 45 -43 5 3 12 1 15 -4 7
-11 -36 -23 -44 -12 -8 13 -40 9 -40 -6 0 -7 -7 -13 -15 -13 -9 0 -21 -11 -27
-25 -12 -26 -34 -36 -25 -11 3 8 0 17 -8 20 -10 4 -11 -2 -5 -24 6 -20 5 -31
-3 -34 -8 -3 -4 -11 11 -22 21 -16 22 -18 6 -35 -15 -17 -15 -19 -1 -19 9 0
18 -9 22 -20 6 -20 6 -20 28 0 23 22 37 26 37 9 0 -5 -4 -7 -10 -4 -9 6 -14
-8 -11 -28 1 -5 -3 -6 -9 -2 -5 3 -17 2 -25 -2 -13 -8 -13 -12 0 -37 15 -29
12 -46 -8 -46 -7 0 -6 4 3 10 12 8 9 10 -13 10 -26 0 -28 -2 -22 -34 5 -22 3
-36 -6 -41 -7 -5 -10 -4 -6 2 13 20 -4 69 -23 70 -13 1 -17 -3 -13 -13 3 -8 9
-14 13 -14 4 0 8 -11 8 -25 0 -14 -4 -25 -8 -25 -5 0 -6 -10 -3 -22 5 -22 5
-22 -9 -4 -10 13 -21 16 -37 11 -22 -7 -21 -20 1 -20 6 0 13 -7 15 -15 3 -9 1
-11 -4 -5 -12 14 -85 17 -103 4 -11 -8 -12 -12 -2 -16 6 -2 12 -12 12 -20 0
-9 6 -13 15 -9 9 3 15 0 15 -8 0 -16 -33 -27 -49 -16 -7 3 -9 14 -5 23 5 13 2
16 -10 11 -11 -4 -19 1 -25 17 -9 21 -16 11 -12 -14 1 -5 -4 -5 -10 -2 -6 4
-9 20 -5 36 7 34 -4 38 -22 8 -7 -12 -16 -18 -19 -15 -3 3 0 12 7 21 10 12 10
15 0 15 -7 0 -19 -8 -26 -17 -7 -10 -13 -13 -14 -8 0 6 14 25 31 43 16 17 29
32 27 33 -39 11 -75 -1 -63 -21 6 -9 9 -9 16 1 4 7 11 10 16 6 10 -10 -18 -28
-34 -22 -7 2 -15 -1 -19 -7 -5 -7 -2 -8 7 -3 10 6 11 5 3 -4 -7 -8 -25 -9 -52
-5 -51 8 -56 22 -7 18 24 -1 35 2 35 11 0 15 -31 15 -42 0 -4 -5 -8 5 -8 24 0
29 -2 32 -15 21 -11 -9 -15 -9 -15 -1 0 21 32 25 46 6 11 -15 17 -16 26 -7 9
9 8 12 -6 12 -10 0 -14 5 -11 11 4 6 13 8 21 5 8 -3 11 0 7 10 -6 16 -19 18
-28 4 -4 -6 -10 -8 -15 -5 -10 6 -7 45 5 64 6 11 2 12 -18 7 -21 -5 -29 -1
-46 23 -11 15 -18 31 -14 35 3 3 1 6 -5 6 -7 0 -12 -7 -12 -16 0 -8 -5 -12
-11 -9 -7 5 -5 13 5 24 21 23 20 31 -3 31 -10 0 -21 7 -25 15 -3 10 1 15 14
15 26 0 35 17 18 37 -7 9 -8 14 -2 10 7 -4 17 0 23 7 14 16 -2 32 -20 20 -8
-5 -10 1 -7 20 4 18 0 31 -11 39 -16 11 -20 27 -22 85 -1 18 -4 20 -14 12 -9
-8 -15 -8 -20 0 -3 5 -15 10 -26 10 -19 0 -19 1 -4 16 9 10 12 20 8 23 -20 13
-22 41 -3 54 13 9 16 17 9 27 -6 10 -9 11 -9 3 0 -7 -4 -13 -9 -13 -11 0 7 78
23 100 6 8 -1 5 -15 -7 -14 -13 -29 -23 -34 -23 -5 0 0 6 11 14 10 8 15 18 11
22 -4 5 -12 2 -17 -6 -6 -9 -10 -10 -10 -3 0 14 19 27 39 28 8 0 16 5 18 11 4
13 -39 13 -50 -1 -5 -6 -6 2 -3 17 3 15 2 30 -4 33 -5 3 -10 -2 -11 -12 -1
-10 -5 -2 -9 17 -7 27 -5 37 6 43 25 14 33 48 16 68 -9 10 -20 15 -25 12 -6
-4 -7 4 -3 20 9 37 -1 56 -27 50 -18 -4 -19 -3 -7 6 20 14 22 51 2 51 -11 0
-13 7 -8 32 8 39 7 38 41 42 15 2 31 9 36 17 7 11 9 11 9 -3 0 -10 5 -18 10
-18 6 0 10 5 10 11 0 7 10 9 25 5 16 -4 25 -2 25 5 0 6 6 9 14 6 21 -8 65 31
59 54 -3 10 -8 19 -12 19 -11 0 -43 79 -36 89 3 6 12 8 20 4 8 -3 15 0 15 7 0
16 87 100 105 100 8 0 15 5 15 10 0 6 5 10 11 10 7 0 9 -14 6 -37z m247 -1929
c12 -4 13 -11 6 -24 -5 -9 -7 -20 -3 -23 3 -4 1 -12 -4 -19 -15 -19 -7 -51 16
-67 22 -14 30 -48 9 -35 -10 6 -10 4 0 -8 10 -13 10 -19 -2 -31 -14 -13 -14
-16 1 -29 15 -11 16 -11 10 5 -3 9 -2 17 4 17 5 0 12 -6 15 -13 7 -18 -13 -67
-26 -67 -6 0 -8 5 -5 10 8 12 -3 50 -14 50 -4 0 -8 -14 -9 -31 -1 -37 -3 -41
-22 -29 -12 7 -12 11 0 25 12 14 12 18 -1 26 -10 6 -10 9 -1 9 18 0 15 20 -5
27 -10 3 -26 15 -35 27 -18 22 -24 41 -10 32 4 -2 14 -1 22 4 12 7 8 12 -17
21 -25 8 -33 17 -33 34 0 13 6 26 13 28 9 4 9 7 -1 15 -7 5 -10 16 -6 25 7 18
24 23 24 7 0 -5 6 -10 14 -10 8 0 16 -3 19 -7 2 -5 2 -2 0 5 -6 27 10 38 41
26z m-1141 -178 c61 -27 98 -76 90 -120 -3 -14 2 -41 11 -60 20 -43 21 -94 1
-116 -9 -9 -20 -44 -26 -76 -7 -32 -15 -68 -20 -79 -4 -11 -9 -29 -11 -40 -2
-15 -12 -21 -43 -23 -74 -6 -121 6 -135 36 l-14 27 -4 -25 c-5 -35 -22 -50
-22 -20 0 22 -1 22 -13 6 -17 -23 -60 -18 -65 8 -6 31 9 127 19 121 5 -4 9
-22 9 -41 0 -38 12 -43 37 -15 9 11 20 18 25 15 13 -8 10 2 -12 39 -12 19 -30
37 -41 40 -18 5 -19 11 -13 89 7 82 15 112 52 175 51 88 85 99 175 59z m238
-239 c-17 -17 -13 -27 12 -27 42 0 50 -13 33 -53 -12 -30 -12 -38 -1 -47 22
-19 278 -38 515 -40 40 0 51 -3 40 -10 -12 -8 -12 -12 -2 -18 7 -5 12 -13 10
-18 -1 -5 3 -19 10 -32 12 -21 11 -23 -18 -29 -22 -4 -28 -9 -21 -16 19 -19
12 -27 -21 -27 -25 0 -29 -3 -20 -12 24 -24 14 -38 -19 -26 -33 11 -49 4 -31
-14 7 -7 12 -16 12 -21 0 -10 -43 -5 -72 7 -13 6 -15 3 -11 -13 7 -27 -11 -27
-57 -2 l-35 19 -11 -32 c-8 -21 -17 -30 -30 -29 -10 1 -24 -7 -32 -18 -7 -10
-22 -19 -32 -19 -18 0 -44 -32 -45 -55 0 -5 -25 -11 -56 -13 l-56 -3 -45 55
c-39 47 -49 69 -68 148 -12 51 -29 100 -38 108 -8 8 -12 9 -8 3 13 -23 -3 -33
-30 -21 -20 10 -27 9 -34 -2 -7 -12 -10 -11 -16 5 -5 11 -3 20 4 23 7 2 12 12
12 23 0 20 15 26 25 9 8 -13 28 -1 22 14 -19 50 -18 56 7 66 24 9 46 57 46
102 0 9 12 21 28 26 31 11 49 5 33 -11z m-551 -14 c0 -13 3 -13 15 -3 13 11
15 7 15 -25 0 -21 6 -46 14 -54 15 -18 15 -24 -28 -219 -17 -80 -30 -119 -45
-133 -11 -11 -28 -34 -37 -52 -25 -49 -53 -67 -106 -67 -42 0 -48 3 -48 20 0
31 -29 70 -52 70 -12 0 -22 9 -25 20 -4 14 -11 19 -23 15 -20 -6 -63 32 -54
47 7 12 -10 10 -23 -3 -6 -6 -25 -13 -43 -15 -28 -5 -31 -3 -25 14 5 17 2 19
-15 15 -11 -3 -23 -9 -26 -14 -8 -14 -44 -11 -44 4 0 7 6 19 13 26 10 10 5 11
-25 6 -41 -8 -44 -5 -28 25 10 18 8 19 -20 14 -33 -7 -36 -3 -19 28 10 18 9
20 -9 16 -11 -3 -26 -1 -33 3 -11 8 -7 15 16 34 17 14 35 25 42 25 6 0 15 5
19 12 5 8 0 9 -14 6 -12 -4 -22 -3 -22 2 0 4 55 10 123 14 254 14 407 35 407
56 0 6 -5 10 -10 10 -7 0 -7 6 0 19 5 11 7 26 4 34 -6 18 5 26 38 29 19 2 24
7 20 24 -3 19 0 21 22 17 14 -3 26 -12 26 -20z m-1050 -215 c0 6 5 12 11 12 6
0 8 -9 4 -22 -6 -17 -4 -20 9 -15 10 4 15 3 12 -2 -9 -14 23 -22 43 -11 14 7
23 4 36 -10 10 -11 26 -20 37 -20 14 0 18 -8 18 -32 0 -18 10 -44 21 -58 l20
-25 -16 32 c-13 28 -14 37 -2 65 20 47 36 58 77 49 l34 -7 -34 -14 c-19 -7
-43 -19 -54 -26 -16 -11 -13 -12 20 -9 22 1 31 1 21 -2 -15 -4 -17 -10 -12
-30 4 -17 0 -32 -11 -44 -17 -19 -13 -49 7 -49 8 0 8 5 -2 16 -10 13 -10 17 2
25 21 13 46 11 53 -6 8 -22 -3 -45 -19 -39 -8 3 1 -10 18 -29 18 -19 34 -33
36 -31 2 2 -4 13 -15 25 -18 20 -18 21 1 35 16 12 21 12 34 -1 12 -11 12 -19
3 -40 -17 -37 -15 -42 19 -49 21 -4 29 -11 26 -19 -3 -8 3 -21 14 -31 21 -18
33 -21 25 -7 -4 5 3 7 14 4 11 -3 23 -9 26 -14 3 -5 11 -9 17 -9 7 0 6 4 -3
10 -9 6 -10 10 -3 10 6 0 19 -8 29 -17 11 -12 31 -17 61 -15 27 1 42 -2 38 -8
-9 -14 8 -13 23 2 7 7 15 8 24 1 7 -5 27 -8 45 -6 21 2 33 -2 37 -13 4 -12 10
-13 26 -4 17 9 28 7 55 -10 31 -19 36 -20 41 -6 8 20 24 21 24 2 0 -9 10 -13
25 -12 14 0 25 4 25 9 0 4 5 7 11 7 6 0 9 -7 5 -15 -6 -18 5 -20 22 -3 23 23
-7 -131 -39 -196 -21 -44 -24 -60 -9 -51 26 16 58 86 69 149 13 75 26 106 43
106 7 0 7 -4 -1 -13 -13 -17 -5 -28 16 -20 11 4 14 0 12 -18 -2 -13 9 -49 23
-79 14 -30 46 -98 71 -151 25 -53 50 -100 56 -103 14 -9 14 -26 1 -26 -5 0
-10 8 -10 17 0 15 -2 14 -15 -3 -8 -10 -15 -14 -15 -7 0 6 -9 11 -20 10 -14
-1 -20 -8 -20 -25 l0 -23 -27 19 c-19 13 -34 17 -48 11 -11 -4 -14 -8 -6 -8
11 -1 10 -5 -3 -20 -10 -11 -15 -24 -12 -30 4 -5 2 -12 -4 -16 -5 -3 -10 1
-10 9 0 9 -7 16 -15 16 -8 0 -15 7 -15 15 0 17 -25 20 -35 5 -3 -5 1 -10 10
-10 9 0 13 -5 10 -10 -3 -5 -17 -10 -31 -10 -13 0 -24 -4 -24 -9 0 -11 -49 -9
-68 2 -8 6 -12 2 -13 -10 0 -16 -1 -16 -9 2 -5 11 -9 16 -10 10 0 -5 -7 -1
-15 9 -8 11 -15 14 -15 8 0 -7 -11 -12 -25 -12 -14 0 -25 -5 -25 -12 0 -6 -7
-3 -15 8 -8 10 -15 29 -15 42 0 12 -4 22 -10 22 -5 0 -10 -10 -10 -22 0 -13
-7 -32 -15 -42 -14 -19 -15 -19 -15 6 0 15 6 29 13 31 6 3 3 6 -8 6 -17 1 -17
3 -5 11 13 8 12 11 -5 24 -18 13 -20 13 -23 -5 -2 -10 -7 -19 -12 -19 -5 0 -6
7 -3 17 5 11 3 14 -6 8 -8 -4 -17 -2 -22 6 -6 9 -7 4 -3 -16 4 -16 11 -36 17
-42 7 -9 5 -13 -7 -13 -9 0 -16 7 -16 16 0 11 -6 14 -20 9 -11 -4 -20 -2 -20
4 0 6 -5 11 -11 11 -5 0 -7 -4 -4 -10 4 -6 -5 -10 -19 -10 -14 0 -26 4 -26 9
0 4 -11 6 -25 3 -30 -5 -30 -6 -3 -44 21 -30 21 -30 0 -19 -11 6 -24 20 -27
32 -5 16 -9 18 -21 8 -8 -6 -18 -9 -21 -5 -4 4 -1 11 6 15 8 5 10 14 6 21 -6
9 -3 9 14 1 20 -11 22 -9 21 17 -1 12 -44 1 -53 -14 -5 -8 -13 -12 -19 -8 -7
4 -6 9 2 14 8 5 7 9 -5 13 -9 4 -18 1 -21 -8 -8 -21 -19 -19 -21 5 -1 11 6 22
17 25 16 5 17 9 8 19 -17 18 -48 9 -41 -11 4 -11 2 -14 -8 -11 -8 3 -13 11
-11 18 1 6 -3 10 -9 8 -7 -2 -13 -14 -14 -26 -2 -29 -15 -41 -15 -14 0 12 -3
21 -7 21 -23 -4 -35 3 -30 15 3 8 -1 17 -9 20 -8 3 -14 -1 -14 -9 0 -8 -2 -15
-4 -15 -2 0 -11 -3 -19 -6 -11 -4 -17 2 -19 18 -2 13 -9 22 -16 20 -6 -1 -12
8 -12 20 0 19 -2 20 -10 8 -8 -12 -10 -9 -10 11 0 15 -7 30 -16 33 -8 3 -12
10 -9 16 3 5 1 11 -4 11 -6 1 -17 2 -23 3 -7 0 -14 14 -16 30 -3 21 0 26 10
20 11 -6 11 -5 0 9 -8 9 -12 26 -9 39 4 20 4 19 6 -5 0 -16 5 -26 11 -22 6 4
10 -5 10 -20 0 -15 -4 -24 -10 -20 -5 3 -10 -1 -10 -11 0 -13 3 -14 14 -5 8 7
17 8 20 3 3 -5 17 -7 31 -4 29 5 26 14 -7 19 -28 4 -32 9 -23 23 6 9 10 9 17
-1 8 -11 9 -11 5 1 -2 8 -10 14 -17 12 -7 -2 -9 5 -5 20 5 18 4 20 -4 8 -6 -8
-11 -12 -11 -8 0 3 -3 14 -7 24 -4 12 -3 15 5 10 7 -4 12 -1 12 10 0 11 6 15
20 11 11 -3 18 -1 14 4 -3 5 -13 9 -22 9 -12 0 -13 3 -5 11 6 6 23 12 37 12
26 0 37 13 14 15 -7 0 -23 4 -35 7 -16 5 -23 2 -28 -14 -3 -12 -10 -21 -15
-21 -16 0 -22 20 -11 34 11 14 5 26 -13 26 -7 0 -13 -11 -14 -25 -1 -17 6 -28
25 -38 17 -10 22 -16 14 -22 -7 -4 -20 0 -29 8 -9 7 -25 17 -34 20 -10 4 -18
13 -18 21 0 9 6 13 14 10 17 -6 31 12 16 21 -16 10 -12 28 5 21 8 -3 14 0 12
7 -1 7 6 11 15 11 24 -2 12 21 -18 35 -31 14 -47 14 -39 1 3 -5 -6 -21 -21
-35 -31 -29 -36 -31 -28 -10 4 8 11 15 16 15 6 0 8 7 4 15 -3 8 0 15 7 15 7 0
4 5 -6 11 -11 6 -30 9 -43 6 -19 -3 -24 0 -24 17 0 16 2 18 9 7 5 -8 16 -11
25 -8 18 7 22 27 5 27 -6 0 -18 8 -27 17 -16 16 -16 16 0 11 9 -4 18 -2 21 5
2 6 20 12 40 13 29 2 37 -1 37 -14 0 -15 2 -15 11 -2 8 11 12 12 16 3 8 -21
25 -15 18 6 -5 16 -2 19 17 15 21 -4 21 -4 3 4 -11 5 -21 14 -21 21 -1 6 -2
18 -3 26 0 8 -5 15 -11 15 -5 0 -7 -16 -5 -35 5 -33 -8 -49 -18 -22 -3 9 -8 8
-22 -3 -17 -14 -18 -13 -12 3 4 11 3 16 -3 12 -6 -3 -10 -1 -10 4 0 6 -6 11
-14 11 -16 0 -32 37 -21 48 4 4 12 -1 19 -11 18 -24 23 -21 22 13 -1 17 -7 30
-13 30 -7 0 -13 4 -13 10 0 5 7 7 16 3 19 -7 39 18 22 28 -12 8 3 42 18 39 5
-1 10 3 12 9 2 6 -1 11 -7 11 -6 0 -11 15 -11 33 0 24 3 28 10 17 6 -10 10
-11 10 -2z"/>
<path d="M2442 3325 c-26 -14 -38 -29 -43 -52 -3 -18 -3 -30 2 -28 4 3 10 1
14 -5 3 -5 2 -10 -4 -10 -6 0 -8 -7 -5 -15 4 -8 12 -15 20 -15 19 0 18 -10 -3
-26 -11 -8 -13 -13 -6 -14 17 0 74 35 68 42 -3 3 5 4 17 4 29 -3 76 23 90 47
6 12 17 17 28 14 32 -8 43 17 17 40 -45 42 -137 51 -195 18z"/>
<path d="M2872 2328 l3 -61 -83 -1 -82 -1 2 -30 c1 -17 -2 -36 -6 -44 -15 -23
22 -50 62 -45 73 10 78 13 97 56 20 44 29 188 12 188 -5 0 -7 -28 -5 -62z"/>
<path d="M3492 2162 c-12 -2 -28 -12 -35 -23 -6 -10 -15 -19 -20 -19 -4 0 -35
-13 -69 -30 -33 -16 -64 -28 -68 -25 -12 7 -50 -44 -50 -66 0 -10 -11 -26 -25
-35 -14 -9 -25 -23 -25 -31 0 -12 -8 -14 -36 -10 -35 6 -36 6 -19 -13 14 -15
27 -18 58 -14 52 6 53 7 60 51 10 57 32 83 71 83 19 0 39 7 47 16 7 8 21 13
31 11 11 -3 18 0 18 8 0 14 27 28 39 21 4 -3 13 10 21 27 7 18 18 35 24 39 15
10 5 14 -22 10z"/>
<path d="M2034 2168 c-4 -6 -2 -14 4 -16 7 -2 12 -12 12 -23 0 -10 5 -19 10
-19 6 0 10 -6 10 -14 0 -8 13 -17 29 -21 19 -4 28 -11 25 -19 -4 -10 2 -12 21
-8 17 3 30 0 36 -9 4 -8 16 -14 26 -15 10 -1 30 -2 45 -3 20 -1 29 -9 39 -33
7 -18 12 -42 11 -52 -3 -29 34 -59 64 -52 27 7 32 24 10 32 -8 3 -12 12 -10
19 3 8 -4 16 -16 20 -14 4 -30 25 -42 56 -17 40 -25 49 -45 49 -14 0 -37 6
-51 13 -15 8 -49 25 -77 38 -27 13 -50 30 -50 37 0 12 -22 32 -37 32 -4 0 -10
-5 -14 -12z"/>
</g>
</svg>
