<?xml version="1.0" standalone="no"?>
<!DOCTYPE svg PUBLIC "-//W3C//DTD SVG 20010904//EN"
 "http://www.w3.org/TR/2001/REC-SVG-20010904/DTD/svg10.dtd">
<svg version="1.0" xmlns="http://www.w3.org/2000/svg"
 width="500.000000pt" height="500.000000pt" viewBox="0 0 500.000000 500.000000"
 preserveAspectRatio="xMidYMid meet">
<metadata>
Created by potrace 1.16, written by Peter Selinger 2001-2019
</metadata>
<g transform="translate(0.000000,500.000000) scale(0.100000,-0.100000)"
fill="#000000" stroke="none">
<path d="M2300 4994 c-499 -41 -958 -224 -1365 -542 -104 -82 -340 -324 -422
-433 -202 -269 -371 -619 -438 -904 -31 -136 -35 -153 -50 -251 -21 -138 -30
-424 -16 -574 38 -441 178 -838 419 -1190 105 -154 167 -227 316 -375 150
-150 193 -185 351 -293 319 -218 662 -350 1075 -414 114 -17 546 -17 660 0
439 69 791 209 1131 453 151 108 272 216 400 359 350 391 558 852 626 1395 5
33 8 166 7 295 -1 192 -5 259 -23 365 -93 552 -322 998 -711 1385 -204 204
-360 318 -615 451 -245 127 -504 212 -780 255 -95 14 -465 26 -565 18z m336
-989 c135 -23 259 -72 367 -145 77 -52 200 -181 251 -263 95 -153 135 -293
134 -477 0 -239 -87 -448 -258 -620 -108 -109 -218 -177 -362 -224 -476 -154
-990 126 -1128 616 -28 96 -37 272 -20 375 28 178 120 355 250 484 145 143
289 218 485 253 106 19 174 19 281 1z m109 -2059 c263 -41 474 -123 695 -270
41 -27 77 -52 80 -55 3 -3 23 -19 45 -36 51 -37 188 -173 247 -245 99 -120
248 -371 248 -417 0 -38 -232 -225 -420 -338 -246 -148 -501 -240 -810 -292
-148 -24 -513 -24 -660 0 -343 58 -620 164 -886 339 -166 110 -344 259 -344
287 0 23 54 132 113 230 88 146 254 339 366 424 31 23 58 45 61 48 3 3 39 28
80 56 207 138 408 219 655 262 136 24 398 27 530 7z"/>
</g>
</svg>
